<?xml version="1.0" encoding="utf-8"?>
<!-- Generator: Adobe Illustrator 27.1.1, SVG Export Plug-In . SVG Version: 6.00 Build 0)  -->
<svg version="1.1" id="Revenant" xmlns="http://www.w3.org/2000/svg" xmlns:xlink="http://www.w3.org/1999/xlink" x="0px" y="0px"
	 viewBox="0 0 572.2 517.7" style="enable-background:new 0 0 572.2 517.7;" xml:space="preserve">
<style type="text/css">
	.st0{fill:#FFFFFF;}
</style>
<g id="rfull_00000065756621132976939600000006091601092881588362_">
	<path d="M452.9,253c0.5-0.1,1-0.3,1.6-0.4c1.2-0.2,2.2-1,2.8-2l30.8-50.7l84.1-175.1l-102,89l1.8-37l22.2-76.6l-58.4,65.4
		L415.3,6.9l4.1,68.1l-20.2-30.8l20.5,65.3l-11.5-13l10.8,41.1c1.1,4,1.3,8.1,0.6,12.2l-0.5,3.3c-0.9,5.6-4.7,10.4-10,12.5l-3.7,1.5
		c-6.4,2.6-13.9-1.2-15.1-8.1c0-0.3-0.1-0.6-0.1-0.9c-0.3-3.4,1.3-6.7,4.1-8.5l3.9-2.5l-4.1-8L346.5,158c0.2-3,1.4-5.7,3.3-7.9
		c1.9-2.1,4.4-3.7,7.3-4.3c6.9-1.6,11.6-7.7,11.4-14.7l-0.8-24.7c0-1.2,0.4-2.3,1-3.2c0.6-1,1.5-1.7,2.5-2.2V67l-8.7,6.4l1.6-15.1
		L325,81.8c-0.9,0.6-1.5,1.6-1.5,2.7l-17.1,7.6c-1.4,0.6-2.4,1.9-2.6,3.4c-0.9,5.7-3.5,19.5-6.3,28.5c-0.4,1.4-1.1,2.8-2,3.9
		c-0.9,1.2-2,2.1-3.3,2.9c-1.9,1.1-4,1.7-6.1,1.7s-4.2-0.6-6.2-1.7c-2.5-1.5-4.4-4-5.3-6.8c-1.4-4.5-2.8-10.2-3.9-15.5
		c-1.1-5.3-2-10.2-2.4-13c-0.2-1.5-1.2-2.8-2.6-3.4l-17.1-7.6c0-1.1-0.6-2.1-1.5-2.7L208,58.4l1.6,14.9l-8.7-6.4v34
		c2.1,0.9,3.5,3.1,3.4,5.4l-0.8,24.8c0,0.1,0,0.3,0,0.4c0,6.8,4.8,12.7,11.4,14.3c2.9,0.6,5.4,2.2,7.3,4.4c1.9,2.1,3.1,4.9,3.3,7.8
		l-47.6-18.9l-4.1,8l3.9,2.5c2.7,1.7,4.1,4.6,4.1,7.6c0,0.3,0,0.6,0,0.9c0,0.3,0,0.6-0.1,0.9c-1.2,6.9-8.6,10.7-15.1,8.1l-3.7-1.5
		c-5.3-2.1-9.1-6.9-10-12.5l-0.6-3.3c-0.6-4-0.5-8.2,0.6-12.2l10.8-41.1l-11.5,13l20.5-65.3L152.5,75l4.1-68.1L136,65.5L78,0.2
		l22.3,76.6l1.8,37L0,24.8l83.8,174.6l31,51.1c0.6,1,1.6,1.7,2.8,2c0.5,0.1,0.9,0.2,1.3,0.4c0,6.6,0.4,12.4,1.5,16.3
		c3.9,14.4,12.8,31.6,12.8,31.6s0,1-3.2,4.5c-2.5,2.9-9,8.5-13.1,12c-2.3,2-3.9,4.6-4.6,7.5l-2.3,1.1c-2.4,1.2-4.5,2.7-6.3,4.6
		l-6.1,6.4l-4.7,1.4c0,0-10.6,20.2,4,61.3c17,43.6,29.8,43.6,41,43.4c9.3-0.2,15.7-4.2,15.7-4.2l6.2,5.8c4.4,3,11.2,5.6,16.5,6
		c10.3,0.9,26.6-0.5,32.2-11.7c0,0,0.9-1.4,1.2-3c1.1-4.9,4.6-8,9.2-10l-0.2,10.2l28.6-4.7l0.2,11.5c0,4.1-1.1,8.1-2.9,11.9
		c-0.9,1.8-1.6,4.4-1.7,8c-0.1,5.3,3.7,17.7,6.9,27c1.3,3.8,2.4,7.1,3.2,9.2c0.5,1.5,2,2.5,3.6,2.5c2.6,0,5.1,1.3,6.4,3.6
		c2.8,4.6,10.4,12.2,23,12.5c12.6-0.2,20.3-7.8,23-12.5c1.3-2.2,3.8-3.6,6.4-3.6c1.6,0,3.1-1,3.6-2.5c0.7-2.2,1.9-5.4,3.2-9.2
		c3.2-9.3,7-21.7,6.9-27c-0.1-3.6-0.8-6.2-1.7-8c-1.8-3.7-3-7.8-3-11.9l0.2-11.5l28.6,4.7l-0.2-10.2c4.6,2,8.2,5.1,9.2,10
		c0.3,1.5,1.2,3,1.2,3c5.6,11.2,22,12.5,32.2,11.7c5.2-0.5,12.1-3.1,16.5-6l6.2-5.8c0,0,6.4,4,15.7,4.2c11.1,0.2,24,0.2,41-43.4
		c14.6-41.1,3.9-61.3,3.8-61.3l-4.6-1.4l-6.1-6.4c-1.8-1.9-3.9-3.5-6.3-4.6l-2.3-1.1c-0.7-2.9-2.3-5.5-4.6-7.5
		c-4-3.5-10.5-9.1-13.1-12c-3.1-3.4-3.2-4.4-3.2-4.5c0,0,8.9-17.2,12.8-31.6C452.5,265.3,452.9,259.5,452.9,253z"/>
	<g>
		<g>
			<path class="st0" d="M237.3,94.8L237.3,94.8l11.8,35.5l36.9,22.1l36.9-22.1l11.7-35.5l22.7-16.3l1.3-12.3l-30.7,18.5v7.7
				c0,0-4.3,18.7-20.3,32.5c0,0-5.1-4,12.8-30.7l-0.3-4l-12,5.3c0,0-4.3,26.1-8.8,35.5l-13.4,8l-13.4-8c-4.5-9.3-8.8-35.5-8.8-35.5
				l-12-5.3l-0.3,4c17.9,26.7,12.8,30.7,12.8,30.7c-16-13.9-20.3-32.5-20.3-32.5v-7.7l-30.7-18.4l1.3,12.3L237.3,94.8z"/>
			<path class="st0" d="M236.8,124.4l-15.7-24.5l-15.7-10.1v7.7l9.9,4.3l10.7,12.5v6.9l-17.1-16l-0.8,26.4c-0.1,4.3,2.8,8.1,7,9.1
				l13.8,3.1l1.1,12.8l4.8,7.5h15l2.1,9.9l25.3,44.3l5.3,5.1l-4.8,7.2l8.4,18.9l8.3-18.9l-4.8-7.2l5.3-5.1l25.3-44.3l2.1-9.9h15
				l4.8-7.5l1.1-12.8l13.8-3.1c4.2-1,7.2-4.8,7-9.1l-0.8-26.4l-17.1,16v-6.9l10.7-12.5l9.9-4.3v-7.7l-15.8,10.1l-15.7,24.5
				l12.5-30.9l18.9-9.3v-8.8L337.3,97l-12.8,36.3l6.4,1.3l-10.7,11.7L286,221.8l-34.2-75.5l-10.7-11.7l6.4-1.3L234.7,97l-29.3-21.6
				v8.8l18.9,9.3L236.8,124.4z"/>
			<path class="st0" d="M294.6,241v15.4c0,0-1.1,1.6-2.5,3.6c-2-0.4-4.1-0.6-6.2-0.6h-0.1c-2,0-4,0.2-5.9,0.6
				c-1.4-2-2.5-3.5-2.5-3.5V241l8.6,17.4L294.6,241z"/>
			<path class="st0" d="M274.6,257l2.2,3.6c-3.9,1-7.6,2.6-11,4.8l-1.3-0.4c-1.1-0.3-2.1-1-2.9-1.9l-7.4-8.7l5-3.4L274.6,257z"/>
			<path class="st0" d="M317.6,254.4l-7.4,8.7c-0.7,0.9-1.8,1.5-2.9,1.9l-1.4,0.4c-3.4-2.1-7.1-3.8-10.9-4.8l2.2-3.7l15.4-6
				L317.6,254.4z"/>
			<path class="st0" d="M243,276c-1.3,0.6-2.5,1.2-3.7,2v-4.4L243,276z"/>
			<path class="st0" d="M262.3,267.8c-1,0.8-1.9,1.6-2.8,2.5l-2,0.6l-15.6-17.3l7.2,10.9l0.8,3.6l-17-5.8l-12.4-34.6l-24.7-16.5
				l-8.1-24.9l9.2,3.1l5.2,16l32.8,19.6l-22.1-19.6l7.9-3.1l15.2,10.8l13.3,27.9v7.4l-11.5-4.9l10.5,8.7c1.8,1.5,3.6,3.2,5.1,5
				L262.3,267.8z"/>
			<path class="st0" d="M227.2,187.4l2.6,17.6l9.5,7l13.3,29l0.8,10l4.8-4.8l11.9,4.8l-18.7-40l22,40l2.6-24.4
				c0.1-0.9-0.2-1.8-0.8-2.5l-29.6-34.9l27.1,24.9l-25.2-42.8l-7.4,9.3l5.5-12l-10-0.3c-0.9,0-1.8-0.5-2.4-1.2l-1.3-1.6
				c-0.3-0.4-0.8-0.7-1.3-0.9l-5-2l-49.5-19.7l44.6,28.8L227.2,187.4z"/>
			<path class="st0" d="M217.9,275.3l14.4,4.7v-10.7l-17.9-5.6l1.3,9C215.9,274,216.8,274.9,217.9,275.3z"/>
			<path class="st0" d="M230.2,288c-1.8,3.2-2.6,6.4-2.6,9.8l-9.7-3.2c-1.1-0.4-1.9-1.3-2.1-2.5l-1.3-9L230.2,288z"/>
			<path class="st0" d="M222.9,304.4c-0.2,0.1-0.3,0.2-0.5,0.3c-1.1,0.7-2.2,1.1-3.3,1.2l-1.1-2.9L222.9,304.4z"/>
			<path class="st0" d="M228.3,284.2V281l-12.2-4c-1-0.3-1.8-1.2-2.1-2.2l-2.8-11h-2.3l2.8,14.9L228.3,284.2z"/>
			<path class="st0" d="M227.3,300.3c-0.5,0.7-1.3,1.5-2.3,2.4l-12.8-4.2l-2.8-14.9h2.4l2.8,11c0.3,1,1.1,1.9,2.1,2.2L227.3,300.3z"
				/>
			<path class="st0" d="M216.3,305.5c-0.8-0.4-1.6-1-2.2-1.9l-0.3-0.4l1.8,0.2L216.3,305.5z"/>
			<path class="st0" d="M218,259L218,259c-38.9-2.4-41.9-20-41.9-20l-4.3-18.5l0.8,21.3C186.7,264.6,218.7,259,218,259z"/>
			<path class="st0" d="M139.4,102.2L139.4,102.2l-7.2,25.5v26.1l15.8,20.6l16.8,10.4l7.1,23l14.3-23l9.6,1.5
				c4.9-9.6-0.8-20.3-0.8-20.3l-18.8,20.3l14.4-21.5l-4.4-6.8c-1.1,10.8-12.2,16.4-12.2,16.4l-23.8-9.6l-3.6-22l7.8-29.8l-13,14.7
				L158.6,73L139.4,102.2z"/>
			<path class="st0" d="M205.4,201.8c-0.3,1.1,6.5,1.5,6.5,1.5l7.6-2.5L218,197l-12-1.4c-2.1-2.9-0.1-20.4-0.1-20.4l8.4,2.7l0,0
				l10.5,21.7l-9.5-25.1c-10.4-3.2-17.6-10-17.6-10c5.8,12.5,3,28.8,3,28.8S205.6,200.7,205.4,201.8z"/>
			<path class="st0" d="M184.7,201.7l7.3,13.8l2.3-0.5l-8.5-21.5l-1.4,4.4C184,199.2,184.1,200.6,184.7,201.7z"/>
			<path class="st0" d="M195,216l-0.7,2.8l18.4,11.6l3.9-2.4l-16.8-10.7c-0.5-0.3-1.1-0.6-1.7-0.7L195,216z"/>
			<path class="st0" d="M216.6,233.9l6.2,23.3c0.4,1.5,1.5,2.7,2.9,3.3l2.7,1.1l-9.2-29.2L216.6,233.9z"/>
			<path class="st0" d="M202.7,262.7l-2.8-1.1l6.5,12.3l-0.7-7.3C205.6,264.9,204.4,263.4,202.7,262.7z"/>
			<path class="st0" d="M205.2,288.1l-1.1,2.1l-1.2-1.6c-0.8-1.1-2.1-1.7-3.5-1.7c-0.2,0-0.4,0-0.6,0c-0.7,0.1-2.2,0.3-3.8,0.9
				l4.9-12.7l5.1,8.5C205.9,285.1,205.9,286.7,205.2,288.1z"/>
			<path class="st0" d="M179.8,286c-0.5,0.1-1,0.3-1.4,0.5l-1,0.5c-1.1-0.8-3.4-2.7-6.7-6.5l-1.2-12.9l10.3,18.2L179.8,286z"/>
			<path class="st0" d="M196.5,269.5c0,0-0.6,4-4.1,15.7c-0.6,2.1-1.3,3.8-2,5.1c-0.6,0.4-1.1,0.9-1.6,1.4l-1.8-2.8
				c-0.9-1.6-2.5-2.7-4.4-3l-0.5-4.1l6.9-0.3l3.5-7.9l-6.1-1.7l-27.9-30.4l-4.3-0.1l-14.2-11.8l-0.8-0.6l0.5,0.1l17.2,3.4
				L196.5,269.5z"/>
			<path class="st0" d="M243.5,270.5l8.5,3.4c-0.9,0-1.8,0.1-2.7,0.2c-0.4,0.1-0.8,0.1-1.2,0.2L243.5,270.5z"/>
			<path class="st0" d="M328.6,270.5l-4.7,4c-0.5-0.1-1-0.2-1.6-0.3c-0.8-0.1-1.5-0.2-2.3-0.2L328.6,270.5z"/>
			<polygon class="st0" points="332.7,273.6 332.7,273.6 332.8,273.6 			"/>
			<path class="st0" d="M332.7,273.6v4.6c-1.2-0.8-2.5-1.6-3.8-2.2L332.7,273.6z"/>
			<path class="st0" d="M384.2,186.3l-8.1,24.9l-24.7,16.5l-12.3,34.5l-16.9,5.8l0.8-3.6l7.2-10.9l-15.6,17.3l-2.8-0.8
				c-0.7-0.7-1.5-1.3-2.3-2l9.3-10.9c1.5-1.8,3.2-3.5,5.1-5l10.5-8.7l-11.5,4.9V241l13.1-27.9l15.2-10.8l7.9,3.1L337,225l32.8-19.6
				l5.2-16L384.2,186.3z"/>
			<path class="st0" d="M340.1,165.4l-1.3,1.6c-0.6,0.7-1.5,1.2-2.4,1.2l-10,0.3l5.5,12l-7.4-9.3L299.2,214l27.1-24.9L296.7,224
				c-0.6,0.7-0.8,1.6-0.8,2.5l2.6,24.4l22-40L301.9,251l11.9-4.8l4.8,4.8l0.8-10l13.3-29l9.5-7l2.6-17.6l6.4-15.8l44.6-28.8
				l-49.5,19.7l-5,2C340.9,164.7,340.4,165,340.1,165.4z"/>
			<path class="st0" d="M339.7,280l14.5-4.7c1.1-0.4,1.9-1.3,2.1-2.5l1.3-9l-17.9,5.6V280z"/>
			<path class="st0" d="M357.4,283.1l-1.3,9.1c-0.2,1.2-1,2.1-2.1,2.5l-10,3.2c0.1-3.4-0.8-6.7-2.5-9.9L357.4,283.1z"/>
			<path class="st0" d="M353.9,303.1l-1.1,2.9c-1.1-0.1-2.3-0.5-3.5-1.2c-0.1-0.1-0.3-0.2-0.4-0.3L353.9,303.1z"/>
			<path class="st0" d="M360.8,263.8l-2.8,11c-0.3,1-1,1.9-2,2.2l-12.3,4v3.2l16.7-5.5l2.8-14.9L360.8,263.8L360.8,263.8z"/>
			<path class="st0" d="M362.6,283.6l-2.7,14.9l-13.2,4.3c-1-0.9-1.8-1.8-2.3-2.4l11-3.6c1-0.3,1.7-1.2,2-2.2l2.8-11H362.6z"/>
			<path class="st0" d="M357.8,303.3l-0.3,0.4c-0.5,0.7-1.1,1.2-1.8,1.6l0.7-1.9L357.8,303.3z"/>
			<path class="st0" d="M399.3,241.8L399.3,241.8l0.8-21.3l-4.3,18.5c0,0-3,17.6-41.9,20C353.3,259,385.3,264.6,399.3,241.8z"/>
			<path class="st0" d="M398,174.4c0,0-11.1-5.6-12.2-16.4l-4.4,6.8l14.4,21.5L377,166c0,0-5.7,10.7-0.8,20.3l9.6-1.5l14.3,23
				l7.1-23l16.8-10.4l15.8-20.6v-26.1l-7.2-25.5L413.4,73l17.2,54.7l-13-14.7l7.8,29.8l-3.6,22L398,174.4z"/>
			<path class="st0" d="M357.7,177.8l8.4-2.7c0,0,2,17.5-0.1,20.4l-12,1.4l-1.5,3.8l7.6,2.5c0,0,6.8-0.4,6.5-1.5s4.7-8.5,4.7-8.5
				s-2.9-16.3,3-28.8c0,0-7.2,6.8-17.6,10l0,0l-9.5,25.1L357.7,177.8z"/>
			<path class="st0" d="M387.8,198.6l-1.6-5.1l-8.5,21.5l2.3,0.5l7.6-14.4C388,200.4,388.1,199.4,387.8,198.6z"/>
			<path class="st0" d="M355.4,228l3.9,2.4l18.4-11.6L377,216l-3.4,0.7c-0.4,0.1-0.8,0.2-1.2,0.5L355.4,228z"/>
			<path class="st0" d="M352.9,232.4l-9.2,29.2l3.4-1.4c1-0.4,1.7-1.2,2-2.3l6.4-24.1L352.9,232.4z"/>
			<path class="st0" d="M372.1,261.6l-2.8,1.1c-1.7,0.7-2.9,2.2-3,4l-0.7,7.3L372.1,261.6z"/>
			<path class="st0" d="M377,288.1c-1.6-0.6-3.1-0.9-4.2-1.1h0l0,0c-0.2,0-0.4,0-0.6,0c-1.4,0-2.7,0.7-3.5,1.8l-1,1.3l-0.9-1.8
				c-0.7-1.4-0.7-3.2,0.2-4.6l5.1-8.4L377,288.1z"/>
			<path class="st0" d="M402.5,267.8l-1.1,12.3c-3.5,4.1-5.9,6.1-7.1,7l-1-0.5c-0.3-0.2-0.7-0.3-1.1-0.4l0-0.2L402.5,267.8z"/>
			<path class="st0" d="M432.7,229l-1.4,1.1l-13.6,11.3l-4.3,0.1L385.5,272l-6.1,1.7l3.5,7.9l6.9,0.2l-0.5,4.1
				c-1.9,0.2-3.6,1.3-4.7,3l-1.8,2.9c-0.3-0.3-0.6-0.6-0.9-0.8v0c-0.8-1.4-1.6-3.3-2.3-5.7c-3.5-11.7-4.1-15.7-4.1-15.7l39.5-37
				l16.8-3.3L432.7,229z"/>
			<path class="st0" d="M411.7,214l-6.1,3.1c-1.9,1-3.1,2.9-3,5l0.6,17.8l10.3-21.3L411.7,214z"/>
			<path class="st0" d="M419.8,211.1v-2.3H407l-11.2,5.2l1.3,2h3.4c0.7,0,1.4-0.1,2-0.4l9.2-3.6h3.5v7.2L419.8,211.1z"/>
			<path class="st0" d="M421.3,201.4l-9,5.5h3.5C418.8,206.8,421.3,204.4,421.3,201.4L421.3,201.4z"/>
			<path class="st0" d="M447.8,173l5.6-29l-11.2-48.2L422,38.2l2.2,36.4l15.6,25.8l7,47.2l-18.8,35l-14.9,7.5
				c-1.4,0.7-2.5,2-2.9,3.6l-2.7,10.9l17-8.4l-0.9,12.8L447.8,173z"/>
			<path class="st0" d="M411.1,185v2.7l9.5-3.8c1.1-0.4,2-1.2,2.6-2.3l5.4-8.9L411.1,185z"/>
			<path class="st0" d="M119.8,174.1l-5.6-31.3L127,95.3l5.2-27.8l-44.4-50l16.8,57.9l2.4,48.1L13.4,41.9l74.4,155l29.2,48
				c0.1-4,0.4-7.9,0.6-11.3l-17.1-29.1l3.2-1.3l14.8,20c1.3-13,2.1-13.8,2.5-14.2l0.6-0.6h0.5c0.8-0.2,1.8-0.4,3-0.4
				c2.2,0,4.3,0.4,4.4,0.4l1.1,0.2l0.4,1c2.2,5.2,4.3,10.1,6.4,14.7l19,2.8L119.8,174.1z M100.7,43.3c24.4,14.7,23.2,38.5,23.2,38.5
				l-5.4,17.1l-6.8-20.7C112.7,60.6,101,43.8,100.7,43.3z M95.9,118.9l11.5,21.1l6.9,37.6L72,115.7l-7.7-6.7L95.9,118.9z M64.2,95.2
				c-1.3,3.1-1.3,11-1.3,11C53,90.9,27.4,60,26.6,59C46.5,74.9,64.2,95.2,64.2,95.2z M67.9,134.7c0,0-12.3-8.8-11.1-28.5
				c0,0,4.3,13.6,13.5,20.1l7.9,12L67.9,134.7z M98.1,197l-3.9-7.2l10.7,3.3l5.5,7.8L98.1,197z M117.3,203.1V201l-11.4-18.6l-15.4-6
				l-2.7,1.8l-1.2-2.2l-6.9-37.6l42.3,61.9l7.7,6.7L117.3,203.1z M165,261.7l-6.4-14.7l-6.5-1.3l-8.6-8.9
				c9.2,18.7,16.9,30.8,22.7,38.4L165,261.7z"/>
			<path class="st0" d="M419.6,245.7l-6.5,1.3l-6.4,14.6l-1.3,13.5c5.8-7.6,13.5-19.6,22.6-38.2L419.6,245.7z M464.7,123.5l2.4-48.1
				l16.8-57.9l-44.4,50l5.2,27.8l12.8,47.5l-5.6,31.3L415.1,227l19-2.8c2.1-4.6,4.2-9.4,6.4-14.7l0.4-1l1.1-0.2
				c0.1,0,2.2-0.4,4.4-0.4c1.2,0,2.3,0.1,3.1,0.4l0.5,0l0.6,0.6c0.4,0.4,1.2,1.2,2.5,14.2l14.8-19.9l3.2,1.3l-17,29.1
				c0.2,3.4,0.5,7.3,0.6,11.2l29.2-48.1l74.4-155L464.7,123.5z M545.1,59c-0.8,1-26.4,31.9-36.3,47.2c0,0,0-7.9-1.3-11
				C507.5,95.2,525.3,74.9,545.1,59z M453.3,98.9l-5.4-17.1c0,0-1.2-23.9,23.2-38.5c-0.4,0.5-12,17.3-11,34.9L453.3,98.9z
				 M464.3,140l11.5-21.1l31.6-9.9l-7.7,6.7l-42.3,61.9L464.3,140z M473.6,197.1l-12.3,3.8l5.5-7.8l10.7-3.3L473.6,197.1z
				 M485.2,176l-1.2,2.2l-2.7-1.8l-15.4,6L454.5,201v2.1L442,207l7.7-6.7l42.3-61.9L485.2,176z M503.9,134.7l-10.4,3.7l7.9-12
				c9.2-6.5,13.5-20.1,13.5-20.1C516.1,125.9,503.9,134.7,503.9,134.7z"/>
			<g>
				<path class="st0" d="M201,228.5c-6.6,0-12,4.9-12,11.5c0,6.6,5.4,11.5,12,11.5c6.6,0,12-4.9,12-11.5
					C213,233.4,207.6,228.5,201,228.5z M203.9,245.7c-3.7,0-6.7-3-6.7-6.6c0-0.8,0.1-1.5,0.4-2.2c-0.1,0.5-0.2,1-0.2,1.6
					c0,3.3,2.6,5.9,5.9,5.9s5.9-2.6,5.9-5.9c0-3.3-2.7-5.9-5.9-5.9c-0.5,0-1.1,0.1-1.6,0.2c0.7-0.2,1.4-0.4,2.2-0.4
					c3.7,0,6.6,3,6.6,6.7S207.5,245.7,203.9,245.7z"/>
			</g>
			<g>
				<path class="st0" d="M371,228.5c-6.6,0-12,4.9-12,11.5c0,6.6,5.4,11.5,12,11.5c6.6,0,12-4.9,12-11.5
					C383,233.4,377.6,228.5,371,228.5z M368.1,245.7c-3.7,0-6.6-2.9-6.6-6.6s3-6.7,6.6-6.7c0.8,0,1.5,0.1,2.2,0.4
					c-0.5-0.2-1-0.2-1.6-0.2c-3.3,0-5.9,2.6-5.9,5.9c0,3.3,2.7,5.9,5.9,5.9s5.9-2.6,5.9-5.9c0-0.5-0.1-1.1-0.2-1.6
					c0.2,0.7,0.4,1.4,0.4,2.2C374.8,242.8,371.8,245.7,368.1,245.7z"/>
			</g>
			<path class="st0" d="M160.3,214l6.1,3.1c1.9,1,3.1,2.9,3,5l-0.5,17.9l-10.3-21.3L160.3,214z"/>
			<path class="st0" d="M152.2,211.1v-2.3H165l11.2,5.2l-1.3,2h-3.4c-0.7,0-1.4-0.1-2-0.4l-9.2-3.6h-3.4v7.2L152.2,211.1z"/>
			<path class="st0" d="M150.7,201.4l9,5.5h-3.5C153.2,206.8,150.7,204.4,150.7,201.4L150.7,201.4z"/>
			<path class="st0" d="M124.2,173l-5.6-29l11.2-48.2L150,38.2l-2.2,36.4l-15.6,25.8l-7,47.2l18.8,35l14.9,7.5
				c1.4,0.7,2.5,2,2.9,3.6l2.7,10.9l-17-8.4l0.9,12.8L124.2,173z"/>
			<path class="st0" d="M160.9,185v2.7l-9.5-3.8c-1.1-0.4-2-1.2-2.6-2.3l-5.4-8.9L160.9,185z"/>
			<path class="st0" d="M297.2,151.1c-2.2,1.2-3.9,3.2-4.7,5.6c-4.3,3.7-8.6,3.8-12.8,0c0,0-2.5-4.4-4.7-5.6l-25.8-13.6l5.6,7
				c0.5,0.7,1,1.4,1.3,2.1l30,67.4l30-67.4c0.3-0.8,0.8-1.5,1.3-2.1l5.6-7L297.2,151.1z M291.3,175.4l-2.9,0.6
				c-0.9-0.1-1.6-0.2-2.2-0.2c-4.1,0-4.5,2.3-4.5,2.3l-4.7,0.1c0.2-0.3,1.5-1.1,1.7-1.2c-2.6,1.1-4.9,3.9-4.9,3.9
				c0.5-0.8,0.6-2.4,0.6-2.4c0.4-2.5,1.3-3.5,1.3-3.5c2.4-2.5,2.7-1.5,8.9-2.4c6.3-0.9,5.6-4.8,5.6-4.8l-17,5.6
				c0.7-1.7,6.8-8.5,6.8-8.5c0.6,0.2,1.3,0.3,2.2,0.3c6.5,0.1,19.7-5.3,19.7-5.3l-4.4,4.3l-0.5,2.8l6.6-3.2L291.3,175.4z"/>
		</g>
	</g>
	<g id="Mask_00000163786196990383842810000013262556234956781996_">
		<path d="M137.7,229.1c0.1,0.3,0.3,0.6,0.4,0.9l-1.2-1L137.7,229.1z"/>
		<path d="M229.9,294.9v4.3l-0.1,0C229.7,297.8,229.7,296.3,229.9,294.9z"/>
		<path d="M306.8,268.3c0.6,0.5,1.2,0.9,1.9,1.4l-2.5-0.7L306.8,268.3z"/>
		<path d="M342,300.4c0.3,0.4,0.9,1.4,2,2.5l-3.3,1.1v-3.2L342,300.4z"/>
		<path d="M382.9,294.9c-0.8-0.6-1.8-1.5-2.8-2.9C381.2,292.7,382.1,293.6,382.9,294.9z"/>
		<path d="M386.5,289.8l-0.7,5.9c0,0-1.1,0.3-2.6-0.6l3.2-5.2C386.4,289.8,386.5,289.8,386.5,289.8z"/>
		<g>
			<path class="st0" d="M263,281.1c0,0.1-2.4,14-6.1,20.5c-3.7,6.3-15.6,11.7-15.8,11.8l-5.7-4.7c-0.9-0.8-1.6-1.9-1.9-3.1
				c-0.9-4-1.8-13.7,6.2-21.9c8.4-8.7,16.8-6.5,19.7-5.3c0.6,0.2,1.2,0.6,1.7,1.1L263,281.1L263,281.1z"/>
			<path class="st0" d="M258.1,303.2l7,4.9c-4,6.8-16.3,12.9-17.1,11.7l-5.9-5.1C244,313.8,253.9,308.9,258.1,303.2L258.1,303.2z"/>
			<path class="st0" d="M266.1,306.4l-7.2-4.9c3.1-6.4,5.2-17.5,5.6-19.8l6.7,5C271.6,288.4,271.5,301.5,266.1,306.4L266.1,306.4z"
				/>
			<path class="st0" d="M315.4,364.6h-17l-3.6,9.6l-1.3-7.4l-0.8-0.4c-1.1-0.5-1.8-1.6-1.8-2.8v-2.8l7.5,0.4c0,0,6.9,0.2,5.8-6.3
				c0,0-1.1-0.4-2.4,0.3c-1.1,0.6-2.3,1-3.6,1h-7.9v-5.1c0-1.1,0.6-2.1,1.6-2.5c1.4-0.6,3.2-2.1,3.2-5.4h-6.7l5.9-5.9h-6.2
				c-1.2,0-2.2-1-2.2-2.2c0,1.2-1,2.2-2.2,2.2h-6.2l5.9,5.9h-6.7c0,3.3,1.8,4.8,3.2,5.4c1,0.4,1.6,1.4,1.6,2.5v5.1h-8
				c-1.3,0-2.5-0.4-3.6-1c-1.3-0.7-2.4-0.3-2.4-0.3c-1.1,6.5,5.8,6.3,5.8,6.3l7.6-0.4v2.9c0,1.2-0.7,2.2-1.7,2.8l-0.9,0.4l-1.3,7.4
				l-3.6-9.6h-17c0,0-0.5-2.8,0.4-7.2l9,3.2l-6.8-10.3c1-2.2,2.3-4.5,4-6.9c2.8,4.2,5.6,6.2,5.6,6.2l10.4,3.7l-7.9-12
				c-1.3-0.9-2.5-2-3.6-3.2c5.4-5.8,10.9-9.7,14.4-11.9c2.4-1.5,5.4-1.5,7.8,0c3.5,2.2,9,6.1,14.4,11.9c-1.1,1.2-2.4,2.3-3.7,3.2
				l-7.9,12l10.4-3.7c0,0,2.8-2,5.6-6.3c1.7,2.4,3,4.7,4,6.8l-6.8,10.3l9.1-3.2C315.8,361.8,315.3,364.6,315.4,364.6L315.4,364.6z"
				/>
			<path class="st0" d="M302.2,390.9l-16.3,16.3l-16.3-16.3l6.6-6.6v-2.8c0-1,0.8-1.9,1.9-1.9h5.3c0.7,0,1.3-0.6,1.3-1.3
				s-0.6-1.3-1.3-1.3h-1.5l0.4-4.6c0.1-1.5,1-2.8,2.3-3.5l1.2-0.7l1.2,0.7c1.3,0.7,2.2,2.1,2.3,3.5l0.4,4.6h-1.5
				c-0.7,0-1.3,0.6-1.3,1.3s0.6,1.3,1.3,1.3h5.4c1,0,1.9,0.9,1.9,1.9v2.8L302.2,390.9L302.2,390.9z"/>
			<path class="st0" d="M272.9,398.9h-3.1c-1.9,0-3.6,1-4.7,2.5l-1.6,2.5l3.3,3.3c0.8,0.8,2,1.3,3.1,1.3h12.9l-7.6-8.5
				C274.7,399.3,273.8,398.9,272.9,398.9z"/>
			<path class="st0" d="M223,421.3l15.6-7.5v3.5c0,1.4,1.2,2.6,2.6,2.6l0,0c1.3,0,2.4-0.9,2.6-2.1l1.5-7.1c0.3-1.2,1.4-2.1,2.6-2.1
				h4.2V425c0,1.3-1,2.5-2.3,2.6l-28.3,4.2v-8C221.5,422.7,222.1,421.8,223,421.3L223,421.3z"/>
			<path class="st0" d="M177.9,401.8v9.4c0,0,15.5,8.1,21.4,16.3c4.8,6.8,2.4,14.8,2.4,14.8s6.9-5.3,7.2-14.9s-10.2-17.5-10.2-17.5
				S191.5,403.4,177.9,401.8L177.9,401.8z"/>
			<path class="st0" d="M177.9,413.6l-1.3,6.9c0,0,21.6,12.6,5.9,25.9c0,0,17.8,1.5,17.7-8.3c-0.4-6.4-1.7-8-3.1-10.6
				S189,418.1,177.9,413.6L177.9,413.6z"/>
			<path class="st0" d="M175,427.7c0,0,7.8,3.7,6.7,8.8s-3.3,4.8-3.3,4.8s-4,2.2-8.5-6.8l-3,1.5c0,0,4.3,5.6,7,7.2
				c0,0-3.7,0.1-9.6-6.5h-7.9c0,0,8.9,7.5,12,8.6s5.8,1.2,8.8,1.1s6.6-1.4,8.2-4.5s1.6-5.6,1.6-5.6s-0.5-9.7-10.6-13.9L175,427.7
				L175,427.7z"/>
			<path class="st0" d="M138.8,381.7c0,0,12.9-4.8,17-8c6,21.8,7.7,42.9,2.1,61.1c-6.3,2.2-12.4,1.5-18.1-3
				C145.2,421.5,144.3,395.3,138.8,381.7L138.8,381.7z"/>
			<path class="st0" d="M111.1,337.7c15.3,10.7,21.1,25.9,26.8,41.8c0,0,13-4.1,17.2-8.2c0,0-4.9-21.7-29.4-45.2
				C125.7,326.2,112.7,323.3,111.1,337.7L111.1,337.7z"/>
			<path class="st0" d="M109.9,331l-0.9,6.6l-5.1-0.2C103.9,337.3,104.1,332.4,109.9,331L109.9,331z"/>
			<path class="st0" d="M108.3,339.4c0,0-3.1,5.8-3.5,10.8c0,0-3.7-5.7-6.7-7.1C98,343.1,99.3,337.1,108.3,339.4z"/>
			<path class="st0" d="M97.6,344.5c0,0,4.8,4.4,5.5,6.7c0,0-9.3,16.3,0.6,44.2c0,0,4.7,13.1,14.8,28.1l1.8,2.5
				c-0.5,1.3-1.5,2.2-2.9,2.8c0,0-1.2,0-5.6-7.7s-8.2-15.8-8.2-15.8s-8.7-18.8-9.8-34.9s0.4-19.8,0.4-19.8S95.1,346.7,97.6,344.5
				L97.6,344.5z"/>
			<path class="st0" d="M118.3,429.8c0,0,4,5.5,10.2,7.2c3.9,1.4,6.5-0.1,7.8-1.3c0.8-0.6,1.2-1.6,1.2-2.6v-1.6
				c-0.3,0.1-4.9-2.3-10.9-2s-5.9-2.3-5.9-2.3C120.3,428.6,119.1,429.1,118.3,429.8L118.3,429.8z"/>
			<path class="st0" d="M132.3,422c0,0,0,5.2-2.1,6.5c2.6,0.3,5.3,0.7,7.9,1.6c1.3-2.1,2.3-5.1,2.6-8
				C137.9,422.7,135.1,422.8,132.3,422z"/>
			<path class="st0" d="M131.6,397.2c0.2-0.4,2.3,15.5,0.9,23.2c2.7,0.8,5.5,0.8,8.4,0c1-6.3,0.3-14-0.6-21.5
				C135.7,400.1,133.4,398.7,131.6,397.2L131.6,397.2z"/>
			<path class="st0" d="M135.1,379.6c0,0-6.6,1.8-4.7,10.5c1.8,8.7,9.7,7,9.7,7C139.2,390.5,137.7,384.5,135.1,379.6L135.1,379.6z"
				/>
			<path class="st0" d="M119.4,348.4c0,0,12.3,15.1,14.8,29.3c0,0-5.7,3.4-5.8,8.8c0,0-5.4-15.9-9-22.1c0,0,3.6-4.1-0.7-11.6
				C115.6,347.6,119.4,348.4,119.4,348.4z"/>
			<path class="st0" d="M111.1,340l7.5,7c0,0-3.8,0.3-2,4s4.6,8.8,2.4,12.6c0,0-5.8-9.3-11.6-12.9c-0.6-0.4-0.9-1.1-0.7-1.8
				C107.1,346.6,108.5,341.9,111.1,340L111.1,340z"/>
			<path class="st0" d="M105.2,351.8c0,0-1.2,13.4,13.1,12.7C118.3,364.5,111.1,356,105.2,351.8z"/>
			<path class="st0" d="M103.9,352.4c0,0-7.3,14.2-0.8,36c0,0-1.9-10.7,5.1-12.6c0,0,6-1.6,9.7,16.4c3.2,15.6-2.3,16.1-2.8,16.2
				s-3.6,1.5-4.8-0.7c0,0,8,15.8,12.7,19.8c0,0,5.9,3.1,7.7-3c1-7,0.9-15.5-0.7-25.5c-1.6-7.1-2.3-9.4-5.1-16.2s-6.7-16.6-6.7-16.6
				s-10.2,0.7-13-5.7C103.4,355.4,103.9,352.4,103.9,352.4L103.9,352.4z"/>
			<path class="st0" d="M128.2,212.7l-1.9-0.7v4.2c1.3,4.5,20.8,44.5,33.2,79.5l4,0.9v-5.5L128.2,212.7L128.2,212.7z"/>
			<path class="st0" d="M124.6,217.3c0,0-0.2,8.8,5.4,21.1c0,0,16.1,40.6,18.2,47c2.1,6.3,2.8,17,2.8,17l5.8,5.8c0,0,1.5-8.9-1.6-18
				s-29-71.5-29-71.5L124.6,217.3L124.6,217.3z"/>
			<path class="st0" d="M131.4,246.4l-2.9-1.7c0,0,0.8,7.9,3.8,17s7.7,24.4,7.7,24.4s3.6,8.2,3.6,14.3l5.6,1.2c0,0-0.1-9.3-2.1-14.8
				C145.1,281.3,131.4,246.5,131.4,246.4L131.4,246.4z"/>
			<path class="st0" d="M129.7,263.2l-1.6,1.8c-0.5,0.6-0.8,1.4-0.8,2.2l0.5,12.5c0,0,4.9-1.7,4.8-8.3
				C132.6,264.9,129.7,263.2,129.7,263.2z"/>
			<path class="st0" d="M132.7,276.1c-0.1-0.5,0,13.1,0,13.1s3.6,1.3,3.6,5.6l0.5-2c0.4-1.8,0.7-3.5,0.7-5.4v-3.7
				C137.5,283.7,133.8,280.3,132.7,276.1L132.7,276.1z"/>
			<path class="st0" d="M116,321.5c0,0,0.8-1.1,1.8-2.3s2.9-1,3.6,0.3c0.1,0.2,0.2,0.5,0.2,0.7L116,321.5L116,321.5z"/>
			<path class="st0" d="M130.8,313L130.8,313c1.1,0,2.2,0.6,2.7,1.6l0.8,1.6h-6.9l0.8-1.6C128.6,313.6,129.6,313,130.8,313
				L130.8,313z"/>
			<path class="st0" d="M173.4,427.8c-2.4,8.8-13.5,6.7-13.5,6.7c5.7-19,4.2-36.3-2.9-63.2s-30.6-46.7-30.6-46.7l0,0
				c0.5-6.9,6.5-6.8,6.5-6.8c4,0.2,7.3,2,7.3,2C170.4,346,181.7,393.8,173.4,427.8z"/>
			<path class="st0" d="M177.9,398.9c0,0,0.1-10.3-3.5-24.6l6.5,3.9v-3.4l-8.2-6.9c-3.2-10.4-8.2-22.2-16.4-33.7
				c0,0-8.9-11.6-23.7-23.6l-0.1-2.5l7.6-2l2.3-3.1l6.6,0.4c0,0,8,7.4,9.7,11.6l-1.6,9.6l4.5,9.6h9.1l0.9,2.6l-5.1,5.5
				c-0.6,0.7-0.8,1.6-0.4,2.4l4.8,9.8c0.4,0.7,1.1,1.2,2,1.2h5.5c0.7,0,1.4,0.4,1.6,1.1c1.4,3.8,6.2,16.4,8,23.6c0,0-6-0.4-4.7,4.7
				c1.4,5,5.9,3.3,6.2,3.2l0,0c1.1,7.4,1.5,15.2,1.5,15.2S183.6,399.9,177.9,398.9L177.9,398.9z"/>
			<path class="st0" d="M189.6,387.7c-0.2,0.1-4.1,1.4-5.2-2.7c-1.2-4.2,3.9-3.8,3.9-3.8c0.1,0.3,0.2,0.6,0.2,0.9
				C189,383.8,189.3,385.7,189.6,387.7L189.6,387.7z"/>
			<path class="st0" d="M180.5,375.2v2.1l-6.2-3.9c-0.4-1.5-0.8-3-1.3-4.6L180.5,375.2L180.5,375.2z"/>
			<path class="st0" d="M182.3,354.1l-1,0.4c-0.8,0.4-1.7,0.5-2.6,0.5l-4.4-0.1c-0.9,0-1.7-0.5-2.1-1.3l-4.2-8.9
				c-0.4-0.9-0.2-1.9,0.4-2.5l3.3-3.6L182.3,354.1L182.3,354.1z"/>
			<path class="st0" d="M195.8,349.3h-5l-6.9,3.1c-0.5,0.2-1.1,0-1.4-0.4l-8.9-13.2c-0.2-0.4-0.2-0.8,0.1-1.2l2.8-3.4l3.4,6.5
				c0,0,1.9,0,3.1-0.6c0.6-0.3,1.2-0.7,1.5-1.6C184.2,338.6,195.2,336,195.8,349.3L195.8,349.3z"/>
			<path class="st0" d="M252.7,367.8c-24.5-3.4-32,21.5-32,21.5l-2-3.4c0,0,8.6-11.7,7.6-15.8c-1-4.1-7.2-13.7-7.2-13.7
				c-5.8-0.9-11.5-10.2-11.5-10.2l-0.8-9.2l-6.5-9.6l0,0c0.7-1.2,1.8-2.4,3.4-3.6l25.1,37.1l-23.1-38.3c0.2-0.1,0.4-0.2,0.6-0.3
				c2.9-1.4,5.7-0.9,8.1,0.3l23.9,40.2H249L252.7,367.8L252.7,367.8z"/>
			<path class="st0" d="M244.2,388.8c-9.9,5.5-16.1,4-19.2,2.1c-1.1-0.6-1.5-2.1-0.9-3.3c0.5-1,1-2,1.5-3
				c7.6-13.5,17.8-15.7,23.8-15.7c1.3,0,2.4,0.1,3.2,0.2c1,0.1,1.9,1,2,2.1C255.1,375.8,254.3,383.2,244.2,388.8L244.2,388.8z"/>
			<path class="st0" d="M249.7,361.5H239l-23.9-40.2c3.9,2,6.5,5.7,6.5,5.7l4.2,0.7c1.7,0.3,3.1,1.2,4,2.7L249.7,361.5L249.7,361.5z
				"/>
			<path class="st0" d="M198.2,349.5c4.8-6.4,1.1-13.5,0.2-15.3c-0.2-0.4-0.3-0.8-0.2-1.2c0.1-0.9,0.4-2.2,1.2-3.7l6.1,9.2l0.7,8.8
				c0,0,5.2,8.9,10.8,9.8c0,0,5.9,9.2,6.7,13.1c0.8,3.9-6.2,13.3-6.2,13.3L198.2,349.5z"/>
			<path class="st0" d="M183.9,336.9c-0.2,0.9-0.5,1.8-1,2.1c-1.8,1-3,0.7-3,0.7l-3-6.1l0,0l1.2-1.8c0,0,2.8-3.8,5.9-0.3
				C184.1,331.4,184.4,334.7,183.9,336.9L183.9,336.9z"/>
			<path class="st0" d="M196.9,347.3c-0.6-11.2-12-10-12-10c0.7-1.9,0.5-4.8,0.5-4.8l9.6-0.1c0.7,0,1.4,0.4,1.7,1.1
				C197.7,335.9,199.8,342,196.9,347.3L196.9,347.3z"/>
			<path class="st0" d="M227.7,326.4l-5.8-1.4c0,0-2.8-4.6-7.1-5.4s-7.8,1.1-7.8,1.1s7.3-3.5,5-14.2L227.7,326.4L227.7,326.4z"/>
			<path class="st0" d="M208.6,301.6l-7.8-9.8c-1.9-1.6-3.9-1.6-6.1,0c0,0-1.8,1.4,5.6,9.5c1,4.6,4,5,4,5s2.4-3.2,4.2-2.5v-2.2
				H208.6z"/>
			<path class="st0" d="M194.7,296.7c0.2,0,2.5,3.4,4.6,5.6v2.7c0,0.9-0.8,1.6-1.7,1.5l-1.2-0.1c-0.4,0-0.7-0.2-0.9-0.5l-2.1-3
				c-0.5-0.7-0.6-1.7-0.2-2.5L194.7,296.7L194.7,296.7z"/>
			<path class="st0" d="M201.7,306.3c0,0,0.8,6.7-5.9,12.4l-13.5-13.6c0,0-4.9-0.7-6.3,5.2l19.8,20.2c0,0,2.8-7.3,8-9.3
				s6.6-8.7,6.6-8.7s0.6-3.5,0-5.9c0,0-3.6-1.4-4.9,1.5C205.5,308.2,203.1,309.5,201.7,306.3L201.7,306.3z"/>
			<path class="st0" d="M174.3,291.3c0,0-1.3,8.8,0.6,15c0,0,6.5-0.7,7.9-5.7C182.8,300.6,182.5,294.6,174.3,291.3L174.3,291.3z"/>
			<path class="st0" d="M160.3,273.7c0,0,9.1,12.6,12.3,16.9c0,0-2.4,5.2,0,13.3L160.3,273.7L160.3,273.7z"/>
			<path class="st0" d="M165.5,296.7l-0.8,4.9l-5.2-3.1c0,0,0.8,8.7-0.6,11.5l1.9,4.2l-1.5,10l3.4,8.4h7.4l-1.4-4.2
				c0,0,3.7-4.5,7.4-0.5l1.4,2.3c0,0,4.4-3.8,7.5,0l8.5,0.6l-14.2-13.7c-2.7-2.6-5-5.6-6.9-8.8L165.5,296.7L165.5,296.7z"/>
			<path class="st0" d="M205.3,365.2l-7.5-12.9c0,0-2.6-2-6.5-1s-10.1,4.9-10.1,4.9s2.4,6.6,3.4,10
				C184.6,366.2,196.1,359.6,205.3,365.2L205.3,365.2z"/>
			<path class="st0" d="M186.9,372.5c0,0,3.1,6.7,4,13.5c0,0,3.3-4.9,8.5-3.3v-4.4c0,0-3.7-3.6-7.1-6.2
				C192.3,372.1,191.2,370.2,186.9,372.5z"/>
			<path class="st0" d="M191.2,387.8c0,0,1.6,11,1.3,16.2c0,0,10.5,4.2,15,13c0,0-1.6-10.9,2.3-15.1c3.9-4.3,13.5-1.7,13.5-1.7
				s3.5,0.5,3.3-5.9l-5.1-4l-3.4,2.5c0,0-9.4-4.1-13.8,7l-2.9,1.2l-0.5-13.6C200.9,387.3,198.3,382.9,191.2,387.8L191.2,387.8z"/>
			<path class="st0" d="M213.1,379c-3.6,1.8-5.5,4.6-5.2,8.5l4.2,3.1c0-0.9,4.5-1.9,5.7,1l2.1-1.6L213.1,379L213.1,379z"/>
			<path class="st0" d="M205.3,366.2l7.1,12.5c0,0-1.9,0.5-3,2.1l-10-16.7C199.4,364.1,202.3,364.4,205.3,366.2L205.3,366.2z"/>
			<path class="st0" d="M208.9,419.4c0,0,2.3,4,1.4,6.6l9.4-4.5c1-0.5,1.5-1.5,1.4-2.5s0-2.6,1.1-3.9L208.9,419.4L208.9,419.4z"/>
			<path class="st0" d="M232.4,394.9v19.2l4.4-2.3v-18C236.8,393.8,235.5,394.9,232.4,394.9z"/>
			<path class="st0" d="M238,393.8c0,0,2.7-1.2,3.7-2.2v19.2H238V393.8L238,393.8z"/>
			<path class="st0" d="M242.9,391v11.1h3v-4.9c0,0,0-4.6,3.6-4.6s3.3,4.8,3.3,4.8v7.5c0,0,0.2,2,2.8,2h8.6l-3-3
				c0,0,1.6-6.5,6.1-6.7s5.2-0.1,5.2-0.1l-7.8-6.2l7.8-6.4c0,0-6.5,0.6-10.5-4.3s-5.5-7.4-5.5-7.4S256.7,387.2,242.9,391L242.9,391z
				"/>
			<path class="st0" d="M316.6,408.5v17.7c0,1.1-0.9,2-2,2h-2.5c0,0-4.2-7.6-9.2-7.5s-17-0.1-17-0.1s-11.9,0.2-17,0.1
				c-5-0.1-9.2,7.5-9.2,7.5h-2.5c-1.1,0-2-0.9-2-2v-17.7h9.5c1.6,0.3,2.8,1.8,2.8,3.4v1.7c0,1.3,1,2.3,2.3,2.3h32.3
				c1.3,0,2.3-1,2.3-2.3v-1.7c0-1.7,1.2-3.1,2.8-3.4H316.6z"/>
			<path class="st0" d="M302.2,409.6v2.2c0,1.3-1,2.3-2.3,2.3h-28.1c-1.3,0-2.3-1-2.3-2.3v-2.2H302.2z"/>
			<path class="st0" d="M252.7,431.8c0,0-1.2,4.9,3.5,8c0.1,0,0.1,0.1,0.1,0.2v5.9c0,1.4-0.4,2.7-1.2,3.8c-1.3,1.9-3.1,6.3-3.2,15.1
				c0,0.1,0.1,0.3,0.2,0.3l0,0c1.6,0.3,2.8,1.6,2.8,3.3v4.5c0,1.2-1,2.2-2.2,2.2h-4.9c-0.1,0-0.2-0.1-0.3-0.2
				c-0.5-1.5-3.5-12.1-1.9-17.2c0.9-2.8,2.1-4.6,3.2-5.7c1.1-1.3,1.8-2.9,1.8-4.6v-15.6H252.7L252.7,431.8z"/>
			<path class="st0" d="M316.6,431.8v4.5h-5.3c-2-8.8-10.9-7.4-14-6.7c-0.8,0.2-1.6,0.2-2.5,0.1l-9-1.5l-9,1.5
				c-0.8,0.1-1.6,0.1-2.4-0.1c-3.1-0.8-12-2.1-14.1,6.7H255v-4.5c0-1,0.8-1.8,1.8-1.8h3.5c0,0,5.2-7.1,9.1-7.1H302
				c3.9,0,9.1,7.1,9.1,7.1h3.5C315.8,429.9,316.6,430.8,316.6,431.8L316.6,431.8z"/>
			<path class="st0" d="M262.6,436.7c0,0,1.4-6.7,13.1-5l4,4.5v15.1l-7.4,5.4c-1.6,1.2-3.8,1.3-5.5,0.2l0,0
				c-2.6-1.6-4.1-4.4-4.1-7.4L262.6,436.7L262.6,436.7z"/>
			<path class="st0" d="M258.4,448.8c0,0-4.5,7.1-4.3,14.4l0,0c1.3,0.4,2.2,1.7,2.2,3.1v8.5c0,1.4-1.2,2.6-2.6,2.6h-5.5l6.6,19.5
				c0.4,1.3,1.6,2.2,3,2.2h3.8c0,0-3.8-14.5,0.9-25.6c6.6-15.6,23.3-15,23.3-15l-4.5-6.7c0,0-6,8.8-14.8,8.3
				C259.8,459.3,258.4,448.8,258.4,448.8L258.4,448.8z"/>
			<path class="st0" d="M261.7,441v7.8l-2.1-0.7c-1.1-0.4-1.8-1.4-1.8-2.5v-7.4l2.4,0.9C261.1,439.3,261.7,440.1,261.7,441
				L261.7,441z"/>
			<path class="st0" d="M285.9,429.6l-4.6,6.5c-0.1,0.1-0.1,0.3-0.1,0.4V448c0,0.2,0,0.3,0.1,0.4l3.9,5.9c0.3,0.5,1,0.5,1.3,0
				l3.9-5.9c0.1-0.1,0.1-0.3,0.1-0.4v-11.5c0-0.2,0-0.3-0.1-0.4L285.9,429.6z"/>
			<path class="st0" d="M277.7,431.5l1.9,2.3c0.3,0.4,0.9,0.4,1.2,0l3.3-4.2L277.7,431.5z"/>
			<path class="st0" d="M285.9,459.4L285.9,459.4c-0.9,0.1-27.9,3.8-23.6,33.7c0,0,0.7,16.9,23.6,22.2l0,0
				c22.9-5.4,23.6-22.2,23.6-22.2C313.7,463.2,286.7,459.6,285.9,459.4z M285.9,513.1L285.9,513.1c-15.2-1.8-15.1-14.1-15.1-15.2
				c0-1,0-13,15.1-15l0,0c15.1,2,15.1,14,15.1,15C301,499,301,511.3,285.9,513.1z M301.7,503.3c0.3-0.9,6.1-20.3-15.9-22.2l0,0
				c-21.9,1.9-16.1,21.3-15.9,22.2c-0.5-0.7-7.1-10.4-2-20.4c5.2-10.1,17.3-9.1,17.9-9l0,0c0.6-0.1,12.7-1.1,17.9,9
				C308.8,493,302.2,502.6,301.7,503.3L301.7,503.3z"/>
			<path class="st0" d="M299.9,497.9c0-1,0-12.1-14-13.9l0,0c-14,1.8-14,12.9-14,13.9s0,12.4,14,14l0,0
				C299.9,510.3,299.9,498.9,299.9,497.9L299.9,497.9z M285.9,509.4L285.9,509.4c-6.2-0.5-6.3-6-6.3-6.7s-0.1-7.2,6.3-7.4l0,0
				c6.4,0.2,6.3,6.8,6.3,7.4S292.1,508.9,285.9,509.4z"/>
			<path class="st0" d="M340.3,302.4c0,0,0.6,4.3-1.5,6.6c-1.7,1.8-9.6,8.9-13.1,12c-1,0.9-2.4,1.2-3.7,0.7
				c-6.4-2.5-25-11.9-23.3-35.9l12.9-9c0,0-10-13.2-25.7-13c-15.8-0.3-25.7,13-25.7,13l12.9,9c1.8,24-16.9,33.4-23.3,35.9
				c-1.3,0.5-2.7,0.2-3.7-0.7c-3.4-3.1-11.4-10.2-13.1-12c-2.1-2.3-1.5-6.6-1.5-6.6c-6.2,7-13.4,9-13.4,9l12,15.3l23.2,37.8h1.9
				c-0.1-2.7,0.1-5.2,0.7-7.6l-0.3-0.1c0,0-12.3-8.8-11.1-28.5c0,0,4.3,13.6,13.5,20.1l0.4,0.6c1.4-3.2,2.8-5.1,2.8-5.1
				c0.4-0.6,0.8-1.2,1.2-1.8c-2.8-4.7-5.3-11.6-4.7-21c0,0,2.9,9.1,9,16c5.4-5.7,11.6-9.8,15.5-12c2.3-1.4,5.2-1.4,7.5,0
				c3.9,2.2,10.1,6.3,15.5,12c6.1-6.9,8.9-15.9,8.9-15.9c0.6,9.4-1.9,16.3-4.7,21c0.4,0.6,0.9,1.2,1.3,1.9c0,0,1.3,1.9,2.8,5
				l0.4-0.6c9.2-6.5,13.5-20.1,13.5-20.1c1.2,19.7-11.1,28.5-11.1,28.5l-0.2,0.1c0.5,2.4,0.8,5,0.7,7.6h1.8l23.2-37.8l12-15.3
				C353.7,311.4,346.5,309.4,340.3,302.4L340.3,302.4z M279.8,323.5c-3.1,1.3-8.6,7-8.6,7c3.6-18.2,6.5-59.2,6.5-59.2
				C281,296.6,279.8,323.5,279.8,323.5z M292,323.5c0,0-1.3-26.9,2-52.2c0,0,3,41,6.5,59.2C300.6,330.6,295.1,324.8,292,323.5z"/>
			<path class="st0" d="M255.1,366.5h16l4.7,10.8c0,0-2,0.7-2,4.3c0,0-4.7,1.1-8.4-2C261.8,376.4,255.1,366.5,255.1,366.5
				L255.1,366.5z"/>
			<path class="st0" d="M294,377.5h-3.1l-0.3-5c0,0-0.1-6.1-4.7-6.1s-4.7,6.1-4.7,6.1l-0.3,5h-3.1l2-9.8c2.9,0,3.1-4,3.1-7.3
				s1-13.6,1-13.6l2-8.7l2.1,8.7c0,0,1,10.4,1,13.6s0.2,7.3,3.1,7.3L294,377.5L294,377.5z"/>
			<path class="st0" d="M126.3,275c0,0-6.3-8.2-3.3-44.3l2.8,9.8L126.3,275z"/>
			<path class="st0" d="M298.8,398.9h3.1c1.9,0,3.6,1,4.7,2.5l1.6,2.5l-3.3,3.3c-0.8,0.8-2,1.3-3.1,1.3h-12.9l7.6-8.5
				C297.1,399.3,297.9,398.9,298.8,398.9z"/>
			<path class="st0" d="M348.8,421.3l-15.6-7.5v3.5c0,1.4-1.2,2.6-2.6,2.6l0,0c-1.3,0-2.4-0.9-2.6-2.1l-1.5-7.1
				c-0.3-1.2-1.4-2.1-2.6-2.1h-4.2V425c0,1.3,1,2.5,2.3,2.6l28.3,4.2v-8C350.3,422.7,349.7,421.8,348.8,421.3L348.8,421.3z"/>
			<path class="st0" d="M393.9,401.8v9.4c0,0-15.5,8.1-21.4,16.3c-4.8,6.8-2.4,14.8-2.4,14.8s-6.9-5.3-7.2-14.9s10.2-17.5,10.2-17.5
				S380.2,403.4,393.9,401.8L393.9,401.8z"/>
			<path class="st0" d="M393.9,413.6l1.3,6.9c0,0-21.6,12.6-6,25.9c0,0-17.8,1.5-17.7-8.3c0.4-6.4,1.7-8,3.1-10.6
				S382.7,418.1,393.9,413.6L393.9,413.6z"/>
			<path class="st0" d="M396.8,427.7c0,0-7.8,3.7-6.7,8.8s3.3,4.8,3.3,4.8s4,2.2,8.5-6.8l3,1.5c0,0-4.3,5.6-7,7.2
				c0,0,3.7,0.1,9.6-6.5h8c0,0-8.9,7.5-12,8.6s-5.8,1.2-8.8,1.1s-6.6-1.4-8.2-4.5s-1.6-5.6-1.6-5.6s0.5-9.7,10.6-13.9L396.8,427.7
				L396.8,427.7z"/>
			<path class="st0" d="M433,381.7c0,0-12.9-4.8-17-8c-6,21.8-7.7,42.9-2.1,61.1c6.3,2.2,12.4,1.5,18.1-3
				C426.6,421.5,427.5,395.3,433,381.7L433,381.7z"/>
			<path class="st0" d="M460.7,337.7c-15.3,10.7-21.1,25.9-26.8,41.8c0,0-13-4.1-17.2-8.2c0,0,4.9-21.7,29.4-45.2
				C446.1,326.2,459.1,323.3,460.7,337.7L460.7,337.7z"/>
			<path class="st0" d="M461.9,331l0.9,6.6l5.1-0.2C467.9,337.3,467.7,332.4,461.9,331L461.9,331z"/>
			<path class="st0" d="M463.5,339.4c0,0,3.1,5.8,3.5,10.8c0,0,3.7-5.7,6.7-7.1C473.7,343.1,472.4,337.1,463.5,339.4z"/>
			<path class="st0" d="M474.1,344.5c0,0-4.8,4.4-5.5,6.7c0,0,9.3,16.3-0.6,44.2c0,0-4.7,13.1-14.9,28.1l-1.8,2.5
				c0.5,1.3,1.5,2.2,2.9,2.8c0,0,1.2,0,5.6-7.7s8.2-15.8,8.2-15.8s8.6-18.8,9.8-34.9s-0.4-19.8-0.4-19.8S476.7,346.7,474.1,344.5
				L474.1,344.5z"/>
			<path class="st0" d="M453.5,429.8c0,0-4,5.5-10.2,7.2c-3.9,1.4-6.5-0.1-7.8-1.3c-0.8-0.6-1.2-1.6-1.2-2.6v-1.6
				c0.3,0.1,4.9-2.3,10.9-2s5.9-2.3,5.9-2.3C451.4,428.6,452.7,429.1,453.5,429.8L453.5,429.8z"/>
			<path class="st0" d="M439.4,422c0,0,0,5.2,2.1,6.5c-2.6,0.3-5.3,0.7-7.9,1.6c-1.3-2.1-2.3-5.1-2.6-8
				C433.8,422.7,436.7,422.8,439.4,422L439.4,422z"/>
			<path class="st0" d="M440.2,397.2c-0.2-0.4-2.3,15.5-0.9,23.2c-2.7,0.8-5.5,0.8-8.4,0c-1-6.3-0.3-14,0.6-21.5
				C436,400.1,438.3,398.7,440.2,397.2L440.2,397.2z"/>
			<path class="st0" d="M436.7,379.6c0,0,6.5,1.8,4.7,10.5s-9.7,7-9.7,7C432.6,390.5,434.1,384.5,436.7,379.6L436.7,379.6z"/>
			<path class="st0" d="M452.3,348.4c0,0-12.3,15.1-14.8,29.3c0,0,5.7,3.4,5.8,8.8c0,0,5.4-15.9,9-22.1c0,0-3.6-4.1,0.6-11.6
				C456.1,347.6,452.3,348.4,452.3,348.4z"/>
			<path class="st0" d="M460.7,340l-7.5,7c0,0,3.8,0.3,2,4c-1.8,3.6-4.6,8.8-2.4,12.6c0,0,5.8-9.3,11.6-12.9
				c0.6-0.4,0.9-1.1,0.7-1.8C464.6,346.6,463.3,341.9,460.7,340L460.7,340z"/>
			<path class="st0" d="M466.6,351.8c0,0,1.2,13.4-13.1,12.7C453.5,364.5,460.6,356,466.6,351.8z"/>
			<path class="st0" d="M467.9,352.4c0,0,7.3,14.2,0.8,36c0,0,2-10.7-5.1-12.6c0,0-6-1.6-9.7,16.4c-3.2,15.6,2.3,16.1,2.8,16.2
				s3.6,1.5,4.8-0.7c0,0-8,15.8-12.7,19.8c0,0-5.9,3.1-7.7-3c-1-7-0.9-15.5,0.7-25.5c1.6-7.1,2.3-9.4,5.1-16.2s6.7-16.6,6.7-16.6
				s10.2,0.7,13-5.7C468.4,355.4,467.9,352.4,467.9,352.4L467.9,352.4z"/>
			<path class="st0" d="M443.6,212.7l2-0.7v4.2c-1.3,4.5-20.8,44.5-33.2,79.5l-4,0.9v-5.5L443.6,212.7L443.6,212.7z"/>
			<path class="st0" d="M447.2,217.3c0,0,0.2,8.8-5.4,21.1c0,0-16.1,40.6-18.2,47s-2.8,17-2.8,17l-5.8,5.8c0,0-1.5-8.9,1.6-18
				s29-71.5,29-71.5L447.2,217.3L447.2,217.3z"/>
			<path class="st0" d="M440.3,246.4l2.9-1.7c0,0-0.8,7.9-3.8,17s-7.7,24.4-7.7,24.4s-3.6,8.2-3.6,14.3l-5.6,1.2c0,0,0.1-9.3,2-14.8
				C426.6,281.3,440.3,246.5,440.3,246.4L440.3,246.4z"/>
			<path class="st0" d="M442.1,263.2l1.6,1.8c0.5,0.6,0.8,1.4,0.8,2.2l-0.5,12.5c0,0-4.9-1.7-4.8-8.3
				C439.1,264.9,442.1,263.2,442.1,263.2z"/>
			<path class="st0" d="M439.1,276.1c0.1-0.5,0,13.1,0,13.1s-3.6,1.3-3.6,5.6l-0.5-2c-0.5-1.8-0.7-3.5-0.7-5.4v-3.7
				C434.3,283.7,438,280.3,439.1,276.1L439.1,276.1z"/>
			<path class="st0" d="M455.7,321.5c0,0-0.8-1.1-1.8-2.3s-2.9-1-3.6,0.3c-0.1,0.2-0.2,0.5-0.2,0.7L455.7,321.5L455.7,321.5z"/>
			<path class="st0" d="M441,313L441,313c-1.1,0-2.2,0.6-2.7,1.6l-0.8,1.6h6.9l-0.8-1.6C443.2,313.6,442.1,313,441,313L441,313z"/>
			<path class="st0" d="M393.9,398.9c0,0-0.1-10.3,3.5-24.6l-6.5,3.9v-3.4l8.2-6.9c3.2-10.4,8.2-22.2,16.4-33.7
				c0,0,8.9-11.6,23.7-23.6v-2.5l-7.6-2l-2.3-3.1l-6.6,0.4c0,0-8,7.4-9.7,11.6l1.6,9.6l-4.5,9.6H401l-0.9,2.6l5.1,5.5
				c0.6,0.7,0.8,1.6,0.4,2.4l-4.8,9.8c-0.4,0.7-1.1,1.2-2,1.2h-5.5c-0.7,0-1.4,0.4-1.6,1.1c-1.4,3.8-6.2,16.4-8,23.6
				c0,0,6-0.4,4.7,4.7c-1.4,5-5.9,3.3-6.2,3.2l0,0c-1,7.4-1.5,15.2-1.5,15.2S388.2,399.9,393.9,398.9L393.9,398.9z"/>
			<path class="st0" d="M382.2,387.7c0.2,0.1,4.1,1.4,5.2-2.7c1.2-4.2-3.9-3.8-3.9-3.8c-0.1,0.3-0.2,0.6-0.2,0.9
				C382.8,383.8,382.5,385.7,382.2,387.7L382.2,387.7z"/>
			<path class="st0" d="M382.1,388.5L382.1,388.5"/>
			<path class="st0" d="M391.3,375.2v2.1l6.2-3.9c0.4-1.5,0.8-3,1.3-4.6L391.3,375.2L391.3,375.2z"/>
			<path class="st0" d="M389.5,354.1l1,0.4c0.8,0.4,1.7,0.5,2.6,0.5l4.4-0.1c0.9,0,1.7-0.5,2.1-1.3l4.2-8.9c0.4-0.9,0.2-1.9-0.4-2.5
				l-3.3-3.6L389.5,354.1L389.5,354.1z"/>
			<path class="st0" d="M376,349.3h5l7,3.1c0.5,0.2,1.1,0,1.4-0.4l8.9-13.2c0.2-0.4,0.2-0.8,0-1.2l-2.8-3.4l-3.4,6.5
				c0,0-1.9,0-3.1-0.6c-0.6-0.3-1.2-0.7-1.5-1.6C387.6,338.6,376.6,336,376,349.3L376,349.3z"/>
			<path class="st0" d="M319,367.8c24.5-3.4,32,21.5,32,21.5l2-3.4c0,0-8.6-11.7-7.6-15.8c1-4.1,7.2-13.7,7.2-13.7
				c5.8-0.9,11.5-10.2,11.5-10.2l0.8-9.2l6.5-9.6l0,0c-0.7-1.2-1.8-2.4-3.4-3.6l-25.1,37l23.1-38.3c-0.2-0.1-0.4-0.2-0.5-0.3
				c-2.9-1.4-5.7-0.9-8.1,0.3l-24,40.3h-10.7L319,367.8L319,367.8z"/>
			<path class="st0" d="M327.5,388.8c9.9,5.5,16.1,4,19.2,2.1c1.1-0.6,1.5-2.1,1-3.3c-0.5-1-1-2-1.5-3
				c-7.5-13.5-17.8-15.7-23.8-15.7c-1.3,0-2.4,0.1-3.2,0.2c-1,0.1-1.9,1-2,2.1C316.6,375.8,317.5,383.2,327.5,388.8L327.5,388.8z"/>
			<path class="st0" d="M322,361.5h10.7l23.9-40.2c-3.9,2-6.5,5.7-6.5,5.7l-4.2,0.7c-1.7,0.3-3.1,1.2-4,2.7L322,361.5L322,361.5z"/>
			<path class="st0" d="M354,383.5c0,0-7-9.4-6.2-13.3c0.8-3.9,6.7-13.1,6.7-13.1c5.5-0.9,10.8-9.8,10.8-9.8l0.7-8.8l6.1-9.2
				c0.8,1.5,1.1,2.9,1.2,3.7c0.1,0.5,0,0.9-0.2,1.2c-0.9,1.8-4.6,8.9,0.2,15.3L354,383.5z"/>
			<path class="st0" d="M387.9,336.9c0.2,0.9,0.5,1.8,1,2.1c1.8,1,3,0.7,3,0.7l3-6.1l0,0l-1.2-1.8c0,0-2.8-3.8-5.9-0.3
				C387.7,331.4,387.4,334.7,387.9,336.9L387.9,336.9z"/>
			<path class="st0" d="M374.9,347.3c0.6-11.2,12-10,12-10c-0.7-1.9-0.5-4.8-0.5-4.8l-9.6-0.1c-0.7,0-1.4,0.4-1.7,1.1
				C374,335.9,372,342,374.9,347.3L374.9,347.3z"/>
			<path class="st0" d="M344.1,326.4l5.8-1.4c0,0,2.8-4.6,7.1-5.4s7.8,1.1,7.8,1.1s-7.3-3.5-5-14.2L344.1,326.4L344.1,326.4z"/>
			<path class="st0" d="M363.1,301.6l7.8-9.8c1.9-1.6,3.9-1.6,6.1,0c0,0,1.8,1.4-5.6,9.5c-1,4.6-4,5-4,5s-2.4-3.2-4.2-2.5
				L363.1,301.6L363.1,301.6z"/>
			<path class="st0" d="M377,296.7c-0.2,0-2.5,3.4-4.6,5.6v2.7c0,0.9,0.8,1.6,1.7,1.5l1.2-0.1c0.4,0,0.7-0.2,0.9-0.5l2.1-3
				c0.5-0.7,0.6-1.7,0.2-2.5L377,296.7L377,296.7z"/>
			<path class="st0" d="M370.1,306.3c0,0-0.8,6.7,5.9,12.4l13.5-13.6c0,0,4.9-0.7,6.3,5.2L376,330.5c0,0-2.8-7.3-8-9.3
				s-6.6-8.7-6.6-8.7s-0.6-3.5,0-5.9c0,0,3.6-1.4,4.9,1.5C366.3,308.2,368.7,309.5,370.1,306.3L370.1,306.3z"/>
			<path class="st0" d="M397.5,291.3c0,0,1.3,8.8-0.6,15c0,0-6.5-0.7-8-5.7C389,300.6,389.3,294.6,397.5,291.3L397.5,291.3z"/>
			<path class="st0" d="M411.5,273.7c0,0-9.1,12.6-12.3,16.9c0,0,2.4,5.2,0,13.3L411.5,273.7L411.5,273.7z"/>
			<path class="st0" d="M406.3,296.7l0.8,4.9l5.2-3.1c0,0-0.8,8.7,0.6,11.5l-2,4.2l1.5,10l-3.4,8.4h-7.4l1.4-4.2
				c0,0-3.7-4.5-7.4-0.5l-1.4,2.3c0,0-4.4-3.8-7.5,0l-8.5,0.6l14.2-13.7c2.7-2.6,5-5.6,6.9-8.8L406.3,296.7L406.3,296.7z"/>
			<path class="st0" d="M366.5,365.2l7.5-12.9c0,0,2.6-2,6.5-1s10.1,4.9,10.1,4.9s-2.4,6.6-3.5,10
				C387.2,366.2,375.6,359.6,366.5,365.2L366.5,365.2z"/>
			<path class="st0" d="M384.9,372.5c0,0-3.1,6.7-4,13.5c0,0-3.3-4.9-8.5-3.3v-4.4c0,0,3.7-3.6,7.1-6.2
				C379.5,372.1,380.5,370.2,384.9,372.5z"/>
			<path class="st0" d="M380.5,387.8c0,0-1.6,11-1.3,16.2c0,0-10.5,4.2-15,13c0,0,1.6-10.9-2.3-15.1s-13.5-1.7-13.5-1.7
				s-3.5,0.5-3.3-5.9l5.1-4l3.4,2.5c0,0,9.4-4.1,13.8,7l2.9,1.2l0.5-13.6C370.9,387.3,373.5,382.9,380.5,387.8L380.5,387.8z"/>
			<path class="st0" d="M358.7,379c3.6,1.8,5.5,4.6,5.2,8.5l-4.2,3.1c0-0.9-4.5-1.9-5.7,1l-2.1-1.6L358.7,379L358.7,379z"/>
			<path class="st0" d="M366.5,366.2l-7.1,12.5c0,0,1.9,0.5,3,2.1l10-16.7C372.4,364.1,369.4,364.4,366.5,366.2L366.5,366.2z"/>
			<path class="st0" d="M362.9,419.4c0,0-2.3,4-1.4,6.6l-9.4-4.5c-1-0.5-1.5-1.5-1.4-2.5s0-2.6-1.1-3.9L362.9,419.4L362.9,419.4z"/>
			<path class="st0" d="M339.3,394.9v19.2l-4.4-2.3v-18C335,393.8,336.3,394.9,339.3,394.9z"/>
			<path class="st0" d="M333.7,393.8c0,0-2.7-1.2-3.7-2.2v19.2h3.7V393.8L333.7,393.8z"/>
			<path class="st0" d="M328.9,391v11.1h-3v-4.9c0,0,0-4.6-3.6-4.6s-3.3,4.8-3.3,4.8v7.5c0,0-0.2,2-2.8,2s-8.6,0-8.6,0l3-3
				c0,0-1.6-6.5-6.1-6.7s-5.2-0.1-5.2-0.1l7.8-6.2l-7.8-6.4c0,0,6.5,0.6,10.5-4.3s5.5-7.4,5.5-7.4S315,387.2,328.9,391L328.9,391z"
				/>
			<path class="st0" d="M319,431.8c0,0,1.2,4.9-3.5,8c-0.1,0-0.1,0.1-0.1,0.2v5.9c0,1.4,0.4,2.7,1.2,3.8c1.3,1.9,3.1,6.3,3.2,15.1
				c0,0.1-0.1,0.3-0.2,0.3l0,0c-1.6,0.3-2.8,1.6-2.8,3.3v4.5c0,1.2,1,2.2,2.2,2.2h4.9c0.1,0,0.2-0.1,0.3-0.2
				c0.5-1.5,3.5-12.1,1.9-17.2c-0.9-2.8-2.1-4.6-3.2-5.7c-1.1-1.3-1.8-2.9-1.8-4.6v-15.6H319L319,431.8z"/>
			<path class="st0" d="M309.2,436.7c0,0-1.4-6.7-13.1-5l-4,4.5v15.1l7.4,5.4c1.6,1.2,3.8,1.3,5.5,0.2l0,0c2.6-1.6,4.1-4.4,4.1-7.4
				L309.2,436.7L309.2,436.7z"/>
			<path class="st0" d="M313.3,448.8c0,0,4.5,7.1,4.3,14.4l0,0c-1.3,0.4-2.2,1.7-2.2,3.1v8.5c0,1.4,1.2,2.6,2.6,2.6h5.5l-6.6,19.5
				c-0.4,1.3-1.6,2.2-3,2.2h-3.8c0,0,3.8-14.5-0.9-25.6c-6.6-15.6-23.3-15-23.3-15l4.5-6.7c0,0,6,8.8,14.8,8.3
				C311.9,459.3,313.3,448.8,313.3,448.8L313.3,448.8z"/>
			<path class="st0" d="M310.1,441v7.8l2.1-0.7c1.1-0.4,1.8-1.4,1.8-2.5v-7.4l-2.4,0.9C310.7,439.3,310.1,440.1,310.1,441L310.1,441
				z"/>
			<path class="st0" d="M294,431.5l-1.9,2.3c-0.3,0.4-0.9,0.4-1.2,0l-3.3-4.2L294,431.5z"/>
			<path class="st0" d="M316.6,366.5h-16l-4.7,10.8c0,0,2,0.7,2,4.3c0,0,4.7,1.1,8.4-2C310,376.4,316.6,366.5,316.6,366.5
				L316.6,366.5z"/>
			<path class="st0" d="M445.5,275c0,0,6.3-8.2,3.4-44.3l-2.8,9.8L445.5,275z"/>
			<path class="st0" d="M308.9,281.1c0,0.1,2.4,14,6.1,20.5c3.7,6.3,15.6,11.7,15.8,11.8l5.7-4.7c0.9-0.8,1.6-1.9,1.9-3.1
				c0.9-4,1.8-13.7-6.2-21.9c-8.4-8.7-16.8-6.5-19.7-5.3c-0.6,0.2-1.2,0.6-1.7,1.1L308.9,281.1L308.9,281.1z"/>
			<path class="st0" d="M313.8,303.2l-7,4.9c4,6.8,16.3,12.9,17.1,11.7l5.9-5.1C327.9,313.8,318,308.9,313.8,303.2L313.8,303.2z"/>
			<path class="st0" d="M305.8,306.4l7.2-4.9c-3.1-6.4-5.2-17.5-5.6-19.8l-6.7,5C300.3,288.4,300.4,301.5,305.8,306.4L305.8,306.4z"
				/>
			<path class="st0" d="M431.6,319.8c0,0,3.3-1.8,7.3-2c0,0,6-0.1,6.5,6.8l0,0c0,0-23.5,19.8-30.6,46.7c-7.1,26.9-8.6,44.2-2.9,63.2
				c0,0-11.1,2.1-13.5-6.7C390.1,393.8,401.4,345.9,431.6,319.8z"/>
			<path class="st0" d="M198.2,349.5c4.8-6.4,1.1-13.5,0.2-15.3c-0.2-0.4-0.3-0.8-0.2-1.2c0.1-0.9,0.4-2.2,1.2-3.7l6.1,9.2l0.7,8.8
				c0,0,5.2,8.9,10.8,9.8c0,0,5.9,9.2,6.7,13.1c0.8,3.9-6.2,13.3-6.2,13.3L198.2,349.5z"/>
		</g>
	</g>
	<g>
		<path d="M242.1,284c0,0-9.3,6.6-7.1,19.6C235,303.6,236.7,291,242.1,284z"/>
		<path d="M166.7,301.9l-0.3,13.3c12.4,11,22.6,13,22.6,13C168.8,312,167.6,301.9,166.7,301.9z"/>
		<path d="M253.6,371.4c-5.5,13-16.8,18.5-16.8,18.5C251.4,386.5,253.6,371.4,253.6,371.4z"/>
		<path d="M275.1,433.7c-2.4,0-4.4,1.7-4.4,3.9v12.1l-0.4,0.9c-0.7,1.6,0,3.4,1.6,4.2l6.4-4.6v-12.8l-3-3.8H275.1z M277.7,438.6
			v10.3c0,0.7-0.3,1.4-0.9,1.7l-4.2,2.8c0,0,2.6-2.2,2.6-9.4c0-7.2-0.1-9.4-0.1-9.4l2.1,2.4C277.5,437.6,277.7,438.1,277.7,438.6z"
			/>
		<path d="M253.7,478.8c-1.2,0-2.2,1.2-2.2,2.8s1,2.8,2.2,2.8c1.2,0,2.2-1.2,2.2-2.8S254.9,478.8,253.7,478.8z"/>
		<path d="M253.5,472v-3.1c0-0.9-0.7-1.7-1.7-1.7h-3.1c-0.9,0-1.6,0.7-1.6,1.7c0,2.6,2.1,4.8,4.8,4.8
			C252.7,473.6,253.5,472.9,253.5,472z"/>
		<path d="M225.7,311.1l0.5-0.3l0,0c0.1,0.1,0,0.1-0.1,0.3l-0.5,0.8l0.6,0.6c0,0,0-0.2,0.1-0.5l0.3-0.6c0.1-0.1,0.1-0.2,0.1-0.3
			c0.3,0.2,0.7,0.2,1.1-0.1c0.2-0.1,0.3-0.3,0.4-0.5c0.1-0.2,0-0.4-0.2-0.6l-0.8-0.9c0,0,0.1,0.2-0.3,0.5l-1.6,1.1
			c-0.4,0.3-0.6,0.2-0.6,0.2l0.6,0.7C225.4,311.6,225.3,311.4,225.7,311.1z M227.4,310l0.2,0.2c0.2,0.2,0.1,0.4-0.1,0.5
			c-0.2,0.1-0.5,0.2-0.6,0l-0.2-0.2L227.4,310z"/>
		<path d="M226.3,312.7l1.2,1.4l0.9-0.5c-0.2,0-0.4,0-0.5,0c-0.1,0-0.2-0.1-0.3-0.2l-0.3-0.4l0.7-0.4l0.3,0.3
			c0.2,0.2,0.1,0.3,0.1,0.3l0.7-0.5c-0.1,0-0.2,0-0.3-0.1l-0.3-0.3l0.6-0.4l0.3,0.3c0.2,0.2,0.1,0.4-0.1,0.6l0.8-0.5l-1.2-1.3
			c0,0,0.1,0.2-0.3,0.5l-1.6,1.1C226.5,312.8,226.3,312.7,226.3,312.7z"/>
		<path d="M230,313l-1.6,2.1l0.3,0.4l2.7-0.9c0.6-0.2,0.8-0.1,0.8-0.1l-0.7-0.8c0,0,0.1,0.1-0.1,0.3c0,0-0.1,0.1-0.2,0.1l-1.6,0.5
			l0.9-1.2c0.1-0.1,0.1-0.2,0.2-0.2c0.2-0.1,0.3,0,0.3,0l-0.8-0.9C230.2,312.4,230.3,312.6,230,313z"/>
		<path d="M231.9,315.1l-1.7,1.2c-0.5,0.3-0.7,0.2-0.7,0.2l1.3,1.5l1-0.5c-0.2,0-0.4,0-0.5,0c-0.1,0-0.2-0.1-0.3-0.2l-0.3-0.4
			l0.7-0.5l0.3,0.3c0.2,0.2,0.1,0.3,0.1,0.3l0.7-0.5c-0.1,0-0.2,0-0.4-0.1l-0.3-0.3l0.7-0.5l0.3,0.3c0.2,0.2,0.1,0.4,0,0.6l0.8-0.6
			l-1.3-1.4C232.2,314.6,232.3,314.8,231.9,315.1z"/>
		<path d="M233.4,316.8l-1.7,1.2c-0.4,0.3-0.6,0.2-0.6,0.2l0.7,0.8c0,0-0.1-0.2,0.3-0.5l1.2-0.8l-0.4,1.1c-0.1,0.2-0.1,0.4-0.2,0.5
			c-0.1,0.2-0.2,0.3-0.2,0.3c0,0.1-0.1,0.1-0.1,0.1l0.4,0.4l2.2-1.6c0.4-0.3,0.6-0.2,0.6-0.2l-0.7-0.8c0.1,0.1,0,0.3-0.3,0.5
			l-0.9,0.6l0.6-1.8l-0.7-0.8l0,0.1c0,0.1,0,0.2,0,0.3C233.5,316.6,233.5,316.7,233.4,316.8z"/>
		<path d="M235.4,322.2l1.6-2.3l-0.4-0.5l-2.7,0.9c-0.4,0.1-0.7,0.1-0.7,0.1c0,0-0.1,0-0.1,0l0.7,0.8c0-0.1,0-0.2,0.1-0.3
			c0,0,0.2-0.1,0.4-0.2l0.7,0.8c-0.1,0.2-0.2,0.3-0.3,0.3c-0.2,0.1-0.3,0.1-0.3,0l0.9,1C235.1,322.9,235.1,322.7,235.4,322.2z
			 M234.7,320.5l1.1-0.4l-0.7,0.9L234.7,320.5z"/>
		<path d="M236.9,324.2c-0.1,0.2-0.1,0.3-0.2,0.4c0,0.1-0.1,0.1-0.1,0.1l0.4,0.5l2.3-1.8c0.4-0.3,0.6-0.2,0.6-0.2l-0.7-0.8
			c0.1,0.2,0,0.3-0.3,0.6l-0.9,0.7l0.6-2l-0.7-0.8l0,0.1c0,0.1,0,0.2,0,0.3c0,0.1-0.1,0.2-0.2,0.3l-1.7,1.3
			c-0.5,0.3-0.6,0.2-0.6,0.2l0.7,0.9c0,0-0.1-0.3,0.3-0.6l1.2-0.9l-0.3,1.2C237.1,323.8,237,324,236.9,324.2z"/>
		<path d="M242,325.5l-1.8-2l-0.9,0.6l0,0c0.1-0.1,0.2-0.1,0.4-0.1c0.1,0,0.2,0,0.3,0.1l0.4,0.4l-1.8,1.4c-0.4,0.3-0.6,0.3-0.7,0.2
			l0.9,1c0,0-0.1-0.2,0.3-0.6l1.8-1.4l0.3,0.3c0.1,0.1,0.2,0.3,0.2,0.4c0,0.1-0.1,0.2-0.1,0.3L242,325.5z"/>
		<path d="M223.6,312.8c0.2,0.2,0,0.3,0,0.3l0.6-0.4c-0.1,0-0.2,0-0.3-0.1l-0.3-0.3l0.9-0.6l0.3,0.4c0.1,0.1,0.1,0.2,0.1,0.3
			c0,0.1-0.1,0.1-0.1,0.2l0.6-0.4l-1-1.1c0.1,0.1,0,0.3-0.3,0.4l-1.9,1.2c-0.4,0.2-0.5,0.2-0.5,0.1l0.5,0.6c0,0-0.1-0.2,0.3-0.4
			l0.8-0.5L223.6,312.8z"/>
		<path d="M226.6,314.2c0.1-0.3,0.1-0.6-0.2-0.9c-0.2-0.3-0.6-0.4-1-0.4c-0.4,0-0.8,0.1-1.3,0.4c-0.4,0.3-0.7,0.6-0.8,0.9
			c-0.1,0.3-0.1,0.7,0.1,0.9c0.2,0.3,0.6,0.4,1,0.4c0.4,0,0.9-0.1,1.3-0.4C226.2,314.9,226.5,314.6,226.6,314.2z M224.5,315.2
			c-0.3,0-0.5-0.1-0.6-0.2c-0.2-0.2-0.2-0.4-0.1-0.7c0.1-0.3,0.4-0.5,0.7-0.7c0.3-0.2,0.6-0.3,0.9-0.3c0.3,0,0.5,0.1,0.6,0.2
			c0.2,0.2,0.2,0.4,0.1,0.7c-0.1,0.3-0.4,0.5-0.7,0.7C225.1,315.1,224.8,315.2,224.5,315.2z"/>
		<path d="M226.5,316.7c0.1-0.1,0.1-0.2,0.1-0.3c0.2,0.1,0.4,0.2,0.6,0.2c0.2,0,0.4-0.1,0.6-0.2c0.2-0.1,0.3-0.3,0.4-0.6
			c0.1-0.2,0-0.4-0.2-0.6l-0.6-0.7c0,0,0.1,0.2-0.3,0.4l-1.9,1.3c-0.2,0.2-0.4,0.2-0.5,0.2c0,0,0,0-0.1,0l0.5,0.6
			c0,0-0.1-0.2,0.3-0.4l0.7-0.5l0,0c0.1,0.1,0.1,0.2-0.1,0.4l-0.6,1l0.4,0.5c-0.1-0.1,0-0.3,0.1-0.5L226.5,316.7z M227.4,315.1
			l0.2,0.2c0.2,0.2,0.1,0.5-0.2,0.7c-0.3,0.2-0.6,0.2-0.9,0l-0.2-0.2L227.4,315.1z"/>
		<path d="M228.3,320l1.9-1.4c0.4-0.3,0.5-0.2,0.5-0.1l-0.5-0.5l-2.4,0.7l1.4-1.9l-0.5-0.6c0.1,0.1,0,0.3-0.3,0.4l-1.9,1.3
			c-0.4,0.3-0.6,0.2-0.6,0.1l0.5,0.6c0,0-0.1-0.2,0.3-0.5l1.7-1.2l-1.7,2.3l2.9-0.9l-1.8,1.2c-0.4,0.3-0.5,0.2-0.6,0.2l0.5,0.6
			C228,320.5,227.9,320.3,228.3,320z"/>
		<path d="M230.2,322.2l1.7-2.4l-0.2-0.3l-2.9,1c-0.3,0.1-0.6,0.1-0.7,0.1c0,0-0.1,0-0.1,0l0.5,0.6c0-0.1,0-0.2,0.1-0.3
			c0.1,0,0.1-0.1,0.3-0.1l0.4-0.1l0.7,0.8l-0.3,0.3c-0.2,0.2-0.2,0.3-0.3,0.3c-0.1,0-0.1,0-0.1,0l0.6,0.7
			C229.9,322.9,229.9,322.7,230.2,322.2z M229.7,320.6l1.4-0.5l-0.9,1.2L229.7,320.6z"/>
		<path d="M232.6,321.5l-1.9,1.4c-0.4,0.3-0.6,0.2-0.6,0.2l1.2,1.4l0.7-0.4c-0.2,0-0.4,0.1-0.4,0c-0.1,0-0.2-0.1-0.3-0.3l-0.4-0.5
			l2.1-1.5c0.2-0.2,0.4-0.2,0.5-0.2c0,0,0.1,0,0.1,0l-0.6-0.7C233,321.2,232.9,321.3,232.6,321.5z"/>
		<path d="M215.9,358.9l2.9,7.4l-4.9-8l4,8.7l-6.1-10l5.1,10.8l-7.6-12.2l6.3,12.9l-9-14.3l7.9,15.1l-10-15.8l8.9,16.5l-10.9-17.7
			l9.9,18.3L199.9,350l17.5,31.3l3.9-7.4c1.1-2,1-4.4-0.2-6.3L215.9,358.9z"/>
		<path d="M154,315.6l-14.3-7.5l14.3,9.1l-16.2-8.7l16.2,10.3l-18.2-10l18.2,11.5l-20.4-11.4l22.3,14.4l0.9-5.9c0.2-1-0.3-2-1.2-2.4
			l-14-7.2L154,315.6z"/>
		<path d="M148.4,304.3c0,0-2.3,2.1-6.7,2.2c0,0,8.4,3.5,15.5,8.7C157.2,315.2,155.6,311.1,148.4,304.3z"/>
		<path d="M199.5,387.9c0-1.5-4.1-1.5-4.3-0.3L197,403l-1.1-14.4l1.6,13.5l-0.9-12.9l1.4,12l-0.6-11.3l1.2,10.5l-0.4-9.7l1,8.8
			l-0.3-8.1l0.8,7.5L199.5,387.9z"/>
		<path d="M329.7,284c5.4,7,7.1,19.6,7.1,19.6C338.9,290.6,329.7,284,329.7,284z"/>
		<path d="M382.7,328.2c0,0,10.3-2,22.6-13l-0.3-13.3C404.2,301.9,403,312,382.7,328.2z"/>
		<path d="M318.2,371.4c0,0,2.2,15.1,16.8,18.5C335,389.9,323.7,384.4,318.2,371.4z"/>
		<path d="M286,404.8l14.1-14.1l-6.1-6.1V382c0-0.8-0.6-1.4-1.4-1.4H286v0h-6.8c-0.8,0-1.4,0.6-1.4,1.4v2.6l-6.1,6.1l14.1,14.1
			c0-1.9-0.7-3.8-2.1-5.2l-9-9l11.1,9.3l-9.4-9.4l9.4,7.4l-7.6-7.6l7.6,5.2l-5.5-5.5l5.5,3.6l0,0l0,0l0,0l0,0l5.5-3.6l-5.5,5.5
			l7.6-5.2l-7.6,7.6l9.4-7.4l-9.4,9.4l11.1-9.3l-9,9C286.7,401,286,402.8,286,404.8z M285.9,393.5l-3.7-3.7l3.6,1.8l-2.1-2.1
			l2.1,0.8l0,0l0.1,0l0,0l0,0l2.1-0.8l-2.1,2.1l3.6-1.8L285.9,393.5z M285.9,390.3l-5.7-5.7c0-1.2,1-2.1,2.2-2.1h3.5v0h3.5
			c1.2,0,2.2,1,2.2,2.1L285.9,390.3z"/>
		<path d="M301.1,449.7v-12.1c0-2.2-2-3.9-4.4-3.9h-0.3l-3,3.8v12.8l6.4,4.6c1.6-0.9,2.3-2.7,1.6-4.2L301.1,449.7z M295,450.7
			c-0.6-0.4-0.9-1-0.9-1.7v-10.3c0-0.5,0.2-1,0.5-1.4l2.1-2.4c0,0-0.1,2.2-0.1,9.4s2.6,9.4,2.6,9.4L295,450.7z"/>
		<path d="M318.1,478.8c-1.2,0-2.2,1.2-2.2,2.8s1,2.8,2.2,2.8c1.2,0,2.2-1.2,2.2-2.8S319.3,478.8,318.1,478.8z"/>
		<path d="M323.1,467.2H320c-0.9,0-1.7,0.7-1.7,1.6v3.1c0,0.9,0.7,1.7,1.7,1.7c2.6,0,4.8-2.1,4.8-4.8
			C324.8,467.9,324,467.2,323.1,467.2z"/>
		<path d="M369.1,352.3L358.1,370l8.9-16.5l-10,15.8l7.9-15.1l-9,14.3l6.3-12.9l-7.6,12.2l5.1-10.8l-6.1,10l4-8.7l-4.9,8l2.9-7.4
			l-5.2,8.7c-1.2,1.9-1.2,4.3-0.2,6.3l3.9,7.4l17.5-31.3l-12.5,20.6L369.1,352.3z"/>
		<path d="M417.8,320.3l18.2-11.5l-18.2,10l16.2-10.3l-16.2,8.7l14.3-9.1l-14.3,7.5l12.4-7.8l-14,7.2c-0.9,0.5-1.4,1.4-1.2,2.4
			l0.9,5.9l22.3-14.4L417.8,320.3z"/>
		<path d="M423.5,304.3c-7.2,6.8-8.8,11-8.8,11c7.1-5.2,15.5-8.7,15.5-8.7C425.8,306.4,423.5,304.3,423.5,304.3z"/>
		<path d="M372.3,387.9l-0.2,11.2l0.8-7.5l-0.3,8.1l1-8.8l-0.4,9.7l1.2-10.5l-0.6,11.3l1.4-12l-0.9,12.9l1.6-13.5l-1.1,14.4
			l1.9-15.4C376.5,386.4,372.4,386.3,372.3,387.9z"/>
	</g>
</g>
</svg>
