<?xml version="1.0" encoding="utf-8"?>
<!-- Generator: Adobe Illustrator 27.1.1, SVG Export Plug-In . SVG Version: 6.00 Build 0)  -->
<svg version="1.1" id="Layer_2_00000133488123520965800090000005949721041019863177_"
	 xmlns="http://www.w3.org/2000/svg" xmlns:xlink="http://www.w3.org/1999/xlink" x="0px" y="0px" viewBox="0 0 260 260"
	 style="enable-background:new 0 0 260 260;" xml:space="preserve">
<style type="text/css">
	.st0{fill:#ffffff;}
</style>
<g>
	<path class="st0" d="M58.5,83.1c0,0-52.2,57.7-58.5,72.4l144.8-47.4c0,0,5.5,33.6-47.7,41s-56-0.9-76.1,20.1c0,0-8.1,9-11.3,30.3
		c0,0-1.1,14.3-5.3,20.7c0,0,19.7-23.9,42.3-33.6c0,0-12.4,7.1-14.5,10.3l40.3-1.1c0,0,4.4-26.7,57.8-18.2l24.6-5.5L260,73.5
		l-56,27.1l4.1-24.2l37.4-36.5C245.5,39.8,100.9,98.3,58.5,83.1z"/>
</g>
</svg>
