<?xml version="1.0" encoding="UTF-8"?>
<svg id="Layer_2" data-name="Layer 2" xmlns="http://www.w3.org/2000/svg" viewBox="0 0 341.36 83.49">
  <defs>
    <style>
      .cls-1 {
        fill: #fff;
      }
    </style>
  </defs>
  <g id="Layer_1-2" data-name="Layer 1">
    <g>
      <path class="cls-1" d="m26.66,41.84l-8.07-11.65h-8.91v11.65H0V0h18.11c11.18,0,18.17,5.8,18.17,15.18,0,6.28-3.17,10.88-8.61,13.21l9.38,13.45h-10.4ZM17.57,7.89h-7.89v14.58h7.89c5.92,0,8.91-2.75,8.91-7.29s-2.99-7.29-8.91-7.29Z"/>
      <path class="cls-1" d="m76.33,34.07v7.77h-32.39V0h31.62v7.77h-22v9.09h19.43v7.53h-19.43v9.68h22.77Z"/>
      <path class="cls-1" d="m123.67,0l-18.11,41.84h-9.56L77.94,0h10.46l12.73,29.88L114.04,0h9.62Z"/>
      <path class="cls-1" d="m159.53,34.07v7.77h-32.39V0h31.62v7.77h-22v9.09h19.43v7.53h-19.43v9.68h22.77Z"/>
      <path class="cls-1" d="m205.61,0v41.84h-7.95l-20.86-25.4v25.4h-9.56V0h8.01l20.8,25.4V0h9.56Z"/>
      <path class="cls-1" d="m243.09,32.87h-19.43l-3.71,8.97h-9.92L228.69,0h9.56l18.71,41.84h-10.16l-3.71-8.97Zm-3.05-7.35l-6.63-16.02-6.63,16.02h13.27Z"/>
      <path class="cls-1" d="m299.69,0v41.84h-7.95l-20.86-25.4v25.4h-9.56V0h8.01l20.8,25.4V0h9.56Z"/>
      <path class="cls-1" d="m318.29,7.89h-13.39V0h36.46v7.89h-13.39v33.95h-9.68V7.89Z"/>
      <path class="cls-1" d="m9.8,52.07l-2.7,13.48h17.79l-.64,3.14H6.47l-2.89,14.56H0l6.86-34.31h23.53l-.64,3.14H9.8Z"/>
      <path class="cls-1" d="m29.17,72.56c0-8.77,6.23-15.29,14.9-15.29,7.16,0,11.72,4.22,11.72,10.88,0,8.82-6.23,15.34-14.9,15.34-7.16,0-11.72-4.31-11.72-10.93Zm23.14-4.22c0-5.05-3.09-8.04-8.48-8.04-6.42,0-11.18,5.1-11.18,12.11,0,5.05,3.09,7.99,8.48,7.99,6.42,0,11.18-5.05,11.18-12.06Z"/>
      <path class="cls-1" d="m78.29,57.26l-.64,3.38c-.34,0-.59-.05-.98-.05-5.49,0-9.17,3.14-10.44,9.56l-2.6,13.09h-3.48l5.1-25.78h3.33l-.88,4.71c2.3-3.38,5.69-4.9,10.59-4.9Z"/>
      <path class="cls-1" d="m125.2,65.55c0,.93-.15,1.96-.34,3.04l-2.94,14.66h-3.48l2.94-14.71c.2-.88.25-1.67.25-2.4,0-3.63-2.11-5.74-6.37-5.74-5.15,0-8.82,2.84-10,8.63l-2.84,14.22h-3.48l2.94-14.71c.15-.83.24-1.62.24-2.35,0-3.68-2.06-5.78-6.37-5.78-5.25,0-8.87,3.04-10.1,9.02l-2.75,13.82h-3.48l5.1-25.78h3.33l-.83,4.12c2.45-2.99,5.83-4.31,9.75-4.31,4.36,0,7.3,1.86,8.43,5.15,2.6-3.43,6.37-5.15,10.88-5.15,5.83,0,9.12,3.09,9.12,8.28Z"/>
      <path class="cls-1" d="m160.2,57.46l-5.15,25.78h-3.33l.83-4.07c-2.45,2.7-5.88,4.31-10.05,4.31-6.62,0-11.23-4.12-11.23-10.93,0-8.82,6.18-15.29,14.56-15.29,4.9,0,8.33,2.01,9.8,5.59l1.08-5.39h3.48Zm-5.78,10.88c0-5.05-3.09-8.04-8.48-8.04-6.42,0-11.18,5.1-11.18,12.11,0,5.05,3.09,7.99,8.48,7.99,6.42,0,11.18-5.05,11.18-12.06Z"/>
      <path class="cls-1" d="m172.02,46.87h3.48l-7.25,36.37h-3.48l7.25-36.37Z"/>
    </g>
  </g>
</svg>