<?xml version="1.0" encoding="utf-8"?>
<!-- Generator: Adobe Illustrator 27.1.1, SVG Export Plug-In . SVG Version: 6.00 Build 0)  -->
<svg version="1.1" id="Revenant" xmlns="http://www.w3.org/2000/svg" xmlns:xlink="http://www.w3.org/1999/xlink" x="0px" y="0px"
	 viewBox="0 0 572.2 517.7" style="enable-background:new 0 0 572.2 517.7;" xml:space="preserve">
<style type="text/css">
	.st0{fill:#FFFFFF;}
	.st1{fill:#231F20;}
</style>
<g id="Revenant_00000102509461024531849570000012159027095319063429_">
	<path id="Background" d="M453,253.7c0.5-0.1,1-0.3,1.6-0.4c1.2-0.2,2.2-1,2.8-2l30.8-50.7l84-175l-101.9,88.9l1.8-37L494.3,1
		l-58.4,65.4L415.4,7.7l4.1,68.1L399.3,45l20.5,65.3l-11.5-13l10.8,41.1c1.1,4,1.3,8.1,0.6,12.2l-0.5,3.3c-0.9,5.6-4.7,10.4-10,12.5
		l-3.7,1.5c-6.4,2.6-13.9-1.2-15.1-8.1c0-0.3-0.1-0.6-0.1-0.9c-0.3-3.4,1.3-6.7,4.1-8.5l3.9-2.5l-4.1-8l-47.6,18.9
		c0.2-3,1.4-5.7,3.3-7.9c1.9-2.1,4.4-3.7,7.3-4.3c6.9-1.6,11.6-7.7,11.4-14.7l-0.8-24.7c0-1.1,0.3-2.3,1-3.2c0.6-1,1.5-1.7,2.5-2.2
		v-34l-8.7,6.4l1.6-15.1l-39.1,23.5c-0.9,0.6-1.5,1.6-1.5,2.7l-17.1,7.6c-1.4,0.6-2.4,1.9-2.6,3.4c-0.9,5.7-3.5,19.5-6.3,28.5
		c-0.4,1.4-1.1,2.8-2,3.9c-0.9,1.2-2,2.1-3.3,2.9c-1.9,1.1-4,1.7-6.1,1.7s-4.2-0.6-6.1-1.7c-2.5-1.5-4.4-4-5.3-6.8
		c-1.4-4.5-2.7-10.2-3.9-15.5c-1.1-5.3-2-10.2-2.4-13c-0.2-1.5-1.2-2.8-2.6-3.4l-17.1-7.6c0-1.1-0.6-2.1-1.5-2.7l-39.1-23.4
		l1.6,14.9l-8.7-6.4v34c2.1,0.9,3.5,3.1,3.4,5.4l-0.8,24.8c0,0.1,0,0.3,0,0.4c0,6.8,4.7,12.7,11.4,14.3c2.9,0.6,5.4,2.2,7.3,4.4
		c1.9,2.1,3.1,4.9,3.3,7.8l-47.6-18.9l-4.1,8l3.9,2.5c2.7,1.7,4.1,4.6,4.1,7.6c0,0.3,0,0.6,0,0.8c0,0.3,0,0.6-0.1,0.9
		c-1.2,6.9-8.6,10.7-15.1,8.1l-3.7-1.5c-5.3-2.1-9.1-6.9-10-12.5l-0.6-3.3c-0.6-4-0.5-8.2,0.6-12.2l10.9-41l-11.5,13L173,45
		l-20.2,30.8l4.1-68.1l-20.6,58.6L78.3,1l22.3,76.5l1.8,37L0.4,25.6l83.7,174.5l31,51.1c0.6,1,1.6,1.7,2.8,2
		c0.5,0.1,0.9,0.2,1.3,0.3c0,6.6,0.4,12.4,1.5,16.2c3.9,14.4,12.8,31.6,12.8,31.6s0,1-3.2,4.5c-2.5,2.9-9,8.5-13.1,12
		c-2.3,2-3.9,4.6-4.6,7.5l-2.3,1.1c-2.4,1.2-4.5,2.7-6.3,4.6l-6.1,6.4l-4.7,1.4c0,0-10.6,20.2,4,61.3c17,43.6,29.8,43.6,41,43.4
		c9.3-0.2,15.7-4.2,15.7-4.2l6.2,5.8c4.4,3,11.2,5.6,16.5,6c10.3,0.9,26.6-0.5,32.2-11.7c0,0,0.9-1.4,1.2-3c1.1-4.9,4.6-8,9.2-10
		l-0.2,10.2l28.6-4.7l0.2,11.5c0,4.1-1.1,8.1-2.9,11.9c-0.9,1.8-1.6,4.4-1.7,8c-0.1,5.3,3.7,17.7,6.9,27c1.3,3.8,2.4,7.1,3.2,9.2
		c0.5,1.5,2,2.5,3.6,2.5c2.6,0,5.1,1.3,6.4,3.6c2.8,4.6,10.4,12.2,23,12.5c12.6-0.2,20.3-7.8,23-12.5c1.3-2.2,3.8-3.6,6.4-3.6
		c1.6,0,3.1-1,3.6-2.5c0.7-2.2,1.9-5.4,3.2-9.2c3.2-9.3,7-21.7,6.9-27c-0.1-3.6-0.8-6.2-1.7-8c-1.8-3.7-3-7.8-3-11.9l0.2-11.5
		l28.6,4.7l-0.2-10.2c4.6,2,8.2,5.1,9.2,10c0.3,1.5,1.2,3,1.2,3c5.6,11.2,22,12.5,32.2,11.7c5.2-0.5,12.1-3.1,16.5-6l6.2-5.8
		c0,0,6.4,4,15.7,4.2c11.1,0.2,24,0.2,41-43.4c14.6-41.1,3.9-61.3,3.8-61.3l-4.6-1.4l-6.1-6.4c-1.8-1.9-3.9-3.5-6.3-4.6l-2.3-1.1
		c-0.7-2.9-2.3-5.5-4.6-7.5c-4-3.5-10.5-9.1-13.1-12c-3.1-3.4-3.2-4.4-3.2-4.5c0,0,8.9-17.2,12.8-31.6
		C452.5,265.9,453,260.2,453,253.7z"/>
	<g id="Mask">
		<path class="st0" d="M263.2,281.8c0,0.1-2.4,14-6.1,20.5c-3.7,6.3-15.6,11.7-15.8,11.8l-5.7-4.7c-0.9-0.8-1.6-1.9-1.9-3.1
			c-0.9-4-1.8-13.7,6.2-21.9c8.4-8.7,16.8-6.5,19.7-5.3c0.6,0.2,1.2,0.6,1.7,1.1L263.2,281.8L263.2,281.8z"/>
		<path class="st0" d="M258.3,303.8l7,4.9c-4,6.8-16.3,12.9-17.1,11.7l-5.9-5.1C244.2,314.4,254.1,309.5,258.3,303.8L258.3,303.8z"
			/>
		<path class="st0" d="M266.3,307l-7.2-4.9c3.1-6.4,5.2-17.5,5.6-19.8l6.7,5C271.8,289.1,271.7,302.1,266.3,307L266.3,307z"/>
		<path class="st0" d="M315.6,365.2h-17l-3.6,9.6l-1.3-7.4l-0.8-0.4c-1.1-0.5-1.8-1.6-1.8-2.8v-2.8l7.5,0.4c0,0,6.9,0.2,5.8-6.3
			c0,0-1.1-0.4-2.4,0.3c-1.1,0.6-2.3,1-3.6,1h-7.9v-5.1c0-1.1,0.6-2.1,1.6-2.5c1.4-0.6,3.2-2.1,3.2-5.4h-6.7l5.9-5.9h-6.2
			c-1.2,0-2.2-1-2.2-2.2c0,1.2-1,2.2-2.2,2.2h-6.2l5.9,5.9h-6.7c0,3.3,1.8,4.8,3.2,5.4c1,0.4,1.6,1.4,1.6,2.5v5.1h-8
			c-1.3,0-2.5-0.4-3.6-1c-1.3-0.7-2.4-0.3-2.4-0.3c-1.1,6.5,5.8,6.3,5.8,6.3l7.6-0.4v2.9c0,1.2-0.7,2.2-1.7,2.8l-0.9,0.4l-1.3,7.4
			l-3.6-9.6h-17c0,0-0.5-2.8,0.4-7.2l9,3.2l-6.8-10.3c1-2.2,2.3-4.5,4-6.9c2.8,4.2,5.6,6.2,5.6,6.2l10.4,3.7l-7.9-12
			c-1.3-0.9-2.5-2-3.6-3.2c5.4-5.8,10.9-9.7,14.4-11.9c2.4-1.5,5.4-1.5,7.8,0c3.5,2.2,9,6.1,14.4,11.9c-1.1,1.2-2.4,2.3-3.7,3.2
			l-7.9,12l10.4-3.7c0,0,2.8-2,5.6-6.3c1.7,2.4,3,4.7,4,6.8l-6.8,10.3l9.1-3.2C316,362.4,315.5,365.2,315.6,365.2L315.6,365.2z"/>
		<path class="st0" d="M302.4,391.5l-16.3,16.3l-16.3-16.3l6.6-6.6v-2.8c0-1,0.8-1.9,1.9-1.9h5.3c0.7,0,1.3-0.6,1.3-1.3
			s-0.6-1.3-1.3-1.3h-1.5l0.4-4.6c0.1-1.5,1-2.8,2.3-3.5l1.2-0.7l1.2,0.7c1.3,0.7,2.2,2.1,2.3,3.5l0.4,4.6h-1.5
			c-0.7,0-1.3,0.6-1.3,1.3s0.6,1.3,1.3,1.3h5.4c1,0,1.9,0.9,1.9,1.9v2.8L302.4,391.5L302.4,391.5z"/>
		<path class="st0" d="M273.1,399.5H270c-1.9,0-3.6,1-4.7,2.5l-1.6,2.5l3.3,3.3c0.8,0.8,2,1.3,3.1,1.3H283l-7.6-8.5
			C274.9,399.9,274,399.5,273.1,399.5z"/>
		<path class="st0" d="M223.3,421.9l15.6-7.5v3.5c0,1.4,1.2,2.6,2.6,2.6l0,0c1.3,0,2.4-0.9,2.6-2.1l1.5-7.1c0.3-1.2,1.4-2.1,2.6-2.1
			h4.2v16.4c0,1.3-1,2.5-2.3,2.6l-28.3,4.2v-8C221.8,423.3,222.4,422.4,223.3,421.9L223.3,421.9z"/>
		<path class="st0" d="M178.2,402.4v9.4c0,0,15.5,8.1,21.4,16.3c4.8,6.8,2.4,14.8,2.4,14.8s6.9-5.3,7.2-14.9S199,410.5,199,410.5
			S191.8,404,178.2,402.4L178.2,402.4z"/>
		<path class="st0" d="M178.2,414.2l-1.3,6.9c0,0,21.6,12.6,5.9,25.9c0,0,17.8,1.5,17.7-8.3c-0.4-6.4-1.7-8-3.1-10.6
			C196,425.5,189.3,418.7,178.2,414.2L178.2,414.2z"/>
		<path class="st0" d="M175.3,428.3c0,0,7.8,3.7,6.7,8.8s-3.3,4.8-3.3,4.8s-4,2.2-8.5-6.8l-3,1.5c0,0,4.3,5.6,7,7.2
			c0,0-3.7,0.1-9.6-6.5h-7.9c0,0,8.9,7.5,12,8.6s5.8,1.2,8.8,1.1s6.6-1.4,8.2-4.5c1.6-3.1,1.6-5.6,1.6-5.6s-0.5-9.7-10.6-13.9
			L175.3,428.3L175.3,428.3z"/>
		<path class="st0" d="M139.1,382.3c0,0,12.9-4.8,17-8c6,21.8,7.7,42.9,2.1,61.1c-6.3,2.2-12.4,1.5-18.1-3
			C145.5,422.1,144.6,395.9,139.1,382.3L139.1,382.3z"/>
		<path class="st0" d="M111.4,338.3c15.3,10.7,21.1,25.9,26.8,41.8c0,0,13-4.1,17.2-8.2c0,0-4.9-21.7-29.4-45.2
			C126,326.8,113,323.9,111.4,338.3L111.4,338.3z"/>
		<path class="st0" d="M110.2,331.6l-0.9,6.6l-5.1-0.2C104.2,337.9,104.4,333,110.2,331.6L110.2,331.6z"/>
		<path class="st0" d="M108.6,340c0,0-3.1,5.8-3.5,10.8c0,0-3.7-5.7-6.7-7.1C98.3,343.7,99.6,337.7,108.6,340z"/>
		<path class="st0" d="M97.9,345.1c0,0,4.8,4.4,5.5,6.7c0,0-9.3,16.3,0.6,44.2c0,0,4.7,13.1,14.8,28.1l1.8,2.5
			c-0.5,1.3-1.5,2.2-2.9,2.8c0,0-1.2,0-5.6-7.7s-8.2-15.8-8.2-15.8s-8.7-18.8-9.8-34.9s0.4-19.8,0.4-19.8S95.4,347.3,97.9,345.1
			L97.9,345.1z"/>
		<path class="st0" d="M118.6,430.4c0,0,4,5.5,10.2,7.2c3.9,1.4,6.5-0.1,7.8-1.3c0.8-0.6,1.2-1.6,1.2-2.6v-1.6
			c-0.3,0.1-4.9-2.3-10.9-2s-5.9-2.3-5.9-2.3C120.6,429.2,119.4,429.7,118.6,430.4L118.6,430.4z"/>
		<path class="st0" d="M132.6,422.6c0,0,0,5.2-2.1,6.5c2.6,0.3,5.3,0.7,7.9,1.6c1.3-2.1,2.3-5.1,2.6-8
			C138.2,423.3,135.4,423.4,132.6,422.6z"/>
		<path class="st0" d="M131.9,397.8c0.2-0.4,2.3,15.5,0.9,23.2c2.7,0.8,5.5,0.8,8.4,0c1-6.3,0.3-14-0.6-21.5
			C136,400.7,133.7,399.3,131.9,397.8L131.9,397.8z"/>
		<path class="st0" d="M135.4,380.2c0,0-6.6,1.8-4.7,10.5c1.8,8.7,9.7,7,9.7,7C139.5,391.1,138,385.1,135.4,380.2L135.4,380.2z"/>
		<path class="st0" d="M119.7,349c0,0,12.3,15.1,14.8,29.3c0,0-5.7,3.4-5.8,8.8c0,0-5.4-15.9-9-22.1c0,0,3.6-4.1-0.7-11.6
			C115.9,348.2,119.7,349,119.7,349z"/>
		<path class="st0" d="M111.4,340.6l7.5,7c0,0-3.8,0.3-2,4s4.6,8.8,2.4,12.6c0,0-5.8-9.3-11.6-12.9c-0.6-0.4-0.9-1.1-0.7-1.8
			C107.4,347.2,108.8,342.5,111.4,340.6L111.4,340.6z"/>
		<path class="st0" d="M105.5,352.4c0,0-1.2,13.4,13.1,12.7C118.6,365.1,111.4,356.6,105.5,352.4z"/>
		<path class="st0" d="M104.2,353c0,0-7.3,14.2-0.8,36c0,0-1.9-10.7,5.1-12.6c0,0,6-1.6,9.7,16.4c3.2,15.6-2.3,16.1-2.8,16.2
			s-3.6,1.5-4.8-0.7c0,0,8,15.8,12.7,19.8c0,0,5.9,3.1,7.7-3c1-7,0.9-15.5-0.7-25.5c-1.6-7.1-2.3-9.4-5.1-16.2s-6.7-16.6-6.7-16.6
			s-10.2,0.7-13-5.7C103.7,356,104.2,353,104.2,353L104.2,353z"/>
		<path class="st0" d="M128.5,213.4l-1.9-0.7v4.2c1.3,4.5,20.8,44.5,33.2,79.4l4,0.9v-5.5L128.5,213.4L128.5,213.4z"/>
		<path class="st0" d="M124.9,218c0,0-0.2,8.8,5.4,21.1c0,0,16.1,40.6,18.2,47c2.1,6.3,2.8,17,2.8,17l5.8,5.8c0,0,1.5-8.9-1.6-18
			s-29-71.5-29-71.5L124.9,218L124.9,218z"/>
		<path class="st0" d="M131.7,247.1l-2.9-1.7c0,0,0.8,7.9,3.8,17c3,9.1,7.7,24.4,7.7,24.4s3.6,8.2,3.6,14.3l5.6,1.2
			c0,0-0.1-9.3-2.1-14.8C145.4,282,131.7,247.2,131.7,247.1L131.7,247.1z"/>
		<path class="st0" d="M130,263.9l-1.6,1.8c-0.5,0.6-0.8,1.4-0.8,2.2l0.5,12.5c0,0,4.9-1.7,4.8-8.3C132.9,265.6,130,263.9,130,263.9
			z"/>
		<path class="st0" d="M133,276.8c-0.1-0.5,0,13.1,0,13.1s3.6,1.3,3.6,5.6l0.5-2c0.4-1.8,0.7-3.5,0.7-5.4v-3.7
			C137.8,284.4,134.1,281,133,276.8L133,276.8z"/>
		<path class="st0" d="M116.3,322.1c0,0,0.8-1.1,1.8-2.3c1-1.2,2.9-1,3.6,0.3c0.1,0.2,0.2,0.5,0.2,0.7L116.3,322.1L116.3,322.1z"/>
		<path class="st0" d="M131.1,313.6L131.1,313.6c1.1,0,2.2,0.6,2.7,1.6l0.8,1.6h-6.9l0.8-1.6C128.9,314.2,129.9,313.6,131.1,313.6
			L131.1,313.6z"/>
		<path class="st0" d="M173.7,428.4c-2.4,8.8-13.5,6.7-13.5,6.7c5.7-19,4.2-36.3-2.9-63.2c-7.1-26.9-30.6-46.7-30.6-46.7l0,0
			c0.5-6.9,6.5-6.8,6.5-6.8c4,0.2,7.3,2,7.3,2C170.7,346.6,182,394.4,173.7,428.4z"/>
		<path class="st0" d="M178.2,399.5c0,0,0.1-10.3-3.5-24.6l6.5,3.9v-3.4l-8.2-6.9c-3.2-10.4-8.2-22.2-16.4-33.7
			c0,0-8.9-11.6-23.7-23.6l-0.1-2.5l7.6-2l2.3-3.1l6.6,0.4c0,0,8,7.4,9.7,11.6l-1.6,9.6l4.5,9.6h9.1l0.9,2.6l-5.1,5.5
			c-0.6,0.7-0.8,1.6-0.4,2.4l4.8,9.8c0.4,0.7,1.1,1.2,2,1.2h5.5c0.7,0,1.4,0.4,1.6,1.1c1.4,3.8,6.2,16.4,8,23.6c0,0-6-0.4-4.7,4.7
			c1.4,5,5.9,3.3,6.2,3.2l0,0c1.1,7.4,1.5,15.2,1.5,15.2S183.9,400.5,178.2,399.5L178.2,399.5z"/>
		<path class="st0" d="M189.9,388.3c-0.2,0.1-4.1,1.4-5.2-2.7c-1.2-4.2,3.9-3.8,3.9-3.8c0.1,0.3,0.2,0.6,0.2,0.9
			C189.3,384.4,189.6,386.3,189.9,388.3L189.9,388.3z"/>
		<path class="st0" d="M180.8,375.8v2.1l-6.2-3.9c-0.4-1.5-0.8-3-1.3-4.6L180.8,375.8L180.8,375.8z"/>
		<path class="st0" d="M182.6,354.7l-1,0.4c-0.8,0.4-1.7,0.5-2.6,0.5l-4.4-0.1c-0.9,0-1.7-0.5-2.1-1.3l-4.2-8.9
			c-0.4-0.9-0.2-1.9,0.4-2.5l3.3-3.6L182.6,354.7L182.6,354.7z"/>
		<path class="st0" d="M196.1,349.9h-5l-6.9,3.1c-0.5,0.2-1.1,0-1.4-0.4l-8.9-13.2c-0.2-0.4-0.2-0.8,0.1-1.2l2.8-3.4l3.4,6.5
			c0,0,1.9,0,3.1-0.6c0.6-0.3,1.2-0.7,1.5-1.6C184.5,339.2,195.5,336.6,196.1,349.9L196.1,349.9z"/>
		<path class="st0" d="M252.9,368.4c-24.5-3.4-32,21.5-32,21.5l-2-3.4c0,0,8.6-11.7,7.6-15.8c-1-4.1-7.2-13.7-7.2-13.7
			c-5.8-0.9-11.5-10.2-11.5-10.2l-0.8-9.2l-6.5-9.6l0,0c0.7-1.2,1.8-2.4,3.4-3.6l25.1,37.1l-23-38.3c0.2-0.1,0.4-0.2,0.6-0.3
			c2.9-1.4,5.7-0.9,8.1,0.3l23.9,40.2h10.7L252.9,368.4L252.9,368.4z"/>
		<path class="st0" d="M244.4,389.4c-9.9,5.5-16.1,4-19.2,2.1c-1.1-0.6-1.5-2.1-0.9-3.3c0.5-1,1-2,1.5-3
			c7.6-13.5,17.8-15.7,23.8-15.7c1.3,0,2.4,0.1,3.2,0.2c1,0.1,1.9,1,2,2.1C255.3,376.4,254.5,383.8,244.4,389.4L244.4,389.4z"/>
		<path class="st0" d="M249.9,362.1h-10.7l-23.9-40.2c3.9,2,6.5,5.7,6.5,5.7l4.2,0.7c1.7,0.3,3.1,1.2,4,2.7L249.9,362.1L249.9,362.1
			z"/>
		<path class="st0" d="M198.4,350.1c4.8-6.4,1.1-13.5,0.2-15.3c-0.2-0.4-0.3-0.8-0.2-1.2c0.1-0.9,0.4-2.2,1.2-3.7l6.1,9.2l0.7,8.8
			c0,0,5.2,8.9,10.8,9.8c0,0,5.9,9.2,6.7,13.1s-6.2,13.3-6.2,13.3L198.4,350.1z"/>
		<path class="st0" d="M184.2,337.5c-0.2,0.9-0.5,1.8-1,2.1c-1.8,1-3,0.7-3,0.7l-3-6.1l0,0l1.2-1.8c0,0,2.8-3.8,5.9-0.3
			C184.4,332,184.7,335.3,184.2,337.5L184.2,337.5z"/>
		<path class="st0" d="M197.2,347.9c-0.6-11.2-12-10-12-10c0.7-1.9,0.5-4.8,0.5-4.8l9.6-0.1c0.7,0,1.4,0.4,1.7,1.1
			C198,336.5,200.1,342.6,197.2,347.9L197.2,347.9z"/>
		<path class="st0" d="M227.9,327l-5.8-1.4c0,0-2.8-4.6-7.1-5.4s-7.8,1.1-7.8,1.1s7.3-3.5,5-14.2L227.9,327L227.9,327z"/>
		<path class="st0" d="M208.9,302.2l-7.8-9.8c-1.9-1.6-3.9-1.6-6.1,0c0,0-1.8,1.4,5.6,9.5c1,4.6,4,5,4,5s2.4-3.2,4.2-2.5
			L208.9,302.2L208.9,302.2z"/>
		<path class="st0" d="M195,297.3c0.2,0,2.5,3.4,4.6,5.6v2.7c0,0.9-0.8,1.6-1.7,1.5l-1.2-0.1c-0.4,0-0.7-0.2-0.9-0.5l-2.1-3
			c-0.5-0.7-0.6-1.7-0.2-2.5L195,297.3L195,297.3z"/>
		<path class="st0" d="M202,306.9c0,0,0.8,6.7-5.9,12.4l-13.5-13.6c0,0-4.9-0.7-6.3,5.2l19.8,20.2c0,0,2.8-7.3,8-9.3
			s6.6-8.7,6.6-8.7s0.6-3.5,0-5.9c0,0-3.6-1.4-4.9,1.5C205.8,308.8,203.4,310.1,202,306.9L202,306.9z"/>
		<path class="st0" d="M174.6,292c0,0-1.3,8.8,0.6,15c0,0,6.5-0.7,7.9-5.7C183.1,301.2,182.8,295.3,174.6,292L174.6,292z"/>
		<path class="st0" d="M160.6,274.4c0,0,9.1,12.6,12.3,16.9c0,0-2.4,5.2,0,13.3L160.6,274.4L160.6,274.4z"/>
		<path class="st0" d="M165.8,297.3l-0.8,4.9l-5.2-3.1c0,0,0.8,8.7-0.6,11.5l1.9,4.2l-1.5,10l3.4,8.4h7.4L169,329
			c0,0,3.7-4.5,7.4-0.5l1.4,2.3c0,0,4.4-3.8,7.5,0l8.5,0.6l-14.2-13.7c-2.7-2.6-5-5.6-6.9-8.8L165.8,297.3L165.8,297.3z"/>
		<path class="st0" d="M205.6,365.8l-7.5-12.9c0,0-2.6-2-6.5-1s-10.1,4.9-10.1,4.9s2.4,6.6,3.4,10
			C184.9,366.8,196.4,360.2,205.6,365.8L205.6,365.8z"/>
		<path class="st0" d="M187.2,373.1c0,0,3.1,6.7,4,13.5c0,0,3.3-4.9,8.5-3.3v-4.4c0,0-3.7-3.6-7.1-6.2
			C192.6,372.7,191.5,370.8,187.2,373.1z"/>
		<path class="st0" d="M191.5,388.4c0,0,1.6,11,1.3,16.2c0,0,10.5,4.2,15,13c0,0-1.6-10.9,2.3-15.1c3.9-4.3,13.5-1.7,13.5-1.7
			s3.5,0.5,3.3-5.9l-5.1-4l-3.4,2.5c0,0-9.4-4.1-13.8,7l-2.9,1.2l-0.5-13.6C201.2,387.9,198.6,383.5,191.5,388.4L191.5,388.4z"/>
		<path class="st0" d="M213.4,379.6c-3.6,1.8-5.5,4.6-5.2,8.5l4.2,3.1c0-0.9,4.5-1.9,5.7,1l2.1-1.6L213.4,379.6L213.4,379.6z"/>
		<path class="st0" d="M205.6,366.8l7.1,12.5c0,0-1.9,0.5-3,2.1l-10-16.7C199.7,364.7,202.6,365,205.6,366.8L205.6,366.8z"/>
		<path class="st0" d="M209.2,420c0,0,2.3,4,1.4,6.6l9.4-4.5c1-0.5,1.5-1.5,1.4-2.5s0-2.6,1.1-3.9L209.2,420L209.2,420z"/>
		<path class="st0" d="M232.6,395.5v19.2l4.4-2.3v-18C237,394.4,235.7,395.5,232.6,395.5z"/>
		<path class="st0" d="M238.2,394.4c0,0,2.7-1.2,3.7-2.2v19.2h-3.7V394.4L238.2,394.4z"/>
		<path class="st0" d="M243.1,391.6v11.1h3v-4.9c0,0,0-4.6,3.6-4.6s3.3,4.8,3.3,4.8v7.5c0,0,0.2,2,2.8,2h8.6l-3-3
			c0,0,1.6-6.5,6.1-6.7s5.2-0.1,5.2-0.1l-7.8-6.2l7.8-6.4c0,0-6.5,0.6-10.5-4.3s-5.5-7.4-5.5-7.4S256.9,387.8,243.1,391.6
			L243.1,391.6z"/>
		<path class="st0" d="M316.8,409.1v17.7c0,1.1-0.9,2-2,2h-2.5c0,0-4.2-7.6-9.2-7.5s-17-0.1-17-0.1s-11.9,0.2-17,0.1
			c-5-0.1-9.2,7.5-9.2,7.5h-2.5c-1.1,0-2-0.9-2-2v-17.7h9.5c1.6,0.3,2.8,1.8,2.8,3.4v1.7c0,1.3,1,2.3,2.3,2.3h32.3
			c1.3,0,2.3-1,2.3-2.3v-1.7c0-1.7,1.2-3.1,2.8-3.4H316.8z"/>
		<path class="st0" d="M302.4,410.2v2.2c0,1.3-1,2.3-2.3,2.3H272c-1.3,0-2.3-1-2.3-2.3v-2.2H302.4z"/>
		<path class="st0" d="M252.9,432.4c0,0-1.2,4.9,3.5,8c0.1,0,0.1,0.1,0.1,0.2v5.9c0,1.4-0.4,2.7-1.2,3.8c-1.3,1.9-3.1,6.3-3.2,15.1
			c0,0.1,0.1,0.3,0.2,0.3l0,0c1.6,0.3,2.8,1.6,2.8,3.3v4.5c0,1.2-1,2.2-2.2,2.2H248c-0.1,0-0.2-0.1-0.3-0.2
			c-0.5-1.5-3.5-12.1-1.9-17.2c0.9-2.8,2.1-4.6,3.2-5.7c1.1-1.3,1.8-2.9,1.8-4.6v-15.6L252.9,432.4L252.9,432.4z"/>
		<path class="st0" d="M316.8,432.4v4.5h-5.3c-2-8.8-10.9-7.4-14-6.7c-0.8,0.2-1.6,0.2-2.5,0.1l-9-1.5l-9,1.5
			c-0.8,0.1-1.6,0.1-2.4-0.1c-3.1-0.8-12-2.1-14.1,6.7h-5.3v-4.5c0-1,0.8-1.8,1.8-1.8h3.5c0,0,5.2-7.1,9.1-7.1h32.6
			c3.9,0,9.1,7.1,9.1,7.1h3.5C316,430.5,316.8,431.4,316.8,432.4L316.8,432.4z"/>
		<path class="st0" d="M262.8,437.3c0,0,1.4-6.7,13.1-5l4,4.5v15.1l-7.4,5.4c-1.6,1.2-3.8,1.3-5.5,0.2l0,0c-2.6-1.6-4.1-4.4-4.1-7.4
			L262.8,437.3L262.8,437.3z"/>
		<path class="st0" d="M258.6,449.3c0,0-4.5,7.1-4.3,14.4l0,0c1.3,0.4,2.2,1.7,2.2,3.1v8.5c0,1.4-1.2,2.6-2.6,2.6h-5.5l6.6,19.5
			c0.4,1.3,1.6,2.2,3,2.2h3.8c0,0-3.8-14.5,0.9-25.6c6.6-15.6,23.3-15,23.3-15l-4.5-6.7c0,0-6,8.8-14.8,8.3
			C260,459.8,258.6,449.3,258.6,449.3L258.6,449.3z"/>
		<path class="st0" d="M261.9,441.5v7.8l-2.1-0.7c-1.1-0.4-1.8-1.4-1.8-2.5v-7.4l2.4,0.9C261.3,439.9,261.9,440.6,261.9,441.5
			L261.9,441.5z"/>
		<path class="st0" d="M286.1,430.2l-4.6,6.5c-0.1,0.1-0.1,0.3-0.1,0.4v11.5c0,0.2,0,0.3,0.1,0.4l3.9,5.9c0.3,0.5,1,0.5,1.3,0
			l3.9-5.9c0.1-0.1,0.1-0.3,0.1-0.4v-11.5c0-0.2,0-0.3-0.1-0.4L286.1,430.2z"/>
		<path class="st0" d="M277.9,432.1l1.9,2.3c0.3,0.4,0.9,0.4,1.2,0l3.3-4.2L277.9,432.1z"/>
		<path class="st0" d="M286.1,459.9L286.1,459.9c-0.9,0.1-27.9,3.8-23.6,33.7c0,0,0.7,16.9,23.6,22.2l0,0
			c22.9-5.4,23.6-22.2,23.6-22.2C313.9,463.7,286.9,460.1,286.1,459.9z M286.1,513.6L286.1,513.6c-15.2-1.8-15.1-14.1-15.1-15.2
			c0-1,0-13,15.1-15l0,0c15.1,2,15.1,14,15.1,15C301.2,499.5,301.2,511.8,286.1,513.6z M301.9,503.8c0.3-0.9,6.1-20.3-15.9-22.2l0,0
			c-21.9,1.9-16.1,21.3-15.9,22.2c-0.5-0.7-7.1-10.4-2-20.4c5.2-10.1,17.3-9.1,17.9-9l0,0c0.6-0.1,12.7-1.1,17.9,9
			C309,493.5,302.4,503.1,301.9,503.8L301.9,503.8z"/>
		<path class="st0" d="M300.1,498.4c0-1,0-12.1-14-13.9l0,0c-14,1.8-14,12.9-14,13.9s0,12.4,14,14l0,0
			C300.1,510.8,300.1,499.4,300.1,498.4L300.1,498.4z M286.1,509.9L286.1,509.9c-6.2-0.5-6.3-6-6.3-6.7s-0.1-7.2,6.3-7.4l0,0
			c6.4,0.2,6.3,6.8,6.3,7.4S292.3,509.4,286.1,509.9z"/>
		<path class="st0" d="M340.5,303c0,0,0.6,4.3-1.5,6.6c-1.7,1.8-9.6,8.9-13.1,12c-1,0.9-2.4,1.2-3.7,0.7c-6.4-2.5-25-11.9-23.3-35.9
			l12.9-9c0,0-10-13.2-25.7-13c-15.8-0.3-25.7,13-25.7,13l12.9,9c1.8,24-16.9,33.4-23.3,35.9c-1.3,0.5-2.7,0.2-3.7-0.7
			c-3.4-3.1-11.4-10.2-13.1-12c-2.1-2.3-1.5-6.6-1.5-6.6c-6.2,7-13.4,9-13.4,9l12,15.3l23.2,37.8h1.9c-0.1-2.7,0.1-5.2,0.7-7.6
			l-0.3-0.1c0,0-12.3-8.8-11.1-28.5c0,0,4.3,13.6,13.5,20.1l0.4,0.6c1.4-3.2,2.8-5.1,2.8-5.1c0.4-0.6,0.8-1.2,1.2-1.8
			c-2.8-4.7-5.3-11.6-4.7-21c0,0,2.9,9.1,9,16c5.4-5.7,11.6-9.8,15.5-12c2.3-1.4,5.2-1.4,7.5,0c3.9,2.2,10.1,6.3,15.5,12
			c6.1-6.9,8.9-15.9,8.9-15.9c0.6,9.4-1.9,16.3-4.7,21c0.4,0.6,0.9,1.2,1.3,1.9c0,0,1.3,1.9,2.8,5l0.4-0.6
			c9.2-6.5,13.5-20.1,13.5-20.1c1.2,19.7-11.1,28.5-11.1,28.5l-0.2,0.1c0.5,2.4,0.8,5,0.7,7.6h1.8l23.2-37.8l12-15.3
			C353.9,312,346.7,310,340.5,303L340.5,303z M280,324.1c-3.1,1.3-8.6,7-8.6,7c3.6-18.2,6.5-59.2,6.5-59.2
			C281.2,297.2,280,324.1,280,324.1z M292.2,324.1c0,0-1.3-26.9,2-52.2c0,0,3,41,6.5,59.2C300.8,331.2,295.3,325.4,292.2,324.1z"/>
		<path class="st0" d="M255.3,367.1h16l4.7,10.8c0,0-2,0.7-2,4.3c0,0-4.7,1.1-8.4-2C262,377,255.3,367.1,255.3,367.1L255.3,367.1z"
			/>
		<path class="st0" d="M294.2,378.1h-3.1l-0.3-5c0,0-0.1-6.1-4.7-6.1s-4.7,6.1-4.7,6.1l-0.3,5H278l2-9.8c2.9,0,3.1-4,3.1-7.3
			s1-13.6,1-13.6l2-8.7l2.1,8.7c0,0,1,10.4,1,13.6s0.2,7.3,3.1,7.3L294.2,378.1L294.2,378.1z"/>
		<path class="st0" d="M126.6,275.7c0,0-6.3-8.2-3.3-44.3l2.8,9.8L126.6,275.7z"/>
		<path class="st0" d="M299,399.5h3.1c1.9,0,3.6,1,4.7,2.5l1.6,2.5l-3.3,3.3c-0.8,0.8-2,1.3-3.1,1.3h-12.9l7.6-8.5
			C297.3,399.9,298.1,399.5,299,399.5z"/>
		<path class="st0" d="M349,421.9l-15.6-7.5v3.5c0,1.4-1.2,2.6-2.6,2.6l0,0c-1.3,0-2.4-0.9-2.6-2.1l-1.5-7.1
			c-0.3-1.2-1.4-2.1-2.6-2.1h-4.2v16.4c0,1.3,1,2.5,2.3,2.6l28.3,4.2v-8C350.5,423.3,349.9,422.4,349,421.9L349,421.9z"/>
		<path class="st0" d="M394,402.4v9.4c0,0-15.5,8.1-21.4,16.3c-4.8,6.8-2.4,14.8-2.4,14.8s-6.9-5.3-7.2-14.9s10.2-17.5,10.2-17.5
			S380.3,404,394,402.4L394,402.4z"/>
		<path class="st0" d="M394,414.2l1.3,6.9c0,0-21.6,12.6-6,25.9c0,0-17.8,1.5-17.7-8.3c0.4-6.4,1.7-8,3.1-10.6
			S382.8,418.7,394,414.2L394,414.2z"/>
		<path class="st0" d="M396.9,428.3c0,0-7.8,3.7-6.7,8.8s3.3,4.8,3.3,4.8s4,2.2,8.5-6.8l3,1.5c0,0-4.3,5.6-7,7.2
			c0,0,3.7,0.1,9.6-6.5h8c0,0-8.9,7.5-12,8.6s-5.8,1.2-8.8,1.1s-6.6-1.4-8.2-4.5s-1.6-5.6-1.6-5.6s0.5-9.7,10.6-13.9L396.9,428.3
			L396.9,428.3z"/>
		<path class="st0" d="M433.1,382.3c0,0-12.9-4.8-17-8c-6,21.8-7.7,42.9-2.1,61.1c6.3,2.2,12.4,1.5,18.1-3
			C426.7,422.1,427.6,395.9,433.1,382.3L433.1,382.3z"/>
		<path class="st0" d="M460.8,338.3c-15.3,10.7-21.1,25.9-26.8,41.8c0,0-13-4.1-17.2-8.2c0,0,4.9-21.7,29.4-45.2
			C446.2,326.8,459.2,323.9,460.8,338.3L460.8,338.3z"/>
		<path class="st0" d="M462,331.6l0.9,6.6l5.1-0.2C468,337.9,467.8,333,462,331.6L462,331.6z"/>
		<path class="st0" d="M463.6,340c0,0,3.1,5.8,3.5,10.8c0,0,3.7-5.7,6.7-7.1C473.8,343.7,472.5,337.7,463.6,340z"/>
		<path class="st0" d="M474.2,345.1c0,0-4.8,4.4-5.5,6.7c0,0,9.3,16.3-0.6,44.2c0,0-4.7,13.1-14.9,28.1l-1.8,2.5
			c0.5,1.3,1.5,2.2,2.9,2.8c0,0,1.2,0,5.6-7.7s8.2-15.8,8.2-15.8s8.6-18.8,9.8-34.9c1.2-16.1-0.4-19.8-0.4-19.8
			S476.8,347.3,474.2,345.1L474.2,345.1z"/>
		<path class="st0" d="M453.6,430.4c0,0-4,5.5-10.2,7.2c-3.9,1.4-6.5-0.1-7.8-1.3c-0.8-0.6-1.2-1.6-1.2-2.6v-1.6
			c0.3,0.1,4.9-2.3,10.9-2s5.9-2.3,5.9-2.3C451.5,429.2,452.8,429.7,453.6,430.4L453.6,430.4z"/>
		<path class="st0" d="M439.5,422.6c0,0,0,5.2,2.1,6.5c-2.6,0.3-5.3,0.7-7.9,1.6c-1.3-2.1-2.3-5.1-2.6-8
			C433.9,423.3,436.8,423.4,439.5,422.6L439.5,422.6z"/>
		<path class="st0" d="M440.3,397.8c-0.2-0.4-2.3,15.5-0.9,23.2c-2.7,0.8-5.5,0.8-8.4,0c-1-6.3-0.3-14,0.6-21.5
			C436.1,400.7,438.4,399.3,440.3,397.8L440.3,397.8z"/>
		<path class="st0" d="M436.8,380.2c0,0,6.5,1.8,4.7,10.5s-9.7,7-9.7,7C432.7,391.1,434.2,385.1,436.8,380.2L436.8,380.2z"/>
		<path class="st0" d="M452.4,349c0,0-12.3,15.1-14.8,29.3c0,0,5.7,3.4,5.8,8.8c0,0,5.4-15.9,9-22.1c0,0-3.6-4.1,0.6-11.6
			C456.2,348.2,452.4,349,452.4,349z"/>
		<path class="st0" d="M460.8,340.6l-7.5,7c0,0,3.8,0.3,2,4c-1.8,3.6-4.6,8.8-2.4,12.6c0,0,5.8-9.3,11.6-12.9
			c0.6-0.4,0.9-1.1,0.7-1.8C464.7,347.2,463.4,342.5,460.8,340.6L460.8,340.6z"/>
		<path class="st0" d="M466.7,352.4c0,0,1.2,13.4-13.1,12.7C453.6,365.1,460.7,356.6,466.7,352.4z"/>
		<path class="st0" d="M468,353c0,0,7.3,14.2,0.8,36c0,0,2-10.7-5.1-12.6c0,0-6-1.6-9.7,16.4c-3.2,15.6,2.3,16.1,2.8,16.2
			s3.6,1.5,4.8-0.7c0,0-8,15.8-12.7,19.8c0,0-5.9,3.1-7.7-3c-1-7-0.9-15.5,0.7-25.5c1.6-7.1,2.3-9.4,5.1-16.2s6.7-16.6,6.7-16.6
			s10.2,0.7,13-5.7C468.5,356,468,353,468,353L468,353z"/>
		<path class="st0" d="M443.7,213.4l2-0.7v4.2c-1.3,4.5-20.8,44.5-33.2,79.4l-4,0.9v-5.5L443.7,213.4L443.7,213.4z"/>
		<path class="st0" d="M447.3,218c0,0,0.2,8.8-5.4,21.1c0,0-16.1,40.6-18.2,47s-2.8,17-2.8,17l-5.8,5.8c0,0-1.5-8.9,1.6-18
			s29-71.5,29-71.5L447.3,218L447.3,218z"/>
		<path class="st0" d="M440.4,247.1l2.9-1.7c0,0-0.8,7.9-3.8,17c-3,9.1-7.7,24.4-7.7,24.4s-3.6,8.2-3.6,14.3l-5.6,1.2
			c0,0,0.1-9.3,2-14.8C426.7,282,440.4,247.2,440.4,247.1L440.4,247.1z"/>
		<path class="st0" d="M442.2,263.9l1.6,1.8c0.5,0.6,0.8,1.4,0.8,2.2l-0.5,12.5c0,0-4.9-1.7-4.8-8.3
			C439.2,265.6,442.2,263.9,442.2,263.9z"/>
		<path class="st0" d="M439.2,276.8c0.1-0.5,0,13.1,0,13.1s-3.6,1.3-3.6,5.6l-0.5-2c-0.5-1.8-0.7-3.5-0.7-5.4v-3.7
			C434.4,284.4,438.1,281,439.2,276.8L439.2,276.8z"/>
		<path class="st0" d="M455.8,322.1c0,0-0.8-1.1-1.8-2.3c-1-1.2-2.9-1-3.6,0.3c-0.1,0.2-0.2,0.5-0.2,0.7L455.8,322.1L455.8,322.1z"
			/>
		<path class="st0" d="M441.1,313.6L441.1,313.6c-1.1,0-2.2,0.6-2.7,1.6l-0.8,1.6h6.9l-0.8-1.6C443.3,314.2,442.2,313.6,441.1,313.6
			L441.1,313.6z"/>
		<path class="st0" d="M394,399.5c0,0-0.1-10.3,3.5-24.6l-6.5,3.9v-3.4l8.2-6.9c3.2-10.4,8.2-22.2,16.4-33.7c0,0,8.9-11.6,23.7-23.6
			v-2.5l-7.6-2l-2.3-3.1l-6.6,0.4c0,0-8,7.4-9.7,11.6l1.6,9.6l-4.5,9.6h-9.1l-0.9,2.6l5.1,5.5c0.6,0.7,0.8,1.6,0.4,2.4l-4.8,9.8
			c-0.4,0.7-1.1,1.2-2,1.2h-5.5c-0.7,0-1.4,0.4-1.6,1.1c-1.4,3.8-6.2,16.4-8,23.6c0,0,6-0.4,4.7,4.7c-1.4,5-5.9,3.3-6.2,3.2l0,0
			c-1,7.4-1.5,15.2-1.5,15.2S388.3,400.5,394,399.5L394,399.5z"/>
		<path class="st0" d="M382.3,388.3c0.2,0.1,4.1,1.4,5.2-2.7c1.2-4.2-3.9-3.8-3.9-3.8c-0.1,0.3-0.2,0.6-0.2,0.9
			C382.9,384.4,382.6,386.3,382.3,388.3L382.3,388.3z"/>
		<path class="st0" d="M382.2,389.1L382.2,389.1"/>
		<path class="st0" d="M391.4,375.8v2.1l6.2-3.9c0.4-1.5,0.8-3,1.3-4.6L391.4,375.8L391.4,375.8z"/>
		<path class="st0" d="M389.6,354.7l1,0.4c0.8,0.4,1.7,0.5,2.6,0.5l4.4-0.1c0.9,0,1.7-0.5,2.1-1.3l4.2-8.9c0.4-0.9,0.2-1.9-0.4-2.5
			l-3.3-3.6L389.6,354.7L389.6,354.7z"/>
		<path class="st0" d="M376.1,349.9h5l7,3.1c0.5,0.2,1.1,0,1.4-0.4l8.9-13.2c0.2-0.4,0.2-0.8,0-1.2l-2.8-3.4l-3.4,6.5
			c0,0-1.9,0-3.1-0.6c-0.6-0.3-1.2-0.7-1.5-1.6C387.7,339.2,376.7,336.6,376.1,349.9L376.1,349.9z"/>
		<path class="st0" d="M319.2,368.4c24.5-3.4,32,21.5,32,21.5l2-3.4c0,0-8.6-11.7-7.6-15.8c1-4.1,7.2-13.7,7.2-13.7
			c5.8-0.9,11.5-10.2,11.5-10.2l0.8-9.2l6.5-9.6l0,0c-0.7-1.2-1.8-2.4-3.4-3.6l-25.1,37l23.1-38.3c-0.2-0.1-0.4-0.2-0.5-0.3
			c-2.9-1.4-5.7-0.9-8.1,0.3l-24,40.3h-10.7L319.2,368.4L319.2,368.4z"/>
		<path class="st0" d="M327.7,389.4c9.9,5.5,16.1,4,19.2,2.1c1.1-0.6,1.5-2.1,1-3.3c-0.5-1-1-2-1.5-3c-7.5-13.5-17.8-15.7-23.8-15.7
			c-1.3,0-2.4,0.1-3.2,0.2c-1,0.1-1.9,1-2,2.1C316.8,376.4,317.7,383.8,327.7,389.4L327.7,389.4z"/>
		<path class="st0" d="M322.2,362.1h10.7l23.9-40.2c-3.9,2-6.5,5.7-6.5,5.7l-4.2,0.7c-1.7,0.3-3.1,1.2-4,2.7L322.2,362.1
			L322.2,362.1z"/>
		<path class="st0" d="M354.1,384.1c0,0-7-9.4-6.2-13.3s6.7-13.1,6.7-13.1c5.5-0.9,10.8-9.8,10.8-9.8l0.7-8.8l6.1-9.2
			c0.8,1.5,1.1,2.9,1.2,3.7c0.1,0.5,0,0.9-0.2,1.2c-0.9,1.8-4.6,8.9,0.2,15.3L354.1,384.1z"/>
		<path class="st0" d="M388,337.5c0.2,0.9,0.5,1.8,1,2.1c1.8,1,3,0.7,3,0.7l3-6.1l0,0l-1.2-1.8c0,0-2.8-3.8-5.9-0.3
			C387.8,332,387.5,335.3,388,337.5L388,337.5z"/>
		<path class="st0" d="M375,347.9c0.6-11.2,12-10,12-10c-0.7-1.9-0.5-4.8-0.5-4.8l-9.6-0.1c-0.7,0-1.4,0.4-1.7,1.1
			C374.1,336.5,372.1,342.6,375,347.9L375,347.9z"/>
		<path class="st0" d="M344.3,327l5.8-1.4c0,0,2.8-4.6,7.1-5.4c4.3-0.8,7.8,1.1,7.8,1.1s-7.3-3.5-5-14.2L344.3,327L344.3,327z"/>
		<path class="st0" d="M363.3,302.2l7.8-9.8c1.9-1.6,3.9-1.6,6.1,0c0,0,1.8,1.4-5.6,9.5c-1,4.6-4,5-4,5s-2.4-3.2-4.2-2.5
			L363.3,302.2L363.3,302.2z"/>
		<path class="st0" d="M377.1,297.3c-0.2,0-2.5,3.4-4.6,5.6v2.7c0,0.9,0.8,1.6,1.7,1.5l1.2-0.1c0.4,0,0.7-0.2,0.9-0.5l2.1-3
			c0.5-0.7,0.6-1.7,0.2-2.5L377.1,297.3L377.1,297.3z"/>
		<path class="st0" d="M370.2,306.9c0,0-0.8,6.7,5.9,12.4l13.5-13.6c0,0,4.9-0.7,6.3,5.2l-19.8,20.2c0,0-2.8-7.3-8-9.3
			s-6.6-8.7-6.6-8.7s-0.6-3.5,0-5.9c0,0,3.6-1.4,4.9,1.5C366.5,308.8,368.8,310.1,370.2,306.9L370.2,306.9z"/>
		<path class="st0" d="M397.6,292c0,0,1.3,8.8-0.6,15c0,0-6.5-0.7-8-5.7C389.1,301.2,389.4,295.3,397.6,292L397.6,292z"/>
		<path class="st0" d="M411.6,274.4c0,0-9.1,12.6-12.3,16.9c0,0,2.4,5.2,0,13.3L411.6,274.4L411.6,274.4z"/>
		<path class="st0" d="M406.4,297.3l0.8,4.9l5.2-3.1c0,0-0.8,8.7,0.6,11.5l-2,4.2l1.5,10l-3.4,8.4h-7.4l1.4-4.2c0,0-3.7-4.5-7.4-0.5
			l-1.4,2.3c0,0-4.4-3.8-7.5,0l-8.5,0.6l14.2-13.7c2.7-2.6,5-5.6,6.9-8.8L406.4,297.3L406.4,297.3z"/>
		<path class="st0" d="M366.7,365.8l7.5-12.9c0,0,2.6-2,6.5-1s10.1,4.9,10.1,4.9s-2.4,6.6-3.5,10
			C387.3,366.8,375.7,360.2,366.7,365.8L366.7,365.8z"/>
		<path class="st0" d="M385,373.1c0,0-3.1,6.7-4,13.5c0,0-3.3-4.9-8.5-3.3v-4.4c0,0,3.7-3.6,7.1-6.2
			C379.6,372.7,380.6,370.8,385,373.1z"/>
		<path class="st0" d="M380.6,388.4c0,0-1.6,11-1.3,16.2c0,0-10.5,4.2-15,13c0,0,1.6-10.9-2.3-15.1s-13.5-1.7-13.5-1.7
			s-3.5,0.5-3.3-5.9l5.1-4l3.4,2.5c0,0,9.4-4.1,13.8,7l2.9,1.2l0.5-13.6C371,387.9,373.6,383.5,380.6,388.4L380.6,388.4z"/>
		<path class="st0" d="M358.9,379.6c3.6,1.8,5.5,4.6,5.2,8.5l-4.2,3.1c0-0.9-4.5-1.9-5.7,1l-2.1-1.6L358.9,379.6L358.9,379.6z"/>
		<path class="st0" d="M366.7,366.8l-7.1,12.5c0,0,1.9,0.5,3,2.1l10-16.7C372.5,364.7,369.5,365,366.7,366.8L366.7,366.8z"/>
		<path class="st0" d="M363.1,420c0,0-2.3,4-1.4,6.6l-9.4-4.5c-1-0.5-1.5-1.5-1.4-2.5s0-2.6-1.1-3.9L363.1,420L363.1,420z"/>
		<path class="st0" d="M339.5,395.5v19.2l-4.4-2.3v-18C335.2,394.4,336.5,395.5,339.5,395.5z"/>
		<path class="st0" d="M333.9,394.4c0,0-2.7-1.2-3.7-2.2v19.2h3.7V394.4L333.9,394.4z"/>
		<path class="st0" d="M329.1,391.6v11.1h-3v-4.9c0,0,0-4.6-3.6-4.6s-3.3,4.8-3.3,4.8v7.5c0,0-0.2,2-2.8,2c-2.6,0-8.6,0-8.6,0l3-3
			c0,0-1.6-6.5-6.1-6.7s-5.2-0.1-5.2-0.1l7.8-6.2l-7.8-6.4c0,0,6.5,0.6,10.5-4.3s5.5-7.4,5.5-7.4S315.2,387.8,329.1,391.6
			L329.1,391.6z"/>
		<path class="st0" d="M319.2,432.4c0,0,1.2,4.9-3.5,8c-0.1,0-0.1,0.1-0.1,0.2v5.9c0,1.4,0.4,2.7,1.2,3.8c1.3,1.9,3.1,6.3,3.2,15.1
			c0,0.1-0.1,0.3-0.2,0.3l0,0c-1.6,0.3-2.8,1.6-2.8,3.3v4.5c0,1.2,1,2.2,2.2,2.2h4.9c0.1,0,0.2-0.1,0.3-0.2
			c0.5-1.5,3.5-12.1,1.9-17.2c-0.9-2.8-2.1-4.6-3.2-5.7c-1.1-1.3-1.8-2.9-1.8-4.6v-15.6L319.2,432.4L319.2,432.4z"/>
		<path class="st0" d="M309.4,437.3c0,0-1.4-6.7-13.1-5l-4,4.5v15.1l7.4,5.4c1.6,1.2,3.8,1.3,5.5,0.2l0,0c2.6-1.6,4.1-4.4,4.1-7.4
			L309.4,437.3L309.4,437.3z"/>
		<path class="st0" d="M313.5,449.3c0,0,4.5,7.1,4.3,14.4l0,0c-1.3,0.4-2.2,1.7-2.2,3.1v8.5c0,1.4,1.2,2.6,2.6,2.6h5.5l-6.6,19.5
			c-0.4,1.3-1.6,2.2-3,2.2h-3.8c0,0,3.8-14.5-0.9-25.6c-6.6-15.6-23.3-15-23.3-15l4.5-6.7c0,0,6,8.8,14.8,8.3
			C312.1,459.8,313.5,449.3,313.5,449.3L313.5,449.3z"/>
		<path class="st0" d="M310.3,441.5v7.8l2.1-0.7c1.1-0.4,1.8-1.4,1.8-2.5v-7.4l-2.4,0.9C310.9,439.9,310.3,440.6,310.3,441.5
			L310.3,441.5z"/>
		<path class="st0" d="M294.2,432.1l-1.9,2.3c-0.3,0.4-0.9,0.4-1.2,0l-3.3-4.2L294.2,432.1z"/>
		<path class="st0" d="M316.8,367.1h-16l-4.7,10.8c0,0,2,0.7,2,4.3c0,0,4.7,1.1,8.4-2C310.2,377,316.8,367.1,316.8,367.1
			L316.8,367.1z"/>
		<path class="st0" d="M445.6,275.7c0,0,6.3-8.2,3.4-44.3l-2.8,9.8L445.6,275.7z"/>
		<path class="st0" d="M309.1,281.8c0,0.1,2.4,14,6.1,20.5c3.7,6.3,15.6,11.7,15.8,11.8l5.7-4.7c0.9-0.8,1.6-1.9,1.9-3.1
			c0.9-4,1.8-13.7-6.2-21.9c-8.4-8.7-16.8-6.5-19.7-5.3c-0.6,0.2-1.2,0.6-1.7,1.1L309.1,281.8L309.1,281.8z"/>
		<path class="st0" d="M314,303.8l-7,4.9c4,6.8,16.3,12.9,17.1,11.7l5.9-5.1C328.1,314.4,318.2,309.5,314,303.8L314,303.8z"/>
		<path class="st0" d="M306,307l7.2-4.9c-3.1-6.4-5.2-17.5-5.6-19.8l-6.7,5C300.5,289.1,300.6,302.1,306,307L306,307z"/>
		<path class="st0" d="M431.7,320.4c0,0,3.3-1.8,7.3-2c0,0,6-0.1,6.5,6.8l0,0c0,0-23.5,19.8-30.6,46.7S406.4,416,412,435
			c0,0-11.1,2.1-13.5-6.7C390.2,394.3,401.5,346.5,431.7,320.4z"/>
		<path class="st0" d="M198.4,350.1c4.8-6.4,1.1-13.5,0.2-15.3c-0.2-0.4-0.3-0.8-0.2-1.2c0.1-0.9,0.4-2.2,1.2-3.7l6.1,9.2l0.7,8.8
			c0,0,5.2,8.9,10.8,9.8c0,0,5.9,9.2,6.7,13.1s-6.2,13.3-6.2,13.3L198.4,350.1z"/>
	</g>
	<g id="Mask-details">
		<path class="st1" d="M242.4,284.6c0,0-9.2,6.6-7.1,19.6C235.3,304.3,236.9,291.6,242.4,284.6z"/>
		<path class="st1" d="M167,302.5l-0.3,13.3c12.4,11,22.6,13,22.6,13C169.1,312.6,167.8,302.5,167,302.5z"/>
		<path class="st1" d="M253.9,372c-5.5,13-16.8,18.5-16.8,18.5C251.7,387.1,253.9,372,253.9,372z"/>
		<path class="st1" d="M275.3,434.2c-2.4,0-4.4,1.7-4.4,3.9v12.1l-0.4,0.9c-0.7,1.6,0,3.4,1.6,4.2l6.4-4.5V438l-3-3.8H275.3z
			 M277.9,439.1v10.3c0,0.7-0.3,1.4-0.9,1.7l-4.2,2.8c0,0,2.6-2.2,2.6-9.4c0-7.2-0.1-9.4-0.1-9.4l2.1,2.4
			C277.7,438.1,277.9,438.6,277.9,439.1z"/>
		<path class="st1" d="M253.9,479.3c-1.2,0-2.2,1.2-2.2,2.8s1,2.8,2.2,2.8s2.2-1.2,2.2-2.8S255.1,479.3,253.9,479.3z"/>
		<path class="st1" d="M253.7,472.5v-3.1c0-0.9-0.7-1.6-1.6-1.6H249c-0.9,0-1.6,0.7-1.6,1.6c0,2.6,2.1,4.8,4.8,4.8
			C253,474.1,253.7,473.4,253.7,472.5z"/>
		<path class="st1" d="M226,311.8l0.5-0.3l0,0c0.1,0.1,0,0.1-0.1,0.3l-0.5,0.8l0.6,0.6c0,0,0-0.2,0.1-0.5l0.3-0.6
			c0.1-0.1,0.1-0.2,0.1-0.3c0.3,0.2,0.7,0.2,1.1-0.1c0.2-0.1,0.3-0.3,0.4-0.5c0.1-0.2,0-0.4-0.2-0.6l-0.8-0.9c0,0,0.1,0.2-0.3,0.5
			l-1.6,1.1c-0.4,0.3-0.6,0.2-0.6,0.2l0.6,0.7C225.6,312.2,225.6,312,226,311.8z M227.7,310.6l0.2,0.2c0.2,0.2,0.1,0.4-0.1,0.5
			c-0.2,0.1-0.5,0.2-0.6,0l-0.2-0.2L227.7,310.6z"/>
		<path class="st1" d="M226.6,313.3l1.2,1.4l0.9-0.5c-0.2,0-0.4,0-0.5,0s-0.2-0.1-0.3-0.2l-0.3-0.4l0.7-0.4l0.3,0.3
			c0.2,0.2,0.1,0.3,0.1,0.3l0.7-0.5c-0.1,0-0.2,0-0.3-0.1l-0.3-0.3l0.6-0.4l0.3,0.3c0.2,0.2,0.1,0.4-0.1,0.6l0.8-0.5l-1.2-1.3
			c0,0,0.1,0.2-0.3,0.5l-1.6,1.1C226.8,313.4,226.6,313.3,226.6,313.3z"/>
		<path class="st1" d="M230.2,313.6l-1.6,2.1l0.3,0.4l2.7-0.9c0.6-0.2,0.8-0.1,0.8-0.1l-0.7-0.8c0,0,0.1,0.1-0.1,0.3
			c0,0-0.1,0.1-0.2,0.1l-1.6,0.5l0.9-1.2c0.1-0.1,0.1-0.2,0.2-0.2c0.2-0.1,0.3,0,0.3,0l-0.8-0.9C230.5,313,230.5,313.2,230.2,313.6z
			"/>
		<path class="st1" d="M232.1,315.7l-1.7,1.2c-0.5,0.3-0.7,0.2-0.7,0.2l1.3,1.5l1-0.5c-0.2,0-0.4,0-0.5,0s-0.2-0.1-0.3-0.2l-0.3-0.4
			l0.7-0.5l0.3,0.3c0.2,0.2,0.1,0.3,0.1,0.3l0.7-0.5c-0.1,0-0.2,0-0.4-0.1l-0.3-0.3l0.7-0.5l0.3,0.3c0.2,0.2,0.1,0.4,0,0.6l0.8-0.6
			l-1.3-1.4C232.5,315.2,232.6,315.4,232.1,315.7z"/>
		<path class="st1" d="M233.6,317.4l-1.7,1.2c-0.4,0.3-0.6,0.2-0.6,0.2l0.7,0.8c0,0-0.1-0.2,0.3-0.5l1.2-0.8l-0.4,1.1
			c-0.1,0.2-0.1,0.4-0.2,0.5c-0.1,0.2-0.2,0.3-0.2,0.3c0,0.1-0.1,0.1-0.1,0.1l0.4,0.4l2.2-1.6c0.4-0.3,0.6-0.2,0.6-0.2l-0.7-0.8
			c0.1,0.1,0,0.3-0.3,0.5l-0.9,0.6l0.6-1.8l-0.7-0.8v0.1c0,0.1,0,0.2,0,0.3C233.8,317.2,233.7,317.3,233.6,317.4z"/>
		<path class="st1" d="M235.6,322.8l1.6-2.3l-0.4-0.5l-2.7,0.9c-0.4,0.1-0.7,0.1-0.7,0.1h-0.1l0.7,0.8c0-0.1,0-0.2,0.1-0.3
			c0,0,0.2-0.1,0.4-0.2l0.7,0.8c-0.1,0.2-0.2,0.3-0.3,0.3c-0.2,0.1-0.3,0.1-0.3,0l0.9,1C235.3,323.5,235.3,323.3,235.6,322.8z
			 M235,321.1l1.1-0.4l-0.7,0.9L235,321.1z"/>
		<path class="st1" d="M237.2,324.8c-0.1,0.2-0.1,0.3-0.2,0.4c0,0.1-0.1,0.1-0.1,0.1l0.4,0.5l2.3-1.8c0.4-0.3,0.6-0.2,0.6-0.2
			l-0.7-0.8c0.1,0.2,0,0.3-0.3,0.6l-0.9,0.7l0.6-2l-0.7-0.8v0.1c0,0.1,0,0.2,0,0.3c0,0.1-0.1,0.2-0.2,0.3l-1.7,1.3
			c-0.5,0.3-0.6,0.2-0.6,0.2l0.7,0.9c0,0-0.1-0.3,0.3-0.6l1.2-0.9l-0.3,1.2C237.3,324.4,237.3,324.6,237.2,324.8z"/>
		<path class="st1" d="M242.2,326.1l-1.8-2l-0.9,0.6l0,0c0.1-0.1,0.2-0.1,0.4-0.1c0.1,0,0.2,0,0.3,0.1l0.4,0.4l-1.8,1.4
			c-0.4,0.3-0.6,0.3-0.7,0.2l0.9,1c0,0-0.1-0.2,0.3-0.6l1.8-1.4l0.3,0.3c0.1,0.1,0.2,0.3,0.2,0.4s-0.1,0.2-0.1,0.3L242.2,326.1z"/>
		<path class="st1" d="M223.8,313.4c0.2,0.2,0,0.3,0,0.3l0.6-0.4c-0.1,0-0.2,0-0.3-0.1l-0.3-0.3l0.9-0.6l0.3,0.4
			c0.1,0.1,0.1,0.2,0.1,0.3c0,0.1-0.1,0.1-0.1,0.2l0.6-0.4l-1-1.1c0.1,0.1,0,0.3-0.3,0.4l-1.9,1.2c-0.4,0.2-0.5,0.2-0.5,0.1l0.5,0.6
			c0,0-0.1-0.2,0.3-0.4l0.8-0.5L223.8,313.4z"/>
		<path class="st1" d="M226.8,314.8c0.1-0.3,0.1-0.6-0.2-0.9c-0.2-0.3-0.6-0.4-1-0.4s-0.8,0.1-1.3,0.4c-0.4,0.3-0.7,0.6-0.8,0.9
			s-0.1,0.6,0.1,0.9c0.2,0.3,0.6,0.4,1,0.4s0.9-0.1,1.3-0.4C226.4,315.5,226.7,315.2,226.8,314.8z M224.8,315.8
			c-0.3,0-0.5-0.1-0.6-0.2c-0.2-0.2-0.2-0.4-0.1-0.7c0.1-0.3,0.4-0.5,0.7-0.7s0.6-0.3,0.9-0.3c0.3,0,0.5,0.1,0.6,0.2
			c0.2,0.2,0.2,0.4,0.1,0.7c-0.1,0.3-0.4,0.5-0.7,0.7S225.1,315.8,224.8,315.8z"/>
		<path class="st1" d="M226.7,317.3c0.1-0.1,0.1-0.2,0.1-0.3c0.2,0.1,0.4,0.2,0.6,0.2c0.2,0,0.4-0.1,0.6-0.2
			c0.2-0.1,0.3-0.3,0.4-0.6c0.1-0.2,0-0.4-0.2-0.6l-0.6-0.7c0,0,0.1,0.2-0.3,0.4l-1.9,1.3c-0.2,0.2-0.4,0.2-0.5,0.2c0,0,0,0-0.1,0
			l0.5,0.6c0,0-0.1-0.2,0.3-0.4l0.7-0.5l0,0c0.1,0.1,0.1,0.2-0.1,0.4l-0.6,1l0.4,0.5c-0.1-0.1,0-0.3,0.1-0.5L226.7,317.3z
			 M227.7,315.7l0.2,0.2c0.2,0.2,0.1,0.5-0.2,0.7s-0.6,0.2-0.9,0l-0.2-0.2L227.7,315.7z"/>
		<path class="st1" d="M230.8,319c-0.1,0-0.2,0-0.4,0.2l-1.9,1.4c-0.4,0.3-0.3,0.5-0.6,0.3l-0.5-0.6c0.1,0,0.2,0.1,0.6-0.2l1.8-1.2
			l-2.9,0.9l1.7-2.3l-1.7,1.2c-0.4,0.3-0.3,0.5-0.3,0.5l-0.4-0.5c0.1,0,0.3,0,0.5-0.2l1.9-1.3c0.3-0.1,0.4-0.2,0.3-0.4l0.5,0.6
			l-1.4,1.9l2.4-0.7L230.8,319z"/>
		<path class="st1" d="M230.5,322.8l1.7-2.4l-0.2-0.3l-2.8,1c-0.3,0.1-0.6,0.1-0.7,0.1h-0.1l0.5,0.6c0-0.1,0-0.2,0.1-0.3
			c0.1,0,0.1-0.1,0.3-0.1l0.4-0.1l0.7,0.8l-0.3,0.3c-0.2,0.2-0.2,0.3-0.3,0.3s-0.1,0-0.1,0l0.6,0.7
			C230.2,323.5,230.1,323.3,230.5,322.8z M230,321.2l1.4-0.5l-0.9,1.2L230,321.2z"/>
		<path class="st1" d="M232.9,322.1l-1.9,1.4c-0.4,0.3-0.6,0.2-0.6,0.2l1.2,1.4l0.7-0.4c-0.2,0-0.4,0.1-0.4,0
			c-0.1,0-0.2-0.1-0.3-0.3l-0.4-0.5l2.1-1.5c0.2-0.2,0.4-0.2,0.5-0.2h0.1l-0.6-0.7C233.2,321.8,233.1,321.9,232.9,322.1z"/>
		<path class="st1" d="M216.1,359.4l2.9,7.4l-4.9-8l4,8.7l-6.1-10l5.1,10.8l-7.6-12.2l6.3,12.9l-9-14.3l7.9,15l-10-15.8l8.9,16.5
			l-10.9-17.7l9.9,18.3l-12.5-20.6l17.5,31.2l3.9-7.4c1.1-2,1-4.4-0.2-6.3L216.1,359.4z"/>
		<polygon class="st1" points="154.3,316.2 140,308.7 154.3,317.8 138.1,309.1 154.3,319.4 136.1,309.4 154.3,320.9 133.9,309.5 
			156.3,323.9 157.5,316.4 142,308.4 		"/>
		<path class="st1" d="M148.6,304.9c0,0-2.3,2.1-6.7,2.2c0,0,8.4,3.5,15.5,8.7C157.5,315.9,155.9,311.7,148.6,304.9z"/>
		<path class="st1" d="M199.7,388.4c0-1.5-4.1-1.5-4.3-0.3l1.9,15.4l-1.1-14.4l1.6,13.5l-0.9-12.9l1.4,12l-0.6-11.3l1.2,10.5
			l-0.4-9.7l1,8.8l-0.3-8.1l0.8,7.5L199.7,388.4z"/>
		<path class="st1" d="M329.8,284.6c5.4,7,7.1,19.6,7.1,19.6C339.1,291.2,329.8,284.6,329.8,284.6z"/>
		<path class="st1" d="M382.8,328.8c0,0,10.3-2,22.6-13l-0.3-13.3C404.4,302.5,403.1,312.6,382.8,328.8z"/>
		<path class="st1" d="M318.4,372c0,0,2.2,15.1,16.8,18.5C335.2,390.4,323.9,385,318.4,372z"/>
		<path class="st1" d="M286.2,405.3l14.1-14.1l-6.1-6.1v-2.5c0-0.8-0.6-1.4-1.4-1.4h-6.6l0,0h-6.8c-0.8,0-1.4,0.6-1.4,1.4v2.5
			l-6.1,6.1l14.1,14.1c0-1.9-0.7-3.8-2.1-5.2l-9-9l11.1,9.3l-9.4-9.4l9.4,7.4l-7.6-7.6l7.6,5.2l-5.5-5.5l5.5,3.6l0,0l0,0l0,0l0,0
			l5.5-3.6L286,396l7.6-5.2l-7.6,7.6l9.4-7.4l-9.4,9.4l11.1-9.3l-9,9C286.9,401.5,286.2,403.4,286.2,405.3z M286.1,394l-3.7-3.7
			l3.6,1.8l-2.1-2.1l2.1,0.8l0,0h0.1l0,0l0,0l2.1-0.8l-2.1,2.1l3.6-1.8L286.1,394z M286.1,390.9l-5.7-5.7c0-1.2,1-2.1,2.2-2.1h3.5
			l0,0h3.5c1.2,0,2.2,1,2.2,2.1L286.1,390.9z"/>
		<path class="st1" d="M301.3,450.2v-12.1c0-2.2-2-3.9-4.4-3.9h-0.3l-3,3.8v12.8l6.4,4.5c1.6-0.9,2.3-2.7,1.6-4.2L301.3,450.2z
			 M295.2,451.2c-0.6-0.4-0.9-1-0.9-1.7v-10.3c0-0.5,0.2-1,0.5-1.4l2.1-2.4c0,0-0.1,2.2-0.1,9.4c0,7.2,2.6,9.4,2.6,9.4L295.2,451.2z
			"/>
		<path class="st1" d="M318.3,479.3c-1.2,0-2.2,1.2-2.2,2.8s1,2.8,2.2,2.8s2.2-1.2,2.2-2.8S319.5,479.3,318.3,479.3z"/>
		<path class="st1" d="M323.3,467.7h-3.1c-0.9,0-1.6,0.7-1.6,1.6v3.1c0,0.9,0.7,1.6,1.6,1.6c2.6,0,4.8-2.1,4.8-4.8
			C325,468.4,324.2,467.7,323.3,467.7z"/>
		<path class="st1" d="M369.2,352.9l-10.9,17.7l8.9-16.5l-10,15.8l7.9-15l-9,14.3l6.3-12.9l-7.6,12.2l5.1-10.8l-6.1,10l4-8.7l-4.9,8
			l2.9-7.4l-5.2,8.7c-1.2,1.9-1.2,4.3-0.2,6.3l3.9,7.4l17.5-31.2l-12.5,20.6L369.2,352.9z"/>
		<polygon class="st1" points="417.9,320.9 436.1,309.4 417.9,319.4 434.1,309.1 417.9,317.8 432.2,308.7 417.9,316.2 430.3,308.4 
			414.8,316.4 416,323.9 438.3,309.5 		"/>
		<path class="st1" d="M423.6,304.9c-7.2,6.8-8.8,10.9-8.8,10.9c7.1-5.2,15.5-8.7,15.5-8.7C425.9,307,423.6,304.9,423.6,304.9z"/>
		<path class="st1" d="M372.5,388.4l-0.2,11.2l0.8-7.5l-0.3,8.1l1-8.8l-0.4,9.7l1.2-10.5l-0.6,11.3l1.4-12l-0.9,12.9l1.6-13.5
			l-1.1,14.4l1.9-15.4C376.6,386.9,372.5,386.9,372.5,388.4z"/>
	</g>
	<g id="Rev_00000093144674479567724460000017987289389176541365_">
		<path class="st0" d="M237.5,95.6L237.5,95.6l11.8,35.5l36.9,22.1l36.9-22.1l11.7-35.5l22.7-16.3l1.3-12.3l-30.7,18.5v7.7
			c0,0-4.3,18.7-20.3,32.5c0,0-5.1-4,12.8-30.7l-0.3-4l-12,5.3c0,0-4.3,26.1-8.8,35.5l-13.4,8l-13.4-8c-4.5-9.3-8.8-35.5-8.8-35.5
			l-12-5.3l-0.3,4c17.9,26.7,12.8,30.7,12.8,30.7c-16-13.9-20.3-32.5-20.3-32.5v-7.7l-30.7-18.4l1.3,12.3L237.5,95.6z"/>
		<path class="st0" d="M237,125.1l-15.7-24.5l-15.7-10.1v7.7l9.9,4.3l10.7,12.5v6.9l-17.1-16l-0.8,26.4c-0.1,4.3,2.8,8.1,7,9.1
			l13.8,3.1l1.1,12.8l4.8,7.5h15l2.1,9.9l25.3,44.3l5.3,5.1l-4.8,7.2l8.4,18.9l8.3-18.9l-4.8-7.2l5.3-5.1l25.3-44.3l2.1-9.9h15
			l4.8-7.5l1.1-12.8l13.8-3.1c4.2-1,7.2-4.8,7-9.1l-0.8-26.4l-17.1,16V115l10.7-12.5l9.9-4.3v-7.7l-15.8,10.1l-15.7,24.5l12.5-30.9
			l18.9-9.3v-8.8l-29.3,21.6L324.7,134l6.4,1.3L320.4,147l-34.2,75.4L252,147l-10.7-11.7l6.4-1.3l-12.8-36.3l-29.3-21.6V85l18.9,9.3
			L237,125.1z"/>
		<path class="st0" d="M294.8,241.7V257c0,0-1.1,1.6-2.5,3.6c-2-0.4-4.1-0.6-6.2-0.6H286c-2,0-4,0.2-5.9,0.6c-1.4-2-2.5-3.5-2.5-3.5
			v-15.4l8.6,17.4L294.8,241.7z"/>
		<path class="st0" d="M274.8,257.6l2.2,3.6c-3.9,1-7.6,2.6-11,4.8l-1.3-0.4c-1.1-0.3-2.1-1-2.9-1.9l-7.4-8.7l5-3.4L274.8,257.6z"/>
		<path class="st0" d="M317.8,255l-7.4,8.7c-0.7,0.9-1.8,1.5-2.9,1.9l-1.4,0.4c-3.4-2.1-7-3.7-10.9-4.8l2.2-3.7l15.4-6L317.8,255z"
			/>
		<path class="st0" d="M243.2,276.6c-1.3,0.6-2.5,1.2-3.7,2v-4.4L243.2,276.6z"/>
		<path class="st0" d="M262.6,268.5c-1,0.8-1.9,1.6-2.8,2.5l-2,0.6l-15.6-17.3l7.2,10.9l0.8,3.6l-17-5.8l-12.4-34.6l-24.7-16.5
			L188,187l9.2,3.1l5.2,16l32.8,19.6l-22.1-19.6l7.9-3.1l15.2,10.8l13.3,27.9v7.4l-11.5-4.9l10.5,8.7c1.8,1.5,3.6,3.2,5.1,5
			L262.6,268.5z"/>
		<path class="st0" d="M227.4,188.1l2.6,17.6l9.5,7l13.3,29l0.8,10l4.8-4.8l11.9,4.8l-18.7-40l22,40l2.6-24.4
			c0.1-0.9-0.2-1.8-0.8-2.5l-29.6-34.9l27.1,24.9L247.7,172l-7.4,9.3l5.5-12l-10-0.3c-0.9,0-1.8-0.5-2.4-1.2l-1.3-1.6
			c-0.3-0.4-0.8-0.7-1.3-0.9l-5-2l-49.5-19.7l44.6,28.8L227.4,188.1z"/>
		<path class="st0" d="M218.1,275.9l14.4,4.7v-10.7l-17.9-5.6l1.3,9C216.1,274.6,217,275.5,218.1,275.9z"/>
		<path class="st0" d="M230.4,288.6c-1.8,3.1-2.6,6.4-2.6,9.8l-9.7-3.2c-1.1-0.4-1.9-1.3-2.1-2.5l-1.3-9L230.4,288.6z"/>
		<path class="st0" d="M223.1,305.1c-0.2,0.1-0.3,0.2-0.5,0.3c-1.1,0.7-2.2,1.1-3.3,1.2l-1.1-2.9L223.1,305.1z"/>
		<path class="st0" d="M228.5,284.8v-3.2l-12.2-4c-1-0.3-1.8-1.2-2.1-2.2l-2.8-11h-2.3l2.8,14.9L228.5,284.8z"/>
		<path class="st0" d="M227.6,300.9c-0.5,0.6-1.3,1.5-2.3,2.4l-12.8-4.2l-2.8-14.9h2.4l2.8,11c0.3,1,1.1,1.9,2.1,2.2L227.6,300.9z"
			/>
		<path class="st0" d="M216.6,306.1c-0.8-0.4-1.6-1-2.2-1.9l-0.3-0.4l1.8,0.2L216.6,306.1z"/>
		<path class="st0" d="M218.2,259.6L218.2,259.6c-38.9-2.4-41.9-20-41.9-20l-4.3-18.5l0.8,21.3C187,265.2,218.9,259.6,218.2,259.6z"
			/>
		<path class="st0" d="M139.7,103L139.7,103l-7.2,25.5v26.1l15.8,20.6l16.8,10.4l7.1,23l14.3-23l9.6,1.5c4.9-9.6-0.8-20.3-0.8-20.3
			L176.5,187l14.4-21.5l-4.4-6.8c-1.1,10.8-12.2,16.4-12.2,16.4l-23.8-9.6l-3.6-22l7.8-29.8l-13,14.7l17.2-54.7L139.7,103z"/>
		<path class="st0" d="M205.7,202.5c-0.3,1.1,6.5,1.5,6.5,1.5l7.6-2.5l-1.5-3.8l-12-1.4c-2.1-2.9-0.1-20.4-0.1-20.4l8.4,2.7l0,0
			l10.5,21.7l-9.5-25.1c-10.4-3.2-17.6-10-17.6-10c5.8,12.5,3,28.8,3,28.8S205.9,201.4,205.7,202.5z"/>
		<path class="st0" d="M185,202.4l7.3,13.8l2.3-0.5l-8.5-21.5l-1.4,4.4C184.3,199.9,184.4,201.3,185,202.4z"/>
		<path class="st0" d="M195.3,216.7l-0.7,2.8l18.4,11.6l3.9-2.4L200.1,218c-0.5-0.3-1.1-0.6-1.7-0.7L195.3,216.7z"/>
		<path class="st0" d="M216.8,234.6l6.2,23.3c0.4,1.5,1.5,2.7,2.9,3.3l2.7,1.1l-9.2-29.2L216.8,234.6z"/>
		<path class="st0" d="M203,263.3l-2.8-1.1l6.5,12.3l-0.7-7.3C205.9,265.5,204.7,264,203,263.3z"/>
		<path class="st0" d="M205.5,288.7l-1.1,2.1l-1.2-1.6c-0.8-1.1-2.1-1.7-3.5-1.7c-0.2,0-0.4,0-0.6,0c-0.7,0.1-2.2,0.3-3.8,0.9
			l4.9-12.7l5.1,8.5C206.2,285.7,206.2,287.3,205.5,288.7z"/>
		<path class="st0" d="M180.1,286.7c-0.5,0.1-1,0.3-1.4,0.5l-1,0.5c-1.1-0.8-3.4-2.7-6.7-6.5l-1.2-12.9l10.3,18.2L180.1,286.7z"/>
		<path class="st0" d="M196.8,270.1c0,0-0.6,4-4.1,15.7c-0.6,2.1-1.3,3.7-2,5.1c-0.6,0.4-1.1,0.9-1.6,1.4l-1.7-2.8
			c-0.9-1.6-2.5-2.7-4.4-3l-0.5-4.1l6.9-0.3l3.5-7.9l-6.1-1.7l-27.9-30.4l-4.3-0.1l-14.2-11.8l-0.8-0.6l0.5,0.1l17.2,3.4
			L196.8,270.1z"/>
		<path class="st0" d="M243.7,271.1l8.5,3.4c-0.9,0-1.8,0.1-2.7,0.2c-0.4,0.1-0.8,0.1-1.2,0.2L243.7,271.1z"/>
		<path class="st0" d="M328.8,271.1l-4.7,4c-0.5-0.1-1-0.2-1.6-0.3c-0.8-0.1-1.5-0.2-2.3-0.2L328.8,271.1z"/>
		<polygon class="st0" points="332.9,274.2 332.9,274.2 333,274.2 		"/>
		<path class="st0" d="M332.9,274.2v4.6c-1.2-0.8-2.5-1.6-3.8-2.1L332.9,274.2z"/>
		<path class="st0" d="M384.3,187l-8.1,24.9l-24.7,16.5l-12.3,34.5l-16.9,5.8l0.8-3.6l7.2-10.9l-15.6,17.3l-2.8-0.8
			c-0.7-0.7-1.5-1.3-2.3-2l9.3-10.9c1.5-1.8,3.2-3.5,5.1-5l10.5-8.7L323,249v-7.3l13.1-27.9l15.2-10.8l7.9,3.1l-22.1,19.6l32.8-19.6
			l5.2-16L384.3,187z"/>
		<path class="st0" d="M340.3,166.1l-1.3,1.6c-0.6,0.7-1.5,1.2-2.4,1.2l-10,0.3l5.5,12l-7.4-9.3l-25.3,42.8l27.1-24.9l-29.6,34.9
			c-0.6,0.7-0.8,1.6-0.8,2.5l2.6,24.4l22-40l-18.6,40.1l11.9-4.8l4.8,4.8l0.8-10l13.3-29l9.5-7l2.6-17.6l6.4-15.8l44.6-28.8
			l-49.5,19.7l-5,2C341.1,165.4,340.6,165.7,340.3,166.1z"/>
		<path class="st0" d="M339.9,280.6l14.5-4.7c1.1-0.4,1.9-1.3,2.1-2.5l1.3-9l-17.9,5.6V280.6z"/>
		<path class="st0" d="M357.5,283.7l-1.3,9.1c-0.2,1.2-1,2.1-2.1,2.5l-10,3.2c0.1-3.4-0.7-6.7-2.5-9.9L357.5,283.7z"/>
		<path class="st0" d="M354.1,303.7l-1.1,2.9c-1.1-0.1-2.3-0.5-3.5-1.2c-0.1-0.1-0.3-0.2-0.4-0.3L354.1,303.7z"/>
		<path class="st0" d="M360.9,264.4l-2.8,11c-0.3,1-1,1.9-2,2.2l-12.3,4v3.2l16.7-5.5l2.8-14.9L360.9,264.4L360.9,264.4z"/>
		<path class="st0" d="M362.7,284.2l-2.7,14.9l-13.2,4.3c-1-0.9-1.8-1.8-2.3-2.4l11-3.6c1-0.3,1.7-1.2,2-2.2l2.8-11L362.7,284.2
			L362.7,284.2z"/>
		<path class="st0" d="M357.9,303.9l-0.3,0.4c-0.5,0.7-1.1,1.2-1.8,1.6l0.7-1.9L357.9,303.9z"/>
		<path class="st0" d="M399.4,242.5L399.4,242.5l0.8-21.3l-4.3,18.5c0,0-3,17.6-41.9,20C353.5,259.6,385.4,265.2,399.4,242.5z"/>
		<path class="st0" d="M398.1,175.1c0,0-11.1-5.6-12.2-16.4l-4.4,6.8l14.4,21.5l-18.8-20.3c0,0-5.7,10.7-0.8,20.3l9.6-1.5l14.3,23
			l7.1-23l16.8-10.4l15.8-20.6v-26.1l-7.2-25.5l-19.2-29.2l17.2,54.7l-13-14.7l7.8,29.8l-3.6,22L398.1,175.1z"/>
		<path class="st0" d="M357.8,178.5l8.4-2.7c0,0,2,17.5-0.1,20.4l-12,1.4l-1.5,3.8l7.6,2.5c0,0,6.8-0.4,6.5-1.5s4.7-8.5,4.7-8.5
			s-2.9-16.3,3-28.8c0,0-7.2,6.8-17.6,10l0,0l-9.5,25.1L357.8,178.5z"/>
		<path class="st0" d="M387.9,199.3l-1.6-5.1l-8.5,21.5l2.3,0.5l7.6-14.4C388.1,201.1,388.2,200.1,387.9,199.3z"/>
		<path class="st0" d="M355.6,228.7l3.9,2.4l18.4-11.6l-0.7-2.8l-3.4,0.7c-0.4,0.1-0.8,0.2-1.2,0.5L355.6,228.7z"/>
		<path class="st0" d="M353.1,233.1l-9.2,29.2l3.4-1.4c1-0.4,1.7-1.2,2-2.3l6.4-24.1L353.1,233.1z"/>
		<path class="st0" d="M372.2,262.2l-2.8,1.1c-1.7,0.7-2.9,2.2-3,4l-0.7,7.3L372.2,262.2z"/>
		<path class="st0" d="M377.2,288.7c-1.6-0.6-3.1-0.9-4.2-1.1l0,0l0,0c-0.2,0-0.4,0-0.5,0c-1.4,0-2.7,0.6-3.5,1.7l-1,1.3l-0.9-1.8
			c-0.7-1.4-0.7-3.2,0.2-4.6l5.1-8.4L377.2,288.7z"/>
		<path class="st0" d="M402.6,268.4l-1.1,12.3c-3.5,4.1-5.9,6.1-7.1,7l-0.9-0.5c-0.3-0.2-0.7-0.3-1.1-0.4v-0.2L402.6,268.4z"/>
		<path class="st0" d="M432.8,229.7l-1.3,1.1l-13.6,11.3l-4.3,0.1l-27.9,30.5l-6.1,1.7l3.5,7.9l6.9,0.2l-0.5,4.1
			c-1.9,0.2-3.6,1.3-4.7,3l-1.8,2.9c-0.3-0.3-0.6-0.6-0.9-0.8l0,0c-0.8-1.4-1.6-3.3-2.3-5.7c-3.5-11.7-4.1-15.7-4.1-15.7l39.5-37
			L432,230L432.8,229.7z"/>
		<path class="st0" d="M411.8,214.7l-6.1,3.1c-1.9,1-3.1,2.9-3,5l0.6,17.8l10.3-21.3L411.8,214.7z"/>
		<path class="st0" d="M419.9,211.8v-2.3h-12.8l-11.2,5.2l1.3,2h3.4c0.7,0,1.4-0.1,2-0.4l9.2-3.6h3.5v7.2L419.9,211.8z"/>
		<path class="st0" d="M421.4,202.1l-9,5.5h3.5C418.9,207.5,421.4,205.1,421.4,202.1L421.4,202.1z"/>
		<path class="st0" d="M447.9,173.7l5.6-29l-11.2-48.2L422.1,39l2.2,36.4l15.6,25.8l7,47.2l-18.8,35l-14.9,7.5
			c-1.4,0.7-2.5,2-2.9,3.6l-2.7,10.9l17-8.4l-0.9,12.8L447.9,173.7z"/>
		<path class="st0" d="M411.2,185.7v2.7l9.5-3.8c1.1-0.4,2-1.2,2.6-2.3l5.4-8.9L411.2,185.7z"/>
		<path class="st0" d="M120.1,174.8l-5.6-31.3L127.3,96l5.2-27.8l-44.4-50l16.8,57.9l2.4,48.1L13.8,42.7l74.3,154.9l29.1,48
			c0.1-4,0.4-7.9,0.6-11.3l-17.1-29.1l3.2-1.3l14.8,19.9c1.3-13,2.1-13.8,2.5-14.2l0.6-0.6h0.5c0.8-0.2,1.8-0.4,3-0.4
			c2.2,0,4.3,0.4,4.4,0.4l1.1,0.2l0.4,1c2.2,5.2,4.3,10.1,6.4,14.6l19,2.8L120.1,174.8z M101,44.1c24.4,14.7,23.2,38.5,23.2,38.5
			l-5.4,17.1L112,79C113,61.4,101.3,44.6,101,44.1z M96.2,119.6l11.5,21.1l6.9,37.6l-42.3-61.9l-7.7-6.7L96.2,119.6z M64.6,96
			c-1.3,3.1-1.3,11-1.3,11C53.4,91.7,27.8,60.8,27,59.8C46.9,75.7,64.6,96,64.6,96z M68.3,135.4c0,0-12.3-8.8-11.1-28.5
			c0,0,4.3,13.6,13.5,20.1l7.9,12L68.3,135.4z M98.4,197.7l-3.9-7.2l10.7,3.3l5.5,7.8L98.4,197.7z M117.6,203.8v-2.1l-11.4-18.6
			l-15.4-6l-2.7,1.8l-1.2-2.2L80,139.1l42.3,61.9l7.7,6.7L117.6,203.8z M165.3,262.3l-6.4-14.7l-6.5-1.3l-8.6-8.9
			c9.2,18.7,16.9,30.7,22.7,38.4L165.3,262.3z"/>
		<path class="st0" d="M419.7,246.4l-6.5,1.3l-6.4,14.6l-1.3,13.5c5.8-7.6,13.5-19.6,22.6-38.2L419.7,246.4z M464.8,124.2l2.4-48.1
			L484,18.3l-44.4,50l5.2,27.8l12.8,47.5l-5.6,31.3l-36.8,52.9l19-2.7c2.1-4.6,4.2-9.4,6.4-14.7l0.4-1l1.1-0.2
			c0.1,0,2.2-0.4,4.4-0.4c1.2,0,2.3,0.1,3.1,0.4h0.5l0.6,0.6c0.4,0.4,1.2,1.2,2.5,14.2l14.8-20l3.2,1.3l-17,29
			c0.2,3.4,0.5,7.3,0.6,11.2l29.2-48.1l74.3-154.9L464.8,124.2z M545.1,59.8c-0.8,1-26.4,31.9-36.3,47.2c0,0,0-7.9-1.3-11
			C507.5,96,525.3,75.7,545.1,59.8z M453.4,99.7L448,82.6c0,0-1.2-23.9,23.2-38.5c-0.4,0.5-12,17.3-11,34.9L453.4,99.7z
			 M464.4,140.7l11.5-21.1l31.6-9.9l-7.7,6.7l-42.3,61.9L464.4,140.7z M473.7,197.8l-12.3,3.8l5.5-7.8l10.7-3.3L473.7,197.8z
			 M485.3,176.7l-1.2,2.2l-2.7-1.8l-15.4,6l-11.4,18.6v2.1l-12.5,3.9l7.7-6.7l42.3-61.9L485.3,176.7z M503.9,135.4l-10.4,3.7l7.9-12
			c9.2-6.5,13.5-20.1,13.5-20.1C516.1,126.6,503.9,135.4,503.9,135.4z"/>
		<path class="st0" d="M201.3,229.2c-6.6,0-12,4.9-12,11.5s5.4,11.5,12,11.5s12-4.9,12-11.5C213.3,234.1,207.9,229.2,201.3,229.2z
			 M204.2,246.4c-3.7,0-6.7-3-6.7-6.6c0-0.8,0.1-1.5,0.4-2.2c-0.1,0.5-0.2,1-0.2,1.6c0,3.3,2.6,5.9,5.9,5.9s5.9-2.6,5.9-5.9
			c0-3.3-2.7-5.9-5.9-5.9c-0.5,0-1.1,0.1-1.6,0.2c0.7-0.2,1.4-0.4,2.2-0.4c3.7,0,6.6,3,6.6,6.7C210.8,243.5,207.8,246.4,204.2,246.4
			z"/>
		<path class="st0" d="M371.1,229.2c-6.6,0-12,4.9-12,11.5s5.4,11.5,12,11.5s12-4.9,12-11.5C383.1,234.1,377.7,229.2,371.1,229.2z
			 M368.2,246.4c-3.7,0-6.6-2.9-6.6-6.6c0-3.7,3-6.7,6.6-6.7c0.8,0,1.5,0.1,2.2,0.4c-0.5-0.2-1-0.2-1.6-0.2c-3.3,0-5.9,2.6-5.9,5.9
			c0,3.3,2.7,5.9,5.9,5.9c3.2,0,5.9-2.6,5.9-5.9c0-0.5-0.1-1.1-0.2-1.6c0.2,0.7,0.4,1.4,0.4,2.2
			C374.9,243.5,371.9,246.4,368.2,246.4z"/>
		<path class="st0" d="M160.6,214.7l6.1,3.1c1.9,1,3.1,2.9,3,5l-0.5,17.9l-10.3-21.3L160.6,214.7z"/>
		<path class="st0" d="M152.5,211.8v-2.3h12.8l11.2,5.2l-1.3,2h-3.4c-0.7,0-1.4-0.1-2-0.4l-9.2-3.6h-3.4v7.2L152.5,211.8z"/>
		<path class="st0" d="M151,202.1l9,5.5h-3.5C153.5,207.5,151,205.1,151,202.1L151,202.1z"/>
		<path class="st0" d="M124.5,173.7l-5.6-29l11.2-48.2L150.3,39l-2.2,36.4l-15.6,25.8l-7,47.2l18.8,35l14.9,7.5
			c1.4,0.7,2.5,2,2.9,3.6l2.7,10.9l-17-8.4l0.9,12.8L124.5,173.7z"/>
		<path class="st0" d="M161.2,185.7v2.7l-9.5-3.8c-1.1-0.4-2-1.2-2.6-2.3l-5.4-8.9L161.2,185.7z"/>
		<path class="st0" d="M297.4,151.8c-2.2,1.2-3.9,3.2-4.7,5.6c-4.3,3.7-8.6,3.8-12.8,0c0,0-2.5-4.4-4.7-5.6l-25.8-13.6l5.6,7
			c0.5,0.7,1,1.4,1.3,2.1l30,67.4l30-67.4c0.3-0.8,0.8-1.5,1.3-2.1l5.6-7L297.4,151.8z M291.5,176.2l-2.9,0.6
			c-0.9-0.1-1.6-0.2-2.2-0.2c-4.1,0-4.5,2.3-4.5,2.3l-4.7,0.1c0.2-0.3,1.5-1.1,1.7-1.2c-2.6,1.1-4.9,3.9-4.9,3.9
			c0.5-0.7,0.6-2.4,0.6-2.4c0.3-2.5,1.3-3.5,1.3-3.5c2.4-2.5,2.7-1.5,8.9-2.4c6.3-0.9,5.6-4.8,5.6-4.8l-16.9,5.5
			c0.7-1.7,6.8-8.5,6.8-8.5c0.6,0.2,1.3,0.3,2.2,0.3c6.5,0.1,19.7-5.3,19.7-5.3l-4.4,4.3l-0.5,2.8l6.6-3.2L291.5,176.2z"/>
	</g>
</g>
</svg>
