<?xml version="1.0" encoding="UTF-8"?>
<svg id="Layer_2" data-name="Layer 2" xmlns="http://www.w3.org/2000/svg" viewBox="0 0 1301.92 801.44">
  <defs>
    <style>
      .cls-1 {
        fill: #fff;
      }
    </style>
  </defs>
  <g id="Layer_1-2" data-name="Layer 1">
    <g>
      <polygon class="cls-1" points="787.04 400.72 957.91 0 856.61 0 685.74 400.72 685.73 400.72 514.89 801.44 616.19 801.44 787.06 400.72 787.04 400.72"/>
      <polygon class="cls-1" points="957.91 400.72 1026.66 239.48 1066.55 309.03 1027.46 400.72 1128.78 400.72 1299.66 0 1198.33 0 1127.62 165.77 1087.73 96.22 986.46 96.22 856.61 400.72 856.61 400.72 685.73 801.44 787.06 801.44 957.94 400.72 957.91 400.72"/>
      <polygon class="cls-1" points="1200.62 400.72 1029.75 801.44 1185.09 674.68 1301.92 400.72 1200.62 400.72"/>
      <polygon class="cls-1" points="1089.91 497.91 988.73 497.71 980.39 517.24 946.74 596.17 909.85 682.67 960.52 801.44 997.37 714.97 1048.04 596.17 1089.91 497.91"/>
      <polygon class="cls-1" points="616.19 400.72 787.04 0 685.74 0 514.86 400.72 514.89 400.72 344.01 801.44 445.31 801.44 616.19 400.72 616.19 400.72"/>
      <polygon class="cls-1" points="445.32 400.72 616.19 0 514.86 0 343.99 400.72 344.01 400.72 275.26 561.95 235.37 492.41 274.47 400.72 173.14 400.72 2.27 801.44 103.59 801.44 174.3 635.67 214.19 705.21 315.46 705.21 445.31 400.72 445.32 400.72"/>
      <polygon class="cls-1" points="272.17 0 116.84 126.76 0 400.72 101.3 400.72 272.17 0"/>
      <polygon class="cls-1" points="212.01 303.53 313.2 303.73 321.53 284.19 355.19 205.26 392.07 118.76 341.41 0 304.55 86.47 253.89 205.26 212.01 303.53"/>
    </g>
  </g>
</svg>