<?xml version="1.0" encoding="UTF-8"?>
<svg id="Layer_2" data-name="Layer 2" xmlns="http://www.w3.org/2000/svg" viewBox="0 0 840.66 140.88">
  <defs>
    <style>
      .cls-1 {
        fill: #fff;
      }
    </style>
  </defs>
  <g id="Layer_1-2" data-name="Layer 1">
    <g>
      <polygon class="cls-1" points="735.44 72.43 735.44 110.09 766.24 140.88 797.01 110.11 797.01 72.41 766.22 103.2 735.44 72.43"/>
      <polygon class="cls-1" points="802.97 66.45 802.95 66.47 802.95 104.16 840.66 66.45 802.97 66.45"/>
      <polygon class="cls-1" points="704.93 80.81 731.56 107.44 731.56 54.14 704.93 80.77 704.93 80.81"/>
      <polygon class="cls-1" points="766.11 30.79 735.31 0 704.54 30.77 704.54 68.47 735.33 37.68 766.11 68.45 766.11 30.79"/>
      <polygon class="cls-1" points="698.58 74.42 698.6 74.41 698.6 36.72 660.89 74.42 698.58 74.42"/>
      <polygon class="cls-1" points="770.38 88.23 797.01 61.6 797.01 61.56 770.38 34.93 770.38 88.23"/>
      <path class="cls-1" d="m319.2,60.13c4.18,0,7.48-1.05,9.91-3.14,2.43-2.1,3.65-4.9,3.65-8.4,0-1.98-.45-3.64-1.34-4.96-.9-1.32-2.49-2.61-4.79-3.88-.43-.25-1.04-.58-1.83-.98-2.24-1.15-3.36-2.19-3.36-3.11,0-.75.3-1.38.89-1.89s1.34-.77,2.24-.77c.82,0,1.72.25,2.69.74s2.04,1.25,3.22,2.26l3.76-6.47c-1.49-1.25-3.08-2.2-4.76-2.84-1.68-.64-3.43-.96-5.25-.96-3.45,0-6.26,1.03-8.45,3.09-2.19,2.06-3.28,4.71-3.28,7.94,0,1.78.48,3.28,1.43,4.52.95,1.24,2.72,2.53,5.3,3.87.15.07.35.18.6.31,2.66,1.39,3.98,2.68,3.98,3.87,0,.88-.33,1.59-.98,2.13-.66.54-1.54.81-2.64.81-1.33,0-2.61-.33-3.86-1.01-1.25-.67-2.55-1.75-3.93-3.22l-4.54,6.56c1.54,1.83,3.26,3.22,5.17,4.15,1.91.93,3.96,1.4,6.15,1.4Z"/>
      <polygon class="cls-1" points="365.77 59.3 370.96 26.54 362.13 26.54 360.13 39.18 348.67 39.18 350.71 26.54 341.89 26.54 336.72 59.3 345.52 59.3 347.62 45.92 359.04 45.92 356.93 59.3 365.77 59.3"/>
      <path class="cls-1" d="m393.84,25.8c-2.94,0-5.67.55-8.18,1.64-2.51,1.1-4.64,2.67-6.39,4.73-1.49,1.73-2.62,3.66-3.37,5.79-.75,2.13-1.13,4.41-1.13,6.86,0,2.27.44,4.41,1.32,6.42.88,2.01,2.1,3.71,3.67,5.08,1.49,1.28,3.2,2.25,5.11,2.89,1.92.64,4.05.96,6.39.96,2.97,0,5.68-.54,8.15-1.63,2.46-1.09,4.59-2.69,6.4-4.79,1.48-1.72,2.6-3.64,3.37-5.79.77-2.14,1.15-4.43,1.15-6.86,0-4.54-1.52-8.22-4.55-11.06s-7.02-4.25-11.94-4.25Zm4.63,23.38c-1.83,1.99-4.07,2.99-6.69,2.99-2.4,0-4.32-.75-5.76-2.26-1.44-1.51-2.16-3.52-2.16-6.04,0-2.85.9-5.24,2.71-7.16,1.81-1.92,4.04-2.89,6.71-2.89,2.31,0,4.21.76,5.71,2.27,1.49,1.51,2.24,3.45,2.24,5.81,0,2.86-.92,5.29-2.75,7.28Z"/>
      <polygon class="cls-1" points="414.09 59.3 432.98 59.3 434.12 52 423.98 52 424.85 46.57 434.3 46.57 435.39 39.45 425.99 39.45 426.82 34.1 436.96 34.1 438.15 26.54 419.26 26.54 414.09 59.3"/>
      <path class="cls-1" d="m470.46,59.3l5.17-32.76h-8.75l-2.53,16.09c-.13,1.03-.24,1.91-.3,2.63-.07.72-.1,1.38-.1,1.98v.83c-.3-1.33-.83-2.88-1.59-4.66-.13-.33-.23-.56-.29-.69l-6.92-16.18h-10l-5.17,32.76h8.75l2.48-16.58c.13-1.1.23-1.99.28-2.65.05-.66.08-1.29.08-1.89v-.92c.19.79.43,1.58.71,2.37.28.79.68,1.79,1.22,3l7.34,16.67h9.62Z"/>
      <polygon class="cls-1" points="483.67 26.54 478.47 59.3 487.4 59.3 492.59 26.54 483.67 26.54"/>
      <path class="cls-1" d="m509.56,50.64c.24-.33.48-.7.74-1.12.25-.42.52-.92.81-1.5.21.48.41.93.62,1.37.2.43.4.82.59,1.16l4.72,8.75h10.25l-10.21-17.19,12.64-15.58h-10.72l-4.88,6.4c-.34.46-.65.9-.91,1.32-.26.42-.49.84-.68,1.25-.18-.43-.37-.86-.57-1.29-.2-.43-.41-.84-.62-1.24l-3.45-6.45h-9.94l8.75,15.06-14.52,17.7h10.85l6.51-8.66Z"/>
      <polygon class="cls-1" points="566.53 51.47 555.7 51.47 559.66 26.54 550.85 26.54 545.68 59.3 565.3 59.3 566.53 51.47"/>
      <path class="cls-1" d="m600.86,59.3l-6.96-32.76h-10.97l-16.4,32.76h9.53l3.13-6.18h11.46l1.32,6.18h8.88Zm-18.37-13.47l3.47-7.5c.15-.33.35-.83.62-1.51.26-.68.55-1.47.86-2.36.01.52.06,1.08.13,1.68.07.6.19,1.28.33,2.04l1.5,7.65h-6.92Z"/>
      <path class="cls-1" d="m614.34,59.3c3.36,0,5.75-.13,7.19-.38,1.44-.25,2.64-.68,3.59-1.28,1.3-.81,2.32-1.92,3.05-3.33.74-1.42,1.11-2.96,1.11-4.63,0-2.01-.55-3.66-1.64-4.93-1.1-1.28-2.69-2.11-4.78-2.5,2.15-.3,3.84-1.15,5.07-2.56,1.23-1.41,1.85-3.2,1.85-5.36,0-1.57-.4-2.97-1.2-4.21s-1.88-2.13-3.23-2.66c-.82-.34-1.84-.58-3.07-.72-1.22-.13-3.26-.2-6.11-.2h-7.43l-5.21,32.76h10.81Zm1.83-26.5h1.23c1.43,0,2.47.22,3.12.66.65.44.97,1.14.97,2.09,0,1.33-.4,2.27-1.2,2.83s-2.25.84-4.35.84h-.74l.96-6.42Zm-1.92,12.42h1.57c1.78,0,3.04.25,3.78.76.75.51,1.12,1.36,1.12,2.55,0,1.61-.44,2.74-1.31,3.38-.87.64-2.64.96-5.29.96h-1.05l1.19-7.65Z"/>
      <path class="cls-1" d="m244.18,97.11c-1.94,3.28-4.06,5.85-6.36,7.7-3.49,2.78-6.1,4.86-7.83,6.27-1.1.63-1.95,1.07-2.55,1.34l-1.48-.9-1.3,1.52c.83,2.18,1.33,4.1,1.48,5.77.33.54,1.04.81,2.15.81l.72-.81c.06-.66.39-1.3.98-1.92.18-.21,1.08-1.04,2.71-2.51,1.63-1.46,2.53-2.24,2.71-2.33.63-.42.97-.67,1.03-.76,1.37-1.34,2.37-2.37,3-3.09.98-.92,1.76-1.61,2.33-2.06.6-.66,1.34-1.63,2.24-2.91.66-.78,1.18-1.36,1.57-1.75,1.25-1.82,2.19-3.95,2.82-6.4.36-1.01.69-1.81.98-2.37.45-1.67.98-2.98,1.61-3.94,0-1.01.39-2.09,1.16-3.22-2.12,2.89-3.71,5.04-4.79,6.45-1.46,2.21-2.52,3.91-3.18,5.1Z"/>
      <path class="cls-1" d="m228.12,88.83c1.46.3,2.57.49,3.31.58l1.21-.13.94-1.43-.36-1.84c-1.01-.51-2.06-1.01-3.13-1.52-1.52-.72-2.55-1.07-3.09-1.07-.15,0-.38.03-.69.09s-.54.09-.69.09c-.72,0-1.78-.3-3.18-.89l-.09.27c0,.81.75,1.93,2.24,3.38,1.49,1.45,2.67,2.28,3.54,2.48Z"/>
      <path class="cls-1" d="m228.83,98.28c.92-.21,1.39-.76,1.39-1.66,0-.12-.01-.24-.04-.36l-.58-.72-2.15-.94h-1.43l-1.16-.58c-.54.03-1.36.28-2.46.76-1.1.48-1.99.72-2.64.72l-1.57-.36c.06.99.7,1.78,1.92,2.37.98.42,1.95.85,2.91,1.3.6,0,1.07.01,1.43.04.24,0,.94-.12,2.1-.36.78-.06,1.54-.13,2.28-.22Z"/>
      <path class="cls-1" d="m293.93,113.45c-.51-.42-1.64-1.01-3.4-1.79-1.88-.9-3.06-1.34-3.54-1.34-.57,0-1.43.13-2.6.4-1.16.27-2.06.39-2.69.36h-.49c.51-3.25,1.03-5.73,1.57-7.43.54-1.7.95-2.95,1.25-3.76.69-2.33,1.09-3.6,1.21-3.8l1.16-.54.18-.49c-.27-.99-.75-1.64-1.43-1.97-.78-.21-1.52-.43-2.24-.67-1.13-.36-1.83-.54-2.1-.54-.21,0-.4.03-.58.09-.45-.12-.88.02-1.3.4-.57.51-.97.81-1.21.89-3.31,1.04-5.07,1.64-5.28,1.79l-.72-.18-1.12.36-1.79-.76c-.03.15-.04.3-.04.45,0,.54.35,1.27,1.05,2.19s1.29,1.49,1.77,1.7l7.56-1.83c-.33,4.71-.87,9.67-1.61,14.86-.33.24-1.64.6-3.94,1.07-1.46.36-2.92.69-4.39.99-1.64.45-2.88.8-3.71,1.07l-1.61-.63v.63c0,.81.25,1.63.74,2.48s1.1,1.41,1.81,1.68c.27,0,.53-.13.78-.4.25-.27.38-.54.38-.81.96-.51,2.07-.94,3.36-1.3,1.16-.27,2.33-.54,3.49-.81,2.54-.66,4.13-1.04,4.79-1.16,1.82-.18,3.19-.28,4.12-.31,1.16.18,2.94.63,5.33,1.34,2.3.66,4.06,1.07,5.28,1.25.72-.39,1.1-.81,1.16-1.25.12-.81-.28-1.55-1.21-2.24Z"/>
      <path class="cls-1" d="m343.91,96.67l-3.22-.94h-3.31c-1.04,0-2.28.04-3.72.13-1.43.09-2.75.21-3.96.36-1.21.15-2.14.26-2.8.34-.66.08-1.32.16-1.99.25-.67.09-1.36.19-2.06.29-.7.11-1.39.21-2.06.31-.67.1-1.48.22-2.44.36-.96.13-1.78.25-2.48.36-.7.11-1.38.21-2.04.31-.66.11-1.28.25-1.88.43l-2.46-.27c0,.09.01.16.04.22.03.06.08.13.16.2.07.08.17.16.29.25.12.09.24.19.36.29s.22.2.31.29.17.19.25.29.17.22.29.34.25.25.38.38c.13.13.31.28.54.45.22.17.47.32.74.47s.51.3.72.45.45.3.72.45l1.03.36c.24-.09.45-.18.65-.27s.37-.18.51-.27.34-.22.56-.4c.22-.18.4-.31.54-.38.13-.07.29-.14.47-.2.18-.06.38-.13.6-.2.22-.07.44-.12.65-.13.21-.01.43-.05.67-.11.24-.06.47-.11.69-.16s.43-.1.63-.16.4-.1.6-.11c.21-.01.42-.04.63-.07.21-.03.41-.04.6-.04h1.43c.19,0,.41-.02.65-.07.24-.04.42-.07.56-.09.13-.01.32-.04.56-.09.24-.04.45-.07.63-.09.18-.01.37-.04.56-.09s.43-.07.72-.07.54,0,.78-.02c.24-.01.45-.02.65-.02s.37-.01.54-.04c.16-.03.39-.06.67-.09.28-.03.51-.06.69-.09.18-.03.37-.04.56-.04h.69l1.92.09h1.57c.54,0,1.1.03,1.68.09s1.2.15,1.86.27,1.23.22,1.72.29.93.11,1.32.11l.85-.27c.51.15.94.11,1.3-.13s.63-.52.81-.85c-.42-.42-.67-.96-.76-1.61l-1.16-1.03Z"/>
      <path class="cls-1" d="m380.5,85.79c-.36,0-.73.03-1.12.09-.3-.09-.6-.13-.89-.13-.54,0-1.13.16-1.79.47-.66.31-1.28.6-1.88.87-.72.3-2.05.6-4.01.92s-3.36.47-4.23.47c-.3,0-.74-.1-1.32-.29-.58-.19-1.01-.29-1.28-.29l-.9.04c2.03,2.51,4.13,4.25,6.31,5.24l1.07-.04c.36-.36.81-.63,1.34-.81,2.3-.57,4.04-.92,5.24-1.07,2.42-.69,4.39-1.03,5.91-1.03.27,0,.55.01.85.04,1.22-.81,1.79-1.6,1.7-2.37v-.18c-1.16-1.28-2.83-1.92-5.01-1.92Z"/>
      <path class="cls-1" d="m391.01,108.62c-.45-.21-1.4-.53-2.84-.96s-2.38-.65-2.8-.65c-.78,0-2.69.14-5.75.43s-4.99.5-5.8.65c-2.06.45-3.55.79-4.48,1.03l-8.82,2.06c-.24.06-.43.09-.58.09-.42,0-.86-.16-1.32-.47s-.8-.48-1.01-.51l-.36.58c.69,2,1.71,3.85,3.09,5.55l.85.36,1.07-.36,1.12-1.97c2.18-.66,4.45-1.21,6.8-1.66,4.71-.81,7.43-1.21,8.15-1.21.27,0,.66.04,1.19.11.52.07.92.11,1.19.11,2.09,0,3.22.02,3.4.04.39.06,1.48.34,3.27.85,1.4.39,2.52.58,3.36.58.18,0,.87-.07,2.06-.22,0-.06.17-.23.51-.51s.51-.59.51-.92c0-.09-.12-.48-.36-1.16-1.1-.78-1.92-1.39-2.46-1.83Z"/>
      <path class="cls-1" d="m414.22,100.47c.27.6.48.98.63,1.16.27.3.67.45,1.21.45.42-1.34.85-2.09,1.3-2.24l.27-1.52-.9-2.46c-.45-.15-1.24-.61-2.37-1.39-.92-.57-1.75-.92-2.46-1.07.48.72.83,1.43,1.07,2.15.18.92.28,1.61.31,2.06.36,1.31.67,2.27.94,2.87Z"/>
      <path class="cls-1" d="m429.57,92.64c-1.22-.51-2.07-.76-2.55-.76-1.01,0-1.79.3-2.33.89l-.63-.27c-.03.09-.04.18-.04.27,0,.24.22.87.67,1.88l1.21.99c-.78,3.58-2.1,7.25-3.98,11.01-2.03,4.09-4.25,7.25-6.67,9.49-1.19,1.1-2.7,2.27-4.52,3.49,2.71-.39,4.89-1.06,6.51-2.01,1.63-.96,3.2-2.54,4.72-4.75,1.07-1.43,1.89-2.49,2.46-3.18.54-1.04.91-1.88,1.12-2.51.81-1.79,1.58-3.58,2.33-5.37.95-2.09,1.92-3.79,2.91-5.1.36-.06.72-.3,1.07-.72.36-.42.54-.82.54-1.21s-.13-.67-.4-.85c-.54-.39-1.34-.82-2.42-1.3Z"/>
      <path class="cls-1" d="m407.39,97.2c-1.3-1.04-2.53-1.57-3.69-1.57v.63c.63.57,1,.99,1.12,1.25.12.27.18.83.18,1.7,0,.51.27,1.22.81,2.15.54.93,1.01,1.51,1.43,1.75h1.03c.72-.75,1.07-1.63,1.07-2.64,0-1.13-.65-2.22-1.95-3.27Z"/>
      <path class="cls-1" d="m480.4,86.46c-1.22-.54-2.45-1.09-3.67-1.66l-2.64.4-1.07-.09c.03-.99-.54-1.91-1.7-2.78-1.1-.78-2.18-1.16-3.22-1.16h-1.48c0,1.16.43,1.85,1.3,2.06v.27c.03.3-.08.63-.31.98-.3.45-.49.76-.58.94l-5.64,7.43c-.72.69-1.28,1.19-1.7,1.52-2.12,2.12-3.7,3.43-4.74,3.94.9.27,1.58.43,2.06.49.27-.09.91-.27,1.92-.54.72-.15,1.37-.46,1.97-.94,2.09-1.52,3.64-2.75,4.66-3.67,1.19-1.55,2-2.71,2.42-3.49.57-.75,1.15-1.48,1.75-2.19.81-1.01,1.46-1.58,1.97-1.7l3.71,3.54c-.33,1.13-.78,2.4-1.34,3.8-.09.18-.64,1.39-1.66,3.63-.54,1.28-.92,2.27-1.16,2.95l-6,10.97c-.81,1.43-1.97,2.97-3.49,4.61-.84.87-2.22,2.24-4.16,4.12.45-.33,1.42-.64,2.91-.94,1.49-.3,2.79-.91,3.89-1.84,1.46-1.19,3.16-3.09,5.1-5.68,1.79-2.51,3.13-4.7,4.03-6.58.09-.18.33-.81.72-1.88.3-.83.55-1.42.76-1.75.24-1.01,1-2.75,2.28-5.19.98-2.03,1.92-3.74,2.82-5.15l2.46-.54.67-1.16c-.48-1.13-1.42-2.04-2.82-2.73Z"/>
      <path class="cls-1" d="m529.97,112.38c-.6-.78-1.92-2.19-3.98-4.23-2.06-2.04-3.48-3.33-4.25-3.87-.96-.69-2.36-1.51-4.21-2.46,1.67-3.55,3.27-6.5,4.79-8.86.18-.27.43-.92.76-1.97.21-.57.81-1.24,1.79-2.01.95.03,1.71-.19,2.28-.67.06-.27.09-.51.09-.72,0-.54-.18-.96-.54-1.25-2.24-.83-4.25-1.48-6.04-1.92l-1.16.13c-.21-.06-.43-.09-.67-.09-1.22,0-1.83.52-1.83,1.57-2,.48-4.04.9-6.13,1.25-3.91.75-6.12,1.12-6.62,1.12-.27,0-.6-.12-1.01-.36-.4-.24-.77-.48-1.1-.72-.12.15-.18.33-.18.54s.12.51.36.89c.24.39.36.69.36.9.72.87,1.07,1.63,1.07,2.28l1.48.67,1.07-1.52,11.28-2.1c-1.01,3.61-2.75,7.7-5.19,12.26-2.36,4.39-4.77,8.1-7.25,11.14-1.76,2.18-3.82,3.97-6.18,5.37.24-.18.67-.27,1.3-.27,1.64,0,2.43,0,2.37,0,.63-.06,1.39-.34,2.28-.85,1.1-.63,1.7-.96,1.79-.98.78-.96,1.42-1.66,1.92-2.1,1.13-1.31,1.97-2.31,2.51-3,1.1-1.19,1.94-2.07,2.51-2.64.27-.3.69-.91,1.25-1.83.48-.81.94-1.39,1.39-1.75,1.7.81,3.21,2.24,4.52,4.3,1.04,1.85,2.1,3.7,3.18,5.55,1.34,2.03,2.91,3.48,4.7,4.34.63,0,1.18-.24,1.66-.72.66-.75,1.06-1.16,1.21-1.25l.04-.31c.03-.66-.22-1.25-.76-1.79-.12-.78-.4-1.46-.85-2.06Z"/>
      <path class="cls-1" d="m564.23,82.43c-4.6.57-7.73,1.3-9.4,2.19l-2.86.36-1.52-.36.27,1.16c.45.15,1.15.72,2.1,1.72.95,1,1.92,1.6,2.91,1.81.57-.9,1.18-1.34,1.83-1.34l.72.13c1.64-.33,3.27-.75,4.88-1.25.18-.03,1.51-.16,3.98-.4,1.61-.12,2.79-.61,3.54-1.48v-.22c.03-1.01-.49-1.82-1.57-2.42-.92-.51-1.96-.76-3.09-.76s-1.7.28-1.79.85Z"/>
      <path class="cls-1" d="m575.01,93.8c-1.25-.27-1.97-.45-2.15-.54-1.25-.39-1.92-.58-2.01-.58-.36,0-1.18.28-2.46.85-1.4.57-2.3.88-2.69.94-2.03.36-3.55.61-4.57.76-2.92.69-5.12,1.21-6.58,1.57-3.25.63-5.09.94-5.5.94l-1.48-1.07-.4.49,1.52,3.27c-.09.15.01.42.31.81.39.54.58.82.58.85.45,0,1.1-.25,1.97-.76,1.1-.63,1.75-.98,1.92-1.07,2.71-.54,4.86-.88,6.45-1.03,1.19-.3,2.4-.61,3.63-.94,1.76-.45,2.97-.67,3.62-.67l1.3.13.22-.22c.33,0,.61.09.85.27-.48,1.82-1.28,3.97-2.42,6.45s-2.22,4.43-3.27,5.86c-1.67,2.3-5.13,5.55-10.38,9.76.63-.3,1.69-.66,3.18-1.07,1.37-.39,2.42-.75,3.13-1.07,2.18-1.1,4-2.39,5.46-3.85,1.01-1.01,2.39-2.79,4.12-5.33,1.1-1.61,1.91-2.88,2.42-3.8l1.61-3.27c.6-1.28,1.25-2.33,1.97-3.13l2.06-.18.63-1.3c-.93-1.82-1.94-2.83-3.04-3.04Z"/>
      <path class="cls-1" d="m621.81,92.59v-1.79c-.69-1.04-1.67-1.75-2.95-2.1-1.19-.27-2.39-.54-3.58-.81-2.03.45-3.57.85-4.61,1.21l-.27-.94c.12-.81.27-1.57.45-2.3.18-.73.73-1.23,1.66-1.5v-.36c.09-1.04-.31-1.78-1.21-2.19-.84-.27-1.67-.54-2.51-.81-1.28-.42-2.03-.63-2.24-.63s-.63.1-1.25.29c-.63.19-1,.37-1.12.51,1.58.75,2.37,1.96,2.37,3.63,0,1.13-.11,2.8-.31,5.01l-12.26,3.09-1.92-.81c.45,1.34.83,2.31,1.16,2.91.24.57.49,1.13.74,1.7.25.57.66.97,1.23,1.21.51-.39,1-.88,1.48-1.48,1.16-.57,2.73-1.07,4.7-1.52,3.04-.6,4.67-.92,4.88-.98.27,1.01.43,3.31.49,6.89v5.24c0,2.06-.08,3.55-.22,4.48-.78,0-1.78-.09-3-.27-1.58-.24-2.6-.37-3.04-.4.24.51.69,1.06,1.34,1.66.78.72,1.27,1.21,1.48,1.48.92,1.73,1.54,3.06,1.83,3.98.24.18.57.58.98,1.21.33.48.72.82,1.16,1.03,1.04,0,1.73-.36,2.06-1.07.24-.69.45-1.36.63-2.01.33-.84.63-1.48.9-1.92.03-.27.01-.66-.04-1.19-.06-.52-.09-.89-.09-1.1l.31-1.48-.45-1.83.09-4.74c0-.12-.03-.31-.09-.56-.06-.25-.09-.42-.09-.51-.06-1.55-.09-2.73-.09-3.54,0-.12-.04-.34-.11-.67-.08-.33-.11-.58-.11-.76l.18-1.48-.31-1.21.36-1.83c.18-.18.73-.33,1.66-.45.81-.12,1.39-.16,1.75-.13l6.85.58c.33.03.72-.21,1.16-.72Z"/>
      <path class="cls-1" d="m621.76,101.28c-2.39-1.49-4.91-2.34-7.56-2.55,1.1,1.1,2.51,2.86,4.21,5.28,1.76,2.51,3.15,4.27,4.16,5.28.66.69,1.43,1.15,2.33,1.39,1.28-.21,1.92-1.24,1.92-3.09,0-.27-.02-.43-.04-.49-.63-2.12-2.3-4.06-5.01-5.82Z"/>
      <path class="cls-1" d="m626.38,86.73c-.57-.45-1.58-.99-3.04-1.61-1.4-.51-2.48-.82-3.22-.94.45.45,1.37,1.66,2.78,3.63,1.13,1.52,2.19,2.58,3.18,3.18l.85-.09.85-.85v-.36c.06-1.19-.4-2.18-1.39-2.95Z"/>
      <path class="cls-1" d="m594.46,100.83l.13,1.12c-.63,2.57-1.82,5-3.58,7.3,0,.24-.02.66-.04,1.25-.03.48-.04.88-.04,1.21,0,.75.7,1.19,2.1,1.34,1.16-.72,2.43-1.98,3.8-3.8l.67-2.95c-.39-2.45-1.36-4.54-2.91-6.27l-.13.81Z"/>
      <path class="cls-1" d="m628.52,81.98c-1.37-.75-3.01-1.21-4.92-1.39.54.42,1.48,1.46,2.82,3.13,1.13,1.34,2.21,2.25,3.22,2.73h.85l.89-.63c0-1.61-.96-2.89-2.86-3.85Z"/>
      <path class="cls-1" d="m117.47,40.14l21.12-20.59S56.98,52.56,33,43.96c0,0-29.5,32.58-33,40.85l81.71-26.74s3.08,18.99-26.95,23.13c-30.03,4.14-31.62-.53-42.98,11.35,0,0-4.56,5.09-6.37,17.08,0,0-.64,8.06-2.97,11.67,0,0,11.14-13.48,23.88-18.99,0,0-7,4.03-8.17,5.84l22.75-.64s2.5-15.07,32.64-10.29l13.9-3.08,59.32-55.6-31.62,15.28,2.33-13.69Z"/>
      <path class="cls-1" d="m181.05.44c-1.38,0-2.5.85-2.5,1.89v136.21c0,1.05,1.12,1.89,2.5,1.89s2.5-.85,2.5-1.89V2.33c0-1.05-1.12-1.89-2.5-1.89Z"/>
    </g>
  </g>
</svg>