<?xml version="1.0" encoding="UTF-8"?>
<svg id="Layer_1" data-name="Layer 1" xmlns="http://www.w3.org/2000/svg" xmlns:xlink="http://www.w3.org/1999/xlink" viewBox="0 0 525 361">
  <defs>
    <style>
      .cls-1 {
        fill: #f4f4f4;
      }

      .cls-2 {
        fill: url(#radial-gradient);
      }

      .cls-3 {
        mask: url(#mask);
      }

      .cls-4 {
        fill: #606060;
      }

      .cls-5 {
        fill: #231f20;
      }
    </style>
    <radialGradient id="radial-gradient" cx="262.5" cy="180.5" fx="262.5" fy="180.5" r="225.26" gradientUnits="userSpaceOnUse">
      <stop offset="0" stop-color="#fff"/>
      <stop offset=".07" stop-color="#e2e2e2"/>
      <stop offset=".33" stop-color="#828282"/>
      <stop offset=".54" stop-color="#3c3c3c"/>
      <stop offset=".69" stop-color="#101010"/>
      <stop offset=".76" stop-color="#000"/>
    </radialGradient>
    <mask id="mask" x="0" y="0" width="525" height="361" maskUnits="userSpaceOnUse">
      <rect class="cls-2" width="525" height="361"/>
    </mask>
  </defs>
  <g class="cls-3">
    <path class="cls-4" d="m447.37,14.86v346.14l-23.04-25.04V121.16l-5.1-5.1v175.84l-21.49-21.49V111.16l-5.57,5.57v118.53l-16.03-16.02v-89.84l-5.66,5.67v48.54l-17.39-17.39v-23.38l-5.5,5.5v19.11l-12.82,26.58,5.35,4.53,7.64-5.98,13.81,15.26-12.17,26.17-7.42-8.04,1.86,9.07-15.24,15.26-1.86,13.39-13.6-13.6v40.61l-9.89-9.89c-5.92-5.92-6.18-51.94-6.18-51.94v91.1l-15.06-15.04v-.02l-4.53-68.83-2.67,74.89-11.13,32.28-11.13-32.25v-.03l-2.67-74.9-4.53,68.84-15.06,15.06v-91.12s-.26,46.02-6.18,51.94l-9.89,9.89v-40.6l-13.6,13.6-1.86-13.4-15.24-15.26,1.86-9.06-7.42,8.04-12.17-26.19,13.81-15.24,7.64,5.97,5.35-4.53-12.82-26.56v-19.11l-5.5-5.5v23.38l-17.39,17.39v-48.54l-5.66-5.67v89.82l-16.03,16.03v-118.53l-5.57-5.57v159.24l-21.49,21.49V115.64l-5.1,5.1v215.2l-23.04,25.04V14.84c0-9.58,12.21-14.84,12.21-14.84h92.76s-24.27,8.66-18.4,28.76c5.87,20.1,67.02,23.27,67.02,23.27,0,0,5.49-6.42,5.49-18.01V14.22s.77-12.83,12.37-12.83h35.09l6.96,7.73h16.23s6.34,3.79,6.34,17.59h-19.02s-11.13,5.13-1.86,25.23c0,0,59.77-3.08,65.64-23.17C366.67,8.67,342.4.02,342.4.02h92.76s12.21,5.26,12.21,14.84Z"/>
  </g>
  <g>
    <g>
      <g>
        <path class="cls-1" d="m135.87,287.03c-1.73-.08-3.33-.51-4.74-1.28-1.42-.77-2.15-2.19-2.15-4.2,0-1.52.69-2.8,2.06-3.81,1.36-1,2.88-1.77,4.52-2.29.88-.28,1.75-.48,2.56-.62.82-.14,1.56-.21,2.19-.21,1.07,0,2.14.12,3.2.35,1.05.23,2.08.56,3.08.97l-.07-17.57.79-.05.05,5.69c2.08-.46,3.52-1.37,4.22-2.77.71-1.4,1.06-3.13,1.06-5.12v-.25c0-.93-.13-1.8-.39-2.59-.25-.77-.98-1.16-2.15-1.16-.29,0-.68.08-1.14.22-.47.15-.95.35-1.43.59-.76.43-1.47,1-2.13,1.7-.65.69-.97,1.49-.97,2.37v11.24c0,1.35-.37,2.4-1.11,3.1-.73.7-1.53,1.26-2.38,1.68-.28.14-.55.25-.83.35-.27.09-.53.2-.78.31l-.07-.95c.68-.24,1.09-.6,1.28-1.13.19-.54.3-1.12.33-1.71v-11.57c0-.37.23-.87.69-1.51.46-.63,1.06-1.29,1.8-1.94.61-.55,1.29-1.1,2.04-1.63.75-.53,1.52-1,2.29-1.38.66-.36,1.32-.64,1.98-.85.66-.21,1.29-.31,1.87-.31,1.38,0,2.57.48,3.54,1.44.97.96,1.46,2.16,1.46,3.57,0,1.82-.59,3.37-1.76,4.6-1.17,1.22-2.49,2.26-3.94,3.09.21,0,.44.06.68.11l.74.16c1.05.25,2.02.64,2.88,1.16.88.53,1.32,1.31,1.32,2.31v7.25c0,.37.1.64.31.8.22.18.46.32.73.42l-.26.57c-.57,0-1.1-.03-1.65-.06-.55-.03-1.1-.04-1.64-.04-1.63,0-3,.17-4.06.51-1.06.34-1.95.73-2.62,1.17-.42.2-.77.4-1.07.62-.3.22-.59.41-.87.58h-1.26c-.24-.08-.45-.17-.64-.27-.19-.1-.39-.18-.61-.27-.84-.33-1.74-.6-2.67-.82-.93-.22-2.03-.33-3.28-.33-.38,0-.81.03-1.27.08-.46.06-.93.14-1.39.25-1.09.27-2.1.73-3.01,1.37-.9.63-1.36,1.51-1.36,2.61,0,1.67.62,2.86,1.85,3.52,1.23.66,2.6,1.03,4.07,1.08h.45c.7,0,1.4-.05,2.07-.14.66-.09,1.34-.23,2.03-.39l.47.81c-.14.1-.28.13-.43.16l-.43.08c-.31.03-.63.07-.97.12-.34.05-.68.1-1.01.12-.27.03-.54.05-.78.06-.25.01-.5.02-.74.02h-.54Zm13.83-14.7c-.16,0-.34.01-.53.04-.19.03-.4.07-.61.12l-.66.16c-.1.05-.21.1-.31.12-.09.03-.18.05-.26.08l.04,3.41.54.2c.76-.29,1.59-.56,2.46-.83.86-.27,1.73-.42,2.59-.45l-.05-2.25c-.48-.2-1.01-.37-1.54-.46-.53-.1-1.09-.14-1.66-.14Zm.12-.84c.55,0,1.09.06,1.6.19.51.12,1.02.25,1.54.39l-.06-3.7c-.2.18-.5.3-.82.4-.32.1-.63.17-.93.23-.14.03-.28.05-.44.06-.15.02-.31.02-.48.02-.53,0-1.04-.06-1.51-.17-.48-.11-.96-.29-1.43-.54l.08,3.62c.35-.16.76-.26,1.17-.36.41-.1.84-.15,1.29-.15Zm-2.5-6.69l.04,2.79c.46.2.97.38,1.46.49.5.11,1.03.16,1.57.16.43,0,.86-.06,1.28-.18.42-.12.84-.27,1.25-.43l-.03-1.47c0-.37-.15-.72-.46-1.04-.31-.32-.65-.6-1-.82-.16-.08-.32-.16-.47-.25-.14-.08-.28-.14-.41-.2l-3.23.94Zm-13.4,8.97l.1.06s.02-.03.07-.03c.27-.1.55-.3.8-.6.25-.29.38-.67.38-1.12v-6.5l-.77.05c-.92.03-1.58.15-1.97.38-.38.23-.67.78-.86,1.63h-.79c-.05-1.6.25-2.75.85-3.48.6-.74,1.81-1.21,3.6-1.4l-.05-2.01c0-.97.39-1.82,1.17-2.51.76-.68,1.61-1.23,2.52-1.62.22-.08.44-.16.64-.23.21-.07.41-.13.6-.19l.31.56c-.48.28-.88.58-1.2.96-.32.37-.48,1-.48,1.86v10.5c0,1.16-.52,2.15-1.54,2.92-1.02.77-2.16,1.39-3.39,1.86l-.08.03.1-1.14Zm-5.06-15.16c-.33-.36-.58-.77-.75-1.21-.17-.44-.25-.93-.25-1.46,0-1.33.52-2.47,1.54-3.39,1.02-.92,2.16-1.5,3.4-1.72.19-.06.38-.09.56-.1.18-.01.37-.02.56-.02.71,0,1.43.09,2.13.27.7.18,1.36.39,1.96.64.63.25,1.2.47,1.71.66.5.19.91.28,1.24.28.49,0,.92-.09,1.3-.26.38-.18.75-.39,1.1-.63.06-.03.1-.06.14-.1.05-.05.1-.08.16-.11l.59.38c-.76.96-1.66,1.75-2.68,2.42-1.02.67-2.15,1.01-3.36,1.01-.42,0-.91-.09-1.46-.27l-1.73-.56c-.14-.06-.28-.11-.43-.17-.15-.05-1.39-.49-1.83-.64-.43-.15-.84-.22-1.22-.22-.83,0-1.52.27-2.04.81-.52.54-.79,1.24-.79,2.1,0,.35.07.69.22,1.01.15.33.32.63.51.9l-.54.43-.03-.03Z"/>
        <path class="cls-5" d="m151.55,250.75c1.37,0,2.54.48,3.5,1.42.96.95,1.44,2.13,1.44,3.53,0,1.82-.58,3.34-1.75,4.57-1.17,1.22-2.48,2.25-3.93,3.08v.04c.22.05.45.11.7.16.25.06.49.11.74.16,1.04.25,2,.63,2.86,1.15.86.52,1.3,1.28,1.3,2.26v7.25c0,.39.11.67.33.84.22.18.47.32.74.43l-.29.49c-.52-.03-1.06-.06-1.61-.08-.55-.03-1.1-.04-1.65-.04-1.65,0-3,.17-4.08.51-1.07.34-1.95.73-2.63,1.17-.41.19-.77.4-1.07.62-.3.22-.59.41-.86.58h-1.24c-.22-.08-.43-.17-.62-.27-.19-.1-.4-.18-.62-.27-.85-.33-1.74-.6-2.68-.82-.93-.22-2.03-.33-3.29-.33-.38,0-.81.03-1.28.08-.47.06-.93.14-1.4.25-1.1.28-2.11.73-3.03,1.38-.92.64-1.38,1.53-1.38,2.65,0,1.7.62,2.89,1.87,3.56,1.25.67,2.61,1.04,4.1,1.09h.45c.71,0,1.41-.05,2.08-.14.67-.1,1.35-.23,2.04-.39l.41.78c-.11.03-.24.06-.39.08-.15.03-.3.06-.43.08-.3.03-.62.07-.97.12-.34.05-.68.1-1.01.12-.27.03-.54.05-.78.06-.25.01-.49.02-.74.02h-.54c-1.73-.08-3.3-.51-4.71-1.28-1.41-.77-2.12-2.16-2.12-4.16,0-1.51.68-2.76,2.04-3.77,1.36-1,2.86-1.76,4.51-2.29.88-.27,1.73-.48,2.55-.62.82-.14,1.55-.21,2.18-.21,1.07,0,2.13.12,3.19.35,1.06.23,2.08.56,3.07.97v-17.62h.74v5.64c2.17-.41,3.61-1.33,4.32-2.75.71-1.42,1.07-3.13,1.07-5.14v-.25c0-.94-.13-1.8-.39-2.6-.26-.8-.99-1.2-2.2-1.2-.3,0-.69.08-1.15.23-.47.15-.95.35-1.44.6-.77.44-1.48,1.01-2.14,1.71-.66.7-.99,1.5-.99,2.41v11.24c0,1.35-.36,2.37-1.09,3.07-.73.7-1.52,1.26-2.37,1.67-.28.14-.55.25-.82.35-.27.1-.54.2-.78.31v-.91c.66-.19,1.08-.56,1.28-1.11.19-.55.3-1.12.33-1.73v-11.57c0-.36.23-.85.68-1.48.45-.63,1.05-1.28,1.79-1.94.6-.55,1.28-1.09,2.04-1.63.75-.54,1.52-.99,2.28-1.38.66-.36,1.32-.64,1.98-.84.66-.21,1.28-.31,1.85-.31m-1.15,17.54c.44,0,.87-.06,1.3-.18.43-.12.84-.27,1.26-.43v-1.52c0-.38-.16-.74-.47-1.07-.32-.33-.65-.6-1.01-.82-.16-.08-.32-.16-.47-.25-.15-.08-.29-.15-.43-.21l-3.25.95v2.84c.49.25.99.43,1.5.54.51.11,1.04.16,1.59.16m-3.09,3.71c.41-.11.82-.21,1.24-.31.41-.1.84-.14,1.28-.14.55,0,1.08.06,1.59.19.51.12,1.02.25,1.54.39v-3.75c-.27.14-.57.25-.88.35-.32.1-.62.17-.93.23-.14.03-.28.05-.43.06-.15.01-.31.02-.47.02-.52,0-1.02-.05-1.5-.17-.48-.11-.95-.29-1.42-.53v3.66m.58,4.53c.8-.28,1.63-.56,2.49-.83.86-.27,1.72-.42,2.57-.45v-2.31c-.52-.25-1.05-.42-1.58-.51-.54-.1-1.09-.14-1.67-.14-.17,0-.34.01-.54.04-.19.03-.4.07-.62.12-.11.03-.22.06-.33.08-.11.03-.22.06-.33.08-.11.06-.21.1-.31.12-.1.03-.19.06-.27.08v3.46l.58.25m-13.96-25.77c.71,0,1.42.09,2.12.27.7.18,1.35.39,1.95.64.63.25,1.2.47,1.71.66.51.19.93.29,1.26.29.49,0,.93-.09,1.32-.27.38-.18.76-.39,1.11-.64.05-.03.1-.06.14-.1.04-.04.09-.07.14-.1v-.04l.54.41c-.77.89-1.66,1.67-2.68,2.33-1.02.67-2.13,1-3.33,1-.41,0-.89-.09-1.44-.27-.55-.18-1.13-.36-1.73-.56-.14-.05-.28-.11-.43-.16-.15-.05-.31-.11-.47-.16-.47-.17-.92-.32-1.36-.47-.44-.15-.85-.23-1.23-.23-.85,0-1.54.28-2.08.82-.54.55-.8,1.26-.8,2.14,0,.36.08.7.23,1.03.15.33.32.63.51.91l-.49.33c-.33-.36-.58-.76-.74-1.19-.17-.44-.25-.92-.25-1.44,0-1.32.51-2.43,1.52-3.35,1.01-.92,2.14-1.49,3.38-1.71.19-.06.38-.09.56-.1.18-.01.36-.02.56-.02m6.3,5.52l.25.54c-.47.22-.86.52-1.19.91-.33.39-.49,1.02-.49,1.89v10.5c0,1.15-.51,2.11-1.52,2.88-1.02.77-2.14,1.39-3.38,1.85l.08-.99s.03.03.05.03c0,0,.01,0,.02,0,.01-.01.03-.02.06-.02.3-.11.58-.31.84-.62.26-.3.39-.69.39-1.15v-6.5h-.82c-.93.03-1.6.16-2,.39-.4.23-.69.79-.89,1.67l-.74-.04c0-1.54.29-2.67.88-3.4.59-.73,1.78-1.19,3.56-1.38v-2.06c0-.96.38-1.78,1.15-2.47.77-.69,1.61-1.22,2.51-1.61.22-.08.43-.16.64-.23.21-.07.4-.13.6-.18m11.32-5.62c-.58,0-1.22.11-1.88.31-.66.21-1.33.49-1.99.85-.77.39-1.54.85-2.3,1.39-.75.53-1.44,1.08-2.05,1.63-.74.66-1.35,1.31-1.8,1.95-.47.66-.7,1.16-.7,1.54v11.57c-.03.59-.14,1.16-.32,1.69-.18.52-.58.86-1.21,1.05l-.07.02v1.14l.14-.06c.25-.11.51-.21.77-.31.28-.1.56-.22.84-.36.86-.41,1.66-.98,2.39-1.69.74-.72,1.12-1.77,1.12-3.14v-11.24c0-.87.32-1.66.96-2.34.65-.69,1.36-1.26,2.12-1.69.48-.24.96-.44,1.42-.59.46-.15.83-.22,1.12-.22,1.17,0,1.86.37,2.1,1.13.26.78.39,1.65.39,2.57v.25c0,1.99-.36,3.7-1.06,5.1-.68,1.35-2.07,2.25-4.13,2.67v-5.62h-.95v17.57c-.95-.38-1.94-.69-2.94-.91-1.06-.23-2.14-.35-3.21-.35-.63,0-1.37.07-2.2.21-.82.14-1.68.35-2.57.62-1.65.52-3.18,1.3-4.54,2.3-1.38,1.02-2.08,2.31-2.08,3.85,0,2.04.73,3.46,2.17,4.25,1.42.77,3.02,1.21,4.76,1.29h.27s.27,0,.27,0c.24,0,.49,0,.75-.02.25-.01.51-.04.79-.06.33-.03.67-.07,1.01-.12.34-.05.66-.1.96-.12.15-.03.29-.06.44-.08.15-.03.29-.06.4-.08l.13-.03-.06-.12-.41-.78-.04-.07-.08.02c-.68.16-1.36.29-2.03.39-.67.09-1.36.14-2.06.14h-.45c-1.46-.05-2.82-.42-4.05-1.08-1.21-.65-1.82-1.82-1.82-3.47,0-1.09.45-1.95,1.33-2.57.9-.63,1.91-1.09,2.99-1.36.46-.11.93-.19,1.39-.24.46-.05.89-.08,1.26-.08,1.25,0,2.35.11,3.27.33.93.22,1.82.49,2.66.82.22.08.42.17.61.26.2.1.41.19.63.27h.02s.02,0,.02,0h1.29c.28-.18.57-.38.87-.6.29-.21.64-.41,1.05-.61.69-.44,1.56-.83,2.62-1.17,1.06-.34,2.42-.51,4.04-.51.54,0,1.09.01,1.64.04.55.03,1.08.05,1.61.08h.06s.03-.05.03-.05l.29-.49.06-.1-.11-.04c-.26-.11-.5-.25-.71-.42-.2-.16-.29-.41-.29-.76v-7.25c0-1.02-.45-1.81-1.35-2.35-.87-.52-1.84-.92-2.89-1.16l-.11-.02c-.21-.05-.42-.09-.63-.14-.17-.04-.34-.08-.5-.12,1.39-.81,2.66-1.82,3.78-3,1.18-1.24,1.78-2.8,1.78-4.64,0-1.43-.5-2.64-1.47-3.6-.98-.97-2.18-1.45-3.57-1.45h0Zm-4.14,14.18l3.14-.92c.12.05.25.11.39.19.15.08.31.17.48.25.34.21.67.48.98.8.29.31.44.64.44,1v1.45c-.38.15-.78.29-1.18.4-.41.12-.84.18-1.27.18-.54,0-1.07-.05-1.56-.16-.48-.1-.95-.27-1.42-.5v-2.7h0Zm0,7.04v-3.36c.43.21.86.37,1.3.47.48.11,1,.17,1.53.17.18,0,.33,0,.48-.02.15-.01.3-.03.44-.06.31-.06.62-.13.94-.23.26-.08.52-.18.75-.28v3.45c-.48-.12-.95-.24-1.42-.36-.51-.13-1.05-.19-1.61-.19-.45,0-.88.05-1.3.15-.37.09-.74.18-1.11.27h0Zm0,1.03c.06-.02.13-.04.19-.06.1-.03.21-.07.33-.13.09-.02.2-.05.3-.07l.25-.06.08-.02c.21-.05.42-.09.61-.12.18-.03.36-.04.52-.04.57,0,1.12.05,1.65.14.51.09,1.01.25,1.5.48v2.14c-.82.04-1.67.19-2.5.45-.85.26-1.67.54-2.46.82l-.48-.2v-3.32h0Zm-13.48-22.24c-.19,0-.38,0-.56.02-.18.01-.38.05-.58.11-1.24.22-2.39.81-3.42,1.73-1.03.93-1.56,2.09-1.56,3.43,0,.53.09,1.03.25,1.48.17.45.43.86.76,1.23l.06.06.07-.05.49-.33.09-.06-.06-.09c-.19-.26-.36-.56-.51-.89-.14-.31-.22-.65-.22-.99,0-.85.26-1.54.77-2.07.51-.53,1.19-.79,2.01-.79.37,0,.77.07,1.2.22.44.15.89.31,1.36.47.17.06.32.11.47.16.15.05.29.11.43.16.61.2,1.19.38,1.73.56.56.18,1.05.27,1.47.27,1.22,0,2.36-.34,3.39-1.02,1.02-.67,1.93-1.46,2.7-2.35l.07-.08-.09-.07-.54-.41-.17-.13v.19s-.08.06-.11.09c-.03.03-.07.06-.12.08-.36.25-.73.46-1.11.64-.37.17-.8.26-1.27.26-.32,0-.73-.09-1.22-.28-.51-.19-1.08-.41-1.71-.66-.6-.25-1.26-.46-1.97-.64-.71-.18-1.43-.27-2.15-.27h0Zm6.35,5.5l-.08.02c-.19.06-.39.12-.6.19-.21.07-.42.14-.64.23-.92.39-1.77.94-2.54,1.63-.79.7-1.19,1.56-1.19,2.55v1.97c-1.75.2-2.94.67-3.54,1.41-.6.74-.91,1.91-.91,3.46v.1h.1s.74.05.74.05h.09s.02-.08.02-.08c.18-.84.47-1.38.84-1.6.38-.22,1.04-.35,1.95-.38h.72v6.4c0,.44-.12.8-.37,1.09-.24.28-.51.48-.79.58-.02,0-.03,0-.05,0l-.13-.14-.02.22-.08.99v.16s.14-.06.14-.06c1.24-.47,2.38-1.1,3.4-1.87,1.04-.79,1.56-1.78,1.56-2.96v-10.5c0-.85.16-1.46.47-1.83.32-.37.71-.67,1.16-.88l.09-.04-.04-.09-.25-.54-.04-.08h0Z"/>
      </g>
      <g>
        <path class="cls-1" d="m164.07,278.55c-.2-.21-.37-.38-.53-.53-.16-.15-.33-.29-.49-.43-.33-.3-.65-.53-.96-.69-.31-.16-.6-.24-.86-.24-.05,0-.1,0-.15.02-.07.01-.12.02-.18.02-.15.05-.3.12-.45.2-.15.08-.29.16-.43.25-.09.03-.16.07-.22.12-.08.06-.14.1-.19.13l-.64-.63,3.02-1.65-.03-18.11c0-.16,0-.34-.02-.53-.02-.19-.02-.39-.02-.58l-.16-1.04c-.05-.34-.11-.65-.16-.92l.6-.46,1.02,2.04.1-.2c.07-.07.12-.14.18-.22l.09-.09c.1-.1.13-.14.15-.19.42-.5.84-1,1.26-1.49.43-.5.91-.97,1.43-1.41l.53.58c-.43.55-.78,1.11-1.02,1.74-.24.63-.42,1.28-.53,1.92-.08.39-.14.78-.16,1.15-.03.38-.04.75-.04,1.11v16.26l1.83,1.19,1.01-.7.52.5-3.69,2.89h-.8Z"/>
        <path class="cls-5" d="m166.46,251.95l.45.58c-.44.49-.78,1.06-1.03,1.69-.25.63-.43,1.28-.54,1.94-.08.38-.14.77-.16,1.15-.03.38-.04.76-.04,1.11v16.26l1.85,1.23,1.07-.7.45.49-3.66,2.8h-.78c-.16-.19-.33-.36-.49-.51-.16-.15-.33-.29-.49-.43-.33-.3-.65-.54-.97-.7-.32-.16-.61-.25-.88-.25-.06,0-.11,0-.16.02-.06.01-.11.02-.17.02-.16.05-.32.12-.47.21-.15.08-.29.16-.43.25-.08.03-.16.07-.23.12-.07.05-.13.1-.18.12l-.58-.62,3-1.56v-18.16c0-.16,0-.34-.02-.54-.01-.19-.02-.38-.02-.58-.06-.36-.11-.71-.16-1.05-.06-.34-.11-.65-.16-.93v-.04l.58-.37.95,2.02c.06-.05.12-.12.19-.18.07-.07.13-.14.18-.23.05-.06.1-.1.14-.14.04-.04.08-.09.1-.14.41-.49.83-.99,1.26-1.48.43-.49.9-.96,1.42-1.4m.02-.15l-.08.07c-.52.44-1,.91-1.43,1.41-.43.49-.85.99-1.26,1.48-.04.07-.06.1-.1.14l-.14.15c-.06.09-.12.16-.18.23l-.08.08-.88-1.88-.05-.11-.1.06-.58.37-.05.03v.1c.06.29.11.6.17.94.05.34.11.69.16,1.05,0,.19,0,.38.02.57.01.19.02.37.02.53v18.09l-2.95,1.54-.12.06.09.1.58.62.05.06.07-.03c.06-.03.12-.07.2-.13.06-.05.12-.08.2-.11.16-.09.3-.17.45-.25.14-.08.29-.14.44-.19.06,0,.11,0,.17-.02.05-.01.09-.02.14-.02.25,0,.54.08.84.24.31.16.62.39.95.68.17.14.33.28.49.43.16.15.32.32.49.51l.03.04h.86l.03-.02,3.66-2.8.09-.07-.08-.08-.45-.49-.06-.06-.07.05-1.01.66-1.75-1.17v-16.21c0-.36.01-.73.04-1.1.03-.37.08-.76.16-1.14.11-.65.29-1.29.53-1.92.24-.62.58-1.18,1.01-1.66l.06-.06-.05-.07-.45-.58-.07-.08h0Z"/>
      </g>
      <g>
        <path class="cls-1" d="m181.4,278.55l-1.19-1.04c-.35-.28-.58-.59-.73-.94-.15-.35-.23-.94-.23-1.77l-6.01,3.75h-.73c-.12-.02-.25-.06-.39-.12-.14-.06-.26-.11-.37-.17-.66-.3-1.27-.75-1.81-1.33-.54-.58-.82-1.29-.82-2.1,0-1.03.4-1.95,1.19-2.74.78-.78,1.65-1.43,2.58-1.93.36-.19.7-.37,1.03-.54.33-.17.65-.3.95-.42l-3.44-3.34c-.07-.02-.15-.07-.21-.15-.06-.07-.11-.15-.17-.23-.16-.22-.29-.43-.37-.63-.08-.2-.13-.37-.13-.52,0-.56.18-1,.53-1.32.35-.31.8-.47,1.33-.47h.21c.43.06.81.23,1.14.51.34.28.51.66.51,1.11,0,.29-.07.57-.21.83-.14.26-.33.47-.55.61.41-.05.79-.11,1.19-.22.41-.11.83-.25,1.27-.42.61-.23,1.2-.5,1.76-.81.57-.32,1.07-.66,1.47-1.02.11-.08.21-.17.3-.27.1-.09.18-.2.26-.31l.7-.06c.08.18.13.3.19.4l.23.38c.19.27.43.54.71.78.29.25.56.44.83.58.13.05.26.09.38.12.12.03.23.04.34.04.13,0,.27-.03.41-.1.15-.07.3-.16.47-.27.06-.03.11-.07.16-.11.06-.05.13-.08.22-.12.12-.11.25-.21.38-.29l.31-.21.44.55-3.1,2.25.02,7.95,1.75,1.44.93-.66.48.5-3.77,2.8h-.47Zm-7.06-8.16c-.54.3-1.02.68-1.41,1.12-.39.44-.58,1.02-.58,1.71s.26,1.32.79,1.77c.53.46,1.11.82,1.73,1.06.11.03.21.06.31.1.09.04.19.07.3.1l3.79-2.46-.02-7.16-1.79-1.36c-.6.39-1.3.69-2.03.91-.73.22-1.48.36-2.25.41l4.27,4.07-.49.61-1.53-1.46-1.08.56Z"/>
        <path class="cls-5" d="m180.49,262.57c.03.14.07.27.14.38s.14.24.23.38c.19.28.43.55.72.8.29.25.57.45.84.59.14.06.27.1.39.13.12.03.24.04.35.04.14,0,.28-.03.43-.11.15-.07.31-.16.47-.28.05-.03.11-.06.16-.11.05-.04.12-.08.21-.11.14-.11.27-.21.39-.3.12-.09.23-.16.31-.21v-.04l.37.58-3.09,2.18v7.99l1.77,1.48.99-.66.41.49-3.75,2.72h-.45l-1.15-1.03s0,.02-.01.02-.02,0-.03-.02c-.3-.27-.53-.58-.68-.93-.15-.34-.23-.93-.23-1.75l-6.09,3.71h-.7c-.11-.03-.23-.07-.37-.12-.14-.06-.26-.11-.37-.17-.66-.3-1.26-.74-1.79-1.32-.54-.58-.8-1.27-.8-2.06,0-1.02.39-1.92,1.17-2.7.78-.78,1.64-1.42,2.57-1.92.36-.19.7-.37,1.03-.54.33-.16.65-.3.95-.41l-3.42-3.43c-.08-.03-.15-.07-.21-.14-.06-.07-.11-.14-.17-.23-.16-.22-.29-.43-.37-.62-.08-.19-.12-.36-.12-.5,0-.55.17-.97.51-1.28.34-.3.78-.45,1.3-.45h.21c.41.06.78.22,1.11.49.33.27.49.63.49,1.07,0,.28-.07.55-.21.81-.14.25-.32.45-.53.59l.08.04c.36,0,.74-.06,1.15-.17.41-.11.84-.25,1.28-.42.6-.22,1.19-.49,1.77-.81.58-.32,1.07-.66,1.48-1.02.11-.08.21-.17.31-.27.1-.1.19-.2.27-.31l.66-.04m-3.58,8.69l-1.48-1.48-1.11.58c-.55.3-1.02.68-1.42,1.13s-.6,1.04-.6,1.75.27,1.35.8,1.81c.54.47,1.12.82,1.75,1.07.11.03.21.06.31.1.1.04.2.08.31.1v-.04l3.83-2.43v-7.2l-1.81-1.4c-.66.38-1.35.69-2.08.91-.73.22-1.48.36-2.24.41l4.24,4.16-.49.54m3.67-8.79h-.09s-.66.05-.66.05h-.05s-.03.04-.03.04c-.08.11-.17.21-.26.3-.09.09-.19.18-.3.26-.41.36-.9.7-1.47,1.01-.57.31-1.16.59-1.76.81-.43.16-.86.3-1.27.41-.34.09-.66.14-.96.16.15-.13.27-.29.37-.48.15-.27.22-.56.22-.85,0-.47-.18-.86-.53-1.15-.34-.29-.73-.46-1.16-.52h-.12s-.1,0-.1,0c-.55,0-1,.16-1.37.48-.36.32-.55.78-.55,1.35,0,.15.04.33.13.54.09.2.21.41.38.64.05.08.11.16.17.23.06.08.14.13.23.17l3.29,3.3c-.26.1-.53.22-.81.36-.33.17-.67.35-1.03.54-.94.5-1.81,1.15-2.6,1.94-.8.8-1.2,1.73-1.2,2.78,0,.82.28,1.54.83,2.13.54.58,1.15,1.04,1.82,1.34.11.05.23.11.37.17.14.06.27.1.38.13h.72s.03,0,.03,0h.02s5.94-3.63,5.94-3.63c.01.75.09,1.28.23,1.61.16.36.39.68.71.96.02.02.05.05.09.05l1.1.98.03.03h.53l.03-.02,3.75-2.72.09-.06-.07-.08-.41-.49-.06-.07-.08.05-.92.62-1.67-1.4v-7.89l3.04-2.15.08-.06-.05-.08-.37-.58-.19-.29v.34l-.08.06-.18.13c-.12.08-.25.18-.38.29-.08.03-.16.07-.22.12-.05.04-.1.07-.15.1-.17.12-.32.21-.47.28-.14.06-.27.1-.39.1-.1,0-.21-.01-.33-.04-.12-.03-.24-.07-.37-.12-.26-.13-.53-.32-.82-.57-.28-.25-.52-.51-.7-.78-.08-.13-.16-.26-.22-.37-.06-.1-.11-.22-.13-.34l-.02-.09h0Zm-7.18,4.19c.7-.06,1.38-.2,2.04-.4.71-.21,1.4-.51,2.04-.88l1.72,1.33v7.1l-3.78,2.4h0c-.07-.02-.14-.04-.21-.07-.1-.04-.21-.08-.32-.11-.61-.24-1.18-.59-1.71-1.05-.51-.44-.77-1.03-.77-1.73s.19-1.25.57-1.68c.39-.44.86-.81,1.39-1.11l1.04-.54,1.43,1.43.08.08.07-.08.49-.54.07-.07-.07-.07-4.08-4h0Z"/>
      </g>
      <g>
        <path class="cls-1" d="m191.45,278.55c-.17-.15-.33-.29-.52-.42l-.58-.41c-.14-.11-.27-.21-.41-.29l-.41-.25c-.41-.27-.81-.5-1.19-.68-.38-.17-.66-.26-.84-.26-.26,0-.51.07-.73.22-.23.15-.46.32-.67.51l-.53-.58,2.27-1.72-.02-8.27-.84-.41-.03-.79c.13-.04.22-.04.31-.04h.03c.39,0,.82-.04,1.29-.13.59-.11,1.19-.28,1.78-.5.71-.22,1.4-.51,2.05-.86.65-.34,1.21-.71,1.68-1.1l.64-.06.03.12c.47.51.94.93,1.45,1.27.51.34,1.29.53,2.32.59l.05.67c-.37.47-.84.87-1.41,1.2-.57.33-1.16.53-1.77.58-.08.03-.16.04-.23.04h-.23c-.7,0-1.3-.21-1.8-.61-.5-.4-.9-.93-1.21-1.56l-.92.44.03,9.05,1.86.78c.63.27,1.24.61,1.82.99l3.03-1.94.56.54-5.99,3.87h-.88Z"/>
        <path class="cls-5" d="m194.7,262.57c0,.06,0,.09.02.1.01.01.03.02.06.02.41.49.88.91,1.4,1.26.52.34,1.3.54,2.35.6v.62c-.36.44-.82.82-1.38,1.15-.56.33-1.15.52-1.75.58-.08.03-.16.04-.23.04h-.23c-.69,0-1.28-.2-1.77-.6-.49-.4-.89-.91-1.19-1.54l-.99.41v9.1c.63.28,1.26.55,1.89.82.63.27,1.23.6,1.81.99l3.09-1.94.49.54-5.97,3.79h-.86c-.14-.14-.3-.27-.49-.41-.19-.14-.38-.27-.58-.41-.14-.11-.27-.21-.41-.29s-.27-.16-.41-.25c-.41-.27-.81-.5-1.19-.68-.39-.18-.67-.27-.86-.27-.27,0-.53.08-.76.23-.23.15-.46.32-.68.51l-.45-.58,2.26-1.65v-8.32l-.86-.45v-.74c.09,0,.19,0,.29,0,.39,0,.83-.04,1.3-.13.59-.11,1.19-.28,1.79-.5.71-.22,1.4-.51,2.06-.86.66-.35,1.22-.72,1.69-1.11l.58-.04m.1-.11h-.11s-.58.05-.58.05h-.03s-.03.02-.03.02c-.46.39-1.02.75-1.67,1.1-.65.35-1.34.63-2.04.85-.6.22-1.19.39-1.78.5-.47.09-.9.13-1.28.13-.1,0-.19,0-.28,0h-.11s0,.1,0,.1v.8l.06.03.81.42v8.2l-2.22,1.62-.09.06.07.08.45.58.07.09.08-.07c.22-.19.44-.36.67-.51.22-.14.45-.21.71-.21.17,0,.45.09.82.26.38.18.77.4,1.18.67.14.09.28.17.41.25.13.08.26.17.4.28l.04.03.54.39c.19.14.35.27.48.4l.03.03h.94l.03-.02,5.97-3.79.1-.07-.08-.09-.49-.54-.06-.06-.07.05-3.03,1.9c-.56-.37-1.16-.69-1.77-.96-.61-.27-1.22-.53-1.83-.8v-8.96l.84-.35c.3.6.7,1.11,1.18,1.49.51.41,1.13.62,1.83.62h.23c.08,0,.17-.02.26-.05.59-.05,1.19-.25,1.77-.58.57-.33,1.04-.73,1.41-1.18l.02-.03v-.75h-.1c-1.02-.06-1.79-.25-2.3-.59-.51-.34-.97-.75-1.38-1.24l-.03-.04h-.03s0-.01,0-.02v-.11h0Z"/>
      </g>
      <g>
        <path class="cls-1" d="m211.21,278.55c-.22-.09-.42-.28-.62-.56-.19-.27-.39-.62-.58-1.04-.16-.33-.34-.71-.52-1.13-.18-.42-.35-.86-.51-1.3-.27-.71-.56-1.4-.86-2.08-.3-.67-.62-1.18-.94-1.53l-2.94,1.62.03,1.93,1.79,1.27.97-.58.51.46-3.96,2.92h-.65s-.13-.06-.13-.06l-.15-.1c-.08-.06-.17-.13-.26-.21-.11-.08-.22-.17-.33-.27-.11-.1-.22-.22-.34-.36-.27-.27-.53-.53-.76-.78-.28-.29-.43-.35-.52-.35-.18,0-.37.07-.57.2-.2.13-.4.3-.59.49l-.04.04-.16.05-.58-.58,2.52-1.77-.02-17.99c0-.45-.03-.92-.1-1.39-.07-.46-.14-.89-.23-1.27l-.06-.24c-.05-.2-.08-.29-.1-.37v-.04l.04-.06.49-.08c.08.08.11.13.13.17.03.04.06.09.08.15l.07.11c.21.33.38.61.54.9.17.29.28.6.34.94.24-.57.63-1.08,1.06-1.53.44-.45.9-.89,1.36-1.3.02-.05.06-.09.11-.13.04-.03.08-.07.13-.12.11-.11.22-.21.33-.31.11-.1.22-.2.33-.31l.47.35-.04.09c-.05.1-.07.13-.11.17-.4.65-.78,1.45-1.12,2.37s-.51,1.89-.51,2.86v8.15l5.31-3.38h.69s3.74,4.25,3.74,4.25v.24s-4.09,2.39-4.09,2.39c.21.26.4.58.59.9.19.32.37.64.54.97.36.71.69,1.4.99,2.06.3.66.56,1.21.78,1.65.04.07.05.11.05.15.13.25.27.49.42.71.14.2.29.31.43.31.08,0,.16-.01.25-.04.09-.02.17-.06.25-.12.06-.03.11-.06.16-.1.06-.04.12-.08.17-.11.08-.05.15-.1.2-.14.06-.04.11-.08.17-.11l.51.46-3.56,2.52h-.67Zm-6.97-11.58l.02,4.65,6.55-3.75-2.83-3.22-3.75,2.32Z"/>
        <path class="cls-5" d="m205.61,251.99l.37.33c-.03.05-.05.1-.06.12-.01.03-.03.06-.06.08-.41.66-.79,1.45-1.13,2.39-.34.93-.51,1.89-.51,2.88v8.15l5.39-3.33h.66l3.7,4.24v.21l-4.08,2.35c.19.33.38.65.58.97.19.32.37.64.54.97.36.71.69,1.4.99,2.06.3.66.56,1.21.78,1.65,0,.03,0,.05.02.06.01.01.02.03.02.06.14.27.28.52.43.74.15.22.31.33.47.33.08,0,.17-.01.27-.04s.19-.07.27-.12c.05-.03.11-.06.16-.1.05-.04.11-.07.16-.1.08-.05.15-.1.21-.14.05-.04.11-.07.16-.1l.45.45-3.54,2.43h-.66c-.19-.08-.38-.26-.58-.54-.19-.27-.38-.62-.58-1.03-.16-.33-.34-.71-.51-1.13-.18-.43-.35-.86-.51-1.3-.27-.71-.56-1.41-.86-2.08-.3-.67-.62-1.19-.95-1.54l-3,1.61v1.98l1.81,1.32,1.03-.58.45.45-3.95,2.84h-.62c-.08-.06-.16-.11-.25-.16-.08-.06-.16-.12-.25-.21-.11-.08-.22-.17-.33-.27-.11-.1-.22-.21-.33-.35-.27-.27-.53-.54-.76-.78-.23-.25-.42-.37-.56-.37-.19,0-.39.07-.6.21-.21.14-.41.3-.6.49-.03,0-.05,0-.06.02-.01.01-.03.03-.06.06l-.58-.58,2.51-1.69v-18.03c0-.47-.03-.93-.1-1.4-.07-.47-.14-.89-.23-1.28-.03-.11-.05-.22-.08-.33-.03-.11-.06-.21-.08-.29v-.04l.49-.08c.03.05.05.1.08.14.03.04.05.09.08.14,0,.03.01.06.04.08.03.03.06.06.08.08.16.28.33.56.49.84.17.29.27.6.33.93.33-.55.71-1.05,1.15-1.5.44-.45.89-.89,1.36-1.3.03-.06.06-.1.1-.12.04-.03.09-.07.14-.12.11-.11.22-.21.33-.31.11-.1.22-.2.33-.31m-1.4,19.64l6.63-3.7-2.84-3.33-3.79,2.35v4.69m1.4-19.78l-.07.07c-.11.11-.22.21-.32.3-.11.1-.22.2-.33.31-.05.05-.09.09-.13.11-.05.04-.1.08-.13.15-.46.41-.91.84-1.35,1.29-.38.39-.73.83-1.03,1.3-.06-.25-.16-.49-.29-.71-.16-.29-.33-.57-.49-.85h0s0-.02,0-.02l-.08-.08v-.02l-.02-.03c-.03-.06-.06-.11-.09-.15-.03-.04-.05-.08-.08-.13l-.03-.07h-.08s-.49.09-.49.09h-.09v.17c.03.08.06.17.09.28.03.11.06.22.08.33.08.37.15.79.23,1.27.07.46.1.93.1,1.39v17.98l-2.47,1.66-.1.07.09.09.58.58.07.07.07-.07.06-.06h.04l.02-.02c.19-.19.38-.35.58-.48.19-.12.37-.19.54-.19.06,0,.2.04.48.34.23.25.49.51.76.78.1.13.22.25.33.35.1.09.21.18.34.27.08.08.17.15.25.21l.25.16.03.02h.68l.03-.02,3.95-2.84.1-.07-.09-.09-.45-.45-.05-.05-.07.04-.97.54-1.72-1.25v-1.86l2.88-1.54c.3.34.6.83.88,1.46.31.68.6,1.38.86,2.07.18.47.35.9.52,1.3.17.42.35.8.52,1.14.19.41.39.76.58,1.04.21.29.41.48.62.57h.02s.02,0,.02,0h.69l.03-.02,3.54-2.43.1-.07-.09-.09-.45-.45-.05-.05-.07.03c-.06.03-.12.07-.18.11-.05.04-.12.09-.2.14-.05.03-.11.06-.17.11-.05.04-.1.07-.15.09-.08.05-.16.09-.25.12-.09.02-.16.04-.24.04-.13,0-.26-.1-.39-.29-.14-.21-.28-.44-.42-.71,0-.05-.03-.08-.05-.1v-.02h0c-.22-.45-.48-1-.78-1.66-.3-.66-.64-1.36-.99-2.06-.16-.32-.34-.65-.54-.98-.17-.29-.35-.58-.52-.88l3.99-2.29.05-.03v-.3l-.03-.03-3.7-4.24-.03-.04h-.74l-.02.02-5.24,3.24v-7.97c0-.97.17-1.93.51-2.85.34-.92.72-1.72,1.12-2.37.02-.02.05-.05.07-.09v-.03s.06-.09.06-.09l.04-.07-.06-.05-.37-.33-.07-.06h0Zm-1.29,15.14l3.66-2.27,2.7,3.17-6.37,3.56v-4.46h0Z"/>
      </g>
      <g>
        <path class="cls-1" d="m226.19,285.26c-.97,0-1.75-.24-2.32-.71-.57-.47-.86-1.24-.86-2.26,0-2.2,1.05-4.12,3.11-5.7,2.06-1.58,4.36-2.71,6.85-3.37.71-.19,1.44-.34,2.17-.43.72-.1,1.43-.15,2.09-.15.25,0,.5.02.75.04l.74.08.12.04h.17l1.16.17,2.67-4.05-5.81-1.28c-1.84-.41-3.54-1.09-5.04-2-1.52-.92-2.29-2.25-2.29-3.93,0-.19.01-.4.04-.6.03-.21.08-.42.17-.65.08-.33.21-.66.37-.97.17-.32.37-.59.59-.82l.67.15c.04.13.03.2.01.25-.02.04-.04.09-.06.15,0,.03,0,.09-.02.14-.01.03-.02.08-.02.13-.03.12-.05.22-.06.32-.01.09-.02.18-.02.26,0,.99.67,1.87,1.99,2.61,1.33.75,3.14,1.38,5.38,1.87l5.97,1.28,1.14-1.71-4.29-.87c-3.37-.71-5.7-1.59-6.92-2.61-1.23-1.02-1.85-2.34-1.85-3.92,0-1.44.59-2.64,1.75-3.55,1.15-.91,2.43-1.58,3.8-1.99.53-.14,1.05-.25,1.57-.33.52-.08,1.02-.12,1.49-.12,1.45,0,2.9.22,4.32.66,1.41.44,2.71,1.11,3.86,1.98l2.66-1.85.56.58-6.72,4.73c-.86-1.27-1.83-2.33-2.94-3.17-1.11-.84-2.36-1.26-3.72-1.26-.14,0-.28,0-.43.02-.15.01-.31.02-.48.02-.94.11-1.81.4-2.59.86-.76.46-1.15,1.19-1.15,2.19,0,.91.66,1.73,1.97,2.41,1.32.7,2.79,1.27,4.37,1.71l.72.17.68.17,5.43,1.16c.12-.15.28-.32.44-.5.17-.18.33-.35.5-.52.98-1.09,2.03-2.15,3.13-3.15,1.09-1,2.36-1.79,3.76-2.34l.43.51c-1.46.79-2.79,1.71-3.96,2.83-1.17,1.12-2.28,2.29-3.29,3.5l.88.12c2.53.71,4.27,1.62,5.17,2.69.91,1.08,1.37,2.53,1.37,4.32,0,1.32-.54,2.59-1.62,3.76-1.07,1.17-2.27,2.24-3.55,3.2-1.06.79-2.09,1.49-3.05,2.08-.95.58-1.58,1.07-1.88,1.45l-1.28.02c-.84-.58-1.81-1.12-2.9-1.61-1.09-.49-2.24-.92-3.41-1.27-.3.45-.69.93-1.12,1.42-.43.5-.87,1-1.34,1.52-1.37,1.53-2.93,2.95-4.64,4.23-1.72,1.28-3.54,1.92-5.4,1.92Zm7.62-9.96c-.54,0-1.13.06-1.74.18-.62.12-1.26.3-1.91.51-1.58.54-3.04,1.39-4.35,2.52-1.3,1.12-1.96,2.47-1.96,4.02,0,.65.2,1.11.62,1.42.42.31.92.46,1.51.46h.29c1.65-.08,3.31-.71,4.91-1.88,1.61-1.17,3.06-2.47,4.32-3.86.47-.47.91-.96,1.29-1.44.4-.49.76-.96,1.09-1.4-.65-.1-1.33-.23-2.01-.35-.67-.12-1.36-.18-2.07-.18Zm7.17-2.12c1.34.17,2.63.61,3.81,1.25,1.16.62,2.33,1.33,3.46,2.1.3-.25.69-.51,1.11-.8.43-.29.87-.6,1.34-.93.93-.68,1.78-1.45,2.54-2.3.76-.84,1.14-1.75,1.14-2.72,0-1.48-.61-2.57-1.8-3.23-1.21-.67-2.56-1.2-4-1.58l-.12-.04-1.89-.54-1.01,1.58,1.7.42c1.48.44,2.72.94,3.7,1.49.99.56,1.49,1.46,1.49,2.68,0,.69-.23,1.32-.67,1.86-.44.54-.94,1.01-1.49,1.39l-.6-.45.12-.08.08-.08.26-.34c.09-.12.17-.25.22-.38.03-.05.04-.12.06-.2s.02-.14.02-.2c0-.5-.47-.92-1.39-1.27-.93-.35-1.98-.68-3.1-.99l-.12-.04-2.15-.61-2.7,4Z"/>
        <path class="cls-5" d="m241.38,250.75c1.45,0,2.89.22,4.3.66,1.41.44,2.7,1.1,3.85,1.98l2.72-1.85.49.58-6.71,4.65c-.8-1.26-1.76-2.32-2.88-3.17-1.13-.85-2.37-1.28-3.75-1.28-.14,0-.28,0-.43.02-.15.01-.31.02-.47.02-.96.11-1.83.4-2.61.87-.78.47-1.17,1.21-1.17,2.23,0,.94.66,1.76,2,2.46,1.33.7,2.79,1.27,4.38,1.72.25.06.49.11.72.17.23.06.46.11.68.17l5.43,1.16c.16-.17.33-.34.49-.51.17-.18.33-.35.49-.51.99-1.1,2.03-2.15,3.13-3.15,1.1-1,2.35-1.78,3.75-2.33l.37.49c-1.45.71-2.77,1.63-3.95,2.76-1.18,1.12-2.28,2.29-3.29,3.5l.91.21c2.53.71,4.24,1.61,5.15,2.68.91,1.07,1.36,2.5,1.36,4.28,0,1.32-.54,2.56-1.61,3.73-1.07,1.17-2.25,2.23-3.54,3.19-1.07.8-2.09,1.49-3.05,2.08-.96.59-1.59,1.08-1.89,1.46h-1.23c-.82-.58-1.78-1.11-2.88-1.61-1.1-.49-2.24-.92-3.42-1.28-.36.47-.75.95-1.17,1.44-.43.49-.87,1-1.34,1.52-1.37,1.54-2.92,2.94-4.63,4.22-1.72,1.28-3.51,1.91-5.37,1.91-.96,0-1.72-.23-2.28-.7-.56-.47-.84-1.21-.84-2.22,0-2.2,1.03-4.08,3.09-5.66,2.06-1.58,4.34-2.7,6.83-3.36.71-.19,1.43-.33,2.16-.43.73-.1,1.42-.14,2.08-.14.25,0,.49.01.74.04.25.03.49.06.74.08.03.03.07.04.12.04h.16c.19.03.38.06.58.08.19.03.38.06.58.08v-.04l2.72-4.03-5.85-1.36c-1.84-.41-3.51-1.08-5.02-2-1.51-.92-2.26-2.22-2.26-3.89,0-.19.01-.39.04-.6.03-.21.08-.42.16-.64.08-.33.21-.65.37-.97.16-.32.36-.58.58-.8l.62.16c0,.08,0,.14-.02.19-.01.04-.03.09-.06.14,0,.06,0,.1-.02.14-.01.04-.02.09-.02.14-.03.11-.05.21-.06.31-.01.1-.02.18-.02.27,0,1.01.67,1.9,2.02,2.65,1.34.76,3.14,1.38,5.39,1.87l5.97,1.28,1.19-1.73-4.32-.95c-3.38-.72-5.67-1.58-6.9-2.6-1.22-1.02-1.83-2.31-1.83-3.88,0-1.43.58-2.6,1.73-3.51,1.15-.91,2.42-1.57,3.79-1.98.52-.14,1.04-.25,1.56-.33.52-.08,1.01-.12,1.48-.12m8.85,23.01l-.49-.41s.05-.01.08-.04c.03-.03.05-.06.08-.08.08-.11.17-.23.27-.35.1-.12.17-.25.23-.39.03-.05.05-.12.06-.21.01-.08.02-.15.02-.21,0-.52-.47-.96-1.42-1.32-.95-.36-1.98-.69-3.11-.99-.03,0-.05,0-.06-.02-.01-.01-.03-.02-.06-.02l-2.18-.62-2.72,4.03c1.37.25,2.65.69,3.83,1.32,1.18.63,2.33,1.33,3.46,2.1.36-.25.75-.51,1.17-.8.43-.29.87-.6,1.34-.93.93-.69,1.78-1.45,2.55-2.31.77-.85,1.15-1.77,1.15-2.76,0-1.51-.61-2.6-1.83-3.27-1.22-.67-2.56-1.2-4.01-1.59-.03,0-.05,0-.06-.02-.01-.01-.03-.02-.06-.02l-1.89-.54-1.07,1.61,1.73.49c1.48.44,2.71.93,3.68,1.48.97.55,1.46,1.43,1.46,2.63,0,.69-.22,1.3-.66,1.83s-.93,1-1.48,1.38m-24.25,10.7h.29c1.67-.08,3.32-.71,4.94-1.89,1.62-1.18,3.06-2.47,4.32-3.87.47-.47.9-.95,1.3-1.44.4-.49.76-.96,1.09-1.4v-.04c-.69-.14-1.37-.27-2.04-.39-.67-.12-1.37-.18-2.08-.18-.55,0-1.13.06-1.75.18-.62.12-1.26.3-1.91.51-1.59.55-3.05,1.39-4.36,2.53-1.32,1.14-1.98,2.49-1.98,4.05,0,.66.21,1.15.64,1.46.43.32.94.47,1.54.47m15.4-33.82c-.47,0-.98.04-1.5.13-.52.08-1.05.19-1.57.33-1.38.42-2.67,1.09-3.82,2-1.17.93-1.77,2.13-1.77,3.59,0,1.6.63,2.93,1.87,3.96,1.23,1.02,3.56,1.91,6.94,2.62l4.17.91-1.07,1.55-5.9-1.26c-2.23-.49-4.03-1.12-5.36-1.86-1.3-.73-1.97-1.59-1.97-2.56,0-.08,0-.16.02-.25.01-.09.03-.19.06-.3,0-.07,0-.11.02-.14.02-.05.02-.1.03-.15.02-.05.04-.1.06-.13.02-.06.03-.13.03-.22v-.08l-.08-.02-.62-.16-.06-.02-.04.04c-.23.23-.43.5-.59.83-.17.32-.3.65-.38.99-.08.22-.14.44-.17.65-.03.21-.04.41-.04.61,0,1.71.78,3.04,2.31,3.98,1.51.92,3.21,1.6,5.05,2.01l5.7,1.33-2.62,3.89c-.16-.02-.32-.05-.48-.07-.2-.03-.39-.05-.58-.08h-.18s-.05,0-.05-.01l-.03-.03h-.04s-.7-.08-.7-.08h-.04c-.26-.03-.51-.05-.75-.05-.66,0-1.36.05-2.09.15-.73.1-1.46.24-2.17.43-2.5.66-4.81,1.79-6.87,3.37-2.08,1.59-3.13,3.52-3.13,5.74,0,1.04.3,1.82.88,2.3.58.48,1.37.72,2.35.72,1.88,0,3.71-.65,5.43-1.93,1.71-1.28,3.28-2.7,4.65-4.23.46-.52.91-1.03,1.34-1.52.4-.47.78-.94,1.13-1.39,1.15.35,2.27.77,3.34,1.25,1.09.49,2.05,1.03,2.86,1.6l.03.02h1.32l.03-.04c.29-.37.92-.86,1.87-1.44.96-.59,1.99-1.29,3.05-2.08,1.29-.96,2.48-2.03,3.56-3.2,1.08-1.18,1.63-2.46,1.63-3.8,0-1.8-.47-3.26-1.38-4.35-.91-1.08-2.66-1.99-5.2-2.71l-.75-.17c.98-1.16,2.05-2.29,3.18-3.36,1.17-1.11,2.49-2.03,3.93-2.74l.11-.05-.07-.1-.37-.49-.05-.06-.07.03c-1.41.55-2.68,1.34-3.78,2.35-1.1,1-2.15,2.07-3.14,3.16-.16.16-.33.33-.49.51-.15.16-.3.32-.45.47l-5.38-1.15c-.22-.05-.44-.11-.68-.16-.23-.05-.47-.11-.72-.17-1.58-.44-3.04-1.01-4.36-1.71-1.29-.68-1.94-1.48-1.94-2.37,0-.99.37-1.69,1.12-2.15.77-.46,1.63-.75,2.57-.86,0,0,.01,0,.02,0,.15,0,.3,0,.45-.02.14-.01.28-.02.42-.02,1.34,0,2.58.42,3.68,1.26,1.11.84,2.07,1.9,2.86,3.14l.06.09.09-.06,6.71-4.65.09-.06-.07-.09-.49-.58-.06-.07-.08.05-2.66,1.81c-1.14-.86-2.43-1.51-3.82-1.95-1.42-.44-2.88-.66-4.33-.66h0Zm4.28,15.23l.95-1.43,1.82.51h.01s.01,0,.01,0c.02.02.06.04.11.04,1.44.38,2.78.91,3.98,1.57,1.18.65,1.78,1.72,1.78,3.18,0,.96-.38,1.86-1.13,2.69-.76.84-1.61,1.61-2.54,2.29-.47.33-.91.64-1.34.92-.4.27-.77.53-1.12.76-1.11-.76-2.26-1.45-3.41-2.06-1.14-.61-2.38-1.05-3.7-1.3l2.59-3.84,2.11.6h.01s.01,0,.01,0c.02.02.06.04.11.04,1.11.3,2.15.63,3.09.98.9.34,1.35.75,1.35,1.22,0,.05,0,.11-.02.19-.01.07-.03.13-.05.18-.06.14-.13.26-.21.37-.1.12-.19.24-.27.35l-.07.07h-.28l.21.19.49.41.06.05.06-.04c.55-.39,1.06-.86,1.5-1.4.45-.55.68-1.19.68-1.9,0-1.24-.51-2.16-1.51-2.72-.98-.55-2.22-1.05-3.71-1.49l-1.59-.46h0Zm-19.68,18.48c-.58,0-1.08-.15-1.48-.45-.4-.3-.6-.75-.6-1.38,0-1.53.65-2.86,1.94-3.98,1.3-1.12,2.76-1.97,4.33-2.51.65-.22,1.29-.39,1.9-.51.61-.12,1.19-.18,1.73-.18.7,0,1.4.06,2.06.18.63.12,1.26.24,1.9.36-.3.39-.63.82-1.02,1.3-.39.49-.82.97-1.29,1.43-1.25,1.39-2.7,2.69-4.31,3.86-1.6,1.16-3.24,1.79-4.88,1.87h-.14s-.14,0-.14,0h0Z"/>
      </g>
      <g>
        <path class="cls-1" d="m262.99,278.55c-.15-.12-.27-.23-.4-.34-.13-.11-.28-.2-.44-.28l-.6-.45c-.39-.27-.71-.46-1.03-.62-.31-.16-.57-.24-.78-.24-.11,0-.23.01-.36.04-.13.03-.26.08-.39.16-.17.06-.31.12-.43.2-.12.08-.25.18-.39.29l-.53-.58,3.1-2.09-.02-9.88-1.22.05c-.24.03-.48.09-.7.18-.22.09-.41.28-.57.57l-.56-.23,1.09-2.74,2.02-.03-.05-5.63,3.15-1.98.08,7.66,1.64-.05c.07.03.12.04.16.04s.09-.01.14-.04c.25-.03.5-.12.74-.26.24-.15.46-.32.65-.51l.43.24-1.09,2.74-2.72.03.05,9.83,1.79,1.19,1.46-1.07.56.5-4.26,3.3h-.51Z"/>
        <path class="cls-5" d="m263.9,254.99v7.62h1.69c.05.03.11.04.16.04s.11-.01.16-.04c.25-.03.49-.12.74-.27.25-.15.47-.32.66-.51l.37.25-1.11,2.68h-2.68v9.88l1.81,1.23,1.52-1.07.49.49-4.24,3.21h-.49c-.11-.11-.23-.22-.37-.33-.14-.11-.29-.21-.45-.29-.11-.08-.22-.17-.33-.25l-.33-.25c-.33-.22-.65-.41-.97-.58-.32-.16-.58-.25-.8-.25-.11,0-.23.01-.37.04-.14.03-.27.08-.41.17-.17.06-.31.12-.43.21-.12.08-.25.18-.39.29l-.45-.58,3.09-2.02v-9.92h-1.28c-.25.03-.49.09-.72.18-.23.1-.43.3-.6.6l-.49-.25,1.11-2.68h1.98v-5.68l3.13-1.94m.1-.18l-.16.1-3.13,1.94-.05.03v5.64h-1.94l-.03.06-1.11,2.68-.04.09.09.04.49.25.09.04.05-.09c.15-.28.34-.46.55-.55.22-.09.46-.15.69-.18h1.16v9.76l-3.04,1.99-.09.06.07.09.45.58.06.08.08-.06c.14-.11.27-.2.38-.28.11-.08.25-.14.41-.19.15-.09.27-.14.4-.16.14-.03.25-.04.35-.04.2,0,.45.08.76.24.32.17.64.36.96.57l.12.09.21.16.04.03c.1.07.19.15.29.22.17.09.32.18.45.29.13.11.25.21.36.32l.03.03h.57l.03-.02,4.24-3.21.09-.07-.08-.08-.49-.49-.06-.06-.07.05-1.47,1.03-1.71-1.16v-9.72h2.64l.03-.06,1.11-2.68.03-.08-.07-.05-.37-.25-.07-.05-.06.06c-.18.18-.4.35-.64.5-.23.14-.47.23-.7.25h-.02s-.02.01-.02.01c-.04.02-.08.03-.12.03s-.08,0-.12-.03h-.02s-.02-.01-.02-.01h-1.59v-7.7h0Z"/>
      </g>
      <g>
        <path class="cls-1" d="m272.92,278.55c-.19-.12-.38-.25-.59-.4-.21-.15-.42-.33-.64-.52-.11-.08-.23-.18-.37-.29-.14-.11-.27-.2-.41-.28-.3-.19-.59-.36-.86-.49-.27-.13-.52-.2-.76-.2-.08,0-.17,0-.26.02-.09.01-.17.05-.25.09-.09.03-.18.07-.28.11-.1.04-.19.08-.27.11-.1.05-.2.1-.28.16-.08.06-.16.1-.21.13l-.63-.5,2.39-1.48-.03-8.73c-.16,0-.34-.11-.5-.27-.15-.15-.27-.3-.36-.44-.06-.09-.09-.17-.11-.24-.01-.06-.02-.13-.02-.19.46-.05.91-.09,1.4-.18.5-.08,1.01-.2,1.52-.33.57-.19,1.15-.4,1.72-.62.57-.22,1.08-.45,1.52-.67.24-.14.47-.27.67-.4.2-.12.37-.24.51-.35l.48-.05,3.79,4.89v.65s-7.42,4.3-7.42,4.3l.03,2.02,3.43,1.73,3.2-1.81.64.58-6.4,3.67h-.67Zm1.14-14.1c-.08.05-.15.09-.24.12-.1.04-.19.08-.27.1-.01.02-.04.04-.08.06l-.1.03c-.09.05-.21.1-.33.14-.13.04-.25.08-.35.1l.04,6.41,4.57-2.76-3.24-4.21Z"/>
        <path class="cls-5" d="m276.33,262.57l3.75,4.87v.62l-7.41,4.25v2.06l3.46,1.78,3.25-1.81.58.58-6.38,3.58h-.66c-.16-.11-.35-.24-.56-.39-.21-.15-.42-.32-.64-.51-.11-.08-.23-.18-.37-.29-.14-.11-.28-.21-.41-.29-.3-.19-.59-.36-.86-.49-.27-.14-.54-.21-.78-.21-.08,0-.17,0-.27.02-.1.01-.18.05-.27.1-.08.03-.17.06-.27.1-.1.04-.18.08-.27.1-.11.05-.21.11-.29.16-.08.06-.15.1-.21.12l-.58-.49,2.39-1.4v-8.77c-.19-.05-.36-.16-.51-.31-.15-.15-.27-.29-.35-.43-.06-.08-.09-.16-.1-.23-.01-.07-.02-.13-.02-.18.41,0,.86-.04,1.36-.13.49-.08,1-.2,1.52-.34.58-.19,1.15-.4,1.73-.63.58-.22,1.08-.45,1.52-.67.25-.14.47-.27.68-.4.21-.13.38-.24.51-.36l.45-.04m-3.66,8.85l4.65-2.72-3.25-4.32c-.08.06-.17.1-.27.14-.1.04-.18.08-.27.1-.03.03-.06.05-.08.06-.03.01-.05.02-.08.02-.11.06-.23.1-.35.14-.12.04-.24.08-.35.1v6.46m3.71-8.96h-.06s-.45.05-.45.05h-.03s-.02.02-.02.02c-.13.11-.3.22-.5.35-.2.13-.43.26-.68.4-.43.22-.94.45-1.51.66-.59.23-1.17.44-1.72.63-.5.13-1.01.25-1.51.33-.49.08-.94.12-1.34.12h-.1v.1c0,.07,0,.13.02.21.02.08.05.17.12.26.08.14.21.29.36.45.14.14.31.25.48.31v8.63l-2.34,1.37-.12.07.11.09.58.49.05.04.06-.03c.06-.03.13-.07.22-.13.08-.06.18-.11.28-.16.07-.02.16-.06.26-.1.09-.04.18-.07.26-.1h.01s.01-.01.01-.01c.07-.05.14-.07.23-.09.09-.01.18-.02.25-.02.23,0,.48.07.74.19.27.13.55.3.86.49.13.08.27.17.4.28.14.11.26.21.37.29.23.2.44.37.64.52.21.15.39.28.56.39l.03.02h.74s6.38-3.6,6.38-3.6l.12-.07-.1-.1-.58-.58-.05-.05-.07.04-3.2,1.79-3.35-1.72v-1.94l7.36-4.22.05-.03v-.71l-.02-.03-3.75-4.87-.03-.04h0Zm-2.79,2.26c.08-.03.16-.06.25-.1.07-.03.14-.06.2-.1l3.13,4.16-4.4,2.57v-6.21c.09-.02.18-.05.28-.08.12-.04.24-.09.34-.14.04,0,.07-.01.1-.03.03-.01.06-.03.09-.06h0Z"/>
      </g>
      <g>
        <path class="cls-1" d="m285.39,278.55c-.19-.12-.38-.25-.59-.4-.21-.15-.42-.32-.64-.52-.11-.08-.23-.18-.37-.29-.14-.11-.27-.2-.41-.28-.3-.19-.59-.36-.86-.49-.27-.13-.52-.2-.76-.2-.08,0-.17,0-.26.02-.09.01-.17.04-.25.09-.09.03-.18.07-.28.11-.1.04-.19.08-.27.11-.1.05-.2.1-.28.16-.08.06-.16.1-.21.13l-.63-.5,2.39-1.48-.03-8.73c-.16,0-.34-.11-.5-.27-.15-.15-.27-.3-.36-.44-.06-.09-.09-.17-.11-.24-.01-.07-.02-.14-.02-.19.46-.05.91-.09,1.4-.18.5-.08,1.01-.2,1.52-.33.57-.19,1.15-.4,1.72-.62.57-.22,1.08-.44,1.52-.67.25-.14.47-.27.68-.4.2-.12.37-.24.51-.35l.48-.05,3.79,4.89v.65s-7.43,4.3-7.43,4.3l.03,2.02,3.43,1.73,3.2-1.81.64.58-6.4,3.67h-.67Zm1.14-14.1c-.07.05-.15.09-.24.12-.1.04-.19.08-.27.1,0,.02-.04.04-.08.06l-.1.03c-.09.05-.21.1-.33.14-.13.04-.24.08-.35.1l.04,6.41,4.57-2.76-3.24-4.21Z"/>
        <path class="cls-5" d="m288.81,262.57l3.75,4.87v.62l-7.41,4.25v2.06l3.46,1.78,3.25-1.81.58.58-6.38,3.58h-.66c-.16-.11-.35-.24-.56-.39-.21-.15-.42-.32-.64-.51-.11-.08-.23-.18-.37-.29-.14-.11-.28-.21-.41-.29-.3-.19-.59-.36-.86-.49-.27-.14-.54-.21-.78-.21-.08,0-.17,0-.27.02-.1.01-.18.05-.27.1-.08.03-.17.06-.27.1-.1.04-.18.08-.27.1-.11.05-.21.11-.29.16-.08.06-.15.1-.21.12l-.58-.49,2.39-1.4v-8.77c-.19-.05-.36-.16-.51-.31-.15-.15-.27-.29-.35-.43-.06-.08-.09-.16-.1-.23-.01-.07-.02-.13-.02-.18.41,0,.86-.04,1.36-.13.49-.08,1-.2,1.52-.34.58-.19,1.15-.4,1.73-.63.58-.22,1.08-.45,1.52-.67.25-.14.47-.27.68-.4.21-.13.38-.24.51-.36l.45-.04m-3.66,8.85l4.65-2.72-3.25-4.32c-.08.06-.17.1-.27.14-.1.04-.18.08-.27.1-.03.03-.06.05-.08.06-.03.01-.05.02-.08.02-.11.06-.23.1-.35.14-.12.04-.24.08-.35.1v6.46m3.71-8.96h-.06s-.45.05-.45.05h-.03s-.02.02-.02.02c-.13.11-.3.22-.5.35-.2.13-.43.26-.68.4-.43.22-.94.45-1.51.66-.59.23-1.17.44-1.72.63-.5.13-1.01.25-1.51.33-.49.08-.94.12-1.34.12h-.1v.1c0,.07,0,.13.02.21.02.08.05.17.12.26.08.14.21.29.36.45.14.14.31.25.48.31v8.63l-2.34,1.37-.12.07.11.09.58.49.05.04.06-.03c.06-.03.13-.07.22-.13.08-.06.18-.11.28-.16.07-.02.16-.06.26-.1.09-.04.18-.07.26-.1h.01s.01-.01.01-.01c.07-.05.14-.07.23-.09.09-.01.18-.02.25-.02.23,0,.48.07.74.19.27.13.55.3.86.49.13.08.27.17.4.28.14.11.26.21.37.29.23.2.44.37.64.52.21.15.39.28.56.39l.03.02h.74s6.38-3.6,6.38-3.6l.12-.07-.1-.1-.58-.58-.05-.05-.07.04-3.2,1.79-3.35-1.72v-1.94l7.36-4.22.05-.03v-.71l-.02-.03-3.75-4.87-.03-.04h0Zm-2.79,2.26c.08-.03.16-.06.25-.1.07-.03.14-.06.2-.1l3.13,4.16-4.4,2.57v-6.21c.09-.02.18-.05.28-.08.12-.04.24-.09.34-.14.04,0,.07-.01.1-.03.03-.01.06-.03.09-.06h0Z"/>
      </g>
      <g>
        <path class="cls-1" d="m298.11,278.55c-.2-.21-.37-.38-.53-.53-.16-.15-.33-.29-.49-.43-.33-.3-.65-.53-.96-.69-.31-.16-.6-.24-.86-.24-.05,0-.1,0-.15.02-.07.01-.12.02-.18.02-.15.05-.3.12-.45.2-.15.08-.29.16-.43.25-.09.03-.16.07-.22.12-.08.06-.14.1-.2.13l-.64-.63,3.02-1.65-.03-18.11c0-.16,0-.34-.02-.53-.02-.19-.02-.39-.02-.58l-.16-1.04c-.06-.34-.11-.65-.17-.92l.6-.46,1.02,2.04v-.11s.1-.09.1-.09c.06-.07.12-.14.18-.22l.09-.09c.1-.1.13-.14.15-.19.42-.5.84-1,1.26-1.49.43-.5.91-.97,1.43-1.41l.53.58c-.43.55-.78,1.11-1.02,1.74-.25.63-.42,1.27-.53,1.92-.08.38-.14.77-.16,1.15-.03.38-.04.75-.04,1.11v16.26l1.83,1.19,1.01-.7.52.5-3.68,2.89h-.8Z"/>
        <path class="cls-5" d="m300.5,251.95l.45.58c-.44.49-.78,1.06-1.03,1.69-.25.63-.43,1.28-.54,1.94-.08.38-.14.77-.16,1.15-.03.38-.04.76-.04,1.11v16.26l1.85,1.23,1.07-.7.45.49-3.66,2.8h-.78c-.16-.19-.33-.36-.49-.51-.16-.15-.33-.29-.49-.43-.33-.3-.65-.54-.97-.7-.32-.16-.61-.25-.88-.25-.06,0-.11,0-.16.02-.06.01-.11.02-.17.02-.16.05-.32.12-.47.21-.15.08-.29.16-.43.25-.08.03-.16.07-.23.12-.07.05-.13.1-.18.12l-.58-.62,3-1.56v-18.16c0-.16,0-.34-.02-.54-.01-.19-.02-.38-.02-.58-.06-.36-.11-.71-.16-1.05-.06-.34-.11-.65-.16-.93v-.04l.58-.37.95,2.02c.06-.05.12-.12.19-.18.07-.07.13-.14.18-.23.05-.06.1-.1.14-.14.04-.04.08-.09.1-.14.41-.49.83-.99,1.26-1.48.43-.49.9-.96,1.42-1.4m.02-.15l-.08.07c-.52.44-1,.91-1.43,1.41-.43.49-.85.99-1.26,1.48-.04.07-.06.1-.1.14l-.14.15c-.06.09-.12.16-.18.23l-.08.08-.88-1.88-.05-.11-.1.06-.58.37-.05.03v.1c.06.29.11.6.17.94.05.34.11.69.16,1.05,0,.19,0,.38.02.57.01.19.02.37.02.53v18.09l-2.95,1.54-.12.06.09.1.58.62.05.06.07-.03c.06-.03.12-.07.2-.13.06-.05.12-.08.2-.11.16-.09.3-.17.45-.25.14-.08.29-.14.44-.19.06,0,.11,0,.17-.02.05-.01.09-.02.14-.02.25,0,.54.08.84.24.31.16.62.39.95.68.17.14.33.28.49.43.16.15.32.32.49.51l.03.04h.86l.03-.02,3.66-2.8.09-.07-.08-.08-.45-.49-.06-.06-.07.05-1.01.66-1.75-1.17v-16.21c0-.36.01-.73.04-1.1.03-.37.08-.76.16-1.14.11-.65.29-1.3.53-1.92.24-.62.58-1.18,1.01-1.66l.06-.06-.05-.07-.45-.58-.07-.08h0Z"/>
      </g>
      <g>
        <path class="cls-1" d="m322.11,287.03c-.17,0-.33,0-.48-.02-.15-.01-.31-.02-.47-.02-1.65-.14-3.18-.7-4.56-1.68-1.38-.98-2.08-2.42-2.08-4.27s.78-3.41,2.3-4.62c1.52-1.21,3.23-2.1,5.06-2.65.71-.19,1.42-.34,2.11-.46.69-.11,1.34-.17,1.94-.17l-.05-15.66c.03-2.01.8-3.66,2.3-4.91,1.5-1.24,3.23-1.87,5.16-1.87.66,0,1.28.1,1.85.29.57.2,1.14.42,1.67.66.22.14.45.26.68.37.23.11.46.24.69.37.08.03.16.06.22.1.07.04.13.07.18.1l1.31-.9.52.54-4.95,3.74c-.39-.28-.7-.54-.99-.78-.29-.25-.57-.46-.84-.66-.46-.35-.95-.62-1.47-.8-.52-.18-1.19-.26-2-.26-.16,0-.34.01-.53.04-.19.03-.38.07-.57.12-.59.19-1.14.58-1.64,1.16-.5.58-.75,1.5-.75,2.75v4.94c.63-.56,1.41-1.02,2.23-1.41.83-.39,1.71-.58,2.62-.58.96,0,1.81.18,2.51.54.7.36,1.37.9,1.97,1.62l1.66-1.24.65.71-4.99,3.33.02,8.64c.58.19,1.21.48,1.82.8.6.31,1.2.67,1.78,1.05l1.42-1.07.56.59-4.7,3.49h-1.1c-.11-.05-.38-.23-.85-.51-.47-.29-1.09-.61-1.85-.96-.87-.38-1.94-.74-3.16-1.07s-2.63-.49-4.19-.49c-.38,0-.77.02-1.17.06-.4.04-.8.1-1.21.19-1.36.27-2.61.81-3.73,1.6-1.1.78-1.67,1.93-1.67,3.42s.53,2.56,1.58,3.35c1.06.8,2.24,1.32,3.52,1.53l.74.08c.24.03.49.04.73.04.98,0,1.96-.07,2.94-.21.96-.14,1.9-.36,2.77-.66l.63.67c-1.06.38-2.1.62-3.12.79-1.01.16-2.04.25-3.05.25Zm5.02-13.85c.79,0,1.63.06,2.48.14.99.1,2,.26,3.01.47l-.06-7.57c-.03-.8-.33-1.49-.91-2.04-.58-.55-1.22-.95-1.9-1.16-.22-.05-.43-.1-.63-.14-.2-.04-.4-.06-.59-.06-.32,0-.63.06-.93.18-.29.12-.58.27-.87.45v9.73c.13,0,.27,0,.4,0Zm-8.65-.22c.09-.07.14-.08.19-.11l.17-.08c.21-.13.41-.33.6-.6.18-.27.28-.6.28-1v-5.19l-.77.05c-.92.03-1.58.14-1.97.32-.38.19-.67.62-.86,1.29h-.79c-.05-1.4.14-2.55.51-3.47.38-.94,1.13-1.41,2.25-1.41l1.73-.04-.09-2.89c0-.79.31-1.47.92-2.03.61-.55,1.29-1.02,2.03-1.38.27-.16.55-.31.82-.44l.78-.35.35.52c-.1.12-.18.18-.26.25-.08.07-.16.14-.24.22-.21.21-.41.5-.59.85-.17.35-.26.76-.26,1.21v10.5c0,1.16-.43,2.12-1.27,2.84-.84.71-1.87,1.31-3.08,1.78l-.04.02-.39-.87Zm-5.19-14.29c-.12-.09-.23-.2-.32-.32-.41-.38-.72-.8-.93-1.25-.21-.44-.31-1-.31-1.67,0-1.02.42-1.93,1.25-2.71.83-.77,1.75-1.32,2.74-1.66.33-.14.67-.24,1-.29.33-.06.65-.08.96-.08.33,0,.68.03,1.04.08.36.06.72.12,1.07.21.22.06.46.12.7.19.25.07.48.13.7.18.55.14,1.06.27,1.52.39.46.12.83.18,1.1.18.54,0,1.05-.11,1.52-.32.47-.21.93-.5,1.37-.86l.47.24c-.89,1.51-1.9,2.55-2.99,3.15-1.09.6-2.47.9-4.12.9-.47,0-.96-.06-1.45-.19-.49-.12-.99-.25-1.48-.39-.47-.14-.93-.27-1.4-.39-.46-.12-.88-.18-1.26-.18-.5,0-.95.18-1.32.54-.37.36-.56.81-.56,1.34s.15,1.03.44,1.47c.3.45.67.82,1.1,1.12l-.43.61s-.27-.2-.39-.3Z"/>
        <path class="cls-5" d="m333.35,250.75c.66,0,1.27.1,1.83.29.56.19,1.12.41,1.67.66.22.14.45.26.68.37.23.11.46.23.68.37.08.03.16.06.23.1.07.04.13.08.18.1l1.36-.91.45.54-4.94,3.66c-.33-.27-.64-.54-.93-.78-.29-.25-.57-.47-.84-.66-.47-.36-.96-.62-1.48-.8-.52-.18-1.19-.27-2.02-.27-.16,0-.34.01-.54.04-.19.03-.38.07-.58.12-.6.19-1.16.58-1.67,1.17-.51.59-.76,1.52-.76,2.78v4.94c.71-.52,1.48-.97,2.31-1.36.82-.38,1.69-.58,2.59-.58.96,0,1.79.18,2.49.54.7.36,1.35.89,1.96,1.61l1.73-1.23.58.7-4.98,3.25v8.69c.63.25,1.25.53,1.85.84.6.32,1.19.67,1.77,1.05l1.48-1.07.49.58-4.69,3.42h-1.07c-.08-.06-.36-.23-.82-.51-.47-.29-1.08-.61-1.85-.97-.88-.38-1.94-.74-3.17-1.07-1.23-.33-2.64-.49-4.2-.49-.38,0-.78.02-1.17.06-.4.04-.8.1-1.21.19-1.37.27-2.62.81-3.75,1.6-1.13.8-1.69,1.95-1.69,3.46s.54,2.59,1.61,3.4c1.07.81,2.25,1.32,3.54,1.54.25.03.49.05.74.08.25.03.49.04.74.04.99,0,1.97-.07,2.94-.21.97-.14,1.9-.36,2.78-.66l.58.66c-1.04.3-2.07.53-3.09.7-1.02.16-2.03.25-3.05.25-.16,0-.32,0-.47-.02-.15-.01-.31-.02-.47-.02-1.65-.14-3.16-.7-4.53-1.67-1.37-.98-2.06-2.39-2.06-4.23s.76-3.37,2.28-4.58c1.52-1.21,3.2-2.09,5.04-2.64.71-.19,1.41-.34,2.1-.45.69-.11,1.33-.17,1.93-.17v-15.71c.03-2.01.79-3.63,2.29-4.87,1.49-1.24,3.2-1.86,5.13-1.86m-6.67,12.68v-.04,9.8c.96.03,1.93.09,2.92.19.99.1,1.99.25,3,.47v-7.62c-.03-.82-.34-1.52-.93-2.08-.59-.56-1.23-.95-1.91-1.17-.22-.05-.43-.1-.64-.14-.21-.04-.4-.06-.6-.06-.33,0-.65.06-.95.19-.3.12-.6.28-.91.47m.04-12.68l.41.29c-.91,1.44-1.9,2.46-2.99,3.06-1.08.6-2.45.89-4.1.89-.47,0-.95-.06-1.44-.18-.49-.12-.99-.25-1.48-.39-.47-.14-.93-.27-1.4-.39-.47-.12-.89-.19-1.28-.19-.52,0-.97.19-1.36.56-.38.37-.58.83-.58,1.38s.15,1.05.45,1.5c.3.45.67.83,1.11,1.13l-.41.49c-.11-.08-.23-.17-.35-.27-.12-.1-.23-.2-.31-.31-.41-.38-.72-.8-.93-1.23-.21-.44-.31-.99-.31-1.65,0-1.01.41-1.9,1.23-2.67.82-.76,1.73-1.31,2.72-1.65.33-.14.66-.24.99-.29.33-.06.64-.08.95-.08.33,0,.67.03,1.03.08.36.06.71.12,1.07.21.22.06.45.12.7.19.25.07.48.13.7.18.55.14,1.06.27,1.52.39.47.12.84.18,1.11.18.55,0,1.06-.11,1.54-.33.48-.22.94-.51,1.38-.86v-.04m-2.43,4.94l.29.49c-.08.05-.16.12-.25.18-.08.07-.16.14-.25.23-.22.22-.42.51-.6.86-.18.36-.27.77-.27,1.23v10.5c0,1.15-.42,2.09-1.26,2.8-.84.71-1.86,1.3-3.07,1.77l-.37-.82c.05,0,.11-.01.16-.04.06-.03.11-.05.17-.08.22-.14.43-.34.62-.62.19-.27.29-.62.29-1.03v-5.19h-.82c-.93.03-1.6.14-2,.33-.4.19-.69.63-.88,1.32l-.74-.04c0-1.34.19-2.48.56-3.4.37-.92,1.1-1.38,2.2-1.38l1.73-.04-.04-2.94c0-.77.3-1.44.91-1.99.6-.55,1.28-1.01,2.02-1.37.27-.16.55-.31.82-.43.27-.12.54-.24.78-.35m2.33-5.14v.19c-.42.34-.86.61-1.32.82-.46.21-.97.32-1.5.32-.27,0-.63-.06-1.09-.18-.47-.12-.98-.25-1.52-.39-.22-.05-.45-.12-.7-.18-.25-.07-.48-.13-.7-.19-.35-.08-.71-.15-1.08-.21-.36-.06-.71-.08-1.05-.08-.31,0-.63.03-.96.08-.33.06-.67.16-1.01.3-.99.33-1.92.9-2.75,1.67-.84.78-1.27,1.71-1.27,2.75,0,.67.11,1.24.32,1.69.21.45.53.88.95,1.27.07.1.19.21.32.32.12.1.24.19.35.27l.08.06.06-.07.41-.49.07-.09-.09-.06c-.42-.29-.79-.66-1.08-1.1-.29-.43-.44-.92-.44-1.45s.18-.96.54-1.31c.36-.35.8-.53,1.29-.53.37,0,.79.06,1.25.18.45.12.92.25,1.4.39.49.14.99.27,1.49.39.5.12.99.19,1.47.19,1.66,0,3.05-.3,4.15-.91,1.09-.6,2.11-1.64,3.02-3.09l.05-.08-.08-.06-.41-.29-.16-.11h0Zm6.73.09c-1.94,0-3.68.63-5.19,1.88-1.51,1.25-2.29,2.91-2.32,4.94v15.61c-.58,0-1.2.06-1.85.17-.69.11-1.4.26-2.11.46-1.84.55-3.55,1.45-5.08,2.66-1.54,1.23-2.32,2.79-2.32,4.66s.71,3.32,2.1,4.32c1.38.98,2.92,1.55,4.58,1.69.18,0,.33,0,.47.02.16.01.32.02.48.02,1.02,0,2.05-.08,3.06-.25,1.01-.17,2.06-.4,3.1-.7l.16-.04-.11-.12-.58-.66-.05-.05-.07.02c-.87.3-1.8.52-2.76.65-.97.14-1.95.2-2.93.2-.24,0-.48-.01-.73-.04h-.08s-.66-.08-.66-.08c-1.26-.21-2.44-.73-3.49-1.52-1.04-.79-1.56-1.9-1.56-3.31s.55-2.6,1.64-3.37c1.11-.78,2.36-1.32,3.71-1.59.4-.08.81-.14,1.2-.18.39-.04.78-.06,1.16-.06,1.55,0,2.95.17,4.17.49,1.22.33,2.29.69,3.16,1.07.76.35,1.38.68,1.84.96.46.29.74.46.82.51l.03.02h1.14l.03-.02,4.69-3.42.09-.07-.07-.08-.49-.58-.06-.07-.08.06-1.42,1.03c-.56-.37-1.14-.71-1.72-1.02-.59-.31-1.2-.59-1.8-.82v-8.56l4.93-3.22.1-.06-.07-.09-.58-.7-.06-.07-.08.06-1.65,1.18c-.59-.68-1.24-1.21-1.93-1.56-.71-.36-1.57-.55-2.54-.55-.92,0-1.8.2-2.64.59-.76.36-1.49.78-2.16,1.25v-4.74c0-1.23.25-2.14.74-2.71.49-.57,1.04-.96,1.62-1.14.18-.05.37-.09.56-.12.18-.03.36-.04.52-.04.81,0,1.47.09,1.98.26.51.17,1,.44,1.45.79.28.19.56.41.84.65.29.25.6.51.93.78l.06.05.06-.05,4.94-3.66.09-.07-.07-.08-.45-.54-.06-.07-.08.05-1.31.87s-.08-.04-.12-.07c-.08-.05-.16-.08-.25-.11-.2-.13-.43-.26-.67-.37-.22-.1-.45-.23-.67-.37-.56-.25-1.12-.47-1.69-.67-.57-.19-1.2-.29-1.87-.29h0Zm-6.57,12.84c.28-.18.56-.32.84-.44.29-.12.6-.18.91-.18.18,0,.38.02.58.06.21.04.42.09.63.14.66.21,1.29.6,1.87,1.15.57.54.87,1.22.89,2.01v7.48c-.97-.2-1.94-.36-2.89-.45-.95-.09-1.9-.15-2.83-.18v-9.6h0Zm-2.45-7.93l-.08.04c-.25.11-.51.23-.78.35-.28.13-.56.28-.83.44-.74.36-1.43.82-2.03,1.38-.62.57-.94,1.26-.94,2.06l.04,2.84-1.63.04c-1.14,0-1.91.49-2.3,1.44-.37.93-.56,2.08-.56,3.43v.1h.1s.74.05.74.05h.08s.02-.07.02-.07c.18-.65.46-1.07.83-1.25.38-.18,1.04-.29,1.96-.32h.72v5.09c0,.39-.09.71-.27.97-.18.26-.38.46-.59.59l-.07.04-.08.04s-.08.03-.12.03h-.16l.07.14.37.82.04.09.09-.04c1.21-.47,2.25-1.07,3.1-1.79.86-.73,1.29-1.7,1.29-2.88v-10.5c0-.45.09-.85.26-1.19.17-.35.37-.63.58-.84.08-.08.16-.15.24-.22.08-.06.16-.13.24-.18l.08-.05-.05-.08-.29-.49-.05-.08h0Z"/>
      </g>
      <g>
        <path class="cls-1" d="m352.99,278.55l-1.19-1.04c-.35-.28-.58-.59-.73-.94-.15-.35-.23-.94-.23-1.77l-6.01,3.75h-.73c-.12-.02-.25-.06-.39-.12-.14-.06-.26-.11-.37-.17-.66-.3-1.27-.75-1.81-1.33-.54-.59-.82-1.29-.82-2.1,0-1.03.4-1.95,1.19-2.74.78-.78,1.65-1.43,2.58-1.93.36-.19.7-.37,1.03-.54.33-.17.65-.3.95-.42l-3.43-3.34c-.07-.02-.15-.07-.21-.15-.06-.07-.11-.15-.17-.23-.17-.22-.29-.43-.37-.63-.08-.2-.13-.37-.13-.52,0-.56.18-1,.53-1.31.35-.31.8-.47,1.33-.47h.21c.43.06.81.23,1.14.51.34.28.51.66.51,1.11,0,.29-.07.57-.21.83-.14.26-.33.47-.55.61.4-.05.79-.11,1.19-.22.41-.11.83-.25,1.27-.42.61-.23,1.2-.5,1.76-.81.57-.32,1.07-.66,1.47-1.02.11-.08.21-.17.3-.27.1-.09.18-.2.26-.31l.7-.06c.08.18.13.3.19.4l.23.38c.19.27.43.54.71.78.29.25.56.44.83.58.13.05.26.09.38.12.12.03.23.04.34.04.13,0,.27-.03.41-.1.15-.07.3-.16.47-.27.06-.03.11-.07.16-.11.06-.05.13-.08.22-.12.12-.11.25-.21.38-.29l.31-.21.44.55-3.1,2.25.02,7.95,1.75,1.44.93-.66.48.5-3.77,2.8h-.47Zm-7.06-8.16c-.54.3-1.02.68-1.41,1.12-.39.44-.58,1.02-.58,1.71s.26,1.32.79,1.77c.53.46,1.11.82,1.73,1.06.11.03.21.06.31.1.09.04.19.07.3.1l3.79-2.46-.02-7.16-1.79-1.36c-.6.39-1.3.69-2.03.91-.73.22-1.48.36-2.25.41l4.27,4.07-.49.61-1.53-1.46-1.08.56Z"/>
        <path class="cls-5" d="m352.08,262.57c.03.14.08.27.14.38.07.11.14.24.23.38.19.28.43.55.72.8.29.25.57.45.84.59.14.06.27.1.39.13.12.03.24.04.35.04.14,0,.28-.03.43-.11.15-.07.31-.16.47-.28.05-.03.11-.06.16-.11.05-.04.12-.08.21-.11.14-.11.27-.21.39-.3s.23-.16.31-.21v-.04l.37.58-3.09,2.18v7.99l1.77,1.48.99-.66.41.49-3.75,2.72h-.45l-1.15-1.03s0,.02-.01.02-.02,0-.03-.02c-.3-.27-.53-.58-.68-.93-.15-.34-.23-.93-.23-1.75l-6.09,3.71h-.7c-.11-.03-.23-.07-.37-.12-.14-.06-.26-.11-.37-.17-.66-.3-1.26-.74-1.79-1.32-.54-.58-.8-1.27-.8-2.06,0-1.02.39-1.92,1.17-2.7.78-.78,1.64-1.42,2.57-1.92.36-.19.7-.37,1.03-.54.33-.16.65-.3.95-.41l-3.42-3.43c-.08-.03-.15-.07-.21-.14-.06-.07-.11-.14-.17-.23-.16-.22-.29-.43-.37-.62-.08-.19-.12-.36-.12-.5,0-.55.17-.97.51-1.28.34-.3.78-.45,1.3-.45h.21c.41.06.78.22,1.11.49.33.27.49.63.49,1.07,0,.28-.07.55-.21.81-.14.25-.32.45-.53.59l.08.04c.36,0,.74-.06,1.15-.17.41-.11.84-.25,1.28-.42.6-.22,1.19-.49,1.77-.81.58-.32,1.07-.66,1.48-1.02.11-.08.21-.17.31-.27.1-.1.19-.2.27-.31l.66-.04m-3.58,8.69l-1.48-1.48-1.11.58c-.55.3-1.02.68-1.42,1.13-.4.45-.6,1.04-.6,1.75s.27,1.35.8,1.81c.54.47,1.12.82,1.75,1.07.11.03.21.06.31.1.1.04.2.08.31.1v-.04l3.83-2.43v-7.2l-1.81-1.4c-.66.38-1.35.69-2.08.91-.73.22-1.48.36-2.24.41l4.24,4.16-.49.54m3.67-8.79h-.09s-.66.05-.66.05h-.05s-.03.04-.03.04c-.08.11-.17.21-.26.3-.09.09-.19.18-.3.26-.41.36-.9.7-1.47,1.01-.57.31-1.16.59-1.76.81-.43.16-.86.3-1.27.41-.34.09-.66.14-.96.16.15-.13.27-.29.37-.48.15-.27.22-.56.22-.85,0-.47-.18-.86-.53-1.15-.34-.29-.73-.46-1.16-.52h-.12s-.1,0-.1,0c-.55,0-1,.16-1.37.48-.36.32-.55.78-.55,1.35,0,.15.04.33.13.54.09.2.21.41.38.64.05.08.11.16.17.23.06.08.14.13.23.17l3.29,3.3c-.26.1-.53.22-.81.36-.33.17-.67.35-1.03.54-.94.5-1.81,1.15-2.6,1.94-.8.8-1.2,1.73-1.2,2.78,0,.82.28,1.54.83,2.13.54.58,1.15,1.04,1.82,1.34.11.05.23.11.37.17.14.06.27.1.38.13h.72s.03,0,.03,0h.02s5.94-3.63,5.94-3.63c.01.75.09,1.28.23,1.61.16.36.39.68.71.96.02.02.05.05.09.05l1.1.98.03.03h.53l.03-.02,3.75-2.72.09-.06-.07-.08-.41-.49-.06-.07-.08.05-.92.62-1.67-1.4v-7.89l3.04-2.15.08-.06-.05-.08-.37-.58-.19-.29v.34l-.08.05-.19.13c-.12.08-.25.18-.38.29-.08.03-.16.07-.22.12-.05.04-.1.07-.15.1-.17.12-.32.21-.47.28-.14.06-.27.1-.39.1-.1,0-.21-.01-.33-.04-.12-.03-.24-.07-.37-.12-.26-.13-.53-.32-.82-.57-.28-.25-.52-.51-.7-.78-.08-.13-.16-.26-.22-.37-.06-.1-.11-.22-.13-.34l-.02-.09h0Zm-7.18,4.19c.7-.06,1.38-.2,2.04-.4.71-.21,1.4-.51,2.04-.88l1.72,1.33v7.1l-3.78,2.4h0c-.07-.02-.14-.04-.21-.07-.1-.04-.21-.08-.32-.11-.61-.24-1.18-.59-1.71-1.05-.51-.44-.77-1.03-.77-1.73s.19-1.25.57-1.68c.39-.44.86-.81,1.39-1.11l1.04-.54,1.43,1.43.08.08.07-.08.49-.54.07-.07-.07-.07-4.08-4h0Z"/>
      </g>
      <g>
        <path class="cls-1" d="m364.6,287.81c-.69-.78-1.4-1.47-2.15-2.07-.74-.59-1.67-.89-2.75-.89-.29,0-.6.06-.91.18-.31.12-.59.27-.83.43l-.03.03-.19.05-.62-.49,7.33-6.54-3.03-1.36h-.02c-.07,0-.14-.02-.21-.06-.07-.04-.14-.07-.22-.1-.09-.06-.16-.1-.23-.12-.07-.03-.15-.07-.23-.13-.21-.08-.42-.15-.63-.22-.21-.07-.38-.1-.54-.1-.21,0-.42.06-.63.18-.22.12-.42.25-.61.39l-.08.06v-.14l-.59-.33,2.22-1.73-.02-8.52s-.03,0-.04,0c-.12,0-.27-.09-.4-.24-.14-.15-.25-.31-.34-.48-.05-.08-.1-.17-.13-.28-.03-.1-.04-.19-.04-.28.52-.05,1.01-.07,1.53-.11.52-.04,1.06-.09,1.6-.15,1.28-.17,2.53-.42,3.72-.77,1.18-.34,2.05-.83,2.59-1.43l.78-.06c.17.12.37.27.63.46.26.19.54.4.84.62.05.03.11.06.17.1.05.04.1.07.16.1.33.25.66.46.97.62.31.16.54.24.7.24.27,0,.49-.04.66-.12.18-.08.34-.18.51-.29.05-.05.11-.1.16-.14.06-.04.12-.08.17-.11l.56.59-2.27,1.6.02,9.73c.06.04.13.1.2.14.07.04.14.09.23.15.5.36.96.86,1.37,1.48.42.62.63,1.42.63,2.36,0,1.13-.31,2.08-.92,2.82-.61.73-1.47,1.39-2.57,1.97l-6.02,2.97h-.46Zm-1.52-4.43c.96,0,1.84.19,2.6.56.76.37,1.47.85,2.13,1.43l2.17-1.08c.54-.24.98-.54,1.3-.87.32-.34.57-.69.73-1.04.05-.13.09-.27.12-.4s.04-.27.04-.4c0-.53-.13-.97-.38-1.31-.26-.34-.57-.66-.92-.96-.05-.02-.11-.07-.17-.13-.05-.05-.1-.09-.15-.11-.43-.37-.81-.78-1.15-1.23-.35-.46-.53-1.11-.53-1.95v-.16l-9.55,8.31.21.09c.44-.25,1-.44,1.6-.57.6-.12,1.26-.19,1.95-.19Zm-.28-17.76l.04,8.72,4.58,1.56,1.52-1.27-.02-8.07-3.66-1.55-2.45.61Z"/>
        <path class="cls-5" d="m368.88,262.57c.14.11.34.26.6.45.26.19.54.4.84.62.06.03.11.06.17.1.05.04.11.08.16.1.33.25.65.45.97.62.31.16.56.25.72.25.27,0,.5-.04.68-.12s.35-.18.51-.29c.05-.05.11-.1.16-.14.06-.04.11-.08.17-.1l.49.58-2.26,1.53v9.78c.08.08.16.14.23.19.07.04.14.09.23.14.49.36.95.84,1.36,1.46.41.62.62,1.4.62,2.33,0,1.13-.3,2.06-.91,2.78-.6.73-1.45,1.38-2.55,1.96l-6.01,2.96h-.45c-.66-.77-1.37-1.46-2.12-2.06-.76-.6-1.68-.91-2.78-.91-.3,0-.61.06-.93.19-.32.12-.6.27-.84.43-.03,0-.06,0-.08.02-.03.01-.06.03-.08.06l-.62-.49,7.33-6.46-3.05-1.44c-.08,0-.16-.02-.23-.06-.07-.04-.14-.08-.23-.1-.08-.05-.16-.1-.23-.12-.07-.03-.14-.07-.23-.12-.22-.08-.43-.16-.64-.23-.21-.07-.39-.1-.56-.1-.22,0-.44.06-.66.18-.22.12-.43.25-.62.39v-.04l-.62-.37,2.22-1.65v-8.56c-.16-.03-.32-.12-.45-.27-.14-.15-.25-.31-.33-.47-.06-.08-.1-.17-.12-.27-.03-.1-.04-.18-.04-.27.47,0,.96-.02,1.48-.06.52-.04,1.06-.09,1.61-.15,1.29-.17,2.53-.42,3.73-.77,1.19-.35,2.06-.83,2.61-1.45l.74-.04m-1.48,13.38l1.56-1.28v-8.11l-3.71-1.61-2.47.62v8.77l4.61,1.61m-7.9,8.23c.49-.25,1.04-.43,1.65-.56.6-.12,1.25-.18,1.93-.18.96,0,1.82.18,2.57.56.75.37,1.46.84,2.12,1.42l2.22-1.07c.55-.25.99-.54,1.32-.88.33-.34.58-.69.74-1.05.06-.14.1-.27.12-.41.03-.14.04-.27.04-.41,0-.55-.13-.99-.39-1.34-.26-.34-.57-.67-.93-.97-.05-.03-.11-.07-.16-.12s-.11-.1-.16-.12c-.41-.36-.79-.76-1.13-1.21-.34-.45-.51-1.09-.51-1.91v-.21l-9.63,8.32.21.16m9.42-21.72h-.04s-.74.04-.74.04h-.04s-.03.03-.03.03c-.53.6-1.4,1.07-2.57,1.42-1.18.35-2.43.61-3.71.77-.51.05-1.03.1-1.6.15-.51.04-1.01.06-1.47.06h-.1v.1c0,.09.02.19.05.3.03.11.08.2.14.3.08.16.2.33.34.49.13.14.27.24.43.28v8.43l-2.18,1.62-.12.09.13.08.57.34v.18l.16-.12c.19-.13.39-.26.61-.39.21-.12.4-.17.61-.17.15,0,.33.03.52.1.2.07.42.14.63.23.07.05.15.1.22.12.06.03.13.06.21.11h.01s.01.01.01.01c.08.03.14.06.21.09.08.05.16.07.25.08l2.89,1.37-7.21,6.36-.09.08.1.08.62.49.07.06.07-.07s.04-.03.06-.04c.01,0,.02,0,.03,0h.03l.03-.02c.24-.16.52-.3.82-.42.3-.12.6-.18.89-.18,1.07,0,1.98.3,2.71.88.75.6,1.46,1.28,2.11,2.05l.03.04h.55s6.01-2.98,6.01-2.98c1.11-.58,1.97-1.25,2.59-1.99.62-.74.93-1.7.93-2.85,0-.95-.21-1.75-.63-2.39-.42-.62-.88-1.13-1.38-1.49-.09-.06-.16-.11-.23-.15-.05-.03-.11-.08-.18-.14v-9.68l2.22-1.49.1-.06-.07-.09-.49-.58-.05-.06-.07.04c-.06.03-.12.07-.18.11-.06.04-.12.1-.18.15-.15.09-.31.19-.48.27-.16.08-.38.11-.64.11-.1,0-.3-.04-.67-.23-.31-.16-.63-.37-.95-.61-.06-.03-.11-.06-.16-.1-.06-.05-.12-.08-.18-.11-.29-.21-.57-.42-.83-.61-.26-.19-.46-.34-.59-.45l-.03-.02h0Zm-6.02,3.19l2.36-.59,3.61,1.56v7.99l-1.48,1.21-4.49-1.56v-8.61h0Zm-3.44,18.36l9.37-8.09c0,.83.18,1.49.54,1.96.34.45.73.87,1.15,1.23h.01s.01.01.01.01c.04.02.09.06.14.1.06.06.13.11.19.14.33.28.64.6.89.94.25.32.37.75.37,1.28,0,.13-.01.26-.04.39-.03.13-.07.26-.12.39-.16.34-.4.68-.72,1.02-.32.33-.75.62-1.28.86l-2.16,1.04c-.65-.56-1.35-1.03-2.09-1.39-.77-.38-1.65-.57-2.62-.57-.69,0-1.35.06-1.95.19-.58.12-1.13.3-1.61.54l-.06-.05h0Z"/>
      </g>
      <g>
        <path class="cls-1" d="m379.95,278.55c-.2-.21-.37-.38-.53-.53-.16-.15-.33-.29-.49-.43-.32-.3-.64-.53-.96-.69-.31-.16-.6-.24-.86-.24-.05,0-.1,0-.15.02-.06.01-.12.02-.18.02-.14.05-.3.12-.45.2-.15.08-.29.16-.43.25-.09.03-.16.07-.22.12-.08.06-.14.1-.2.13l-.64-.63,3.02-1.65-.03-18.11c0-.16,0-.34-.02-.53-.02-.19-.02-.39-.02-.58l-.16-1.04c-.06-.34-.11-.65-.17-.92l.6-.46,1.02,2.04v-.11s.1-.09.1-.09c.06-.07.12-.14.18-.22l.09-.09c.1-.1.13-.14.16-.19.42-.5.84-1,1.26-1.49.43-.5.91-.97,1.43-1.41l.53.58c-.43.55-.78,1.12-1.02,1.74-.25.63-.42,1.28-.53,1.92-.08.39-.14.77-.17,1.15-.03.38-.04.75-.04,1.11v16.26l1.83,1.19,1.01-.7.52.5-3.68,2.89h-.8Z"/>
        <path class="cls-5" d="m382.34,251.95l.45.58c-.44.49-.78,1.06-1.03,1.69-.25.63-.43,1.28-.54,1.94-.08.38-.14.77-.16,1.15-.03.38-.04.76-.04,1.11v16.26l1.85,1.23,1.07-.7.45.49-3.66,2.8h-.78c-.16-.19-.33-.36-.49-.51-.16-.15-.33-.29-.49-.43-.33-.3-.65-.54-.97-.7-.32-.16-.61-.25-.88-.25-.06,0-.11,0-.16.02-.06.01-.11.02-.17.02-.16.05-.32.12-.47.21-.15.08-.29.16-.43.25-.08.03-.16.07-.23.12-.07.05-.13.1-.18.12l-.58-.62,3-1.56v-18.16c0-.16,0-.34-.02-.54-.01-.19-.02-.38-.02-.58-.06-.36-.11-.71-.16-1.05-.06-.34-.11-.65-.16-.93v-.04l.58-.37.95,2.02c.06-.05.12-.12.19-.18.07-.07.13-.14.18-.23.05-.06.1-.1.14-.14.04-.04.07-.09.1-.14.41-.49.83-.99,1.26-1.48.43-.49.9-.96,1.42-1.4m.02-.15l-.08.07c-.52.44-1,.91-1.43,1.41-.43.49-.85.99-1.26,1.48-.04.07-.06.1-.1.14l-.14.15c-.06.09-.12.16-.18.23l-.08.08-.88-1.88-.05-.11-.1.06-.58.37-.05.03v.1c.06.29.11.6.17.94.05.34.11.69.16,1.05,0,.19,0,.38.02.57.01.19.02.37.02.53v18.09l-2.95,1.54-.12.06.09.1.58.62.05.06.07-.03c.06-.03.12-.07.2-.13.06-.05.12-.08.2-.11.16-.09.3-.17.45-.25.14-.08.29-.14.44-.19.06,0,.11,0,.17-.02.05-.01.09-.02.14-.02.25,0,.54.08.84.24.31.16.62.39.95.68.17.14.33.28.49.43.16.15.32.32.49.51l.03.04h.86l.03-.02,3.66-2.8.09-.07-.08-.08-.45-.49-.06-.06-.07.05-1.01.66-1.75-1.17v-16.21c0-.36.01-.73.04-1.1.03-.37.08-.76.16-1.14.11-.65.29-1.29.53-1.92.24-.62.58-1.18,1.01-1.66l.06-.06-.05-.07-.45-.58-.07-.08h0Z"/>
      </g>
      <g>
        <path class="cls-1" d="m389.91,278.55c-.19-.12-.38-.25-.59-.4-.21-.15-.42-.32-.64-.52-.11-.08-.23-.18-.37-.29-.14-.11-.27-.2-.41-.28-.3-.19-.59-.36-.86-.49-.27-.13-.52-.2-.76-.2-.08,0-.17,0-.26.02-.09.01-.17.04-.25.09-.09.03-.18.07-.28.11-.1.04-.19.08-.27.11-.1.05-.2.1-.28.16-.08.06-.16.1-.21.13l-.63-.5,2.39-1.48-.03-8.73c-.16,0-.34-.11-.5-.27s-.27-.3-.36-.44c-.06-.09-.09-.17-.11-.24-.01-.07-.02-.14-.02-.19.46-.05.91-.09,1.4-.18.5-.08,1.01-.2,1.52-.33.57-.19,1.15-.4,1.72-.62.57-.22,1.08-.45,1.52-.67.25-.14.47-.27.68-.4.2-.12.37-.24.51-.35l.48-.05,3.79,4.89v.65s-7.43,4.3-7.43,4.3l.03,2.02,3.43,1.73,3.2-1.81.64.58-6.4,3.67h-.67Zm1.14-14.1c-.07.05-.15.09-.24.12-.1.04-.19.08-.27.1,0,.02-.04.04-.08.06l-.1.03c-.09.05-.21.1-.33.14-.13.04-.24.08-.35.1l.04,6.41,4.57-2.76-3.24-4.21Z"/>
        <path class="cls-5" d="m393.33,262.57l3.75,4.87v.62l-7.41,4.25v2.06l3.46,1.78,3.25-1.81.58.58-6.38,3.58h-.66c-.16-.11-.35-.24-.56-.39-.21-.15-.42-.32-.64-.51-.11-.08-.23-.18-.37-.29-.14-.11-.28-.21-.41-.29-.3-.19-.59-.36-.86-.49-.27-.14-.54-.21-.78-.21-.08,0-.17,0-.27.02-.1.01-.18.05-.27.1-.08.03-.17.06-.27.1-.1.04-.18.08-.27.1-.11.05-.21.11-.29.16-.08.06-.15.1-.21.12l-.58-.49,2.39-1.4v-8.77c-.19-.05-.36-.16-.51-.31-.15-.15-.27-.29-.35-.43-.06-.08-.09-.16-.1-.23-.01-.07-.02-.13-.02-.18.41,0,.86-.04,1.36-.13.49-.08,1-.2,1.52-.34.58-.19,1.15-.4,1.73-.63.58-.22,1.08-.45,1.52-.67.25-.14.47-.27.68-.4.21-.13.38-.24.51-.36l.45-.04m-3.66,8.85l4.65-2.72-3.25-4.32c-.08.06-.17.1-.27.14-.1.04-.18.08-.27.1-.03.03-.06.05-.08.06-.03.01-.05.02-.08.02-.11.06-.23.1-.35.14-.12.04-.24.08-.35.1v6.46m3.71-8.96h-.06s-.45.05-.45.05h-.03s-.02.02-.02.02c-.13.11-.3.22-.5.35-.2.13-.43.26-.68.4-.43.22-.94.45-1.51.66-.59.23-1.17.44-1.72.63-.5.13-1.01.25-1.51.33-.49.08-.94.12-1.34.12h-.1v.1c0,.07,0,.13.02.21.02.08.05.17.12.26.08.14.21.29.36.45.14.14.31.25.48.31v8.63l-2.34,1.37-.12.07.11.09.58.49.05.04.06-.03c.06-.03.13-.07.22-.13.08-.06.18-.11.28-.16.07-.02.16-.06.26-.1.09-.04.18-.07.26-.1h.01s.01-.01.01-.01c.07-.05.14-.07.23-.09.09-.01.18-.02.25-.02.23,0,.48.07.74.19.27.13.55.3.86.49.13.08.27.17.4.28.14.11.26.21.37.29.23.2.44.37.64.52.21.15.39.28.56.39l.03.02h.74s6.38-3.6,6.38-3.6l.12-.07-.1-.1-.58-.58-.05-.05-.07.04-3.2,1.79-3.35-1.72v-1.94l7.36-4.22.05-.03v-.71l-.02-.03-3.75-4.87-.03-.04h0Zm-2.79,2.26c.08-.03.16-.06.25-.1.07-.03.14-.06.2-.1l3.13,4.16-4.4,2.57v-6.21c.09-.02.18-.05.28-.08.12-.04.24-.09.34-.14.04,0,.07-.01.1-.03.03-.01.06-.03.09-.06h0Z"/>
      </g>
      <g>
        <path class="cls-1" d="m149.4,320.43c-11.26,0-19.44-7.81-19.44-18.57s8.2-18.57,19.49-18.57c6.14,0,11.39,2.26,14.77,6.36l-5.32,4.98c-2.49-2.78-5.5-4.18-9.04-4.18-6.72,0-11.41,4.69-11.41,11.41s4.69,11.41,11.41,11.41c3.55,0,6.57-1.42,8.96-4.23l5.39,4.91c-3.41,4.27-8.54,6.48-14.82,6.48Z"/>
        <path class="cls-5" d="m149.46,283.34c6.19,0,11.36,2.25,14.73,6.34l-5.32,4.91c-2.4-2.76-5.42-4.19-9-4.19-6.7,0-11.46,4.71-11.46,11.46s4.76,11.46,11.46,11.46c3.58,0,6.6-1.43,9-4.25l5.32,4.91c-3.38,4.14-8.54,6.39-14.78,6.39-11.1,0-19.39-7.73-19.39-18.52s8.29-18.52,19.44-18.52m0-.1c-11.32,0-19.54,7.83-19.54,18.62s8.2,18.62,19.49,18.62c6.29,0,11.43-2.22,14.86-6.43l.06-.07-.07-.07-5.32-4.91-.08-.07-.07.08c-2.39,2.79-5.39,4.21-8.93,4.21-6.69,0-11.36-4.67-11.36-11.36s4.67-11.36,11.36-11.36c3.52,0,6.52,1.4,8.93,4.16l.07.08.08-.07,5.32-4.91.07-.07-.06-.07c-3.39-4.11-8.65-6.38-14.81-6.38h0Z"/>
      </g>
      <g>
        <path class="cls-1" d="m181.32,320.22c-8.8,0-15.19-5.98-15.19-14.22s6.39-14.22,15.19-14.22,15.14,5.98,15.14,14.22-6.37,14.22-15.14,14.22Zm0-21.79c-4.19,0-7.01,3.04-7.01,7.57s2.82,7.57,7.01,7.57,6.96-3.04,6.96-7.57-2.8-7.57-6.96-7.57Z"/>
        <path class="cls-5" d="m181.32,291.83c8.75,0,15.09,5.88,15.09,14.17s-6.34,14.17-15.09,14.17-15.14-5.88-15.14-14.17,6.39-14.17,15.14-14.17m0,21.79c3.99,0,7.01-2.86,7.01-7.62s-3.02-7.62-7.01-7.62-7.06,2.87-7.06,7.62,3.07,7.62,7.06,7.62m0-21.89c-8.83,0-15.24,6-15.24,14.27s6.41,14.27,15.24,14.27,15.19-6,15.19-14.27-6.39-14.27-15.19-14.27h0Zm0,21.79c-4.16,0-6.96-3.02-6.96-7.52s2.8-7.52,6.96-7.52,6.91,3.02,6.91,7.52-2.78,7.52-6.91,7.52h0Z"/>
      </g>
      <g>
        <polygon class="cls-1" points="201.73 319.81 201.68 281.81 209.71 281.75 209.76 319.81 201.73 319.81"/>
        <path class="cls-5" d="m209.71,281.81v37.96h-7.98v-37.96h7.98m.1-.1h-8.19v38.16h8.19v-38.16h0Z"/>
      </g>
      <g>
        <polygon class="cls-1" points="217.13 319.81 217.08 281.81 225.11 281.75 225.16 319.81 217.13 319.81"/>
        <path class="cls-5" d="m225.11,281.81v37.96h-7.98v-37.96h7.98m.1-.1h-8.19v38.16h8.19v-38.16h0Z"/>
      </g>
      <g>
        <path class="cls-1" d="m246.18,320.22c-9.28,0-15.76-5.85-15.76-14.22s6.2-14.22,14.73-14.22,14.38,5.89,14.38,14.32c0,.44-.05.99-.1,1.53l-.05.62-20.87.05c.82,3.37,3.75,5.42,7.88,5.42,2.82,0,4.94-.82,6.87-2.65l4.32,4.61c-2.6,3.03-6.43,4.54-11.39,4.54Zm-.97-22.3c-3.61,0-6.19,2.18-6.75,5.68l13.5-.06c-.61-3.39-3.24-5.62-6.75-5.62Z"/>
        <path class="cls-5" d="m245.16,291.83c8.08,0,14.32,5.42,14.32,14.27,0,.61-.1,1.48-.15,2.15h-20.82c.77,3.43,3.68,5.52,7.88,5.52,2.92,0,5.01-.87,6.91-2.66l4.25,4.6c-2.56,2.92-6.39,4.45-11.36,4.45-9.51,0-15.7-5.98-15.7-14.17s6.29-14.17,14.68-14.17m-6.75,11.77h13.56c-.56-3.48-3.17-5.73-6.75-5.73s-6.24,2.2-6.8,5.73m6.75-11.87c-8.57,0-14.78,6-14.78,14.27s6.5,14.27,15.81,14.27c4.98,0,8.82-1.51,11.43-4.49l.06-.07-.06-.07-4.25-4.6-.07-.08-.08.07c-1.93,1.82-4.03,2.63-6.84,2.63-4.06,0-6.94-1.99-7.75-5.32h20.79v-.09c.02-.19.04-.4.06-.61.05-.54.1-1.1.1-1.54,0-4.28-1.44-7.92-4.16-10.53-2.59-2.48-6.23-3.85-10.26-3.85h0Zm-6.63,11.77c.59-3.41,3.14-5.52,6.68-5.52s6.04,2.16,6.63,5.52h-13.31Z"/>
      </g>
      <g>
        <path class="cls-1" d="m278.1,320.22c-8.92,0-15.4-5.98-15.4-14.22s6.48-14.22,15.4-14.22c5.88,0,10.39,2.57,12.38,7.04l-6.21,3.39c-1.47-2.48-3.59-3.78-6.21-3.78-4.28,0-7.16,3.04-7.16,7.57s2.88,7.57,7.16,7.57c2.69,0,4.75-1.26,6.14-3.76l6.26,3.36c-1.99,4.51-6.5,7.05-12.35,7.05Z"/>
        <path class="cls-5" d="m278.1,291.83c5.78,0,10.33,2.51,12.33,7.01l-6.19,3.33c-1.48-2.61-3.68-3.79-6.19-3.79-4.04,0-7.21,2.81-7.21,7.62s3.17,7.62,7.21,7.62c2.51,0,4.71-1.12,6.19-3.79l6.19,3.38c-1.99,4.4-6.55,6.96-12.33,6.96-8.95,0-15.35-5.88-15.35-14.17s6.39-14.17,15.35-14.17m0-.1c-4.36,0-8.3,1.42-11.1,4-2.8,2.59-4.35,6.23-4.35,10.27s1.54,7.68,4.35,10.27c2.8,2.58,6.74,4,11.1,4,5.87,0,10.4-2.56,12.42-7.02l.04-.09-.08-.05-6.19-3.38-.09-.05-.05.09c-1.38,2.48-3.43,3.73-6.1,3.73-4.25,0-7.11-3.02-7.11-7.52s2.86-7.52,7.11-7.52c2.6,0,4.71,1.29,6.1,3.73l.05.09.09-.05,6.19-3.33.08-.05-.04-.09c-1.99-4.49-6.52-7.07-12.42-7.07h0Z"/>
      </g>
      <g>
        <path class="cls-1" d="m306.7,320.22c-6.66,0-10.33-3.52-10.33-9.92v-11.31l-4.19.05-.05-6.19,4.3-.05-.05-6.65,8.03-.05.05,6.75,6.8-.05.05,6.19-6.91.05.05,11.15c0,2.28,1.23,3.58,3.38,3.58,1.19,0,2.35-.37,3.19-1.01l2.23,5.65c-1.58,1.19-3.9,1.81-6.54,1.81Z"/>
        <path class="cls-5" d="m304.39,286.15v6.7h6.85v6.14h-6.85v11.2c0,2.35,1.28,3.63,3.43,3.63,1.18,0,2.35-.36,3.22-1.02l2.15,5.63c-1.64,1.18-4.04,1.74-6.5,1.74-6.5,0-10.28-3.32-10.28-9.87v-11.31h-4.25v-6.14h4.25v-6.7h7.98m.1-.1h-8.19v6.7h-4.25v6.34h4.25v11.2c0,6.43,3.69,9.97,10.38,9.97,2.65,0,4.98-.62,6.56-1.76l.06-.05-.03-.07-2.15-5.63-.05-.13-.11.08c-.83.64-1.98,1-3.16,1-2.11,0-3.32-1.29-3.32-3.53v-11.1h6.85v-6.34h-6.85v-6.7h0Z"/>
      </g>
      <g>
        <path class="cls-1" d="m317.69,319.81l-.05-27.57,8.03-.05.05,27.62h-8.03Zm3.99-31.36c-2.91,0-5.01-1.89-5.01-4.5s2.11-4.5,5.01-4.5,5.01,1.79,5.01,4.35c0,2.74-2.06,4.66-5.01,4.66Z"/>
        <path class="cls-5" d="m321.68,279.5c2.97,0,4.96,1.84,4.96,4.3,0,2.66-1.99,4.6-4.96,4.6s-4.96-1.94-4.96-4.45,1.99-4.45,4.96-4.45m3.99,12.74v27.52h-7.98v-27.52h7.98m-3.99-12.84c-2.94,0-5.07,1.91-5.07,4.55s2.13,4.55,5.07,4.55,5.06-1.94,5.06-4.71c0-2.55-2.13-4.4-5.06-4.4h0Zm4.09,12.74h-8.19v27.73h8.19v-27.73h0Z"/>
      </g>
      <g>
        <path class="cls-1" d="m346.18,320.22c-8.8,0-15.19-5.98-15.19-14.22s6.39-14.22,15.19-14.22,15.14,5.98,15.14,14.22-6.37,14.22-15.14,14.22Zm0-21.79c-4.19,0-7.01,3.04-7.01,7.57s2.82,7.57,7.01,7.57,6.96-3.04,6.96-7.57-2.8-7.57-6.96-7.57Z"/>
        <path class="cls-5" d="m346.19,291.83c8.75,0,15.09,5.88,15.09,14.17s-6.34,14.17-15.09,14.17-15.14-5.88-15.14-14.17,6.39-14.17,15.14-14.17m0,21.79c3.99,0,7.01-2.86,7.01-7.62s-3.02-7.62-7.01-7.62-7.06,2.87-7.06,7.62,3.07,7.62,7.06,7.62m0-21.89c-8.83,0-15.24,6-15.24,14.27s6.41,14.27,15.24,14.27,15.19-6,15.19-14.27-6.39-14.27-15.19-14.27h0Zm0,21.79c-4.16,0-6.96-3.02-6.96-7.52s2.8-7.52,6.96-7.52,6.91,3.02,6.91,7.52-2.78,7.52-6.91,7.52h0Z"/>
      </g>
      <g>
        <path class="cls-1" d="m386.75,319.81l-.05-14.58c0-4.28-1.86-6.45-5.52-6.45-4.16,0-6.55,2.68-6.55,7.37v13.61l-8.03.05-.05-27.57,7.67-.05.05,3.27c2.06-2.39,5.31-3.68,9.05-3.68,7.17,0,11.46,4.57,11.46,12.23v15.81h-8.03Z"/>
        <path class="cls-5" d="m383.32,291.83c6.5,0,11.41,3.79,11.41,12.18v15.76h-7.98v-14.53c0-4.45-2.05-6.5-5.58-6.5-3.84,0-6.6,2.35-6.6,7.42v13.61h-7.98v-27.52h7.62v3.22c2.15-2.35,5.37-3.63,9.11-3.63m0-.1c-3.66,0-6.84,1.23-9,3.47v-3.07h-7.83v27.73h8.19v-13.71c0-4.65,2.37-7.32,6.5-7.32,3.63,0,5.47,2.15,5.47,6.39v14.63h8.19v-15.86c0-4.04-1.11-7.17-3.3-9.31-1.99-1.94-4.83-2.97-8.21-2.97h0Z"/>
      </g>
    </g>
    <g>
      <path class="cls-1" d="m349.56,229.53v-116.15s-2.76-2.72-2.76-2.72l.09,95.02-11.7-11.58-.02-86.13-2.92,3.04.02,64.04-8.75-8.62-.02-48.6-2.97,3.1.02,26.21-9.49-9.37-.02-12.67-2.89,3.01.02,10.29-6.93,14.39,2.88,2.39,4.06-3.24,7.53,8.25-6.57,14.21-4.1-4.33,1.09,4.86-8.25,8.29-.99,7.21-7.44-7.32.09,21.92-5.44-5.31c-2.3-2.3-3.03-15.48-3.25-22.96v44.09l-8.23-8.09-2.4-36.24-1.41,39.48-6.02,17.46-6.12-17.43-1.41-39.51-2.38,36.21-8.15,8.17-.08-44.43c-.22,7.43-.93,20.92-3.26,23.26l-5.35,5.35-.09-21.98-7.27,7.39-1.09-7.27-8.23-8.22.99-4.94-3.92,4.39-6.66-14.17,7.47-8.3,4.2,3.22,2.83-2.45-6.94-14.3v-10.35s-2.96-2.94-2.96-2.94l.09,12.6-9.42,9.44-.09-26.28-3.04-3.03.09,48.52-8.68,8.7-.09-64.11-2.99-2.97.09,86.04-11.63,11.65-.09-95.31-2.67,2.79.02,116.3-12.47,13.57-.09-187.16c0-5.16,6.57-8.04,6.63-8.07h50.46s-.28.1-.28.1c-.13.05-13.04,4.79-9.91,15.48,3.13,10.71,35.85,12.52,36.18,12.54-.01-.02,2.91-3.51,2.91-9.69v-10.7c0-.07.49-6.99,6.74-6.99h18.97l3.8,4.2,8.74-.02c.06.03,3.48,2.16,3.48,9.56l-10.33.05s-5.89,2.88-.96,13.57c.27-.05,32.26-1.81,35.39-12.52,3.12-10.69-9.78-15.44-9.91-15.48l-.28-.1h50.44c.09.03,6.65,2.92,6.65,8.07v187.25l-12.54-13.64Z"/>
      <path class="cls-5" d="m220.18,47.88s-13.12,4.68-9.95,15.54c3.18,10.86,36.23,12.58,36.23,12.58,0,0,2.97-3.47,2.97-9.74v-10.7s.42-6.94,6.69-6.94h18.97l3.76,4.18h8.78s3.43,2.05,3.43,9.51h-10.28s-6.02,2.77-1,13.64c0,0,32.31-1.66,35.49-12.53,3.18-10.86-9.95-15.54-9.95-15.54h50.14s6.6,2.84,6.6,8.02v187.12l-12.45-13.54v-116.12l-2.76-2.76v95.06l-11.62-11.62v-86.09l-3.01,3.01v64.08l-8.67-8.66v-48.56l-3.06,3.07v26.24l-9.4-9.4v-12.64l-2.98,2.98v10.33l-6.93,14.37,2.89,2.45,4.13-3.23,7.46,8.25-6.58,14.15-4.01-4.35,1,4.91-8.24,8.25-1,7.24-7.35-7.35v21.95l-5.35-5.35c-3.2-3.2-3.34-28.04-3.34-28.08h0v49.25l-8.14-8.13h0s-2.45-37.22-2.45-37.22l-1.45,40.48-6.02,17.45-6.02-17.43v-.02l-1.45-40.49-2.45,37.22-8.14,8.14v-49.26h0s0,0,0,0c0,.04-.14,24.88-3.34,28.08l-5.35,5.35v-21.95l-7.35,7.35-1-7.25-8.24-8.25,1-4.9-4.01,4.35-6.58-14.16,7.46-8.24,4.13,3.23,2.89-2.45-6.93-14.36v-10.33l-2.98-2.98v12.64l-9.4,9.4v-26.24l-3.06-3.07v48.56l-8.67,8.67v-64.08l-3.01-3.01v86.08l-11.62,11.62v-95.27l-2.76,2.76v116.33l-12.45,13.54V55.9c0-5.18,6.6-8.02,6.6-8.02h50.14m.59-.1h-50.78c-.07.04-6.66,2.94-6.66,8.13v187.39l.18-.19,12.45-13.54.03-.03v-116.33l2.55-2.55v95.27l.18-.18,11.62-11.62.03-.03v-85.88l2.8,2.8v64.28l.18-.18,8.67-8.67.03-.03v-48.35l2.85,2.86v26.45l.18-.18,9.4-9.4.03-.03v-12.43l2.77,2.77v10.33s6.9,14.29,6.9,14.29l-2.77,2.34-4.06-3.17-.08-.06-.06.07-7.46,8.24-.05.05.03.06,6.58,14.16.06.14.1-.11,3.76-4.07-.93,4.54v.05s.03.04.03.04l8.22,8.22,1,7.21.03.2.15-.15,7.18-7.18v21.95l.18-.18,5.35-5.35c2.04-2.04,2.85-12.54,3.17-20.12v41.48l.18-.18,8.14-8.14.03-.03v-.04s2.32-35.19,2.32-35.19l1.37,38.47v.02s0,.03,0,.03l6.02,17.43.1.28.1-.28,6.02-17.45h0s0-.03,0-.03l1.37-38.46,2.32,35.19v.04s.03.04.03.04l8.14,8.13.18.18v-41.47c.32,7.59,1.13,18.08,3.17,20.12l5.35,5.35.18.18v-21.95l7.18,7.18.15.15.03-.2,1-7.2,8.22-8.22.04-.04v-.05s-.94-4.54-.94-4.54l3.76,4.07.1.11.06-.14,6.58-14.15.03-.06-.05-.05-7.46-8.25-.06-.07-.08.06-4.06,3.18-2.77-2.34,6.89-14.29v-.02s.01-.02.01-.02v-10.29l2.77-2.77v12.43l.03.03,9.4,9.4.18.18v-26.45l2.85-2.86v48.36l.03.03,8.67,8.66.18.18v-64.28l2.8-2.8v85.88l.03.03,11.62,11.62.18.18v-95.06l2.55,2.55v116.11l.03.03,12.45,13.54.18.19V55.91c0-5.19-6.6-8.09-6.66-8.12h-.02s-.02,0-.02,0h-50.74l.56.2c.13.05,12.99,4.77,9.88,15.42-3.05,10.43-33.65,12.35-35.32,12.45-4.72-10.28.6-13.24.96-13.43h10.36v-.1c0-7.44-3.33-9.51-3.48-9.6h-.02s-.03-.01-.03-.01h-8.73l-3.73-4.14-.03-.03h-19.02c-6.29,0-6.78,6.96-6.79,7.03v10.7c0,5.81-2.59,9.23-2.91,9.63-1.49-.09-33.02-2.03-36.08-12.5-3.11-10.65,9.75-15.37,9.88-15.42l.56-.2h0Z"/>
    </g>
  </g>
</svg>