<?xml version="1.0" encoding="UTF-8"?>
<svg id="Layer_1" data-name="Layer 1" xmlns="http://www.w3.org/2000/svg" xmlns:xlink="http://www.w3.org/1999/xlink" viewBox="0 0 525 361">
  <defs>
    <style>
      .cls-1 {
        fill: #fff;
      }

      .cls-2 {
        fill: url(#radial-gradient);
      }

      .cls-3 {
        mask: url(#mask-1);
      }

      .cls-4 {
        mask: url(#mask);
      }

      .cls-5 {
        fill: #606060;
      }
    </style>
    <mask id="mask" x="448.77" y="-23.66" width="617.43" height="498.47" maskUnits="userSpaceOnUse"/>
    <radialGradient id="radial-gradient" cx="262.5" cy="180.5" fx="262.5" fy="180.5" r="225.26" gradientUnits="userSpaceOnUse">
      <stop offset="0" stop-color="#fff"/>
      <stop offset=".07" stop-color="#e2e2e2"/>
      <stop offset=".33" stop-color="#828282"/>
      <stop offset=".54" stop-color="#3c3c3c"/>
      <stop offset=".69" stop-color="#101010"/>
      <stop offset=".76" stop-color="#000"/>
    </radialGradient>
    <mask id="mask-1" x="0" y="-43.75" width="525" height="461.86" maskUnits="userSpaceOnUse">
      <rect class="cls-2" width="525" height="361"/>
    </mask>
  </defs>
  <g class="cls-4">
    <path class="cls-5" d="m718.1,453.08s.07-.08.1-.12c.02-.02.04-.04.06-.07.03-.04.07-.08.1-.12.58-.68,1.18-1.36,1.78-2.07.04-.05.08-.09.12-.14.13-.15.26-.3.39-.46,4.67-5.44,9.94-11.72,15.7-18.78.06-.07.12-.14.18-.21,1.86-2.28,3.76-4.64,5.72-7.08.04-.05.08-.1.12-.15,4.94-6.17,10.16-12.83,15.61-19.98.06-.08.12-.15.17-.23,2.49-3.26,5.02-6.62,7.59-10.07.06-.07.11-.15.17-.22,2.14-2.88,4.31-5.83,6.51-8.83h0c.05-.08.11-.15.16-.23h0c.48-.66.97-1.33,1.45-2,.07-.1.14-.2.22-.3,5.96-8.23,12.09-16.92,18.32-26.05.06-.08.11-.17.17-.25.01-.02.03-.04.04-.06.06-.09.12-.17.18-.26.03-.04.06-.08.08-.12.1-.14.19-.29.29-.43,1.62-2.38,3.24-4.79,4.87-7.23.07-.1.14-.2.21-.31,9.36-14.02,18.88-28.97,28.32-44.76.08-.14.16-.27.24-.41,1.26-2.12,2.53-4.25,3.79-6.4.05-.09.11-.18.16-.27.92-1.57,1.84-3.15,2.76-4.74.06-.11.13-.22.19-.33.86-1.49,1.72-2.99,2.58-4.49.27-.47.54-.94.81-1.42,9.68-16.99,19.18-34.84,28.22-53.4,0,0,0,0,0,0,.05-.11.11-.23.16-.34,0,0,0,0,0,0,4.72-9.71,9.32-19.63,13.76-29.72-15.41-5.69-35.31-13.61-57.88-23.91-7.18,9.23-14.73,18.55-22.65,27.88-.07.08-.13.16-.2.23-1.66,1.95-3.33,3.9-5.02,5.85-.08.09-.15.17-.23.26-1.56,1.8-3.13,3.6-4.72,5.39-.06.07-.12.14-.18.21-4.11,4.66-8.31,9.31-12.61,13.95-.09.1-.19.2-.28.3-.92.99-1.85,1.99-2.78,2.98-.16.18-.33.35-.5.53,0,0,0,0,0,0-8.98,9.57-18.36,19.09-28.15,28.48-.07.07-.14.13-.21.2-1.85,1.77-3.72,3.54-5.59,5.31-.07.07-.15.14-.22.21-.68.64-1.36,1.28-2.04,1.91-.08.07-.15.14-.23.21-9.17,8.53-18.69,16.94-28.56,25.18,0,0,0,0,0,0-.07.06-.14.12-.21.18,0,0,0,0,0,0-15.79,13.18-32.48,25.92-50.1,38.02-.06.04-.13.09-.19.13-8.87,6.08-17.96,12-27.3,17.72-.07.04-.14.08-.2.12-2.03,1.24-4.07,2.47-6.12,3.7-.1.06-.2.12-.3.18-8.44,5.03-17.06,9.89-25.88,14.58-.14.07-.28.14-.42.22,0,0,0,0-.01,0,0,0,0,0,0,0-2.92,1.55-5.86,3.07-8.82,4.58-.1.05-.2.1-.3.15-1.01.51-2.01,1.03-3.02,1.53-.04.02-.08.04-.13.06-.01,0-.03.01-.04.02-41.09,20.61-86.2,37.31-135.55,48.22l249.72,49.12s7.41-7.65,19.61-21.73Z"/>
  </g>
  <g class="cls-3">
    <path class="cls-5" d="m326.9,268.38s84.49-6.57,166.16-136.12c0,0-66.83,54.75-152.36,92.17,12.64-48.69,45.35-129.44,128.42-182.75l-125.79,80.73s-6.57-84.49-136.12-166.16c0,0,54.75,66.83,92.17,152.36-48.69-12.64-129.44-45.35-182.75-128.42l80.73,125.79s-84.49,6.57-166.16,136.12c0,0,66.83-54.75,152.36-92.17-12.64,48.69-45.35,129.44-128.42,182.75l125.79-80.73s6.57,84.49,136.12,166.16c0,0-54.75-66.83-92.17-152.36,48.69,12.64,129.44,45.35,182.75,128.42l-80.73-125.79Zm-135.18-121.94c35.28-14.76,73.42-26.27,111.15-29.66,14.76,35.28,26.27,73.42,29.66,111.15-35.28,14.76-73.42,26.27-111.15,29.66-14.76-35.28-26.27-73.42-29.66-111.15Z"/>
  </g>
  <g>
    <g>
      <path class="cls-1" d="m180.68,299.33c-5.16,0-7.78-2.69-7.78-7.99v-21.75c0-.46.29-.75.74-.75h5.56c.45,0,.7.27.7.75v21.27c0,1.66.69,2.34,2.38,2.34h20.53c1.69,0,2.38-.68,2.38-2.34v-21.27c0-.47.26-.75.7-.75h5.56c.46,0,.74.29.74.75v21.75c0,5.3-2.62,7.99-7.78,7.99h-23.75Z"/>
      <path d="m211.46,268.9c.43,0,.69.26.69.69v21.75c0,4.95-2.34,7.94-7.73,7.94h-23.75c-5.38,0-7.73-3-7.73-7.94v-21.75c0-.43.26-.69.69-.69h5.56c.43,0,.65.26.65.69v21.27c0,1.78.82,2.39,2.43,2.39h20.53c1.61,0,2.43-.61,2.43-2.39v-21.27c0-.43.22-.69.65-.69h5.56m0-.1h-5.56c-.48,0-.75.29-.75.79v21.27c0,1.63-.68,2.29-2.33,2.29h-20.53c-1.66,0-2.33-.66-2.33-2.29v-21.27c0-.5-.27-.79-.75-.79h-5.56c-.49,0-.79.3-.79.79v21.75c0,5.34,2.63,8.04,7.83,8.04h23.75c5.19,0,7.83-2.71,7.83-8.04v-21.75c0-.49-.3-.79-.79-.79h0Z"/>
    </g>
    <g>
      <path class="cls-1" d="m249.18,299.33c-.39,0-.58-.17-.93-.48l-22.98-21.76h-.57s.05,21.5.05,21.5c0,.47-.26.74-.7.74h-5.56c-.46,0-.74-.29-.74-.74v-29c0-.46.29-.75.74-.75h6.47c.39,0,.58.17.93.48l22.98,21.76h.57s-.05-21.5-.05-21.5c0-.47.26-.75.7-.75h5.56c.46,0,.74.29.74.75v29c0,.46-.29.74-.74.74h-6.47Z"/>
      <path d="m255.64,268.9c.43,0,.69.26.69.69v29c0,.43-.26.69-.69.69h-6.47c-.39,0-.56-.17-.96-.52l-22.92-21.71h-.61v21.53c0,.43-.22.69-.65.69h-5.56c-.43,0-.69-.26-.69-.69v-29c0-.43.26-.69.69-.69h6.47c.39,0,.56.17.96.52l22.92,21.71h.61v-21.53c0-.43.22-.69.65-.69h5.56m0-.1h-5.56c-.48,0-.75.29-.75.79v21.43h-.47l-22.89-21.68-.06-.05c-.36-.32-.55-.49-.96-.49h-6.47c-.49,0-.79.3-.79.79v29c0,.49.3.79.79.79h5.56c.48,0,.75-.29.75-.79v-21.43h.47l22.89,21.68.06.05c.36.32.55.49.96.49h6.47c.49,0,.79-.3.79-.79v-29c0-.49-.3-.79-.79-.79h0Z"/>
    </g>
    <g>
      <path class="cls-1" d="m262.67,299.33c-.46,0-.74-.29-.74-.74v-29c0-.46.29-.75.74-.75h5.56c.45,0,.7.27.7.75v29c0,.47-.25.74-.7.74h-5.56Z"/>
      <path d="m268.23,268.9c.43,0,.65.26.65.69v29c0,.43-.22.69-.65.69h-5.56c-.43,0-.69-.26-.69-.69v-29c0-.43.26-.69.69-.69h5.56m0-.1h-5.56c-.49,0-.79.3-.79.79v29c0,.49.3.79.79.79h5.56c.48,0,.75-.29.75-.79v-29c0-.5-.27-.79-.75-.79h0Z"/>
    </g>
    <g>
      <path class="cls-1" d="m290.33,299.33c-.46,0-.74-.29-.74-.74v-23.66l-15.1.05c-.48,0-.74-.25-.74-.7v-4.69c0-.46.29-.75.74-.75h37.07c.46,0,.74.29.74.75v4.69c0,.45-.26.7-.74.7h-15.15l.05,23.61c0,.46-.29.74-.74.74h-5.38Z"/>
      <path d="m311.55,268.9c.43,0,.69.26.69.69v4.69c0,.43-.26.65-.69.65h-15.15v23.66c0,.43-.26.69-.69.69h-5.38c-.43,0-.69-.26-.69-.69v-23.66h-15.15c-.43,0-.69-.22-.69-.65v-4.69c0-.43.26-.69.69-.69h37.07m0-.1h-37.07c-.49,0-.79.3-.79.79v4.69c0,.48.29.75.79.75h15.05v23.56c0,.49.3.79.79.79h5.38c.49,0,.79-.3.79-.79v-23.56h15.05c.5,0,.79-.27.79-.75v-4.69c0-.49-.3-.79-.79-.79h0Z"/>
    </g>
    <g>
      <path class="cls-1" d="m332.65,299.33c-.46,0-.74-.29-.74-.74v-10.77l-16.22-18.07c-.26-.24-.26-.44-.22-.56.08-.21.36-.35.69-.35h6.16c.58,0,.9.28,1.29.67l11.5,12.94.48-.02,11.47-12.92c.39-.39.71-.67,1.3-.67h6.16c.32,0,.61.14.69.35.05.12.05.32-.22.56l-16.23,18.1v10.73c.01.46-.27.74-.73.74h-5.38Z"/>
      <path d="m354.53,268.9c.48,0,.96.35.43.82l-16.24,18.1v10.77c0,.43-.26.69-.69.69h-5.38c-.43,0-.69-.26-.69-.69v-10.77l-16.24-18.1c-.52-.48-.04-.82.43-.82h6.16c.56,0,.87.26,1.26.65l11.5,12.94h.52l11.5-12.94c.39-.39.69-.65,1.26-.65h6.16m0-.1h-6.16c-.6,0-.93.28-1.33.68l-11.48,12.91h-.43l-11.47-12.9c-.4-.4-.73-.68-1.33-.68h-6.16c-.34,0-.65.16-.73.38-.05.14-.06.35.23.62l16.2,18.07v10.73c0,.49.3.79.79.79h5.38c.49,0,.79-.3.79-.79v-10.73l16.21-18.07c.28-.26.28-.47.22-.61-.09-.22-.39-.38-.73-.38h0Z"/>
    </g>
    <g>
      <path class="cls-1" d="m177.77,319.38c-2.56,0-3.8-1.2-3.8-3.68v-7.18c0-2.48,1.24-3.68,3.8-3.68h10.79c2.55,0,3.78,1.2,3.78,3.68v.43c0,.2-.09.29-.27.29h-.88c-.26,0-.32-.16-.32-.29v-.27c0-1.75-.77-2.5-2.56-2.5h-10.36c-1.78,0-2.54.75-2.54,2.5v6.83c0,1.79.74,2.52,2.54,2.52h10.36c1.77,0,2.56-.67,2.56-2.17v-.12c0-.19.1-.29.29-.29h.9c.18,0,.27.1.27.29v.29c0,2.23-1.27,3.35-3.78,3.35h-10.79Z"/>
      <path d="m188.56,304.89c2.53,0,3.73,1.2,3.73,3.63v.43c0,.16-.06.24-.22.24h-.88c-.18,0-.27-.08-.27-.24v-.27c0-1.77-.78-2.55-2.61-2.55h-10.36c-1.82,0-2.59.75-2.59,2.55v6.83c0,1.82.78,2.57,2.59,2.57h10.36c1.86,0,2.61-.73,2.61-2.22v-.12c0-.16.08-.24.24-.24h.9c.16,0,.22.08.22.24v.29c0,2.14-1.2,3.3-3.73,3.3h-10.79c-2.53,0-3.75-1.2-3.75-3.63v-7.18c0-2.43,1.22-3.63,3.75-3.63h10.79m0-.1h-10.79c-2.56,0-3.85,1.26-3.85,3.73v7.18c0,2.48,1.3,3.73,3.85,3.73h10.79c2.54,0,3.83-1.15,3.83-3.4v-.29c0-.28-.18-.34-.32-.34h-.9c-.22,0-.34.13-.34.34v.12c0,1.47-.77,2.12-2.51,2.12h-10.36c-1.77,0-2.49-.72-2.49-2.47v-6.83c0-1.74.72-2.45,2.49-2.45h10.36c1.76,0,2.51.73,2.51,2.45v.27c0,.22.13.34.37.34h.88c.15,0,.32-.06.32-.34v-.43c0-2.51-1.25-3.73-3.83-3.73h0Z"/>
    </g>
    <g>
      <path class="cls-1" d="m198.4,319.38c-2.56,0-3.8-1.2-3.8-3.68v-7.18c0-2.48,1.24-3.68,3.8-3.68h10.75c2.54,0,3.82,1.24,3.82,3.68v7.18c0,2.44-1.29,3.68-3.82,3.68h-10.75Zm.18-13.2c-1.78,0-2.54.75-2.54,2.5v6.83c0,1.79.74,2.52,2.54,2.52h10.4c1.79,0,2.52-.73,2.52-2.52v-6.83c0-1.78-.73-2.5-2.52-2.5h-10.4Z"/>
      <path d="m209.15,304.89c2.53,0,3.77,1.2,3.77,3.63v7.18c0,2.43-1.24,3.63-3.77,3.63h-10.75c-2.53,0-3.75-1.2-3.75-3.63v-7.18c0-2.43,1.22-3.63,3.75-3.63h10.75m-10.57,13.2h10.4c1.82,0,2.57-.75,2.57-2.57v-6.83c0-1.8-.75-2.55-2.57-2.55h-10.4c-1.82,0-2.59.75-2.59,2.55v6.83c0,1.82.78,2.57,2.59,2.57m10.57-13.3h-10.75c-2.56,0-3.85,1.26-3.85,3.73v7.18c0,2.48,1.3,3.73,3.85,3.73h10.75c2.57,0,3.87-1.26,3.87-3.73v-7.18c0-2.48-1.3-3.73-3.87-3.73h0Zm-10.57,13.2c-1.77,0-2.49-.72-2.49-2.47v-6.83c0-1.74.72-2.45,2.49-2.45h10.4c1.75,0,2.47.71,2.47,2.45v6.83c0,1.75-.72,2.47-2.47,2.47h-10.4Z"/>
    </g>
    <g>
      <path class="cls-1" d="m215.76,319.3c-.23,0-.34-.1-.34-.34v-13.71c0-.23.1-.34.34-.34h.77c.23,0,.34.1.34.34v12.75l14.58-.05c.23,0,.33.1.33.34v.67c0,.23-.1.34-.33.34h-15.69Z"/>
      <path d="m216.54,304.97c.2,0,.29.08.29.29v12.75h14.63c.2,0,.29.08.29.29v.67c0,.2-.08.29-.29.29h-15.69c-.2,0-.29-.08-.29-.29v-13.71c0-.2.08-.29.29-.29h.78m0-.1h-.78c-.26,0-.39.13-.39.39v13.71c0,.26.13.39.39.39h15.69c.26,0,.39-.13.39-.39v-.67c0-.26-.13-.39-.39-.39h-14.53v-12.65c0-.26-.13-.39-.39-.39h0Z"/>
    </g>
    <g>
      <path class="cls-1" d="m234.37,319.3c-.23,0-.34-.1-.34-.34v-13.71c0-.23.1-.34.34-.34h.78c.23,0,.34.1.34.34v12.75l14.58-.05c.23,0,.34.1.34.34v.67c0,.23-.1.34-.34.34h-15.69Z"/>
      <path d="m235.14,304.97c.2,0,.29.08.29.29v12.75h14.63c.2,0,.29.08.29.29v.67c0,.2-.08.29-.29.29h-15.69c-.2,0-.29-.08-.29-.29v-13.71c0-.2.08-.29.29-.29h.78m0-.1h-.78c-.26,0-.39.13-.39.39v13.71c0,.26.13.39.39.39h15.69c.26,0,.39-.13.39-.39v-.67c0-.26-.13-.39-.39-.39h-14.53v-12.65c0-.26-.13-.39-.39-.39h0Z"/>
    </g>
    <g>
      <path class="cls-1" d="m252.97,319.3c-.23,0-.34-.1-.34-.34v-13.71c0-.23.1-.34.34-.34h15.75c.23,0,.36.13.36.36v.63c0,.23-.12.36-.36.36h-14.69l.05,5.21,14.43-.05c.23,0,.36.12.36.36v.65c0,.23-.12.36-.36.36h-14.48l.05,5.21,14.74-.05c.23,0,.36.12.36.36v.63c0,.23-.12.36-.36.36h-15.85Z"/>
      <path d="m268.72,304.97c.2,0,.31.1.31.31v.63c0,.2-.1.31-.31.31h-14.69v5.26h14.48c.2,0,.31.1.31.31v.65c0,.2-.1.31-.31.31h-14.48v5.26h14.79c.2,0,.31.1.31.31v.63c0,.2-.1.31-.31.31h-15.85c-.2,0-.29-.08-.29-.29v-13.71c0-.2.08-.29.29-.29h15.75m0-.1h-15.75c-.26,0-.39.13-.39.39v13.71c0,.26.13.39.39.39h15.85c.26,0,.41-.15.41-.41v-.63c0-.26-.15-.41-.41-.41h-14.69v-5.06h14.38c.26,0,.41-.15.41-.41v-.65c0-.26-.15-.41-.41-.41h-14.38v-5.06h14.59c.26,0,.41-.15.41-.41v-.63c0-.26-.15-.41-.41-.41h0Z"/>
    </g>
    <g>
      <path class="cls-1" d="m275.03,319.38c-2.56,0-3.8-1.2-3.8-3.68v-7.18c0-2.48,1.24-3.68,3.8-3.68h10.79c2.55,0,3.78,1.2,3.78,3.68v.43c0,.2-.09.29-.27.29h-.88c-.21,0-.31-.1-.31-.29v-.27c0-1.75-.77-2.5-2.56-2.5h-10.36c-1.78,0-2.54.75-2.54,2.5v6.83c0,1.79.74,2.52,2.54,2.52h10.36c1.77,0,2.56-.67,2.56-2.17v-.12c0-.19.1-.29.29-.29h.9c.18,0,.27.1.27.29v.29c0,2.23-1.27,3.35-3.78,3.35h-10.79Z"/>
      <path d="m285.82,304.89c2.53,0,3.73,1.2,3.73,3.63v.43c0,.16-.06.24-.22.24h-.88c-.18,0-.27-.08-.27-.24v-.27c0-1.77-.78-2.55-2.61-2.55h-10.36c-1.82,0-2.59.75-2.59,2.55v6.83c0,1.82.78,2.57,2.59,2.57h10.36c1.86,0,2.61-.73,2.61-2.22v-.12c0-.16.08-.24.24-.24h.9c.16,0,.22.08.22.24v.29c0,2.14-1.2,3.3-3.73,3.3h-10.79c-2.53,0-3.75-1.2-3.75-3.63v-7.18c0-2.43,1.22-3.63,3.75-3.63h10.79m0-.1h-10.79c-2.56,0-3.85,1.26-3.85,3.73v7.18c0,2.48,1.3,3.73,3.85,3.73h10.79c2.54,0,3.83-1.15,3.83-3.4v-.29c0-.28-.18-.34-.32-.34h-.9c-.22,0-.34.13-.34.34v.12c0,1.47-.77,2.12-2.51,2.12h-10.36c-1.77,0-2.49-.72-2.49-2.47v-6.83c0-1.74.72-2.45,2.49-2.45h10.36c1.76,0,2.51.73,2.51,2.45v.27c0,.22.13.34.37.34h.88c.15,0,.32-.06.32-.34v-.43c0-2.51-1.25-3.73-3.83-3.73h0Z"/>
    </g>
    <g>
      <path class="cls-1" d="m299.49,319.3c-.23,0-.33-.1-.33-.34v-12.75l-7.89.05c-.23,0-.34-.1-.34-.34v-.67c0-.23.1-.34.34-.34h17.2c.23,0,.33.1.33.34v.67c0,.23-.1.34-.33.34h-7.92l.05,12.7c0,.23-.12.34-.36.34h-.75Z"/>
      <path d="m308.46,304.97c.2,0,.29.08.29.29v.67c0,.2-.08.29-.29.29h-7.92v12.75c0,.2-.1.29-.31.29h-.75c-.2,0-.29-.08-.29-.29v-12.75h-7.94c-.2,0-.29-.08-.29-.29v-.67c0-.2.08-.29.29-.29h17.2m0-.1h-17.2c-.26,0-.39.13-.39.39v.67c0,.26.13.39.39.39h7.84v12.65c0,.26.13.39.39.39h.75c.34,0,.41-.21.41-.39v-12.65h7.82c.26,0,.39-.13.39-.39v-.67c0-.26-.13-.39-.39-.39h0Z"/>
    </g>
    <g>
      <rect class="cls-1" x="310.95" y="304.92" width="1.45" height="14.38" rx=".34" ry=".34"/>
      <path d="m312.06,304.97c.2,0,.29.08.29.29v13.71c0,.2-.08.29-.29.29h-.78c-.2,0-.29-.08-.29-.29v-13.71c0-.2.08-.29.29-.29h.78m0-.1h-.78c-.26,0-.39.13-.39.39v13.71c0,.26.13.39.39.39h.78c.26,0,.39-.13.39-.39v-13.71c0-.26-.13-.39-.39-.39h0Z"/>
    </g>
    <g>
      <path class="cls-1" d="m318.65,319.38c-2.56,0-3.8-1.2-3.8-3.68v-7.18c0-2.48,1.24-3.68,3.8-3.68h10.75c2.54,0,3.82,1.24,3.82,3.68v7.18c0,2.44-1.29,3.68-3.82,3.68h-10.75Zm.18-13.2c-1.78,0-2.54.75-2.54,2.5v6.83c0,1.79.74,2.52,2.54,2.52h10.4c1.79,0,2.52-.73,2.52-2.52v-6.83c0-1.78-.73-2.5-2.52-2.5h-10.4Z"/>
      <path d="m329.4,304.89c2.53,0,3.77,1.2,3.77,3.63v7.18c0,2.43-1.24,3.63-3.77,3.63h-10.75c-2.53,0-3.75-1.2-3.75-3.63v-7.18c0-2.43,1.22-3.63,3.75-3.63h10.75m-10.57,13.2h10.4c1.82,0,2.57-.75,2.57-2.57v-6.83c0-1.8-.75-2.55-2.57-2.55h-10.4c-1.82,0-2.59.75-2.59,2.55v6.83c0,1.82.78,2.57,2.59,2.57m10.57-13.3h-10.75c-2.56,0-3.85,1.26-3.85,3.73v7.18c0,2.48,1.3,3.73,3.85,3.73h10.75c2.57,0,3.87-1.26,3.87-3.73v-7.18c0-2.48-1.3-3.73-3.87-3.73h0Zm-10.57,13.2c-1.77,0-2.49-.72-2.49-2.47v-6.83c0-1.74.72-2.45,2.49-2.45h10.4c1.75,0,2.47.71,2.47,2.45v6.83c0,1.75-.72,2.47-2.47,2.47h-10.4Z"/>
    </g>
    <g>
      <path class="cls-1" d="m351.27,319.3c-.18,0-.27-.09-.4-.21l-13.69-12.65h-.11s.05,12.53.05,12.53c0,.23-.1.34-.33.34h-.78c-.23,0-.34-.1-.34-.34v-13.71c0-.23.1-.34.34-.34h1.37c.18,0,.28.1.4.22l13.69,12.65h.11s-.05-12.53-.05-12.53c0-.23.1-.34.33-.34h.78c.23,0,.34.1.34.34v13.71c0,.23-.1.34-.34.34h-1.37Z"/>
      <path d="m352.63,304.97c.2,0,.29.08.29.29v13.71c0,.2-.08.29-.29.29h-1.37c-.16,0-.24-.08-.37-.2l-13.69-12.65h-.14v12.57c0,.2-.08.29-.29.29h-.78c-.2,0-.29-.08-.29-.29v-13.71c0-.2.08-.29.29-.29h1.37c.16,0,.25.08.37.2l13.69,12.65h.14v-12.57c0-.2.08-.29.29-.29h.78m0-.1h-.78c-.26,0-.39.13-.39.39v12.47h0l-13.66-12.62c-.12-.12-.23-.23-.44-.23h-1.37c-.26,0-.39.13-.39.39v13.71c0,.26.13.39.39.39h.78c.26,0,.39-.13.39-.39v-12.47h0l13.66,12.62c.12.12.23.23.44.23h1.37c.26,0,.39-.13.39-.39v-13.71c0-.26-.13-.39-.39-.39h0Z"/>
    </g>
    <g>
      <path class="cls-1" d="m288.44,260.11c-60.58-38.19-64.36-78.21-64.39-78.61l-59.41,38.21c39.91-25.73,55.14-65.22,60.65-86.47-39.91,17.55-71.65,43.38-71.97,43.63,38.12-60.64,78.13-64.42,78.53-64.45l-38.21-59.41c25.74,39.92,65.22,55.14,86.47,60.65-17.55-39.91-43.37-71.65-43.63-71.97,60.64,38.12,64.42,78.13,64.45,78.53l59.4-38.21c-39.91,25.74-55.14,65.22-60.65,86.47,39.91-17.55,71.65-43.38,71.97-43.63-38.12,60.64-78.13,64.42-78.53,64.45l38.21,59.4c-25.73-39.91-65.22-55.13-86.47-60.65,17.55,39.91,43.38,71.65,43.63,71.97l.19.24-.26-.16Zm-6.71-142.48c-16.07,1.45-33.74,6.17-52.51,14.02,1.48,16.03,6.2,33.71,14.05,52.49,16.03-1.48,33.71-6.2,52.49-14.05-1.48-16.02-6.19-33.69-14.04-52.46Z"/>
      <path d="m236.53,41.67c61.26,38.62,64.36,78.57,64.36,78.57l59.48-38.17c-39.28,25.21-54.75,63.39-60.73,86.42,40.44-17.69,72.05-43.58,72.05-43.58-38.62,61.26-78.57,64.36-78.57,64.36l38.17,59.48c-25.21-39.28-63.39-54.75-86.42-60.73,17.69,40.44,43.58,72.05,43.58,72.05-61.26-38.62-64.36-78.57-64.36-78.57l-59.48,38.17c39.28-25.21,54.75-63.39,60.73-86.42-40.44,17.69-72.05,43.58-72.05,43.58,38.62-61.26,78.57-64.36,78.57-64.36l-38.17-59.48c25.21,39.28,63.39,54.75,86.42,60.73-17.69-40.44-43.58-72.05-43.58-72.05m6.7,142.49c17.84-1.61,35.87-7.05,52.56-14.03-1.61-17.84-7.05-35.87-14.03-52.56-17.84,1.61-35.87,7.05-52.56,14.03,1.61,17.84,7.05,35.87,14.03,52.56m-7.17-142.9l.39.48c.26.32,26,31.96,43.49,71.83-21.29-5.56-60.6-20.8-86.16-60.63l-.08.05-.08.05,38.09,59.34c-1.36.15-11.04,1.44-24.68,9.21-8.61,4.9-17.09,11.38-25.22,19.27-10.15,9.85-19.77,21.94-28.58,35.92l-.33.52.48-.39c.32-.26,31.96-26,71.83-43.49-5.56,21.29-20.8,60.6-60.63,86.16l.05.08.05.08,59.34-38.09c.15,1.36,1.44,11.04,9.21,24.68,4.9,8.61,11.38,17.09,19.27,25.22,9.85,10.15,21.94,19.77,35.92,28.58l.52.33-.39-.48c-.26-.32-26-31.96-43.49-71.83,21.29,5.56,60.6,20.8,86.16,60.63l.08-.05.08-.05-38.09-59.34c1.36-.15,11.04-1.44,24.68-9.21,8.61-4.9,17.09-11.38,25.22-19.27,10.15-9.85,19.77-21.94,28.58-35.92l.33-.52-.48.39c-.32.26-31.96,26-71.83,43.49,5.56-21.29,20.8-60.6,60.63-86.16l-.11-.17-59.34,38.09c-.15-1.36-1.44-11.04-9.21-24.68-4.9-8.61-11.38-17.09-19.27-25.22-9.85-10.15-21.94-19.77-35.92-28.58l-.52-.33h0Zm-6.75,90.41c18.73-7.83,36.35-12.53,52.39-13.98,7.83,18.73,12.53,36.35,13.98,52.39-18.73,7.83-36.35,12.53-52.39,13.98-7.83-18.73-12.53-36.35-13.98-52.39h0Z"/>
    </g>
  </g>
</svg>