<?xml version="1.0" encoding="utf-8"?>
<!-- Generator: Adobe Illustrator 27.1.1, SVG Export Plug-In . SVG Version: 6.00 Build 0)  -->
<svg version="1.1" id="Layer_2_00000059283679811475862450000012194045590498658493_"
	 xmlns="http://www.w3.org/2000/svg" xmlns:xlink="http://www.w3.org/1999/xlink" x="0px" y="0px" viewBox="0 0 336.6 84.4"
	 style="enable-background:new 0 0 336.6 84.4;" xml:space="preserve">
<style type="text/css">
	.st0{fill:#FFFFFF;}
</style>
<g>
	<path class="st0" d="M72,31l1.7-10.9H59.3l1.3-8.2H76l0.1-0.8l10.5,39.2h11.6l25.6-48.3l-7.6,48.3h28.8l1.7-11.1h-15.5l1.3-8.3
		h14.4l1.7-10.9h-14.4l1.3-8.2h15.5L153,0.4h-28.2h-0.6h-14.3L96.6,28.9c-0.3,0.6-0.6,1.4-1,2.4c-0.4,1-0.8,2.1-1.2,3.4
		c-0.1-1.2-0.2-2.3-0.3-3.2c-0.1-0.9-0.3-1.7-0.4-2.5L87.5,0.4h-9.7h-4.6H49l-7.9,49.9L29.1,30.7c4.3-0.7,7.7-2.5,10.2-5.2
		C41.7,22.6,43,19.2,43,15c0-3-0.6-5.6-1.9-7.7s-3.2-3.8-5.7-5c-1.4-0.7-3.1-1.2-5.1-1.5c-2-0.3-4.9-0.4-9-0.4H7.9L0,50.4h13.3
		l3-19.1L26,50.4h15.1h0.1h28.7l1.7-11.1H56.2l1.3-8.3H72z M27.9,21.4c-1.4,1.2-3.4,1.8-6.1,1.8h-4.2l2.1-13.2h2
		c2.9,0,5,0.5,6.4,1.5c1.3,1,2,2.5,2,4.7C30,18.5,29.3,20.2,27.9,21.4z"/>
	<path class="st0" d="M300,0.4h-3.2h-10.2L282.8,25c-0.2,1.6-0.4,2.9-0.5,4s-0.2,2.1-0.2,3v1.3c-0.5-2-1.3-4.4-2.4-7.1
		c-0.2-0.5-0.4-0.9-0.4-1.1L268.7,0.4h-15.3l-6.8,43.2l-9.2-43.2h-16.7l-25,50l7.9-50h-13.4L186.3,25c-0.2,1.6-0.4,2.9-0.5,4
		s-0.2,2.1-0.2,3v1.3c-0.5-2-1.3-4.4-2.4-7.1c-0.2-0.5-0.4-0.9-0.4-1.1L172.3,0.4H157l-7.9,50h13.4l3.8-25.3c0.2-1.7,0.3-3,0.4-4
		c0.1-1,0.1-2,0.1-2.9v-1.4c0.3,1.2,0.7,2.4,1.1,3.6c0.4,1.2,1,2.7,1.9,4.6L181,50.4h14.7h0h14.5L215,41h17.5l2,9.4h11.1h2.5h10.8
		l3.8-25.3c0.2-1.7,0.3-3,0.4-4c0.1-1,0.1-2,0.1-2.9v-1.4c0.3,1.2,0.7,2.4,1.1,3.6c0.4,1.2,1,2.7,1.9,4.6l11.2,25.5h14.7l6.1-38.4
		h12.3l-6.1,38.4h13.4l6.1-38.4h10.7l1.9-11.6H300z M220,29.9l5.3-11.5c0.2-0.5,0.5-1.3,0.9-2.3c0.4-1,0.8-2.2,1.3-3.6
		c0,0.8,0.1,1.7,0.2,2.6c0.1,0.9,0.3,1.9,0.5,3.1l2.3,11.7H220z"/>
	<path class="st0" d="M113.1,69.5l1.1-3.7c0.1-0.5,0-0.7-0.5-0.7H83.3l2.2-7.8h30.9c0.5,0,0.8-0.3,0.9-0.7l1.1-3.7
		c0.1-0.5,0-0.7-0.5-0.7H82c-0.5,0-0.7,0.2-0.9,0.7l-8.8,30.8c-0.1,0.5,0,0.7,0.5,0.7h4.4c0.5,0,0.7-0.2,0.9-0.7l3.9-13.5h30.4
		C112.7,70.3,113,70,113.1,69.5z"/>
	<path class="st0" d="M152.5,52H128c-5.7,0-9.2,3-10.8,8.3l-4.6,15.9c-1.5,5.3,0.4,8.3,6.1,8.3h24.5c5.7,0,9.2-3,10.8-8.3l4.6-15.9
		C160.2,55,158.2,52,152.5,52z M152.7,60.8l-4.3,15c-0.7,2.7-2.5,3.7-5.1,3.7h-21.9c-2.6,0-3.7-1-2.9-3.7l4.3-15
		c0.8-2.7,2.5-3.7,5.1-3.7h21.9C152.4,57.1,153.5,58.2,152.7,60.8z"/>
	<path class="st0" d="M197.6,67.4l1.9-6.9c1.5-5.3-0.2-8.3-5.9-8.3h-29.7c-0.5,0-0.7,0.2-0.9,0.7l-8.8,30.8c-0.1,0.5,0,0.7,0.5,0.7
		h4.4c0.5,0,0.8-0.2,0.9-0.7l2.3-8h22l3.1,8c0.2,0.5,0.4,0.7,0.9,0.7h4c0.7,0,1.3-0.5,1.1-1.1l-3.1-8.1
		C194,74.4,196.4,71.6,197.6,67.4z M193.6,61l-1.7,5.9c-0.8,2.7-2.3,3.7-4.8,3.7h-23.4l3.8-13.3h23.4
		C193.6,57.3,194.4,58.3,193.6,61z"/>
	<path class="st0" d="M252,52.2h-7.2c-0.5,0-0.7,0.2-1.2,0.7l-22.4,25h-0.6l-8.2-25c-0.1-0.5-0.3-0.7-0.8-0.7h-6.3
		c-0.5,0-0.7,0.2-0.9,0.7l-8.8,30.8c-0.1,0.5,0,0.7,0.5,0.7h4.4c0.5,0,0.8-0.2,0.9-0.7l6.9-24h0.5l7.9,24c0.1,0.5,0.3,0.7,0.8,0.7h4
		c0.5,0,0.8-0.2,1.2-0.7l21.5-24h0.5l-6.9,24c-0.1,0.5,0,0.7,0.5,0.7h4.4c0.5,0,0.8-0.2,0.9-0.7l8.8-30.8
		C252.6,52.5,252.4,52.2,252,52.2z"/>
	<path class="st0" d="M280.6,53c-0.2-0.5-0.3-0.7-0.8-0.7H275c-0.5,0-0.8,0.3-1.2,0.7l-28.6,30.6c-0.5,0.6-0.3,0.9,0.2,0.9h5.4
		c0.5,0,0.8-0.3,1.3-0.8l4.4-4.7h27.1l1.7,4.7c0.2,0.5,0.3,0.8,0.8,0.8h4.9c0.5,0,0.8-0.3,0.6-0.9L280.6,53z M261.1,73.9l14.5-15.6
		h0.6l5.7,15.6H261.1z"/>
	<path class="st0" d="M331.3,79.3h-31.1l7.5-26.4c0.1-0.5,0-0.7-0.5-0.7h-4.4c-0.5,0-0.7,0.2-0.9,0.7l-8.8,30.8
		c-0.1,0.5,0,0.7,0.5,0.7h36.2c0.5,0,0.8-0.2,0.9-0.7l1.1-3.7C331.9,79.6,331.7,79.3,331.3,79.3z"/>
</g>
</svg>
