<?xml version="1.0" encoding="utf-8"?>
<!-- Generator: Adobe Illustrator 27.1.1, SVG Export Plug-In . SVG Version: 6.00 Build 0)  -->
<svg version="1.1" id="Layer_1" xmlns="http://www.w3.org/2000/svg" xmlns:xlink="http://www.w3.org/1999/xlink" x="0px" y="0px"
	 viewBox="0 0 512 463.2" style="enable-background:new 0 0 512 463.2;" xml:space="preserve">
<style type="text/css">
	.st0{fill:#070707;stroke:#B70D0D;stroke-width:0.448;stroke-miterlimit:10;}
	.st1{fill:#B70D0D;}
</style>
<g id="Revenant_00000061439929771313460510000007062967626004253344_">
	<path id="Background" d="M405.6,226.4c0.4-0.1,0.9-0.3,1.4-0.4c1.1-0.2,2-0.9,2.5-1.8l27.6-45.4L512.4,22l-91.3,79.7l1.6-33.2
		L442.6,0l-52.3,58.6L371.9,6l3.7,61l-18.1-27.6l18.4,58.5l-10.3-11.6l9.7,36.8c1,3.6,1.2,7.3,0.5,10.9l-0.4,3
		c-0.8,5-4.2,9.3-9,11.2l-3.3,1.3c-5.7,2.3-12.5-1.1-13.5-7.3c0-0.3-0.1-0.5-0.1-0.8c-0.3-3,1.2-6,3.7-7.6l3.5-2.2l-3.7-7.2
		l-42.6,16.9c0.2-2.7,1.3-5.1,3-7.1c1.7-1.9,3.9-3.3,6.5-3.9c6.2-1.4,10.4-6.9,10.2-13.2L329.4,95c0-1,0.3-2.1,0.9-2.9
		c0.5-0.9,1.3-1.5,2.2-2V59.9l-7.8,5.7l1.4-13.5l-35,21.1c-0.8,0.5-1.3,1.4-1.3,2.4l-15.3,6.8c-1.3,0.5-2.2,1.7-2.3,3
		c-0.8,5.1-3.1,17.5-5.6,25.5c-0.4,1.3-1,2.5-1.8,3.5c-0.8,1.1-1.8,1.9-3,2.6c-1.7,1-3.6,1.5-5.5,1.5s-3.8-0.5-5.5-1.5
		c-2.2-1.3-3.9-3.6-4.7-6.1c-1.3-4-2.4-9.1-3.5-13.9c-1-4.7-1.8-9.1-2.2-11.6c-0.2-1.3-1.1-2.5-2.3-3l-15.3-6.8c0-1-0.5-1.9-1.3-2.4
		l-35-21l1.4,13.3l-7.8-5.7v30.5c1.9,0.8,3.1,2.8,3,4.8l-0.7,22.2c0,0.1,0,0.3,0,0.4c0,6.1,4.2,11.4,10.2,12.8
		c2.6,0.5,4.8,2,6.5,3.9s2.8,4.4,3,7l-42.6-16.9l-3.7,7.2l3.5,2.2c2.4,1.5,3.7,4.1,3.7,6.8c0,0.3,0,0.5,0,0.7c0,0.3,0,0.5-0.1,0.8
		c-1.1,6.2-7.7,9.6-13.5,7.3l-3.3-1.3c-4.7-1.9-8.2-6.2-9-11.2l-0.5-3c-0.5-3.6-0.4-7.3,0.5-10.9l9.8-36.7L136.6,98L155,39.5
		L136.6,67l3.7-61l-18.5,52.5L69.8,0l20,68.5l1.6,33.2L0,22l75,156.3l27.8,45.8c0.5,0.9,1.4,1.5,2.5,1.8c0.4,0.1,0.8,0.2,1.2,0.3
		c0,5.9,0.4,11.1,1.3,14.5c3.5,12.9,11.5,28.3,11.5,28.3s0,0.9-2.9,4c-2.2,2.6-8.1,7.6-11.7,10.8c-2.1,1.8-3.5,4.1-4.1,6.7l-2.1,1
		c-2.2,1.1-4,2.4-5.6,4.1l-5.5,5.7l-4.2,1.3c0,0-9.5,18.1,3.6,54.9c15.2,39.1,26.7,39.1,36.7,38.9c8.3-0.2,14.1-3.8,14.1-3.8
		l5.6,5.2c3.9,2.7,10,5,14.8,5.4c9.2,0.8,23.8-0.4,28.9-10.5c0,0,0.8-1.3,1.1-2.7c1-4.4,4.1-7.2,8.2-9l-0.2,9.1l25.6-4.2l0.2,10.3
		c0,3.7-1,7.3-2.6,10.7c-0.8,1.6-1.4,3.9-1.5,7.2c-0.1,4.7,3.3,15.9,6.2,24.2c1.2,3.4,2.2,6.4,2.9,8.2c0.4,1.3,1.8,2.2,3.2,2.2
		c2.3,0,4.6,1.2,5.7,3.2c2.5,4.1,9.3,10.9,20.6,11.2c11.3-0.2,18.2-7,20.6-11.2c1.2-2,3.4-3.2,5.7-3.2c1.4,0,2.8-0.9,3.2-2.2
		c0.6-2,1.7-4.8,2.9-8.2c2.9-8.3,6.3-19.4,6.2-24.2c-0.1-3.2-0.7-5.6-1.5-7.2c-1.6-3.3-2.7-7-2.7-10.7l0.2-10.3l25.6,4.2l-0.2-9.1
		c4.1,1.8,7.3,4.6,8.2,9c0.3,1.3,1.1,2.7,1.1,2.7c5,10,19.7,11.2,28.9,10.5c4.7-0.4,10.8-2.8,14.8-5.4l5.6-5.2c0,0,5.7,3.6,14.1,3.8
		c9.9,0.2,21.5,0.2,36.7-38.9c13.1-36.8,3.5-54.9,3.4-54.9l-4.1-1.3l-5.5-5.7c-1.6-1.7-3.5-3.1-5.6-4.1l-2.1-1
		c-0.6-2.6-2.1-4.9-4.1-6.7c-3.6-3.1-9.4-8.2-11.7-10.8c-2.8-3-2.9-3.9-2.9-4c0,0,8-15.4,11.5-28.3
		C405.1,237.3,405.6,232.2,405.6,226.4z"/>
	<g id="Mask">
		<path class="st0" d="M235.5,251.6c0,0.1-2.2,12.5-5.5,18.4c-3.3,5.6-14,10.5-14.2,10.6l-5.1-4.2c-0.8-0.7-1.4-1.7-1.7-2.8
			c-0.8-3.6-1.6-12.3,5.6-19.6c7.5-7.8,15.1-5.8,17.7-4.7c0.5,0.2,1.1,0.5,1.5,1L235.5,251.6L235.5,251.6z"/>
		<path class="st0" d="M231.1,271.3l6.3,4.4c-3.6,6.1-14.6,11.6-15.3,10.5l-5.3-4.6C218.5,280.8,227.3,276.4,231.1,271.3
			L231.1,271.3z"/>
		<path class="st0" d="M238.3,274.2l-6.5-4.4c2.8-5.7,4.7-15.7,5-17.7l6,4.5C243.2,258.1,243.1,269.8,238.3,274.2L238.3,274.2z"/>
		<path class="st0" d="M282.5,326.3h-15.2l-3.2,8.6l-1.2-6.6l-0.7-0.4c-1-0.4-1.6-1.4-1.6-2.5v-2.5l6.7,0.4c0,0,6.2,0.2,5.2-5.6
			c0,0-1-0.4-2.2,0.3c-1,0.5-2.1,0.9-3.2,0.9H260v-4.6c0-1,0.5-1.9,1.4-2.2c1.3-0.5,2.9-1.9,2.9-4.8h-6l5.3-5.3H258
			c-1.1,0-2-0.9-2-2c0,1.1-0.9,2-2,2h-5.6l5.3,5.3h-6c0,3,1.6,4.3,2.9,4.8c0.9,0.4,1.4,1.3,1.4,2.2v4.6h-7.2c-1.2,0-2.2-0.4-3.2-0.9
			c-1.2-0.6-2.2-0.3-2.2-0.3c-1,5.8,5.2,5.6,5.2,5.6l6.8-0.4v2.6c0,1.1-0.6,2-1.5,2.5l-0.8,0.4L248,335l-3.2-8.6h-15.2
			c0,0-0.4-2.5,0.4-6.5l8.1,2.9l-6.1-9.2c0.9-2,2.1-4,3.6-6.2c2.5,3.8,5,5.6,5,5.6l9.3,3.3l-7.1-10.8c-1.2-0.8-2.2-1.8-3.2-2.9
			c4.8-5.2,9.8-8.7,12.9-10.7c2.2-1.3,4.8-1.3,7,0c3.1,2,8.1,5.5,12.9,10.7c-1,1.1-2.2,2.1-3.3,2.9l-7.1,10.8l9.3-3.3
			c0,0,2.5-1.8,5-5.6c1.5,2.2,2.7,4.2,3.6,6.1l-6.1,9.2l8.2-2.9C282.8,323.8,282.4,326.3,282.5,326.3L282.5,326.3z"/>
		<path class="st0" d="M270.6,349.9L256,364.5l-14.6-14.6l5.9-5.9v-2.5c0-0.9,0.7-1.7,1.7-1.7h4.7c0.6,0,1.2-0.5,1.2-1.2
			s-0.5-1.2-1.2-1.2h-1.3l0.4-4.1c0.1-1.3,0.9-2.5,2.1-3.1l1.1-0.6l1.1,0.6c1.2,0.6,2,1.9,2.1,3.1l0.4,4.1h-1.3
			c-0.6,0-1.2,0.5-1.2,1.2s0.5,1.2,1.2,1.2h4.8c0.9,0,1.7,0.8,1.7,1.7v2.5L270.6,349.9L270.6,349.9z"/>
		<path class="st0" d="M244.4,357h-2.8c-1.7,0-3.2,0.9-4.2,2.2l-1.4,2.2l3,3c0.7,0.7,1.8,1.2,2.8,1.2h11.6l-6.8-7.6
			C246,357.4,245.2,357,244.4,357z"/>
		<path class="st0" d="M199.8,377.1l14-6.7v3.1c0,1.3,1.1,2.3,2.3,2.3l0,0c1.2,0,2.2-0.8,2.3-1.9l1.3-6.4c0.3-1.1,1.3-1.9,2.3-1.9
			h3.8v14.7c0,1.2-0.9,2.2-2.1,2.3l-25.4,3.8v-7.2C198.4,378.4,198.9,377.6,199.8,377.1L199.8,377.1z"/>
		<path class="st0" d="M159.3,359.6v8.4c0,0,13.9,7.3,19.2,14.6c4.3,6.1,2.2,13.3,2.2,13.3s6.2-4.7,6.5-13.3
			c0.3-8.6-9.1-15.7-9.1-15.7S171.5,361.1,159.3,359.6L159.3,359.6z"/>
		<path class="st0" d="M159.3,370.2l-1.2,6.2c0,0,19.4,11.3,5.3,23.2c0,0,15.9,1.3,15.9-7.4c-0.4-5.7-1.5-7.2-2.8-9.5
			C175.3,380.3,169.3,374.2,159.3,370.2L159.3,370.2z"/>
		<path class="st0" d="M156.7,382.8c0,0,7,3.3,6,7.9s-3,4.3-3,4.3s-3.6,2-7.6-6.1l-2.7,1.3c0,0,3.9,5,6.3,6.5c0,0-3.3,0.1-8.6-5.8
			H140c0,0,8,6.7,10.8,7.7s5.2,1.1,7.9,1s5.9-1.3,7.3-4c1.4-2.8,1.4-5,1.4-5s-0.4-8.7-9.5-12.5L156.7,382.8L156.7,382.8z"/>
		<path class="st0" d="M124.3,341.6c0,0,11.6-4.3,15.2-7.2c5.4,19.5,6.9,38.4,1.9,54.7c-5.6,2-11.1,1.3-16.2-2.7
			C130,377.3,129.2,353.8,124.3,341.6L124.3,341.6z"/>
		<path class="st0" d="M99.5,302.2c13.7,9.6,18.9,23.2,24,37.5c0,0,11.6-3.7,15.4-7.3c0,0-4.4-19.4-26.3-40.5
			C112.6,291.9,100.9,289.3,99.5,302.2L99.5,302.2z"/>
		<path class="st0" d="M98.4,296.2l-0.8,5.9l-4.6-0.2C93,301.9,93.2,297.5,98.4,296.2L98.4,296.2z"/>
		<path class="st0" d="M97,303.7c0,0-2.8,5.2-3.1,9.7c0,0-3.3-5.1-6-6.4C87.8,307,88.9,301.7,97,303.7z"/>
		<path class="st0" d="M87.4,308.3c0,0,4.3,3.9,4.9,6c0,0-8.3,14.6,0.5,39.6c0,0,4.2,11.7,13.3,25.2l1.6,2.2c-0.4,1.2-1.3,2-2.6,2.5
			c0,0-1.1,0-5-6.9s-7.3-14.2-7.3-14.2S85,345.9,84,331.5s0.4-17.7,0.4-17.7S85.2,310.3,87.4,308.3L87.4,308.3z"/>
		<path class="st0" d="M105.9,384.7c0,0,3.6,4.9,9.1,6.5c3.5,1.3,5.8-0.1,7-1.2c0.7-0.5,1.1-1.4,1.1-2.3v-1.4
			c-0.3,0.1-4.4-2.1-9.8-1.8c-5.4,0.3-5.3-2.1-5.3-2.1C107.7,383.7,106.7,384.1,105.9,384.7L105.9,384.7z"/>
		<path class="st0" d="M118.5,377.7c0,0,0,4.7-1.9,5.8c2.3,0.3,4.7,0.6,7.1,1.4c1.2-1.9,2.1-4.6,2.3-7.2
			C123.5,378.4,121,378.5,118.5,377.7z"/>
		<path class="st0" d="M117.9,355.5c0.2-0.4,2.1,13.9,0.8,20.8c2.4,0.7,4.9,0.7,7.5,0c0.9-5.6,0.3-12.5-0.5-19.3
			C121.5,358.1,119.5,356.9,117.9,355.5L117.9,355.5z"/>
		<path class="st0" d="M121,339.8c0,0-5.9,1.6-4.2,9.4c1.6,7.8,8.7,6.3,8.7,6.3C124.7,349.5,123.3,344.1,121,339.8L121,339.8z"/>
		<path class="st0" d="M106.9,311.8c0,0,11,13.5,13.3,26.3c0,0-5.1,3-5.2,7.9c0,0-4.8-14.2-8.1-19.8c0,0,3.2-3.7-0.6-10.4
			C103.5,311.1,106.9,311.8,106.9,311.8z"/>
		<path class="st0" d="M99.5,304.3l6.7,6.3c0,0-3.4,0.3-1.8,3.6c1.6,3.3,4.1,7.9,2.2,11.3c0,0-5.2-8.3-10.4-11.6
			c-0.5-0.4-0.8-1-0.6-1.6C95.9,310.2,97.2,306,99.5,304.3L99.5,304.3z"/>
		<path class="st0" d="M94.2,314.8c0,0-1.1,12,11.7,11.4C105.9,326.2,99.5,318.6,94.2,314.8z"/>
		<path class="st0" d="M93,315.4c0,0-6.5,12.7-0.7,32.3c0,0-1.7-9.6,4.6-11.3c0,0,5.4-1.4,8.7,14.7c2.9,14-2.1,14.4-2.5,14.5
			s-3.2,1.3-4.3-0.6c0,0,7.2,14.2,11.4,17.7c0,0,5.3,2.8,6.9-2.7c0.9-6.3,0.8-13.9-0.6-22.8c-1.4-6.4-2.1-8.4-4.6-14.5
			s-6-14.9-6-14.9s-9.1,0.6-11.6-5.1C92.6,318.1,93,315.4,93,315.4L93,315.4z"/>
		<path class="st0" d="M114.8,190.3l-1.7-0.6v3.8c1.2,4,18.6,39.9,29.7,71.1l3.6,0.8v-4.9L114.8,190.3L114.8,190.3z"/>
		<path class="st0" d="M111.6,194.4c0,0-0.2,7.9,4.8,18.9c0,0,14.4,36.4,16.3,42.1c1.9,5.6,2.5,15.2,2.5,15.2l5.2,5.2
			c0,0,1.3-8-1.4-16.1s-26-64.1-26-64.1L111.6,194.4L111.6,194.4z"/>
		<path class="st0" d="M117.7,220.5l-2.6-1.5c0,0,0.7,7.1,3.4,15.2c2.7,8.2,6.9,21.9,6.9,21.9s3.2,7.3,3.2,12.8l5,1.1
			c0,0-0.1-8.3-1.9-13.3C130,251.8,117.7,220.6,117.7,220.5L117.7,220.5z"/>
		<path class="st0" d="M116.2,235.5l-1.4,1.6c-0.4,0.5-0.7,1.3-0.7,2l0.4,11.2c0,0,4.4-1.5,4.3-7.4
			C118.8,237.1,116.2,235.5,116.2,235.5z"/>
		<path class="st0" d="M118.8,247.1c-0.1-0.4,0,11.7,0,11.7s3.2,1.2,3.2,5l0.4-1.8c0.4-1.6,0.6-3.1,0.6-4.8v-3.3
			C123.1,253.9,119.8,250.9,118.8,247.1L118.8,247.1z"/>
		<path class="st0" d="M103.9,287.7c0,0,0.7-1,1.6-2.1s2.6-0.9,3.2,0.3c0.1,0.2,0.2,0.4,0.2,0.6L103.9,287.7L103.9,287.7z"/>
		<path class="st0" d="M117.1,280.1L117.1,280.1c1,0,2,0.5,2.4,1.4l0.7,1.4H114l0.7-1.4C115.2,280.6,116.1,280.1,117.1,280.1
			L117.1,280.1z"/>
		<path class="st0" d="M155.3,382.9c-2.2,7.9-12.1,6-12.1,6c5.1-17,3.8-32.5-2.6-56.6c-6.4-24.1-27.4-41.8-27.4-41.8l0,0
			c0.4-6.2,5.8-6.1,5.8-6.1c3.6,0.2,6.5,1.8,6.5,1.8C152.6,309.6,162.8,352.5,155.3,382.9z"/>
		<path class="st0" d="M159.3,357c0,0,0.1-9.2-3.1-22l5.8,3.5v-3l-7.3-6.2c-2.9-9.3-7.3-19.9-14.7-30.2c0,0-8-10.4-21.2-21.1
			l-0.1-2.2l6.8-1.8l2.1-2.8l5.9,0.4c0,0,7.2,6.6,8.7,10.4l-1.4,8.6l4,8.6h8.2l0.8,2.3l-4.6,4.9c-0.5,0.6-0.7,1.4-0.4,2.2l4.3,8.8
			c0.4,0.6,1,1.1,1.8,1.1h4.9c0.6,0,1.3,0.4,1.4,1c1.3,3.4,5.6,14.7,7.2,21.1c0,0-5.4-0.4-4.2,4.2c1.3,4.5,5.3,3,5.6,2.9l0,0
			c1,6.6,1.3,13.6,1.3,13.6S164.5,357.9,159.3,357L159.3,357z"/>
		<path class="st0" d="M169.8,347c-0.2,0.1-3.7,1.3-4.7-2.4c-1.1-3.8,3.5-3.4,3.5-3.4c0.1,0.3,0.2,0.5,0.2,0.8
			C169.3,343.5,169.6,345.2,169.8,347L169.8,347z"/>
		<path class="st0" d="M161.7,335.8v1.9l-5.6-3.5c-0.4-1.3-0.7-2.7-1.2-4.1L161.7,335.8L161.7,335.8z"/>
		<path class="st0" d="M163.3,316.9l-0.9,0.4c-0.7,0.4-1.5,0.4-2.3,0.4l-3.9-0.1c-0.8,0-1.5-0.4-1.9-1.2l-3.8-8
			c-0.4-0.8-0.2-1.7,0.4-2.2l3-3.2L163.3,316.9L163.3,316.9z"/>
		<path class="st0" d="M175.4,312.6h-4.5l-6.2,2.8c-0.4,0.2-1,0-1.3-0.4l-8-11.8c-0.2-0.4-0.2-0.7,0.1-1.1l2.5-3l3,5.8
			c0,0,1.7,0,2.8-0.5c0.5-0.3,1.1-0.6,1.3-1.4C165,303,174.8,300.7,175.4,312.6L175.4,312.6z"/>
		<path class="st0" d="M226.3,329.2c-22-3-28.7,19.3-28.7,19.3l-1.8-3c0,0,7.7-10.5,6.8-14.2s-6.5-12.3-6.5-12.3
			c-5.2-0.8-10.3-9.1-10.3-9.1l-0.7-8.2l-5.8-8.6l0,0c0.6-1.1,1.6-2.2,3-3.2l22.5,33.2l-20.6-34.3c0.2-0.1,0.4-0.2,0.5-0.3
			c2.6-1.3,5.1-0.8,7.3,0.3l21.4,36h9.6L226.3,329.2L226.3,329.2z"/>
		<path class="st0" d="M218.7,348c-8.9,4.9-14.4,3.6-17.2,1.9c-1-0.5-1.3-1.9-0.8-3c0.4-0.9,0.9-1.8,1.3-2.7
			c6.8-12.1,15.9-14.1,21.3-14.1c1.2,0,2.2,0.1,2.9,0.2c0.9,0.1,1.7,0.9,1.8,1.9C228.4,336.3,227.7,343,218.7,348L218.7,348z"/>
		<path class="st0" d="M223.6,323.5H214l-21.4-36c3.5,1.8,5.8,5.1,5.8,5.1l3.8,0.6c1.5,0.3,2.8,1.1,3.6,2.4L223.6,323.5L223.6,323.5
			z"/>
		<path class="st0" d="M177.4,312.8c4.3-5.7,1-12.1,0.2-13.7c-0.2-0.4-0.3-0.7-0.2-1.1c0.1-0.8,0.4-2,1.1-3.3l5.5,8.2l0.6,7.9
			c0,0,4.7,8,9.7,8.8c0,0,5.3,8.2,6,11.7s-5.6,11.9-5.6,11.9L177.4,312.8z"/>
		<path class="st0" d="M164.7,301.5c-0.2,0.8-0.4,1.6-0.9,1.9c-1.6,0.9-2.7,0.6-2.7,0.6l-2.7-5.5l0,0l1.1-1.6c0,0,2.5-3.4,5.3-0.3
			C164.9,296.6,165.2,299.5,164.7,301.5L164.7,301.5z"/>
		<path class="st0" d="M176.4,310.8c-0.5-10-10.8-9-10.8-9c0.6-1.7,0.4-4.3,0.4-4.3l8.6-0.1c0.6,0,1.3,0.4,1.5,1
			C177.1,300.6,179,306.1,176.4,310.8L176.4,310.8z"/>
		<path class="st0" d="M203.9,292.1l-5.2-1.3c0,0-2.5-4.1-6.4-4.8c-3.9-0.7-7,1-7,1s6.5-3.1,4.5-12.7L203.9,292.1L203.9,292.1z"/>
		<path class="st0" d="M186.9,269.9l-7-8.8c-1.7-1.4-3.5-1.4-5.5,0c0,0-1.6,1.3,5,8.5c0.9,4.1,3.6,4.5,3.6,4.5s2.2-2.9,3.8-2.2
			L186.9,269.9L186.9,269.9z"/>
		<path class="st0" d="M174.4,265.5c0.2,0,2.2,3,4.1,5v2.4c0,0.8-0.7,1.4-1.5,1.3l-1.1-0.1c-0.4,0-0.6-0.2-0.8-0.4l-1.9-2.7
			c-0.4-0.6-0.5-1.5-0.2-2.2L174.4,265.5L174.4,265.5z"/>
		<path class="st0" d="M180.7,274.1c0,0,0.7,6-5.3,11.1L163.3,273c0,0-4.4-0.6-5.6,4.7l17.7,18.1c0,0,2.5-6.5,7.2-8.3
			s5.9-7.8,5.9-7.8s0.5-3.1,0-5.3c0,0-3.2-1.3-4.4,1.3C184.1,275.8,181.9,276.9,180.7,274.1L180.7,274.1z"/>
		<path class="st0" d="M156.1,260.7c0,0-1.2,7.9,0.5,13.4c0,0,5.8-0.6,7.1-5.1C163.7,269,163.5,263.7,156.1,260.7L156.1,260.7z"/>
		<path class="st0" d="M143.6,245c0,0,8.2,11.3,11,15.1c0,0-2.2,4.7,0,11.9L143.6,245L143.6,245z"/>
		<path class="st0" d="M148.2,265.5l-0.7,4.4l-4.7-2.8c0,0,0.7,7.8-0.5,10.3l1.7,3.8l-1.3,9l3,7.5h6.6l-1.3-3.8c0,0,3.3-4,6.6-0.4
			l1.3,2.1c0,0,3.9-3.4,6.7,0l7.6,0.5l-12.7-12.3c-2.4-2.3-4.5-5-6.2-7.9L148.2,265.5L148.2,265.5z"/>
		<path class="st0" d="M183.9,326.8l-6.7-11.6c0,0-2.3-1.8-5.8-0.9s-9,4.4-9,4.4s2.2,5.9,3,9C165.3,327.7,175.7,321.8,183.9,326.8
			L183.9,326.8z"/>
		<path class="st0" d="M167.4,333.4c0,0,2.8,6,3.6,12.1c0,0,3-4.4,7.6-3v-3.9c0,0-3.3-3.2-6.4-5.6
			C172.2,333,171.3,331.3,167.4,333.4z"/>
		<path class="st0" d="M171.3,347.1c0,0,1.4,9.9,1.2,14.5c0,0,9.4,3.8,13.4,11.6c0,0-1.4-9.8,2.1-13.5c3.5-3.9,12.1-1.5,12.1-1.5
			s3.1,0.4,3-5.3l-4.6-3.6l-3,2.2c0,0-8.4-3.7-12.4,6.3l-2.6,1.1l-0.4-12.2C180,346.6,177.6,342.7,171.3,347.1L171.3,347.1z"/>
		<path class="st0" d="M190.9,339.2c-3.2,1.6-4.9,4.1-4.7,7.6l3.8,2.8c0-0.8,4-1.7,5.1,0.9l1.9-1.4L190.9,339.2L190.9,339.2z"/>
		<path class="st0" d="M183.9,327.7l6.4,11.2c0,0-1.7,0.4-2.7,1.9l-9-15C178.6,325.9,181.2,326.1,183.9,327.7L183.9,327.7z"/>
		<path class="st0" d="M187.1,375.4c0,0,2.1,3.6,1.3,5.9l8.4-4c0.9-0.4,1.3-1.3,1.3-2.2s0-2.3,1-3.5L187.1,375.4L187.1,375.4z"/>
		<path class="st0" d="M208.1,353.5v17.2l3.9-2.1v-16.1C212,352.5,210.9,353.5,208.1,353.5z"/>
		<path class="st0" d="M213.1,352.5c0,0,2.4-1.1,3.3-2v17.2h-3.3V352.5L213.1,352.5z"/>
		<path class="st0" d="M217.5,350v9.9h2.7v-4.4c0,0,0-4.1,3.2-4.1s3,4.3,3,4.3v6.7c0,0,0.2,1.8,2.5,1.8h7.7l-2.7-2.7
			c0,0,1.4-5.8,5.5-6s4.7-0.1,4.7-0.1l-7-5.6l7-5.7c0,0-5.8,0.5-9.4-3.9s-4.9-6.6-4.9-6.6S229.9,346.6,217.5,350L217.5,350z"/>
		<path class="st0" d="M283.5,365.6v15.9c0,1-0.8,1.8-1.8,1.8h-2.2c0,0-3.8-6.8-8.2-6.7s-15.2-0.1-15.2-0.1s-10.7,0.2-15.2,0.1
			s-8.2,6.7-8.2,6.7h-2.2c-1,0-1.8-0.8-1.8-1.8v-15.9h8.5c1.4,0.3,2.5,1.6,2.5,3v1.5c0,1.2,0.9,2.1,2.1,2.1h28.9
			c1.2,0,2.1-0.9,2.1-2.1v-1.5c0-1.5,1.1-2.8,2.5-3H283.5z"/>
		<path class="st0" d="M270.6,366.6v2c0,1.2-0.9,2.1-2.1,2.1h-25.2c-1.2,0-2.1-0.9-2.1-2.1v-2H270.6z"/>
		<path class="st0" d="M226.3,386.5c0,0-1.1,4.4,3.1,7.2c0.1,0,0.1,0.1,0.1,0.2v5.3c0,1.3-0.4,2.4-1.1,3.4
			c-1.2,1.7-2.8,5.6-2.9,13.5c0,0.1,0.1,0.3,0.2,0.3l0,0c1.4,0.3,2.5,1.4,2.5,3v4c0,1.1-0.9,2-2,2h-4.4c-0.1,0-0.2-0.1-0.3-0.2
			c-0.4-1.3-3.1-10.8-1.7-15.4c0.8-2.5,1.9-4.1,2.9-5.1c1-1.2,1.6-2.6,1.6-4.1v-14L226.3,386.5L226.3,386.5z"/>
		<path class="st0" d="M283.5,386.5v4h-4.7c-1.8-7.9-9.8-6.6-12.5-6c-0.7,0.2-1.4,0.2-2.2,0.1l-8.1-1.3l-8.1,1.3
			c-0.7,0.1-1.4,0.1-2.2-0.1c-2.8-0.7-10.8-1.9-12.6,6h-4.7v-4c0-0.9,0.7-1.6,1.6-1.6h3.1c0,0,4.7-6.4,8.2-6.4h29.2
			c3.5,0,8.2,6.4,8.2,6.4h3.1C282.8,384.8,283.5,385.6,283.5,386.5L283.5,386.5z"/>
		<path class="st0" d="M235.1,390.9c0,0,1.3-6,11.7-4.5l3.6,4V404l-6.6,4.8c-1.4,1.1-3.4,1.2-4.9,0.2l0,0c-2.3-1.4-3.7-3.9-3.7-6.6
			L235.1,390.9L235.1,390.9z"/>
		<path class="st0" d="M231.4,401.7c0,0-4,6.4-3.9,12.9l0,0c1.2,0.4,2,1.5,2,2.8v7.6c0,1.3-1.1,2.3-2.3,2.3h-4.9l5.9,17.5
			c0.4,1.2,1.4,2,2.7,2h3.4c0,0-3.4-13,0.8-22.9c5.9-14,20.9-13.4,20.9-13.4l-4-6c0,0-5.4,7.9-13.3,7.4
			C232.6,411.1,231.4,401.7,231.4,401.7L231.4,401.7z"/>
		<path class="st0" d="M234.3,394.7v7l-1.9-0.6c-1-0.4-1.6-1.3-1.6-2.2v-6.6l2.2,0.8C233.8,393.2,234.3,393.9,234.3,394.7
			L234.3,394.7z"/>
		<path class="st0" d="M256,384.5l-4.1,5.8c-0.1,0.1-0.1,0.3-0.1,0.4V401c0,0.2,0,0.3,0.1,0.4l3.5,5.3c0.3,0.4,0.9,0.4,1.2,0
			l3.5-5.3c0.1-0.1,0.1-0.3,0.1-0.4v-10.3c0-0.2,0-0.3-0.1-0.4L256,384.5z"/>
		<path class="st0" d="M248.7,386.3l1.7,2.1c0.3,0.4,0.8,0.4,1.1,0l3-3.8L248.7,386.3z"/>
		<path class="st0" d="M256,411.2L256,411.2c-0.8,0.1-25,3.4-21.1,30.2c0,0,0.6,15.1,21.1,19.9l0,0c20.5-4.8,21.1-19.9,21.1-19.9
			C280.9,414.6,256.7,411.3,256,411.2z M256,459.3L256,459.3c-13.6-1.6-13.5-12.6-13.5-13.6c0-0.9,0-11.6,13.5-13.4l0,0
			c13.5,1.8,13.5,12.5,13.5,13.4C269.5,446.6,269.5,457.7,256,459.3z M270.2,450.5c0.3-0.8,5.5-18.2-14.2-19.9l0,0
			c-19.6,1.7-14.4,19.1-14.2,19.9c-0.4-0.6-6.4-9.3-1.8-18.3c4.7-9,15.5-8.2,16-8.1l0,0c0.5-0.1,11.4-1,16,8.1
			C276.5,441.3,270.6,449.9,270.2,450.5L270.2,450.5z"/>
		<path class="st0" d="M268.6,445.7c0-0.9,0-10.8-12.5-12.5l0,0c-12.5,1.6-12.5,11.6-12.5,12.5s0,11.1,12.5,12.5l0,0
			C268.6,456.8,268.6,446.5,268.6,445.7L268.6,445.7z M256,456L256,456c-5.6-0.4-5.6-5.4-5.6-6s-0.1-6.5,5.6-6.6l0,0
			c5.7,0.2,5.6,6.1,5.6,6.6S261.6,455.5,256,456z"/>
		<path class="st0" d="M304.8,270.6c0,0,0.5,3.9-1.3,5.9c-1.5,1.6-8.6,8-11.7,10.8c-0.9,0.8-2.2,1.1-3.3,0.6
			c-5.7-2.2-22.4-10.7-20.9-32.2l11.6-8.1c0,0-9-11.8-23-11.6c-14.2-0.3-23,11.6-23,11.6l11.6,8.1c1.6,21.5-15.1,29.9-20.9,32.2
			c-1.2,0.4-2.4,0.2-3.3-0.6c-3-2.8-10.2-9.1-11.7-10.8c-1.9-2.1-1.3-5.9-1.3-5.9c-5.6,6.3-12,8.1-12,8.1l10.8,13.7l20.8,33.9h1.7
			c-0.1-2.4,0.1-4.7,0.6-6.8l-0.3-0.1c0,0-11-7.9-9.9-25.5c0,0,3.9,12.2,12.1,18l0.4,0.5c1.3-2.9,2.5-4.6,2.5-4.6
			c0.4-0.5,0.7-1.1,1.1-1.6c-2.5-4.2-4.7-10.4-4.2-18.8c0,0,2.6,8.2,8.1,14.3c4.8-5.1,10.4-8.8,13.9-10.8c2.1-1.3,4.7-1.3,6.7,0
			c3.5,2,9,5.6,13.9,10.8c5.5-6.2,8-14.2,8-14.2c0.5,8.4-1.7,14.6-4.2,18.8c0.4,0.5,0.8,1.1,1.2,1.7c0,0,1.2,1.7,2.5,4.5l0.4-0.5
			c8.2-5.8,12.1-18,12.1-18c1.1,17.7-9.9,25.5-9.9,25.5l-0.2,0.1c0.4,2.2,0.7,4.5,0.6,6.8h1.6l20.8-33.9l10.8-13.7
			C316.8,278.6,310.3,276.9,304.8,270.6L304.8,270.6z M250.6,289.5c-2.8,1.2-7.7,6.3-7.7,6.3c3.2-16.3,5.8-53,5.8-53
			C251.6,265.4,250.6,289.5,250.6,289.5z M261.5,289.5c0,0-1.2-24.1,1.8-46.8c0,0,2.7,36.7,5.8,53
			C269.2,295.8,264.3,290.7,261.5,289.5z"/>
		<path class="st0" d="M228.4,328h14.3l4.2,9.7c0,0-1.8,0.6-1.8,3.9c0,0-4.2,1-7.5-1.8C234.4,336.9,228.4,328,228.4,328L228.4,328z"
			/>
		<path class="st0" d="M263.3,337.9h-2.8l-0.3-4.5c0,0-0.1-5.5-4.2-5.5s-4.2,5.5-4.2,5.5l-0.3,4.5h-2.8l1.8-8.8
			c2.6,0,2.8-3.6,2.8-6.5c0-3,0.9-12.2,0.9-12.2l1.8-7.8l1.9,7.8c0,0,0.9,9.3,0.9,12.2s0.2,6.5,2.8,6.5L263.3,337.9L263.3,337.9z"/>
		<path class="st0" d="M113.1,246.1c0,0-5.6-7.3-3-39.7l2.5,8.8L113.1,246.1z"/>
		<path class="st0" d="M267.6,357h2.8c1.7,0,3.2,0.9,4.2,2.2l1.4,2.2l-3,3c-0.7,0.7-1.8,1.2-2.8,1.2h-11.6l6.8-7.6
			C266.1,357.4,266.8,357,267.6,357z"/>
		<path class="st0" d="M312.4,377.1l-14-6.7v3.1c0,1.3-1.1,2.3-2.3,2.3l0,0c-1.2,0-2.2-0.8-2.3-1.9l-1.3-6.4
			c-0.3-1.1-1.3-1.9-2.3-1.9h-3.8v14.7c0,1.2,0.9,2.2,2.1,2.3l25.4,3.8v-7.2C313.7,378.4,313.2,377.6,312.4,377.1L312.4,377.1z"/>
		<path class="st0" d="M352.7,359.6v8.4c0,0-13.9,7.3-19.2,14.6c-4.3,6.1-2.2,13.3-2.2,13.3s-6.2-4.7-6.5-13.3
			c-0.3-8.6,9.1-15.7,9.1-15.7S340.4,361.1,352.7,359.6L352.7,359.6z"/>
		<path class="st0" d="M352.7,370.2l1.2,6.2c0,0-19.4,11.3-5.4,23.2c0,0-15.9,1.3-15.9-7.4c0.4-5.7,1.5-7.2,2.8-9.5
			C336.7,380.3,342.7,374.2,352.7,370.2L352.7,370.2z"/>
		<path class="st0" d="M355.3,382.8c0,0-7,3.3-6,7.9s3,4.3,3,4.3s3.6,2,7.6-6.1l2.7,1.3c0,0-3.9,5-6.3,6.5c0,0,3.3,0.1,8.6-5.8h7.2
			c0,0-8,6.7-10.8,7.7s-5.2,1.1-7.9,1s-5.9-1.3-7.3-4c-1.4-2.8-1.4-5-1.4-5s0.4-8.7,9.5-12.5L355.3,382.8L355.3,382.8z"/>
		<path class="st0" d="M387.7,341.6c0,0-11.6-4.3-15.2-7.2c-5.4,19.5-6.9,38.4-1.9,54.7c5.6,2,11.1,1.3,16.2-2.7
			C382,377.3,382.8,353.8,387.7,341.6L387.7,341.6z"/>
		<path class="st0" d="M412.5,302.2c-13.7,9.6-18.9,23.2-24,37.5c0,0-11.6-3.7-15.4-7.3c0,0,4.4-19.4,26.3-40.5
			C399.5,291.9,411.1,289.3,412.5,302.2L412.5,302.2z"/>
		<path class="st0" d="M413.6,296.2l0.8,5.9l4.6-0.2C419,301.9,418.8,297.5,413.6,296.2L413.6,296.2z"/>
		<path class="st0" d="M415.1,303.7c0,0,2.8,5.2,3.1,9.7c0,0,3.3-5.1,6-6.4C424.2,307,423,301.7,415.1,303.7z"/>
		<path class="st0" d="M424.6,308.3c0,0-4.3,3.9-4.9,6c0,0,8.3,14.6-0.5,39.6c0,0-4.2,11.7-13.3,25.2l-1.6,2.2
			c0.4,1.2,1.3,2,2.6,2.5c0,0,1.1,0,5-6.9s7.3-14.2,7.3-14.2s7.7-16.8,8.8-31.3c1.1-14.4-0.4-17.7-0.4-17.7S426.9,310.3,424.6,308.3
			L424.6,308.3z"/>
		<path class="st0" d="M406.1,384.7c0,0-3.6,4.9-9.1,6.5c-3.5,1.3-5.8-0.1-7-1.2c-0.7-0.5-1.1-1.4-1.1-2.3v-1.4
			c0.3,0.1,4.4-2.1,9.8-1.8c5.4,0.3,5.3-2.1,5.3-2.1C404.2,383.7,405.4,384.1,406.1,384.7L406.1,384.7z"/>
		<path class="st0" d="M393.5,377.7c0,0,0,4.7,1.9,5.8c-2.3,0.3-4.7,0.6-7.1,1.4c-1.2-1.9-2.1-4.6-2.3-7.2
			C388.4,378.4,391,378.5,393.5,377.7L393.5,377.7z"/>
		<path class="st0" d="M394.2,355.5c-0.2-0.4-2.1,13.9-0.8,20.8c-2.4,0.7-4.9,0.7-7.5,0c-0.9-5.6-0.3-12.5,0.5-19.3
			C390.4,358.1,392.5,356.9,394.2,355.5L394.2,355.5z"/>
		<path class="st0" d="M391,339.8c0,0,5.8,1.6,4.2,9.4s-8.7,6.3-8.7,6.3C387.4,349.5,388.7,344.1,391,339.8L391,339.8z"/>
		<path class="st0" d="M405,311.8c0,0-11,13.5-13.3,26.3c0,0,5.1,3,5.2,7.9c0,0,4.8-14.2,8.1-19.8c0,0-3.2-3.7,0.5-10.4
			C408.4,311.1,405,311.8,405,311.8z"/>
		<path class="st0" d="M412.5,304.3l-6.7,6.3c0,0,3.4,0.3,1.8,3.6c-1.6,3.2-4.1,7.9-2.2,11.3c0,0,5.2-8.3,10.4-11.6
			c0.5-0.4,0.8-1,0.6-1.6C416,310.2,414.9,306,412.5,304.3L412.5,304.3z"/>
		<path class="st0" d="M417.8,314.8c0,0,1.1,12-11.7,11.4C406.1,326.2,412.5,318.6,417.8,314.8z"/>
		<path class="st0" d="M419,315.4c0,0,6.5,12.7,0.7,32.3c0,0,1.8-9.6-4.6-11.3c0,0-5.4-1.4-8.7,14.7c-2.9,14,2.1,14.4,2.5,14.5
			s3.2,1.3,4.3-0.6c0,0-7.2,14.2-11.4,17.7c0,0-5.3,2.8-6.9-2.7c-0.9-6.3-0.8-13.9,0.6-22.8c1.4-6.4,2.1-8.4,4.6-14.5s6-14.9,6-14.9
			s9.1,0.6,11.6-5.1C419.4,318.1,419,315.4,419,315.4L419,315.4z"/>
		<path class="st0" d="M397.2,190.3l1.8-0.6v3.8c-1.2,4-18.6,39.9-29.7,71.1l-3.6,0.8v-4.9L397.2,190.3L397.2,190.3z"/>
		<path class="st0" d="M400.5,194.4c0,0,0.2,7.9-4.8,18.9c0,0-14.4,36.4-16.3,42.1s-2.5,15.2-2.5,15.2l-5.2,5.2c0,0-1.3-8,1.4-16.1
			s26-64.1,26-64.1L400.5,194.4L400.5,194.4z"/>
		<path class="st0" d="M394.3,220.5l2.6-1.5c0,0-0.7,7.1-3.4,15.2c-2.7,8.2-6.9,21.9-6.9,21.9s-3.2,7.3-3.2,12.8l-5,1.1
			c0,0,0.1-8.3,1.8-13.3C382,251.8,394.3,220.6,394.3,220.5L394.3,220.5z"/>
		<path class="st0" d="M395.9,235.5l1.4,1.6c0.4,0.5,0.7,1.3,0.7,2l-0.4,11.2c0,0-4.4-1.5-4.3-7.4
			C393.2,237.1,395.9,235.5,395.9,235.5z"/>
		<path class="st0" d="M393.2,247.1c0.1-0.4,0,11.7,0,11.7s-3.2,1.2-3.2,5l-0.4-1.8c-0.4-1.6-0.6-3.1-0.6-4.8v-3.3
			C388.9,253.9,392.2,250.9,393.2,247.1L393.2,247.1z"/>
		<path class="st0" d="M408.1,287.7c0,0-0.7-1-1.6-2.1s-2.6-0.9-3.2,0.3c-0.1,0.2-0.2,0.4-0.2,0.6L408.1,287.7L408.1,287.7z"/>
		<path class="st0" d="M394.9,280.1L394.9,280.1c-1,0-2,0.5-2.4,1.4l-0.7,1.4h6.2l-0.7-1.4C396.9,280.6,395.9,280.1,394.9,280.1
			L394.9,280.1z"/>
		<path class="st0" d="M352.7,357c0,0-0.1-9.2,3.1-22l-5.8,3.5v-3l7.3-6.2c2.9-9.3,7.3-19.9,14.7-30.2c0,0,8-10.4,21.2-21.1v-2.2
			l-6.8-1.8l-2.1-2.8l-5.9,0.4c0,0-7.2,6.6-8.7,10.4l1.4,8.6l-4,8.6h-8.2l-0.8,2.3l4.6,4.9c0.5,0.6,0.7,1.4,0.4,2.2l-4.3,8.8
			c-0.4,0.6-1,1.1-1.8,1.1h-4.9c-0.6,0-1.3,0.4-1.4,1c-1.3,3.4-5.6,14.7-7.2,21.1c0,0,5.4-0.4,4.2,4.2c-1.3,4.5-5.3,3-5.6,2.9l0,0
			c-0.9,6.6-1.3,13.6-1.3,13.6S347.6,357.9,352.7,357L352.7,357z"/>
		<path class="st0" d="M342.2,347c0.2,0.1,3.7,1.3,4.7-2.4c1.1-3.8-3.5-3.4-3.5-3.4c-0.1,0.3-0.2,0.5-0.2,0.8
			C342.8,343.5,342.5,345.2,342.2,347L342.2,347z"/>
		<path class="st0" d="M342.1,347.7L342.1,347.7"/>
		<path class="st0" d="M350.4,335.8v1.9l5.6-3.5c0.4-1.3,0.7-2.7,1.2-4.1L350.4,335.8L350.4,335.8z"/>
		<path class="st0" d="M348.8,316.9l0.9,0.4c0.7,0.4,1.5,0.4,2.3,0.4l3.9-0.1c0.8,0,1.5-0.4,1.9-1.2l3.8-8c0.4-0.8,0.2-1.7-0.4-2.2
			l-3-3.2L348.8,316.9L348.8,316.9z"/>
		<path class="st0" d="M336.7,312.6h4.5l6.3,2.8c0.4,0.2,1,0,1.3-0.4l8-11.8c0.2-0.4,0.2-0.7,0-1.1l-2.5-3l-3,5.8c0,0-1.7,0-2.8-0.5
			c-0.5-0.3-1.1-0.6-1.3-1.4C347.1,303,337.2,300.7,336.7,312.6L336.7,312.6z"/>
		<path class="st0" d="M285.7,329.2c22-3,28.7,19.3,28.7,19.3l1.8-3c0,0-7.7-10.5-6.8-14.2c0.9-3.7,6.5-12.3,6.5-12.3
			c5.2-0.8,10.3-9.1,10.3-9.1l0.7-8.2l5.8-8.6l0,0c-0.6-1.1-1.6-2.2-3-3.2l-22.5,33.2l20.7-34.3c-0.2-0.1-0.4-0.2-0.4-0.3
			c-2.6-1.3-5.1-0.8-7.3,0.3l-21.5,36.1H289L285.7,329.2L285.7,329.2z"/>
		<path class="st0" d="M293.3,348c8.9,4.9,14.4,3.6,17.2,1.9c1-0.5,1.3-1.9,0.9-3c-0.4-0.9-0.9-1.8-1.3-2.7
			c-6.7-12.1-15.9-14.1-21.3-14.1c-1.2,0-2.2,0.1-2.9,0.2c-0.9,0.1-1.7,0.9-1.8,1.9C283.5,336.3,284.3,343,293.3,348L293.3,348z"/>
		<path class="st0" d="M288.4,323.5h9.6l21.4-36c-3.5,1.8-5.8,5.1-5.8,5.1l-3.8,0.6c-1.5,0.3-2.8,1.1-3.6,2.4L288.4,323.5
			L288.4,323.5z"/>
		<path class="st0" d="M316.9,343.2c0,0-6.3-8.4-5.6-11.9s6-11.7,6-11.7c4.9-0.8,9.7-8.8,9.7-8.8l0.6-7.9l5.5-8.2
			c0.7,1.3,1,2.6,1.1,3.3c0.1,0.4,0,0.8-0.2,1.1c-0.8,1.6-4.1,8,0.2,13.7L316.9,343.2z"/>
		<path class="st0" d="M347.3,301.5c0.2,0.8,0.4,1.6,0.9,1.9c1.6,0.9,2.7,0.6,2.7,0.6l2.7-5.5l0,0l-1.1-1.6c0,0-2.5-3.4-5.3-0.3
			C347.1,296.6,346.9,299.5,347.3,301.5L347.3,301.5z"/>
		<path class="st0" d="M335.7,310.8c0.5-10,10.8-9,10.8-9c-0.6-1.7-0.4-4.3-0.4-4.3l-8.6-0.1c-0.6,0-1.3,0.4-1.5,1
			C334.9,300.6,333.1,306.1,335.7,310.8L335.7,310.8z"/>
		<path class="st0" d="M308.2,292.1l5.2-1.3c0,0,2.5-4.1,6.4-4.8c3.9-0.7,7,1,7,1s-6.5-3.1-4.5-12.7L308.2,292.1L308.2,292.1z"/>
		<path class="st0" d="M325.2,269.9l7-8.8c1.7-1.4,3.5-1.4,5.5,0c0,0,1.6,1.3-5,8.5c-0.9,4.1-3.6,4.5-3.6,4.5s-2.2-2.9-3.8-2.2
			L325.2,269.9L325.2,269.9z"/>
		<path class="st0" d="M337.6,265.5c-0.2,0-2.2,3-4.1,5v2.4c0,0.8,0.7,1.4,1.5,1.3l1.1-0.1c0.4,0,0.6-0.2,0.8-0.4l1.9-2.7
			c0.4-0.6,0.5-1.5,0.2-2.2L337.6,265.5L337.6,265.5z"/>
		<path class="st0" d="M331.4,274.1c0,0-0.7,6,5.3,11.1l12.1-12.2c0,0,4.4-0.6,5.6,4.7l-17.7,18.1c0,0-2.5-6.5-7.2-8.3
			s-5.9-7.8-5.9-7.8s-0.5-3.1,0-5.3c0,0,3.2-1.3,4.4,1.3C328.1,275.8,330.1,276.9,331.4,274.1L331.4,274.1z"/>
		<path class="st0" d="M355.9,260.7c0,0,1.2,7.9-0.5,13.4c0,0-5.8-0.6-7.2-5.1C348.3,269,348.6,263.7,355.9,260.7L355.9,260.7z"/>
		<path class="st0" d="M368.5,245c0,0-8.2,11.3-11,15.1c0,0,2.2,4.7,0,11.9L368.5,245L368.5,245z"/>
		<path class="st0" d="M363.8,265.5l0.7,4.4l4.7-2.8c0,0-0.7,7.8,0.5,10.3l-1.8,3.8l1.3,9l-3,7.5h-6.6l1.3-3.8c0,0-3.3-4-6.6-0.4
			l-1.3,2.1c0,0-3.9-3.4-6.7,0l-7.6,0.5l12.7-12.3c2.4-2.3,4.5-5,6.2-7.9L363.8,265.5L363.8,265.5z"/>
		<path class="st0" d="M328.2,326.8l6.7-11.6c0,0,2.3-1.8,5.8-0.9s9,4.4,9,4.4s-2.2,5.9-3.1,9C346.7,327.7,336.3,321.8,328.2,326.8
			L328.2,326.8z"/>
		<path class="st0" d="M344.6,333.4c0,0-2.8,6-3.6,12.1c0,0-3-4.4-7.6-3v-3.9c0,0,3.3-3.2,6.4-5.6
			C339.8,333,340.7,331.3,344.6,333.4z"/>
		<path class="st0" d="M340.7,347.1c0,0-1.4,9.9-1.2,14.5c0,0-9.4,3.8-13.4,11.6c0,0,1.4-9.8-2.1-13.5s-12.1-1.5-12.1-1.5
			s-3.1,0.4-3-5.3l4.6-3.6l3,2.2c0,0,8.4-3.7,12.4,6.3l2.6,1.1l0.4-12.2C332.1,346.6,334.4,342.7,340.7,347.1L340.7,347.1z"/>
		<path class="st0" d="M321.2,339.2c3.2,1.6,4.9,4.1,4.7,7.6l-3.8,2.8c0-0.8-4-1.7-5.1,0.9l-1.9-1.4L321.2,339.2L321.2,339.2z"/>
		<path class="st0" d="M328.2,327.7l-6.4,11.2c0,0,1.7,0.4,2.7,1.9l9-15C333.4,325.9,330.7,326.1,328.2,327.7L328.2,327.7z"/>
		<path class="st0" d="M325,375.4c0,0-2.1,3.6-1.3,5.9l-8.4-4c-0.9-0.4-1.3-1.3-1.3-2.2s0-2.3-1-3.5L325,375.4L325,375.4z"/>
		<path class="st0" d="M303.9,353.5v17.2l-3.9-2.1v-16.1C300,352.5,301.2,353.5,303.9,353.5z"/>
		<path class="st0" d="M298.8,352.5c0,0-2.4-1.1-3.3-2v17.2h3.3V352.5L298.8,352.5z"/>
		<path class="st0" d="M294.5,350v9.9h-2.7v-4.4c0,0,0-4.1-3.2-4.1s-3,4.3-3,4.3v6.7c0,0-0.2,1.8-2.5,1.8s-7.7,0-7.7,0l2.7-2.7
			c0,0-1.4-5.8-5.5-6c-4-0.2-4.7-0.1-4.7-0.1l7-5.6l-7-5.7c0,0,5.8,0.5,9.4-3.9s4.9-6.6,4.9-6.6S282.1,346.6,294.5,350L294.5,350z"
			/>
		<path class="st0" d="M285.7,386.5c0,0,1.1,4.4-3.1,7.2c-0.1,0-0.1,0.1-0.1,0.2v5.3c0,1.3,0.4,2.4,1.1,3.4
			c1.2,1.7,2.8,5.6,2.9,13.5c0,0.1-0.1,0.3-0.2,0.3l0,0c-1.4,0.3-2.5,1.4-2.5,3v4c0,1.1,0.9,2,2,2h4.4c0.1,0,0.2-0.1,0.3-0.2
			c0.4-1.3,3.1-10.8,1.7-15.4c-0.8-2.5-1.9-4.1-2.9-5.1c-1-1.2-1.6-2.6-1.6-4.1v-14L285.7,386.5L285.7,386.5z"/>
		<path class="st0" d="M276.9,390.9c0,0-1.3-6-11.7-4.5l-3.6,4V404l6.6,4.8c1.4,1.1,3.4,1.2,4.9,0.2l0,0c2.3-1.4,3.7-3.9,3.7-6.6
			L276.9,390.9L276.9,390.9z"/>
		<path class="st0" d="M280.6,401.7c0,0,4,6.4,3.9,12.9l0,0c-1.2,0.4-2,1.5-2,2.8v7.6c0,1.3,1.1,2.3,2.3,2.3h4.9l-5.9,17.5
			c-0.4,1.2-1.4,2-2.7,2h-3.4c0,0,3.4-13-0.8-22.9c-5.9-14-20.9-13.4-20.9-13.4l4-6c0,0,5.4,7.9,13.3,7.4
			C279.3,411.1,280.6,401.7,280.6,401.7L280.6,401.7z"/>
		<path class="st0" d="M277.7,394.7v7l1.9-0.6c1-0.4,1.6-1.3,1.6-2.2v-6.6L279,393C278.2,393.2,277.7,393.9,277.7,394.7L277.7,394.7
			z"/>
		<path class="st0" d="M263.3,386.3l-1.7,2.1c-0.3,0.4-0.8,0.4-1.1,0l-3-3.8L263.3,386.3z"/>
		<path class="st0" d="M283.5,328h-14.3l-4.2,9.7c0,0,1.8,0.6,1.8,3.9c0,0,4.2,1,7.5-1.8C277.6,336.9,283.5,328,283.5,328L283.5,328
			z"/>
		<path class="st0" d="M398.9,246.1c0,0,5.6-7.3,3-39.7l-2.5,8.8L398.9,246.1z"/>
		<path class="st0" d="M276.6,251.6c0,0.1,2.2,12.5,5.5,18.4c3.3,5.6,14,10.5,14.2,10.6l5.1-4.2c0.8-0.7,1.4-1.7,1.7-2.8
			c0.8-3.6,1.6-12.3-5.6-19.6c-7.5-7.8-15.1-5.8-17.7-4.7c-0.5,0.2-1.1,0.5-1.5,1L276.6,251.6L276.6,251.6z"/>
		<path class="st0" d="M281,271.3l-6.3,4.4c3.6,6.1,14.6,11.6,15.3,10.5l5.3-4.6C293.7,280.8,284.8,276.4,281,271.3L281,271.3z"/>
		<path class="st0" d="M273.9,274.2l6.5-4.4c-2.8-5.7-4.7-15.7-5-17.7l-6,4.5C268.9,258.1,269,269.8,273.9,274.2L273.9,274.2z"/>
		<path class="st0" d="M386.5,286.2c0,0,3-1.6,6.5-1.8c0,0,5.4-0.1,5.8,6.1l0,0c0,0-21.1,17.7-27.4,41.8s-7.6,39.5-2.6,56.5
			c0,0-9.9,1.9-12.1-6C349.3,352.4,359.4,309.6,386.5,286.2z"/>
		<path class="st0" d="M177.4,312.8c4.3-5.7,1-12.1,0.2-13.7c-0.2-0.4-0.3-0.7-0.2-1.1c0.1-0.8,0.4-2,1.1-3.3l5.5,8.2l0.6,7.9
			c0,0,4.7,8,9.7,8.8c0,0,5.3,8.2,6,11.7s-5.6,11.9-5.6,11.9L177.4,312.8z"/>
	</g>
	<g id="Rev_00000093144674479567724460000017987289389176541365_">
		<path class="st0" d="M212.5,84.8L212.5,84.8l10.6,31.8l33.1,19.8l33.1-19.8l10.5-31.8L320,70.2l1.2-11l-27.5,16.6v6.9
			c0,0-3.9,16.8-18.2,29.1c0,0-4.6-3.6,11.5-27.5l-0.3-3.6l-10.8,4.7c0,0-3.9,23.4-7.9,31.8l-12,7.2l-12-7.2
			c-4-8.3-7.9-31.8-7.9-31.8l-10.8-4.7l-0.3,3.6c16,23.9,11.5,27.5,11.5,27.5c-14.3-12.5-18.2-29.1-18.2-29.1v-6.9l-27.5-16.5
			l1.2,11L212.5,84.8z"/>
		<path class="st0" d="M212,111.2l-14.1-22l-14.1-9v6.9l8.9,3.9l9.6,11.2v6.2L187,94l-0.7,23.7c-0.1,3.9,2.5,7.3,6.3,8.2l12.4,2.8
			l1,11.5l4.3,6.7h13.4l1.9,8.9l22.7,39.7l4.7,4.6l-4.3,6.5l7.5,16.9l7.4-16.9l-4.3-6.5l4.7-4.6l22.7-39.7l1.9-8.9H302l4.3-6.7
			l1-11.5l12.4-2.8c3.8-0.9,6.5-4.3,6.3-8.2L325.3,94L310,108.3v-6.2l9.6-11.2l8.9-3.9v-6.9l-14.2,9l-14.1,22l11.2-27.7l16.9-8.3
			v-7.9L302,86.6l-11.5,32.5l5.7,1.2l-9.6,10.5L256,198.4l-30.6-67.6l-9.6-10.5l5.7-1.2L210,86.6l-26.3-19.4v8l16.9,8.3L212,111.2z"
			/>
		<path class="st0" d="M263.8,215.7v13.7c0,0-1,1.4-2.2,3.2c-1.8-0.4-3.7-0.5-5.6-0.5h-0.1c-1.8,0-3.6,0.2-5.3,0.5
			c-1.3-1.8-2.2-3.1-2.2-3.1v-13.8l7.7,15.6L263.8,215.7z"/>
		<path class="st0" d="M245.9,229.9l2,3.2c-3.5,0.9-6.8,2.3-9.9,4.3l-1.2-0.4c-1-0.3-1.9-0.9-2.6-1.7l-6.6-7.8l4.5-3L245.9,229.9z"
			/>
		<path class="st0" d="M284.4,227.6l-6.6,7.8c-0.6,0.8-1.6,1.3-2.6,1.7l-1.3,0.4c-3-1.9-6.3-3.3-9.8-4.3l2-3.3l13.8-5.4L284.4,227.6
			z"/>
		<path class="st0" d="M217.6,246.9c-1.2,0.5-2.2,1.1-3.3,1.8v-3.9L217.6,246.9z"/>
		<path class="st0" d="M235,239.7c-0.9,0.7-1.7,1.4-2.5,2.2l-1.8,0.5l-14-15.5l6.5,9.8l0.7,3.2l-15.2-5.2l-11.1-31L175.4,189
			l-7.3-22.3l8.2,2.8l4.7,14.3l29.4,17.6l-19.8-17.6l7.1-2.8l13.6,9.7l11.9,25v6.6l-10.3-4.4l9.4,7.8c1.6,1.3,3.2,2.9,4.6,4.5
			L235,239.7z"/>
		<path class="st0" d="M203.4,167.6l2.3,15.8l8.5,6.3l11.9,26l0.7,9l4.3-4.3l10.7,4.3L225,188.9l19.7,35.8l2.3-21.9
			c0.1-0.8-0.2-1.6-0.7-2.2l-26.5-31.3l24.3,22.3l-22.6-38.3l-6.6,8.3l4.9-10.8l-9-0.3c-0.8,0-1.6-0.4-2.2-1.1l-1.2-1.4
			c-0.3-0.4-0.7-0.6-1.2-0.8l-4.5-1.8l-44.4-17.7l40,25.8L203.4,167.6z"/>
		<path class="st0" d="M195.1,246.3l12.9,4.2v-9.6l-16-5l1.2,8.1C193.3,245.1,194.1,245.9,195.1,246.3z"/>
		<path class="st0" d="M206.1,257.7c-1.6,2.8-2.3,5.7-2.3,8.8l-8.7-2.9c-1-0.4-1.7-1.2-1.9-2.2l-1.2-8.1L206.1,257.7z"/>
		<path class="st0" d="M199.6,272.5c-0.2,0.1-0.3,0.2-0.4,0.3c-1,0.6-2,1-3,1.1l-1-2.6L199.6,272.5z"/>
		<path class="st0" d="M204.4,254.3v-2.9l-10.9-3.6c-0.9-0.3-1.6-1.1-1.9-2l-2.5-9.9H187l2.5,13.3L204.4,254.3z"/>
		<path class="st0" d="M203.6,268.7c-0.4,0.5-1.2,1.3-2.1,2.2l-11.5-3.8l-2.5-13.3h2.2l2.5,9.9c0.3,0.9,1,1.7,1.9,2L203.6,268.7z"/>
		<path class="st0" d="M193.8,273.4c-0.7-0.4-1.4-0.9-2-1.7l-0.3-0.4l1.6,0.2L193.8,273.4z"/>
		<path class="st0" d="M195.2,231.7L195.2,231.7c-34.9-2.2-37.5-17.9-37.5-17.9l-3.9-16.6l0.7,19.1
			C167.2,236.7,195.8,231.7,195.2,231.7z"/>
		<path class="st0" d="M124.9,91.4L124.9,91.4l-6.5,22.8v23.4l14.2,18.5l15.1,9.3L154,186l12.8-20.6l8.6,1.3
			c4.4-8.6-0.7-18.2-0.7-18.2l-16.8,18.1l12.9-19.3l-3.9-6.1c-1,9.7-10.9,14.7-10.9,14.7l-21.3-8.6l-3.2-19.7l7-26.7l-11.6,13.2
			l15.4-49L124.9,91.4z"/>
		<path class="st0" d="M184,180.5c-0.3,1,5.8,1.3,5.8,1.3l6.8-2.2l-1.3-3.4l-10.8-1.3c-1.9-2.6-0.1-18.3-0.1-18.3l7.5,2.4l0,0
			l9.4,19.4l-8.5-22.5c-9.3-2.9-15.8-9-15.8-9c5.2,11.2,2.7,25.8,2.7,25.8S184.2,179.6,184,180.5z"/>
		<path class="st0" d="M165.4,180.4l6.5,12.4l2.1-0.4l-7.6-19.3l-1.3,3.9C164.8,178.2,164.9,179.5,165.4,180.4z"/>
		<path class="st0" d="M174.7,193.3l-0.6,2.5l16.5,10.4l3.5-2.2l-15.1-9.6c-0.4-0.3-1-0.5-1.5-0.6L174.7,193.3z"/>
		<path class="st0" d="M193.9,209.3l5.6,20.9c0.4,1.3,1.3,2.4,2.6,3l2.4,1l-8.2-26.2L193.9,209.3z"/>
		<path class="st0" d="M181.6,235l-2.5-1l5.8,11l-0.6-6.5C184.2,237,183.1,235.6,181.6,235z"/>
		<path class="st0" d="M183.8,257.8l-1,1.9l-1.1-1.4c-0.7-1-1.9-1.5-3.1-1.5c-0.2,0-0.4,0-0.5,0c-0.6,0.1-2,0.3-3.4,0.8l4.4-11.4
			l4.6,7.6C184.4,255.1,184.4,256.5,183.8,257.8z"/>
		<path class="st0" d="M161,256c-0.4,0.1-0.9,0.3-1.3,0.4l-0.9,0.4c-1-0.7-3-2.4-6-5.8l-1.1-11.6l9.2,16.3L161,256z"/>
		<path class="st0" d="M176,241.1c0,0-0.5,3.6-3.7,14.1c-0.5,1.9-1.2,3.3-1.8,4.6c-0.5,0.4-1,0.8-1.4,1.3l-1.5-2.5
			c-0.8-1.4-2.2-2.4-3.9-2.7l-0.4-3.7l6.2-0.3l3.1-7.1l-5.5-1.5l-25-27.2l-3.9-0.1l-12.7-10.6l-0.7-0.5l0.4,0.1l15.4,3L176,241.1z"
			/>
		<path class="st0" d="M218,242l7.6,3c-0.8,0-1.6,0.1-2.4,0.2c-0.4,0.1-0.7,0.1-1.1,0.2L218,242z"/>
		<path class="st0" d="M294.3,242l-4.2,3.6c-0.4-0.1-0.9-0.2-1.4-0.3c-0.7-0.1-1.3-0.2-2.1-0.2L294.3,242z"/>
		<path class="st0" d="M298,244.8L298,244.8L298,244.8z"/>
		<path class="st0" d="M298,244.8v4.1c-1.1-0.7-2.2-1.4-3.4-1.9L298,244.8z"/>
		<path class="st0" d="M344,166.6l-7.3,22.3l-22.1,14.8l-11,30.9l-15.1,5.2l0.7-3.2l6.5-9.8l-14,15.5l-2.5-0.7
			c-0.6-0.6-1.3-1.2-2.1-1.8l8.3-9.8c1.3-1.6,2.9-3.1,4.6-4.5l9.4-7.8l-10.3,4.4v-6.5l11.7-25l13.6-9.7l7.1,2.8l-19.8,17.6
			l29.4-17.6l4.7-14.3L344,166.6z"/>
		<path class="st0" d="M304.6,147.9l-1.2,1.4c-0.5,0.6-1.3,1.1-2.2,1.1l-9,0.3l4.9,10.8l-6.6-8.3l-22.7,38.3l24.3-22.3l-26.5,31.3
			c-0.5,0.6-0.7,1.4-0.7,2.2l2.3,21.9l19.7-35.8l-16.7,35.9l10.7-4.3l4.3,4.3l0.7-9l11.9-26l8.5-6.3l2.3-15.8l5.7-14.2l40-25.8
			l-44.4,17.7l-4.5,1.8C305.3,147.3,304.9,147.6,304.6,147.9z"/>
		<path class="st0" d="M304.2,250.5l13-4.2c1-0.4,1.7-1.2,1.9-2.2l1.2-8.1l-16,5v9.5H304.2z"/>
		<path class="st0" d="M320,253.3l-1.2,8.2c-0.2,1.1-0.9,1.9-1.9,2.2l-9,2.9c0.1-3-0.6-6-2.2-8.9L320,253.3z"/>
		<path class="st0" d="M316.9,271.2l-1,2.6c-1-0.1-2.1-0.4-3.1-1.1c-0.1-0.1-0.3-0.2-0.4-0.3L316.9,271.2z"/>
		<path class="st0" d="M323,236l-2.5,9.9c-0.3,0.9-0.9,1.7-1.8,2l-11,3.6v2.9l15-4.9l2.5-13.3L323,236L323,236z"/>
		<path class="st0" d="M324.7,253.7l-2.4,13.3l-11.8,3.9c-0.9-0.8-1.6-1.6-2.1-2.2l9.9-3.2c0.9-0.3,1.5-1.1,1.8-2l2.5-9.9
			L324.7,253.7L324.7,253.7z"/>
		<path class="st0" d="M320.4,271.4l-0.3,0.4c-0.4,0.6-1,1.1-1.6,1.4l0.6-1.7L320.4,271.4z"/>
		<path class="st0" d="M357.5,216.4L357.5,216.4l0.7-19.1l-3.9,16.6c0,0-2.7,15.8-37.5,17.9C316.4,231.7,345,236.7,357.5,216.4z"/>
		<path class="st0" d="M356.4,156c0,0-9.9-5-10.9-14.7l-3.9,6.1l12.9,19.3l-16.8-18.2c0,0-5.1,9.6-0.7,18.2l8.6-1.3l12.8,20.6
			l6.4-20.6l15.1-9.3l14.2-18.5v-23.4l-6.5-22.8l-17.2-26.2l15.4,49L373.9,101l7,26.7l-3.2,19.7L356.4,156z"/>
		<path class="st0" d="M320.3,159l7.5-2.4c0,0,1.8,15.7-0.1,18.3l-10.8,1.3l-1.3,3.4l6.8,2.2c0,0,6.1-0.4,5.8-1.3
			c-0.3-1,4.2-7.6,4.2-7.6s-2.6-14.6,2.7-25.8c0,0-6.5,6.1-15.8,9l0,0l-8.5,22.5L320.3,159z"/>
		<path class="st0" d="M347.2,177.7l-1.4-4.6l-7.6,19.3l2.1,0.4l6.8-12.9C347.4,179.3,347.5,178.4,347.2,177.7z"/>
		<path class="st0" d="M318.3,204l3.5,2.2l16.5-10.4l-0.6-2.5l-3,0.6c-0.4,0.1-0.7,0.2-1.1,0.4L318.3,204z"/>
		<path class="st0" d="M316.1,208l-8.2,26.2l3-1.3c0.9-0.4,1.5-1.1,1.8-2.1l5.7-21.6L316.1,208z"/>
		<path class="st0" d="M333.2,234l-2.5,1c-1.5,0.6-2.6,2-2.7,3.6l-0.6,6.5L333.2,234z"/>
		<path class="st0" d="M337.6,257.8c-1.4-0.5-2.8-0.8-3.8-1l0,0l0,0c-0.2,0-0.4,0-0.4,0c-1.3,0-2.4,0.5-3.1,1.5l-0.9,1.2l-0.8-1.6
			c-0.6-1.3-0.6-2.9,0.2-4.1l4.6-7.5L337.6,257.8z"/>
		<path class="st0" d="M360.4,239.6l-1,11c-3.1,3.7-5.3,5.5-6.4,6.3l-0.8-0.4c-0.3-0.2-0.6-0.3-1-0.4v-0.2L360.4,239.6z"/>
		<path class="st0" d="M387.5,204.9l-1.2,1L374.1,216l-3.9,0.1l-25,27.3l-5.5,1.5l3.1,7.1l6.2,0.2l-0.4,3.7
			c-1.7,0.2-3.2,1.2-4.2,2.7l-1.6,2.6c-0.3-0.3-0.5-0.5-0.8-0.7l0,0c-0.7-1.3-1.4-3-2.1-5.1c-3.1-10.5-3.7-14.1-3.7-14.1l35.4-33.2
			l15.1-3L387.5,204.9z"/>
		<path class="st0" d="M368.6,191.5l-5.5,2.8c-1.7,0.9-2.8,2.6-2.7,4.5l0.5,15.9l9.2-19.1L368.6,191.5z"/>
		<path class="st0" d="M375.9,188.9v-2.1h-11.5l-10,4.7l1.2,1.8h3c0.6,0,1.3-0.1,1.8-0.4l8.2-3.2h3.1v6.5L375.9,188.9z"/>
		<path class="st0" d="M377.2,180.2l-8.1,4.9h3.1C375,185,377.2,182.9,377.2,180.2L377.2,180.2z"/>
		<path class="st0" d="M401,154.7l5-26l-10-43.2L377.9,34l2,32.6l14,23.1l6.3,42.3l-16.8,31.4l-13.3,6.7c-1.3,0.6-2.2,1.8-2.6,3.2
			l-2.4,9.8l15.2-7.5l-0.8,11.5L401,154.7z"/>
		<path class="st0" d="M368.1,165.5v2.4l8.5-3.4c1-0.4,1.8-1.1,2.3-2.1l4.8-8L368.1,165.5z"/>
		<path class="st0" d="M107.3,155.7l-5-28l11.5-42.6l4.7-24.9L78.6,15.4l15.1,51.9l2.2,43.1L12,37.4l66.6,138.8l26.1,43
			c0.1-3.6,0.4-7.1,0.5-10.1L89.9,183l2.9-1.2l13.3,17.8c1.2-11.6,1.9-12.4,2.2-12.7l0.5-0.5h0.4c0.7-0.2,1.6-0.4,2.7-0.4
			c2,0,3.9,0.4,3.9,0.4l1,0.2l0.4,0.9c2,4.7,3.9,9,5.7,13.1l17,2.5L107.3,155.7z M90.2,38.6C112,51.8,111,73.1,111,73.1l-4.8,15.3
			L100,69.9C100.9,54.1,90.4,39.1,90.2,38.6z M85.9,106.3l10.3,18.9l6.2,33.7l-37.9-55.5l-6.9-6L85.9,106.3z M57.6,85.1
			c-1.2,2.8-1.2,9.9-1.2,9.9c-8.9-13.7-31.8-41.4-32.5-42.3C41.7,66.9,57.6,85.1,57.6,85.1z M60.9,120.4c0,0-11-7.9-9.9-25.5
			c0,0,3.9,12.2,12.1,18l7.1,10.8L60.9,120.4z M87.8,176.2l-3.5-6.5l9.6,3l4.9,7L87.8,176.2z M105.1,181.7v-1.9l-10.2-16.7L81,157.8
			l-2.4,1.6l-1.1-2l-6.2-33.7l37.9,55.5l6.9,6L105.1,181.7z M147.8,234.1l-5.7-13.2l-5.8-1.2l-7.7-8c8.2,16.8,15.1,27.5,20.3,34.4
			L147.8,234.1z"/>
		<path class="st0" d="M375.7,219.9l-5.8,1.2l-5.7,13.1l-1.2,12.1c5.2-6.8,12.1-17.6,20.2-34.2L375.7,219.9z M416.1,110.4l2.2-43.1
			l15.1-51.8l-39.8,44.8l4.7,24.9l11.5,42.6l-5,28l-33,47.4l17-2.4c1.9-4.1,3.8-8.4,5.7-13.2l0.4-0.9l1-0.2c0.1,0,2-0.4,3.9-0.4
			c1.1,0,2.1,0.1,2.8,0.4h0.4l0.5,0.5c0.4,0.4,1.1,1.1,2.2,12.7l13.3-17.9l2.9,1.2l-15.2,26c0.2,3,0.4,6.5,0.5,10l26.2-43.1
			L500,37.1L416.1,110.4z M488.1,52.7c-0.7,0.9-23.7,28.6-32.5,42.3c0,0,0-7.1-1.2-9.9C454.4,85.1,470.3,66.9,488.1,52.7z
			 M405.9,88.4l-4.8-15.3c0,0-1.1-21.4,20.8-34.5c-0.4,0.4-10.8,15.5-9.9,31.3L405.9,88.4z M415.8,125.2l10.3-18.9l28.3-8.9l-6.9,6
			l-37.9,55.5L415.8,125.2z M424.1,176.3l-11,3.4l4.9-7l9.6-3L424.1,176.3z M434.5,157.4l-1.1,2l-2.4-1.6l-13.8,5.4L407,179.8v1.9
			l-11.2,3.5l6.9-6l37.9-55.5L434.5,157.4z M451.2,120.4l-9.3,3.3l7.1-10.8c8.2-5.8,12.1-18,12.1-18
			C462.1,112.5,451.2,120.4,451.2,120.4z"/>
		<path class="st0" d="M180,204.5c-5.9,0-10.8,4.4-10.8,10.3s4.8,10.3,10.8,10.3s10.8-4.4,10.8-10.3
			C190.8,208.8,186,204.5,180,204.5z M182.6,219.9c-3.3,0-6-2.7-6-5.9c0-0.7,0.1-1.3,0.4-2c-0.1,0.4-0.2,0.9-0.2,1.4
			c0,3,2.3,5.3,5.3,5.3s5.3-2.3,5.3-5.3s-2.4-5.3-5.3-5.3c-0.4,0-1,0.1-1.4,0.2c0.6-0.2,1.3-0.4,2-0.4c3.3,0,5.9,2.7,5.9,6
			C188.6,217.3,185.9,219.9,182.6,219.9z"/>
		<path class="st0" d="M332.2,204.5c-5.9,0-10.8,4.4-10.8,10.3s4.8,10.3,10.8,10.3s10.8-4.4,10.8-10.3
			C342.9,208.8,338.1,204.5,332.2,204.5z M329.6,219.9c-3.3,0-5.9-2.6-5.9-5.9c0-3.3,2.7-6,5.9-6c0.7,0,1.3,0.1,2,0.4
			c-0.4-0.2-0.9-0.2-1.4-0.2c-3,0-5.3,2.3-5.3,5.3s2.4,5.3,5.3,5.3s5.3-2.3,5.3-5.3c0-0.4-0.1-1-0.2-1.4c0.2,0.6,0.4,1.3,0.4,2
			C335.6,217.3,332.9,219.9,329.6,219.9z"/>
		<path class="st0" d="M143.6,191.5l5.5,2.8c1.7,0.9,2.8,2.6,2.7,4.5l-0.4,16l-9.2-19.1L143.6,191.5z"/>
		<path class="st0" d="M136.3,188.9v-2.1h11.5l10,4.7l-1.2,1.8h-3c-0.6,0-1.3-0.1-1.8-0.4l-8.2-3.2h-3v6.5L136.3,188.9z"/>
		<path class="st0" d="M135,180.2l8.1,4.9H140C137.2,185,135,182.9,135,180.2L135,180.2z"/>
		<path class="st0" d="M111.2,154.7l-5-26l10-43.2L134.3,34l-2,32.6l-14,23.1L112,132l16.8,31.4l13.3,6.7c1.3,0.6,2.2,1.8,2.6,3.2
			l2.4,9.8l-15.2-7.5l0.8,11.5L111.2,154.7z"/>
		<path class="st0" d="M144.1,165.5v2.4l-8.5-3.4c-1-0.4-1.8-1.1-2.3-2.1l-4.8-8L144.1,165.5z"/>
		<path class="st0" d="M260.9,157l-2.6,0.5c-0.8-0.1-1.4-0.2-2-0.2c-3.7,0-4,2.1-4,2.1l-4.2,0.1c0.2-0.3,1.2-0.9,1.4-1.1
			c-2.3,1-4.3,3.5-4.3,3.5c0.4-0.6,0.5-2.2,0.5-2.2c0.3-2.2,1.2-3.1,1.2-3.1c2.2-2.2,2.4-1.3,8-2.2c5.6-0.8,5-4.3,5-4.3l-15.1,4.9
			c0.6-1.5,6.1-7.6,6.1-7.6c0.5,0.2,1.2,0.3,2,0.3c5.8,0.1,17.7-4.7,17.7-4.7l-3.9,3.9l-0.4,2.5l5.9-2.9L260.9,157z"/>
		<path class="st0" d="M289.3,122.9l-5,6.3c-0.5,0.6-0.9,1.2-1.2,1.9l-26.9,60.4l-26.9-60.4c-0.3-0.6-0.8-1.3-1.2-1.9l-5-6.3
			l23.1,12.2c2,1.1,4.2,5,4.2,5c3.8,3.4,7.6,3.3,11.5,0c0.7-2.1,2.2-3.9,4.2-5L289.3,122.9z"/>
		<path class="st1" d="M272,146.5L260.9,157l-2.6,0.5c-0.8-0.1-1.4-0.2-2-0.2c-3.7,0-4,2.1-4,2.1l-4.2,0.1c0.2-0.3,1.2-0.9,1.4-1.1
			c-2.3,1-4.3,3.5-4.3,3.5c0.4-0.6,0.5-2.2,0.5-2.2c0.3-2.2,1.2-3.1,1.2-3.1c2.2-2.2,2.4-1.3,8-2.2c5.6-0.8,5-4.3,5-4.3l-15.1,4.9
			c0.6-1.5,6.1-7.6,6.1-7.6c0.5,0.2,1.2,0.3,2,0.3c5.8,0.1,17.7-4.7,17.7-4.7l-3.9,3.9l-0.4,2.5L272,146.5z"/>
	</g>
</g>
</svg>
