<?xml version="1.0" encoding="utf-8"?>
<!-- Generator: Adobe Illustrator 27.1.1, SVG Export Plug-In . SVG Version: 6.00 Build 0)  -->
<svg version="1.1" id="Layer_2_00000003070597391821060220000012080706376585493162_"
	 xmlns="http://www.w3.org/2000/svg" xmlns:xlink="http://www.w3.org/1999/xlink" x="0px" y="0px" viewBox="0 0 763 182"
	 style="enable-background:new 0 0 763 182;" xml:space="preserve">
<style type="text/css">
	.st0{fill:#FFFFFF;}
</style>
<g id="Layer_2-2_00000103984867518709875520000003596776349048764053_">
	<g id="Layer_2-2">
		<g>
			<path class="st0" d="M474.5,182H0V0h763l-99,100.8H555.7L474.5,182L474.5,182L474.5,182z M9.8,172.2h460.7L551.6,91h108.2
				l79.8-81.2H9.8V172.2z"/>
			<polygon class="st0" points="628.1,15.3 704.4,17.5 623.9,18.9 700.8,21.1 620.3,22.6 697.2,24.8 616.6,26.2 693.5,28.4 
				613,29.8 689.9,32 609.4,33.5 686.3,35.7 605.7,37.1 682.6,39.3 602.1,40.7 679,42.9 598.5,44.4 675.4,46.6 594.8,48 671.7,50.2 
				591.2,51.6 668.1,53.8 587.6,55.3 664.5,57.5 583.9,58.9 660.8,61.1 580.3,62.5 657.2,64.7 576.7,66.2 653.6,68.4 573,69.8 
				649.9,72 569.4,73.4 646.3,75.6 565.8,77.1 642.7,79.3 562.1,80.7 639,82.9 561.6,84.3 657,84.3 724.8,15.3 			"/>
			<polygon class="st0" points="569.1,105.6 492.7,182 534.3,182 610.7,105.6 			"/>
		</g>
		<polygon class="st0" points="540.9,91 466.6,165.4 34.8,165.4 		"/>
		<g>
			<path class="st0" d="M36.2,58.1V42.2c0-5.3,2.7-8,8.3-8h23.7c5.6,0,8.2,2.7,8.2,8v1c0,0.4-0.1,0.5-0.5,0.5H74
				c-0.4,0-0.6-0.2-0.6-0.5v-0.6c0-3.9-1.7-5.6-5.8-5.6H44.9c-4,0-5.7,1.7-5.7,5.6v15.1c0,4,1.7,5.7,5.7,5.7h23
				c4.1,0,5.7-1.7,5.7-5.7v-4.3H59.3c-0.5,0-0.7-0.2-0.7-0.7v-1.4c0-0.4,0.2-0.6,0.7-0.6h16.5c0.4,0,0.7,0.3,0.7,0.7v6.8
				c0,5.4-2.7,8-8.3,8H44.5C38.9,66.1,36.2,63.4,36.2,58.1L36.2,58.1z"/>
			<path class="st0" d="M122.8,65.9h-2.1c-0.4,0-0.6-0.2-0.9-0.7l-3.6-5.4H86.6L83,65.2c-0.3,0.5-0.4,0.7-0.9,0.7h-2.1
				c-0.4,0-0.8-0.2-0.4-0.7l19.7-30.1c0.3-0.5,0.4-0.7,0.9-0.7h2.4c0.4,0,0.6,0.3,0.8,0.7l19.7,30.1
				C123.5,65.7,123.2,65.9,122.8,65.9L122.8,65.9z M114.5,57.1l-12.9-19.6h-0.4L88.3,57.1C88.3,57.1,114.5,57.1,114.5,57.1z"/>
			<path class="st0" d="M128,65.3V35c0-0.5,0.2-0.6,0.6-0.6h3.4c0.4,0,0.6,0.2,0.9,0.7l17.2,27.7h0.4l17.2-27.7
				c0.3-0.5,0.4-0.7,0.9-0.7h3.3c0.4,0,0.7,0.2,0.7,0.6v30.2c0,0.4-0.2,0.6-0.7,0.6h-1.7c-0.4,0-0.6-0.2-0.6-0.6V37.8h-0.4
				l-17.1,27.5c-0.3,0.4-0.4,0.6-0.9,0.6h-2c-0.4,0-0.6-0.2-0.9-0.6l-17.1-27.5H131v27.5c0,0.4-0.2,0.6-0.6,0.6h-1.7
				C128.2,65.9,128.1,65.7,128,65.3L128,65.3z"/>
			<path class="st0" d="M214.8,63.8v1.4c0,0.4-0.2,0.7-0.7,0.7h-35c-0.4,0-0.6-0.2-0.6-0.6V35c0-0.5,0.2-0.6,0.6-0.6h34.7
				c0.4,0,0.7,0.2,0.7,0.7v1.4c0,0.5-0.2,0.7-0.7,0.7h-32.4v11.6h31.9c0.4,0,0.7,0.2,0.7,0.7v1.4c0,0.5-0.2,0.7-0.7,0.7h-31.9v11.6
				h32.6C214.5,63.1,214.7,63.4,214.8,63.8L214.8,63.8z"/>
			<path class="st0" d="M219.9,58V42.3c0-5.3,2.8-8.1,8.3-8.1h23.8c5.6,0,8.3,2.8,8.3,8.1V58c0,5.3-2.8,8.1-8.3,8.1h-23.8
				C222.7,66.1,219.9,63.2,219.9,58z M251.2,61.9c3.1,0,4.5-1.3,4.5-4.4V42.7c0-3.1-1.5-4.4-4.5-4.4h-22c-3.1,0-4.6,1.3-4.6,4.4
				v14.8c0,3.2,1.5,4.4,4.6,4.4H251.2z"/>
			<path class="st0" d="M266,65.2V35.1c0-0.5,0.2-0.7,0.7-0.7h4.5c0.4,0,0.6,0.2,0.9,0.5l27.6,25.7h0.5V35.1c0-0.5,0.2-0.7,0.6-0.7
				h3.3c0.5,0,0.7,0.2,0.7,0.7v30.2c0,0.4-0.2,0.7-0.7,0.7h-4.5c-0.4,0-0.6-0.2-0.9-0.5l-27.6-25.7h-0.5v25.6c0,0.4-0.2,0.7-0.6,0.7
				h-3.3C266.2,65.9,266,65.7,266,65.2L266,65.2z"/>
			<path class="st0" d="M321.6,35.1v1.3c0,0.5-0.2,0.7-0.7,0.7h-4v8.1c0,0.5-0.2,0.7-0.7,0.7h-1.4c-0.5,0-0.7-0.2-0.7-0.7v-8.1h-4
				c-0.5,0-0.7-0.2-0.7-0.7v-1.3c0-0.5,0.2-0.7,0.7-0.7h10.8C321.4,34.4,321.6,34.6,321.6,35.1L321.6,35.1z M340.9,35.1v10.2
				c0,0.5-0.2,0.7-0.7,0.7h-1.4c-0.5,0-0.7-0.2-0.7-0.7v-7.5l-4.4,7.5c-0.2,0.4-0.5,0.7-0.9,0.7H332c-0.4,0-0.6-0.3-0.9-0.7
				l-4.4-7.5v7.5c0,0.5-0.2,0.7-0.7,0.7h-1.4c-0.5,0-0.7-0.2-0.7-0.7V35.1c0-0.5,0.2-0.7,0.7-0.7h2.7c0.5,0,0.7,0.3,0.9,0.7l4.1,7.4
				l4.2-7.4c0.2-0.3,0.5-0.7,0.9-0.7h2.7C340.7,34.4,341,34.6,340.9,35.1L340.9,35.1z"/>
			<path class="st0" d="M75.7,100.2c-1.8,6.4-5.8,8.9-12.4,8.9H42c-6.5,0-8.2-2.9-6.8-8.1c0.2-0.7,0.7-1.1,1.5-1.1h4.6
				c0.8,0,1,0.4,0.9,1.1c0,1.2,1,1.8,2.3,1.8h20.2c2,0,3.3-0.8,3.9-2.9c0.4-1.4,0.6-3.2-2.3-3.4l-19.9-1c-6.8-0.4-8.5-3.9-7-9.4
				c1.8-6.4,5.8-8.9,12.4-8.9h20.5c6.5,0,8.2,2.9,6.7,8.1c-0.2,0.7-0.7,1.1-1.5,1.1h-4.5c-0.8,0-1-0.4-0.9-1.1c0-1.3-1-1.8-2.3-1.8
				H50.4c-2,0-3.3,0.8-3.9,2.9c-0.5,1.4-0.6,3.3,2.3,3.4l19.8,1C75.5,91.1,77.3,94.6,75.7,100.2z"/>
			<path class="st0" d="M124.3,78.1l-1.4,4.8c-0.1,0.4-0.4,0.8-0.9,0.8H93.2L91.4,90h28.3c0.4,0,0.6,0.2,0.5,0.7l-1.4,4.8
				c-0.1,0.5-0.4,0.8-0.9,0.8H89.6l-1.8,6.3h29.1c0.4,0,0.6,0.2,0.5,0.7l-1.3,4.8c-0.1,0.4-0.5,0.8-0.9,0.8H79.5
				c-0.4,0-0.6-0.3-0.4-0.7l8.6-30.1c0.1-0.4,0.4-0.7,0.9-0.7h35.3C124.3,77.4,124.5,77.6,124.3,78.1L124.3,78.1z"/>
			<path class="st0" d="M166.1,85.6l-1.9,6.9c-1.2,3.9-3.4,6.7-6.9,7.7l2.9,7.5c0.2,0.6-0.4,1.2-1.3,1.2h-5.2c-0.6,0-0.8-0.3-1-0.8
				l-2.9-7.4h-19.3l-2.1,7.5c-0.1,0.4-0.5,0.7-1,0.7h-5.8c-0.4,0-0.5-0.3-0.4-0.7l8.6-30.1c0.1-0.4,0.4-0.7,0.9-0.7h29.6
				C166,77.4,167.6,80.5,166.1,85.6L166.1,85.6z M156.9,83.7h-21.3l-3.1,10.8h21.7c1.6,0,2.4-0.6,3.1-2.5l1.6-5.8
				C159.3,84.3,158.6,83.7,156.9,83.7L156.9,83.7z"/>
			<path class="st0" d="M175.4,77.4h5.8c0.4,0,0.6,0.3,0.5,0.7l-8.6,30.1c-0.1,0.4-0.5,0.7-1,0.7h-5.8c-0.4,0-0.5-0.3-0.4-0.7
				l8.6-30.1C174.7,77.7,175,77.4,175.4,77.4L175.4,77.4z"/>
			<path class="st0" d="M224.2,78.1l-1.4,4.8c-0.1,0.4-0.4,0.8-0.9,0.8h-28.8l-1.8,6.3h28.4c0.4,0,0.6,0.2,0.5,0.7l-1.4,4.8
				c-0.1,0.5-0.4,0.8-0.9,0.8h-28.4l-1.8,6.3h29.1c0.4,0,0.6,0.2,0.5,0.7l-1.4,4.8c-0.1,0.4-0.5,0.8-0.9,0.8h-35.6
				c-0.4,0-0.6-0.3-0.4-0.7l8.6-30.1c0.1-0.4,0.4-0.7,0.9-0.7h35.3C224.2,77.4,224.4,77.6,224.2,78.1L224.2,78.1z"/>
			<path class="st0" d="M263,100.2c-1.8,6.4-5.8,8.9-12.4,8.9h-21.2c-6.5,0-8.2-2.9-6.8-8.1c0.2-0.7,0.7-1.1,1.5-1.1h4.6
				c0.8,0,1,0.4,0.9,1.1c0,1.2,1,1.8,2.3,1.8h20.2c2,0,3.3-0.8,3.9-2.9c0.4-1.4,0.6-3.2-2.3-3.4l-19.9-1c-6.8-0.4-8.5-3.9-7-9.4
				c1.8-6.4,5.8-8.9,12.4-8.9h20.5c6.5,0,8.2,2.9,6.7,8.1c-0.2,0.7-0.7,1.1-1.5,1.1h-4.5c-0.8,0-1-0.4-1-1.1c0-1.3-1-1.8-2.3-1.8
				h-19.5c-2,0-3.3,0.8-3.9,2.9c-0.4,1.4-0.6,3.3,2.3,3.4l19.8,1C262.8,91.1,264.6,94.6,263,100.2L263,100.2z"/>
		</g>
	</g>
</g>
</svg>
