<?xml version="1.0" encoding="utf-8"?>
<!-- Generator: Adobe Illustrator 27.1.1, SVG Export Plug-In . SVG Version: 6.00 Build 0)  -->
<svg version="1.1" id="Layer_2_00000173874554010463915710000014580810118947893948_"
	 xmlns="http://www.w3.org/2000/svg" xmlns:xlink="http://www.w3.org/1999/xlink" x="0px" y="0px" viewBox="0 0 763 182"
	 style="enable-background:new 0 0 763 182;" xml:space="preserve">
<style type="text/css">
	.st0{fill:#FFFFFF;}
</style>
<g id="Layer_2-2_00000045602001959147820750000006105133057739023790_">
	<g id="Layer_2-2">
		<g>
			<path class="st0" d="M474.5,182H0V0h763l-99,100.8H555.7L474.5,182L474.5,182L474.5,182z M9.8,172.2h460.7L551.6,91h108.2
				l79.8-81.2H9.8V172.2z"/>
			<polygon class="st0" points="628.1,15.3 704.4,17.5 623.9,18.9 700.8,21.1 620.3,22.6 697.2,24.8 616.6,26.2 693.5,28.4 
				613,29.8 689.9,32 609.4,33.5 686.3,35.7 605.7,37.1 682.6,39.3 602.1,40.7 679,42.9 598.5,44.4 675.4,46.6 594.8,48 671.7,50.2 
				591.2,51.6 668.1,53.8 587.6,55.3 664.5,57.5 583.9,58.9 660.8,61.1 580.3,62.5 657.2,64.7 576.7,66.2 653.6,68.4 573,69.8 
				649.9,72 569.4,73.4 646.3,75.6 565.8,77.1 642.7,79.3 562.1,80.7 639,82.9 561.6,84.3 657,84.3 724.8,15.3 			"/>
			<polygon class="st0" points="569.1,105.6 492.7,182 534.3,182 610.7,105.6 			"/>
		</g>
		<polygon class="st0" points="540.9,91 466.6,165.4 34.8,165.4 		"/>
		<g>
			<path class="st0" d="M36.5,57.7V34.8c0-0.5,0.2-0.6,0.6-0.6h1.7c0.5,0,0.6,0.2,0.6,0.6v22.5c0,4,1.7,5.7,5.7,5.7h22.9
				c4.1,0,5.7-1.7,5.7-5.7V34.9c0-0.5,0.2-0.6,0.6-0.6h1.7c0.4,0,0.7,0.2,0.7,0.6v22.9c0,5.3-2.7,8-8.3,8H44.7
				C39.1,65.7,36.4,63.1,36.5,57.7L36.5,57.7z"/>
			<path class="st0" d="M119.2,65.7h-1.8c-0.4,0-0.6-0.1-0.8-0.5l-5.7-8.6H85.6v8.5c0,0.4-0.2,0.6-0.6,0.6h-1.7
				c-0.4,0-0.6-0.2-0.6-0.6V34.8c0-0.5,0.2-0.6,0.6-0.6h28.1c5.6,0,8.3,2.7,8.3,8v6.3c0,4.4-1.8,7-5.5,7.7l5.7,8.6
				C120.1,65.4,119.7,65.7,119.2,65.7L119.2,65.7z M85.6,53.8H111c4,0,5.7-1.6,5.7-5.6v-5.6c0-4-1.7-5.6-5.7-5.6H85.6V53.8
				L85.6,53.8z"/>
			<path class="st0" d="M163.2,56.4v1.2c0,6-3.2,8.1-9,8.1h-28c-0.4,0-0.7-0.2-0.7-0.7V34.9c0-0.5,0.2-0.7,0.7-0.7h28.1
				c5.3,0,7.7,2.4,7.7,7.9v1c0,2.8-0.8,4.9-2.8,6v0.4C161.8,50.4,163.2,52.5,163.2,56.4L163.2,56.4z M154,37h-25.6v11.3h25.6
				c3.4,0,5-1.4,5-5.2v-0.9C159.1,38.2,157.5,37,154,37L154,37z M160.3,56.4c0-4.6-2.1-5.6-6.1-5.6h-25.6V63h25.6c4,0,6.1-1,6.1-5.4
				V56.4L160.3,56.4z"/>
			<path class="st0" d="M209.9,65.7h-2.1c-0.4,0-0.6-0.2-0.9-0.7l-3.6-5.4h-29.6l-3.6,5.4c-0.3,0.5-0.4,0.7-0.9,0.7h-2.1
				c-0.4,0-0.8-0.2-0.4-0.7l19.7-30.1c0.3-0.5,0.4-0.7,0.9-0.7h2.4c0.4,0,0.6,0.3,0.9,0.7L210.3,65
				C210.7,65.5,210.3,65.7,209.9,65.7L209.9,65.7z M201.6,57l-12.9-19.6h-0.4L175.4,57L201.6,57L201.6,57z"/>
			<path class="st0" d="M215.2,65.1V34.8c0-0.5,0.2-0.6,0.6-0.6h3c0.4,0,0.5,0.2,0.8,0.5l30.2,27.9h0.3V34.8c0-0.5,0.2-0.6,0.6-0.6
				h1.7c0.4,0,0.6,0.2,0.6,0.6v30.2c0,0.4-0.2,0.6-0.6,0.6h-3c-0.4,0-0.5-0.2-0.8-0.4l-30.2-27.9h-0.3v27.7c0,0.4-0.2,0.6-0.6,0.6
				h-1.7C215.3,65.7,215.2,65.5,215.2,65.1z"/>
			<path class="st0" d="M275.4,65L258,35c-0.3-0.5,0-0.8,0.4-0.8h3.9c0.5,0,0.7,0.3,0.9,0.8l14.9,25.5h0.5L294.4,35
				c0.3-0.5,0.5-0.8,1-0.8h4c0.5,0,0.7,0.3,1,0.8l15.8,25.5h0.5L331.5,35c0.3-0.5,0.5-0.8,0.9-0.8h3.9c0.5,0,0.7,0.3,0.4,0.8
				l-17.5,30c-0.3,0.4-0.5,0.7-1,0.7h-3.9c-0.4,0-0.6-0.3-0.9-0.7l-16.2-26.2L281.1,65c-0.3,0.4-0.5,0.7-0.9,0.7h-3.9
				C275.9,65.7,275.7,65.5,275.4,65L275.4,65z"/>
			<path class="st0" d="M378.1,62.2V65c0,0.4-0.2,0.7-0.7,0.7h-35.2c-0.5,0-0.7-0.2-0.7-0.7V34.9c0-0.5,0.2-0.7,0.7-0.7h35
				c0.5,0,0.7,0.2,0.7,0.7v2.8c0,0.5-0.2,0.7-0.7,0.7h-31v9.5h30.5c0.5,0,0.7,0.2,0.7,0.7v2.8c0,0.5-0.2,0.7-0.7,0.7h-30.5v9.5h31.2
				C377.9,61.6,378.1,61.8,378.1,62.2L378.1,62.2z"/>
			<path class="st0" d="M426.9,65.7h-4c-0.5,0-0.6-0.3-1-0.8l-3.2-4.9h-27.8l-3.2,4.9c-0.3,0.5-0.5,0.8-1,0.8h-4
				c-0.5,0-0.8-0.3-0.4-0.8l19.5-30c0.3-0.5,0.5-0.7,1-0.7h3.8c0.5,0,0.7,0.3,0.9,0.7l19.5,30C427.7,65.5,427.4,65.7,426.9,65.7
				L426.9,65.7z M416.2,56l-11-16.9h-0.5l-11,16.9H416.2L416.2,56z"/>
			<path class="st0" d="M469.3,65.7h-3.1c-0.5,0-0.7-0.2-1-0.6l-5.4-8.1h-23V65c0,0.4-0.2,0.7-0.6,0.7h-3.3c-0.5,0-0.7-0.2-0.7-0.7
				V34.9c0-0.5,0.2-0.7,0.7-0.7h28.7c5.6,0,8.1,2.8,8.1,8.1v6.6c0,4.2-1.6,6.8-5.1,7.7l5.4,8.1C470.4,65.3,470,65.7,469.3,65.7z
				 M436.8,52.8h23.9c3.1,0,4.4-1.2,4.4-4.4v-5.7c0-3.1-1.4-4.4-4.4-4.4h-23.9V52.8z"/>
			<path class="st0" d="M486.7,34.9v1.3c0,0.5-0.2,0.7-0.7,0.7h-4v8.1c0,0.5-0.2,0.7-0.7,0.7H480c-0.5,0-0.7-0.2-0.7-0.7v-8.1h-4
				c-0.5,0-0.7-0.2-0.7-0.7v-1.3c0-0.5,0.2-0.7,0.7-0.7h10.8C486.5,34.2,486.7,34.5,486.7,34.9z M506.1,34.9v10.2
				c0,0.5-0.2,0.7-0.7,0.7h-1.4c-0.5,0-0.7-0.2-0.7-0.7v-7.5l-4.4,7.5c-0.2,0.4-0.5,0.7-0.9,0.7h-1c-0.4,0-0.6-0.3-0.9-0.7l-4.4-7.5
				v7.5c0,0.5-0.2,0.7-0.7,0.7h-1.4c-0.5,0-0.7-0.2-0.7-0.7V34.9c0-0.5,0.2-0.7,0.7-0.7h2.7c0.5,0,0.7,0.3,0.9,0.7l4.1,7.4l4.2-7.4
				c0.2-0.3,0.5-0.7,0.9-0.7h2.7C505.9,34.2,506.1,34.5,506.1,34.9L506.1,34.9z"/>
			<path class="st0" d="M75.7,100c-1.8,6.4-5.8,8.9-12.4,8.9H42c-6.5,0-8.2-2.9-6.8-8.1c0.2-0.7,0.7-1.1,1.5-1.1h4.6
				c0.8,0,1,0.4,0.9,1.1c0,1.2,1,1.8,2.3,1.8h20.2c2,0,3.3-0.8,3.9-2.9c0.4-1.4,0.6-3.2-2.3-3.4l-19.9-1c-6.8-0.4-8.5-3.9-7-9.4
				c1.8-6.4,5.8-8.9,12.4-8.9h20.5c6.5,0,8.2,2.9,6.7,8.1c-0.2,0.7-0.7,1.1-1.5,1.1h-4.5c-0.8,0-1-0.4-0.9-1.1c0-1.3-1-1.8-2.3-1.8
				H50.4c-2,0-3.3,0.8-3.9,2.9c-0.5,1.4-0.6,3.3,2.3,3.4l19.8,1C75.5,90.9,77.3,94.5,75.7,100L75.7,100z"/>
			<path class="st0" d="M124.3,77.9l-1.4,4.8c-0.1,0.4-0.4,0.8-0.9,0.8H93.2l-1.8,6.3h28.3c0.4,0,0.6,0.2,0.5,0.7l-1.4,4.8
				c-0.1,0.5-0.4,0.8-0.9,0.8H89.6l-1.8,6.3h29.1c0.4,0,0.6,0.2,0.5,0.7l-1.3,4.8c-0.1,0.4-0.5,0.8-0.9,0.8H79.5
				c-0.4,0-0.6-0.3-0.4-0.7l8.6-30.1c0.1-0.4,0.4-0.7,0.9-0.7h35.3C124.3,77.2,124.5,77.4,124.3,77.9L124.3,77.9z"/>
			<path class="st0" d="M166.1,85.5l-1.9,6.9c-1.2,3.9-3.4,6.7-6.9,7.7l2.9,7.5c0.2,0.6-0.4,1.2-1.3,1.2h-5.2c-0.6,0-0.8-0.3-1-0.8
				l-2.9-7.4h-19.3l-2.1,7.5c-0.1,0.4-0.5,0.7-1,0.7h-5.8c-0.4,0-0.5-0.3-0.4-0.7l8.6-30.1c0.1-0.4,0.4-0.7,0.9-0.7h29.6
				C166,77.2,167.6,80.3,166.1,85.5L166.1,85.5z M156.9,83.5h-21.3l-3.1,10.8h21.7c1.6,0,2.4-0.6,3.1-2.5l1.6-5.8
				C159.3,84.1,158.6,83.5,156.9,83.5L156.9,83.5z"/>
			<path class="st0" d="M175.4,77.2h5.8c0.4,0,0.6,0.3,0.5,0.7l-8.6,30.1c-0.1,0.4-0.5,0.7-1,0.7h-5.8c-0.4,0-0.5-0.3-0.4-0.7
				l8.6-30.1C174.7,77.5,175,77.2,175.4,77.2L175.4,77.2z"/>
			<path class="st0" d="M224.2,77.9l-1.4,4.8c-0.1,0.4-0.4,0.8-0.9,0.8h-28.8l-1.8,6.3h28.4c0.4,0,0.6,0.2,0.5,0.7l-1.4,4.8
				c-0.1,0.5-0.4,0.8-0.9,0.8h-28.4l-1.8,6.3h29.1c0.4,0,0.6,0.2,0.5,0.7l-1.4,4.8c-0.1,0.4-0.5,0.8-0.9,0.8h-35.6
				c-0.4,0-0.6-0.3-0.4-0.7l8.6-30.1c0.1-0.4,0.4-0.7,0.9-0.7h35.3C224.2,77.2,224.4,77.4,224.2,77.9L224.2,77.9z"/>
			<path class="st0" d="M263,100c-1.8,6.4-5.8,8.9-12.4,8.9h-21.2c-6.5,0-8.2-2.9-6.8-8.1c0.2-0.7,0.7-1.1,1.5-1.1h4.6
				c0.8,0,1,0.4,0.9,1.1c0,1.2,1,1.8,2.3,1.8h20.2c2,0,3.3-0.8,3.9-2.9c0.4-1.4,0.6-3.2-2.3-3.4l-19.9-1c-6.8-0.4-8.5-3.9-7-9.4
				c1.8-6.4,5.8-8.9,12.4-8.9h20.5c6.5,0,8.2,2.9,6.7,8.1c-0.2,0.7-0.7,1.1-1.5,1.1h-4.5c-0.8,0-1-0.4-1-1.1c0-1.3-1-1.8-2.3-1.8
				h-19.5c-2,0-3.3,0.8-3.9,2.9c-0.4,1.4-0.6,3.3,2.3,3.4l19.8,1C262.8,90.9,264.6,94.5,263,100L263,100z"/>
		</g>
	</g>
</g>
</svg>
