<?xml version="1.0" encoding="UTF-8"?>
<svg id="Layer_2" data-name="Layer 2" xmlns="http://www.w3.org/2000/svg" viewBox="0 0 1329.98 863.79">
  <defs>
    <style>
      .cls-1 {
        fill: #fff;
      }
    </style>
  </defs>
  <g id="Layer_1-2" data-name="Layer 1">
    <g>
      <g>
        <path class="cls-1" d="m919.79,678.98l-184.7,184.81h-267.63l58.91-58.91c1.7-1.7,4-2.65,6.4-2.65h176.79l61.69-61.69h-180.52l30.4-30.4h.12l31.17-31.17h-.01l138.49-138.49h86.96l-138.49,138.49h180.43Z"/>
        <path class="cls-1" d="m762.9,540.88H177.33c-2.4,0-4.7.95-6.4,2.65l-58.79,58.79h148.02L0,862.48h83.16c2.4,0,4.7-.95,6.4-2.65l126.78-126.78h141.19l61.45-61.45h-141.19l69.29-69.29h196.33l-260.16,260.16h86.91l257.51-257.51c1.7-1.7,4-2.65,6.4-2.65h67.39l61.44-61.45Z"/>
        <path class="cls-1" d="m1096.84,636.77h-83.16c-2.4,0-4.7.95-6.4,2.65l-224.37,224.37h347.39l-58.15-61.45h-140.88l165.57-165.57Z"/>
        <path class="cls-1" d="m1148.95,721.92l181.03-181.04h-420.85c-2.4,0-4.7.95-6.4,2.65l-58.78,58.79h234.38v-.12h97.82l-117.19,120.31,44.7,44.7h0s96.58,96.58,96.58,96.58h90.57l-141.88-141.88Z"/>
      </g>
      <g>
        <g>
          <polygon class="cls-1" points="127.35 118.86 243.41 234.92 121.96 234.92 36.07 149.03 7.46 120.4 7.46 3.14 179.75 3.14 295.37 118.76 131.99 118.76 131.99 118.86 127.35 118.86"/>
          <polygon class="cls-1" points="123.07 236.04 123.07 470.57 7.46 354.97 7.46 234.92 121.96 234.92 123.07 236.04"/>
        </g>
        <g>
          <path class="cls-1" d="m504.45,14.65l-11.13-7.73c-1.7-1.32-.94-3.77,1.13-3.77h125.64c21.51,0,32.26,14.71,26.6,29.99l-11.88,34.14c-5.47,16.03-21.69,30.18-42.82,30.18h-71.68l-10.94,32.07c-1.32,3.77-3.96,5.66-7.92,5.66h-38.29c7.55-21.13,30.75-88.28,41.31-120.54Zm22.26,24.15l10.75,9.62-6.41,18.49h56.78c1.89,0,3.02-.75,3.58-2.26l9.43-27.16c0-.19.19-.38,0-.94-.19-.94-.94-1.51-2.08-1.51h-70.55c-2.08,0-2.83,2.45-1.51,3.77Z"/>
          <path class="cls-1" d="m673.86,14.65l-11.51-7.73c-1.7-1.32-.75-3.77,1.32-3.77h58.48c-16.03,46.41-24.71,70.74-30.18,87.15l-1.7,1.51c-1.32,1.32-3.96,3.4-8.68,7.73-1.32,1.32-.57,3.77,1.51,3.77h80.74c-2.08,5.66-6.79,18.68-9.24,26.22-1.32,3.77-3.96,5.66-7.92,5.66h-114.69c23.58-68.29,32.26-92.25,41.88-120.54Z"/>
          <path class="cls-1" d="m815.72,14.84l-11.51-7.92c-1.7-1.32-.94-3.77,1.13-3.77h165.82c-6.04,17.36-35.09,103.19-42.63,126.39-1.32,3.77-3.96,5.66-7.92,5.66h-39.05l11.7-31.88h-63.57l-9.05,26.22c-1.32,3.77-3.96,5.66-7.92,5.66h-38.48c7.55-23.2,33.2-94.7,41.5-120.35Zm23.2,61.69h63.57l12.64-36.97c1.13-3.02-.19-4.53-3.96-4.53h-67.72c-2.08,0-2.83,2.45-1.32,3.77l7.55,6.79-10.75,30.94Z"/>
          <path class="cls-1" d="m983.44,3.14h57.16c1.7,4.72,3.21,9.43,4.9,13.96,2.83,7.55,5.85,16.22,7.55,21.32-1.7,8.11-2.64,14.53-3.96,19.81,19.05-17.35,37.92-34.9,56.78-52.82,1.51-1.51,3.4-2.26,5.66-2.26h50.18c-6.6,5.85-17.73,15.85-30.56,27.92l-63.19,57.91-13.96,40.56c-1.32,3.58-4.53,5.66-8.11,5.66h-38.48c3.02-8.49,6.79-19.81,10.38-29.43,2.08-5.47,3.77-10.94,5.85-16.79-.94-2.45-1.89-5.28-3.21-8.11l-7.73-19.81c-3.02-8.11-6.23-16.03-9.43-24.52-3.4-8.3-6.22-15.47-8.49-21.51-.19-.19-.38-.19-.38-.19l-12.07-7.92c-1.7-1.32-.94-3.77,1.13-3.77Z"/>
          <path class="cls-1" d="m476,167.16h58.17l4.07,59.72-3.1,30.64,32.38-38.97c8.72-10.28,18.03-21.91,28.89-34.51h28.7c4.46,0,7.95,2.91,8.53,7.37l5.62,35.29-1.75,29.86c30.44-38.58,58.36-75.23,66.7-86.09,1.74-2.13,4.07-3.3,6.98-3.3h44.21c-24.04,30.25-106.64,134.56-105.47,132.43-1.55,2.13-3.88,3.3-6.79,3.3h-39.55l-6.79-67.28c-2.13,2.91-49.44,61.66-50.99,63.98-1.55,2.13-3.88,3.3-6.79,3.3h-39.36c-2.33-20.36-10.28-103.73-12.6-123.89-.78-.58-3.68-2.33-6.59-4.46-1.75-.97-3.3-2.13-5.43-3.49-1.75-1.36-1.16-3.68.97-3.88Z"/>
          <path class="cls-1" d="m774.4,178.99c-3.88-2.91-7.56-5.43-12.02-7.75-2.13-1.36-1.16-4.07.97-4.07h60.49l-44.98,129.9c-1.36,3.88-4.07,5.82-8.14,5.82h-39.36c7.76-23.07,32.96-93.07,43.04-123.89Z"/>
          <path class="cls-1" d="m833.73,167.16h156.27c-2.13,6.4-6.98,19.39-9.5,26.95-1.36,3.88-4.07,5.82-8.14,5.82h-48.47c-2.13,0-2.91,2.52-1.36,3.88l11.83,10.86-28.5,82.4c-1.36,3.88-4.07,5.82-8.14,5.82h-39.55l35.87-102.95h-56.61c.39-1.36,7.95-18.81,8.53-20.94l-13.18-7.75c-2.13-1.36-1.16-4.07.97-4.07Z"/>
          <path class="cls-1" d="m989.42,252.08c9.31-26.17,19.58-56.42,25.4-73.1-3.88-2.91-7.76-5.43-12.22-7.75-1.75-1.36-.97-4.07,1.16-4.07h48.47c6.2,0,10.28,5.82,8.14,11.44l-13.77,39.36h67.28l17.64-50.8h45.95l-45.37,129.9c-1.36,3.88-4.07,5.82-8.14,5.82h-39.36l17.84-51.96h-79.88c-2.13,0-2.91,2.33-1.55,3.68l9.89,8.92c-10.86,27.14-9.11,39.36-19.58,39.36h-39.75c.39-1.94,8.53-24.24,17.84-50.8Z"/>
          <path class="cls-1" d="m460.89,470.57l11.75-28.28c1.39-3.38,4.38-5.58,8.16-5.58h96.98c2.19.2,3.39-.6,3.98-2.39l5.38-15.53c.6-1.59,0-2.39-2.19-2.39h-67.71c-20.71,0-35.25-12.74-28.28-31.86l7.37-21.71c5.78-17.32,23.3-31.66,45.6-31.66h114.7c-3.39,10.16-5.77,17.32-8.96,27.48-1.39,4.18-4.18,6.17-8.36,6.17h-110.12c-2.19,0-2.99,2.59-1.39,3.98l10.16,9.16-1.59,4.98c-.6,1.59.2,2.39,2.19,2.39h67.9c20.51,0,35.05,12.74,28.08,31.86l-7.37,21.71c-6.37,16.93-21.31,31.66-44.21,31.66h-122.07Z"/>
          <path class="cls-1" d="m666.79,331.18h160.5c-2.19,6.57-7.17,19.91-9.76,27.68-1.39,3.98-4.18,5.97-8.36,5.97h-49.78c-2.19,0-2.99,2.59-1.39,3.98l12.15,11.15-29.27,84.63c-1.39,3.98-4.18,5.97-8.36,5.97h-40.62l36.84-105.74h-58.15c.4-1.39,8.16-19.32,8.76-21.51l-13.54-7.97c-2.19-1.39-1.19-4.18,1-4.18Z"/>
          <path class="cls-1" d="m834.85,331.18h60.34c1.79,4.98,3.39,9.96,5.18,14.74,2.99,7.96,6.17,17.13,7.97,22.5-1.79,8.56-2.79,15.33-4.18,20.91,20.11-18.32,40.03-36.84,59.94-55.76,1.59-1.59,3.58-2.39,5.97-2.39h52.97c-6.97,6.17-18.72,16.73-32.26,29.47l-66.71,61.13-14.74,42.81c-1.39,3.78-4.78,5.97-8.56,5.97h-40.62c3.19-8.96,7.17-20.91,10.95-31.06,2.19-5.77,3.98-11.55,6.17-17.72-1-2.59-1.99-5.58-3.39-8.56l-8.16-20.91c-3.19-8.56-6.57-16.93-9.96-25.89-3.58-8.76-6.57-16.33-8.96-22.7-.2-.2-.4-.2-.4-.2l-12.74-8.36c-1.79-1.39-1-3.98,1.19-3.98Z"/>
          <path class="cls-1" d="m1043.34,343.33l-12.15-8.16c-1.79-1.39-.8-3.98,1.39-3.98h61.73c-16.93,48.99-26.09,74.67-31.86,92l-1.79,1.59c-1.39,1.39-4.18,3.58-9.16,8.16-1.39,1.39-.6,3.98,1.59,3.98h85.23c-2.19,5.97-7.17,19.71-9.76,27.68-1.39,3.98-4.18,5.97-8.36,5.97h-121.07c24.89-72.09,34.05-97.38,44.21-127.25Z"/>
          <path class="cls-1" d="m1139.92,445.28l34.85-101.96c-.6-1-6.57-4.98-11.55-8.16-1.79-1.39-1-3.98,1.19-3.98h158.11l-9.56,27.68c-1.39,3.78-4.58,5.97-8.36,5.97h-104.15c-2.19,0-2.99,2.59-1.39,3.98l10.75,9.76-2.99,8.16h68.1l-7.77,22.3c-1.39,3.78-4.58,5.97-8.36,5.97h-71.09c-2.19,0-2.99,2.39-1.59,3.78l7.37,6.77-3.98,11.35h96.58l-9.76,27.68c-1.39,3.98-4.18,5.97-8.36,5.97h-110.12c-12.94,0-22.3-12.94-17.92-25.29Z"/>
        </g>
        <path class="cls-1" d="m371.48,473.72c-1.74,0-3.14-1.41-3.14-3.14V3.14c0-1.74,1.41-3.14,3.14-3.14s3.14,1.41,3.14,3.14v467.43c0,1.74-1.41,3.14-3.14,3.14Z"/>
      </g>
    </g>
  </g>
</svg>