<?xml version="1.0" encoding="UTF-8"?>
<svg id="Layer_2" data-name="Layer 2" xmlns="http://www.w3.org/2000/svg" viewBox="0 0 1299.66 880.51">
  <defs>
    <style>
      .cls-1 {
        fill: #fff;
      }
    </style>
  </defs>
  <g id="Layer_1-2" data-name="Layer 1">
    <g>
      <path class="cls-1" d="m0,729.12l117.79-235.27h78.74l49.98,235.27h-63.8l-9.48-44.35h-82.28l-22.5,44.35H0Zm114.58-96.74h49.66l-10.77-54.96c-1.07-5.46-1.88-10.34-2.41-14.62-.54-4.28-.86-8.3-.96-12.05-2.25,6.43-4.31,12.08-6.19,16.95-1.88,4.88-3.35,8.49-4.42,10.85l-24.91,53.84Z"/>
      <path class="cls-1" d="m305.96,729.12l28.6-180.63h-52.71l9-54.64h166.17l-9,54.64h-50.3l-28.6,180.63h-63.16Z"/>
      <path class="cls-1" d="m458.93,729.12l71.99-235.27h69.91l15.75,91.12c.96,5.57,1.85,11.44,2.65,17.6.8,6.16,1.58,12.56,2.33,19.2,1.18-4.71,2.76-9.78,4.74-15.19,1.98-5.41,4.79-12.18,8.44-20.33l42.1-92.4h69.42l5.62,235.27h-58.01l-.64-112.17c0-6.32.11-12.56.32-18.72.21-6.16.53-12.34.96-18.56-2.36,7.93-6.38,17.84-12.05,29.73-1.07,2.36-1.88,4.13-2.41,5.3l-53.67,114.42h-38.09l-22.02-114.26c-1.18-5.79-2.22-11.6-3.14-17.43-.91-5.84-1.74-11.7-2.49-17.6-1.18,6.97-2.44,13.55-3.78,19.77-1.34,6.21-2.71,12-4.1,17.36l-32.62,112.17h-61.23Z"/>
      <path class="cls-1" d="m773.56,729.12l117.79-235.27h78.74l49.98,235.27h-63.8l-9.48-44.35h-82.28l-22.5,44.35h-68.46Zm114.58-96.74h49.66l-10.77-54.96c-1.07-5.46-1.88-10.34-2.41-14.62-.54-4.28-.86-8.3-.96-12.05-2.25,6.43-4.31,12.08-6.19,16.95-1.88,4.88-3.35,8.49-4.42,10.85l-24.91,53.84Z"/>
      <path class="cls-1" d="m1029.06,729.12l104.3-127.12-62.83-108.15h71.35l24.75,46.28c1.5,2.89,2.97,5.87,4.42,8.92,1.45,3.06,2.81,6.14,4.1,9.24,1.39-3,3.03-6,4.9-9,1.88-3,4.04-6.16,6.51-9.48l35.03-45.96h76.98l-90.8,111.85,73.28,123.42h-73.6l-33.91-62.83c-1.39-2.46-2.81-5.25-4.26-8.36-1.45-3.11-2.92-6.37-4.42-9.8-2.04,4.18-3.96,7.77-5.79,10.77-1.82,3-3.59,5.68-5.3,8.04l-46.76,62.19h-77.94Z"/>
      <path class="cls-1" d="m2.79,828.9c0-30.67,22.59-51.61,51.32-51.61,17.65,0,29.92,8.53,37.85,19.75l-10.47,5.83c-5.69-8.38-16.01-14.51-27.38-14.51-21.84,0-38.45,16.76-38.45,40.54s16.6,40.54,38.45,40.54c11.37,0,21.69-5.98,27.38-14.51l10.62,5.83c-8.38,11.37-20.35,19.75-38,19.75-28.72,0-51.32-20.94-51.32-51.61Z"/>
      <path class="cls-1" d="m115.14,828.9c0-29.47,19.9-51.61,49.52-51.61s49.52,22.14,49.52,51.61-20.05,51.61-49.52,51.61-49.52-22.14-49.52-51.61Zm86.17,0c0-23.34-14.36-40.54-36.65-40.54s-36.65,17.21-36.65,40.54,14.21,40.54,36.65,40.54,36.65-17.35,36.65-40.54Z"/>
      <path class="cls-1" d="m315.46,878.72l-58.2-79.59v79.59h-12.42v-99.79h12.72l57.45,77.94v-77.94h12.42v99.79h-11.97Z"/>
      <path class="cls-1" d="m357.93,828.9c0-30.67,22.59-51.61,51.32-51.61,17.65,0,29.92,8.53,37.85,19.75l-10.47,5.83c-5.69-8.38-16.01-14.51-27.38-14.51-21.84,0-38.45,16.76-38.45,40.54s16.6,40.54,38.45,40.54c11.37,0,21.69-5.98,27.38-14.51l10.62,5.83c-8.38,11.37-20.35,19.75-38,19.75-28.72,0-51.32-20.94-51.32-51.61Z"/>
      <path class="cls-1" d="m474.32,878.72v-99.79h65.38v11.07h-52.96v32.16h51.91v11.07h-51.91v34.41h52.96v11.07h-65.38Z"/>
      <path class="cls-1" d="m570.66,878.72v-99.79h40.09c20.05,0,31.27,13.76,31.27,30.07s-11.52,30.07-31.27,30.07h-27.68v39.65h-12.42Zm58.5-69.72c0-11.22-8.08-19-19.9-19h-26.18v38h26.18c11.82,0,19.9-7.78,19.9-19Z"/>
      <path class="cls-1" d="m694.38,878.72v-88.72h-31.56v-11.07h75.7v11.07h-31.72v88.72h-12.42Z"/>
      <path class="cls-1" d="m810.02,864.65l7.33-9.43c6.58,7.33,17.35,14.21,31.42,14.21,17.8,0,23.49-9.57,23.49-17.2,0-25.73-59.09-11.52-59.09-47.13,0-16.46,14.66-27.68,34.26-27.68,15.26,0,27.08,5.09,35.46,13.91l-7.48,9.13c-7.48-8.23-17.95-11.97-28.87-11.97-11.97,0-20.5,6.43-20.5,15.86,0,22.44,59.1,9.57,59.1,46.83,0,14.51-9.88,29.32-36.8,29.32-17.36,0-30.07-6.58-38.3-15.86Z"/>
      <path class="cls-1" d="m938.67,878.72v-88.72h-31.57v-11.07h75.7v11.07h-31.72v88.72h-12.42Z"/>
      <path class="cls-1" d="m1002.4,828.9c0-29.47,19.9-51.61,49.52-51.61s49.52,22.14,49.52,51.61-20.05,51.61-49.52,51.61-49.52-22.14-49.52-51.61Zm86.17,0c0-23.34-14.36-40.54-36.65-40.54s-36.65,17.21-36.65,40.54,14.21,40.54,36.65,40.54,36.65-17.35,36.65-40.54Z"/>
      <path class="cls-1" d="m1189.85,878.72l-25.43-39.65h-19.9v39.65h-12.42v-99.79h40.09c18.25,0,31.27,11.67,31.27,30.07s-12.27,27.83-25.88,29.03l26.93,40.69h-14.66Zm.75-69.72c0-11.22-8.08-19-19.9-19h-26.18v38.15h26.18c11.82,0,19.9-7.93,19.9-19.15Z"/>
      <path class="cls-1" d="m1234.28,878.72v-99.79h65.38v11.07h-52.96v32.16h51.91v11.07h-51.91v34.41h52.96v11.07h-65.38Z"/>
    </g>
    <g>
      <polygon class="cls-1" points="450.13 12.39 450.13 87.32 557.71 225.68 557.71 232.17 450.13 370.49 450.13 445.42 625.89 299.89 632.4 299.9 808.19 445.42 808.19 370.45 450.13 12.39"/>
      <polygon class="cls-1" points="807.85 281.68 526.17 0 462.52 0 807.85 345.33 807.85 281.68"/>
      <polygon class="cls-1" points="802.38 86.87 802.38 11.89 663.94 120.69 731.04 187.85 802.38 86.87"/>
    </g>
  </g>
</svg>