<?xml version="1.0" encoding="utf-8"?>
<!-- Generator: Adobe Illustrator 27.1.1, SVG Export Plug-In . SVG Version: 6.00 Build 0)  -->
<svg version="1.1" id="Layer_2_00000166648677367719694660000009428809697234610055_"
	 xmlns="http://www.w3.org/2000/svg" xmlns:xlink="http://www.w3.org/1999/xlink" x="0px" y="0px" viewBox="0 0 1330 863.8"
	 style="enable-background:new 0 0 1330 863.8;" xml:space="preserve">
<style type="text/css">
	.st0{clip-path:url(#SVGID_00000057144576157796084350000015006788565505863043_);}
	.st1{fill:#FFFFFF;}
</style>
<g>
	<defs>
		<rect id="SVGID_1_" y="0.7" width="1330" height="862.5"/>
	</defs>
	<clipPath id="SVGID_00000065048568128993507370000010766384188360211842_">
		<use xlink:href="#SVGID_1_"  style="overflow:visible;"/>
	</clipPath>
	<g id="Layer_1-2" style="clip-path:url(#SVGID_00000065048568128993507370000010766384188360211842_);">
		<g>
			<g>
				<path class="st1" d="M919.8,408.7L735.1,593.5H467.5l58.9-58.9c1.7-1.7,4-2.7,6.4-2.7h176.8l61.7-61.7H590.7l30.4-30.4h0.1
					l31.2-31.2h0l138.5-138.5h87L739.4,408.7L919.8,408.7L919.8,408.7z"/>
				<path class="st1" d="M762.9,270.6H177.3c-2.4,0-4.7,1-6.4,2.7l-58.8,58.8h148L0,592.2h83.2c2.4,0,4.7-1,6.4-2.7l126.8-126.8
					h141.2l61.5-61.5H277.8l69.3-69.3h196.3L283.3,592.2h86.9l257.5-257.5c1.7-1.7,4-2.7,6.4-2.7h67.4L762.9,270.6L762.9,270.6z"/>
				<path class="st1" d="M1096.8,366.5h-83.2c-2.4,0-4.7,1-6.4,2.7L782.9,593.6h347.4l-58.2-61.5H931.3L1096.8,366.5L1096.8,366.5z"
					/>
				<path class="st1" d="M1148.9,451.7l181-181H909.1c-2.4,0-4.7,1-6.4,2.7l-58.8,58.8h234.4V332h97.8L1059,452.3l44.7,44.7l0,0
					l96.6,96.6h90.6L1148.9,451.7L1148.9,451.7z"/>
			</g>
		</g>
	</g>
</g>
</svg>
