<?xml version="1.0" encoding="UTF-8"?>
<svg id="Layer_2" data-name="Layer 2" xmlns="http://www.w3.org/2000/svg" viewBox="0 0 1298.56 880.89">
  <defs>
    <style>
      .cls-1 {
        fill: #fff;
      }
    </style>
  </defs>
  <g id="Layer_1-2" data-name="Layer 1">
    <g>
      <path class="cls-1" d="m174.33,880.89H48.32c-13.25,0-24.24-3.61-32.97-10.84-10.24-8.28-15.36-20.02-15.36-35.23v-93.26c0-12.19,2.48-21.37,7.45-27.55,7.53-9.18,21.15-13.77,40.87-13.77h126v41.32H61.19c-3.92,0-7.04,1.24-9.37,3.73-2.34,2.48-3.5,5.68-3.5,9.6v69.1c0,11.44,4.66,17.16,14,17.16h63.45v-33.42h-28v-38.39h76.55v111.55Z"/>
      <path class="cls-1" d="m357.79,770.92c0,9.03-1.73,16.64-5.19,22.81-8.58,10.54-24.84,16.71-48.78,18.52l47.65,68.42-56,.23-47.65-68.65h-14.68v68.65h-48.55v-180.65h126.91c30.86,0,46.29,13.77,46.29,41.32v29.36Zm-48.55-12.19v-.45c0-11.14-4.97-16.71-14.9-16.71h-61.19v33.87h61.19c9.94,0,14.9-5.57,14.9-16.71Z"/>
      <path class="cls-1" d="m541.54,880.89h-48.55v-43.81h-76.1v43.81h-48.55v-139.33c0-27.55,15.36-41.32,46.07-41.32h127.13v180.65Zm-48.55-80.61v-58.71h-61.19c-9.94,0-14.9,5.57-14.9,16.71v42h76.1Z"/>
      <path class="cls-1" d="m725,880.89h-48.55v-121.94c0-6.62-1.69-11.18-5.08-13.66-3.39-2.48-8.77-3.73-16.15-3.73h-54.87v139.33h-48.55v-180.65h124.65c12.65,0,23.11,2.86,31.39,8.58,11.44,7.83,17.16,20.32,17.16,37.48v134.58Z"/>
      <path class="cls-1" d="m909.59,834.83c0,15.21-5.12,26.95-15.36,35.23-8.88,7.23-19.95,10.84-33.19,10.84h-77.23c-13.25,0-24.31-3.61-33.19-10.84-10.24-8.28-15.36-20.02-15.36-35.23v-93.26c0-12.19,2.56-21.37,7.68-27.55,7.53-9.18,21.15-13.77,40.87-13.77h77.23c19.72,0,33.34,4.59,40.87,13.77,5.12,6.17,7.68,15.36,7.68,27.55v93.26Zm-48.55-10.84v-69.1c0-3.91-1.13-7.11-3.39-9.6-2.26-2.48-5.35-3.73-9.26-3.73h-51.94c-3.92,0-7,1.24-9.26,3.73s-3.39,5.68-3.39,9.6v69.1c0,11.44,4.59,17.16,13.77,17.16h49.68c9.18,0,13.77-5.72,13.77-17.16Z"/>
      <path class="cls-1" d="m1121.05,700.24l-76.1,180.65h-48.55l-76.55-180.65h55.78l45.16,113.58,44.26-113.58h56Z"/>
      <path class="cls-1" d="m1298.56,880.89h-48.55v-43.81h-76.1v43.81h-48.55v-139.33c0-27.55,15.36-41.32,46.07-41.32h127.13v180.65Zm-48.55-80.61v-58.71h-61.19c-9.94,0-14.9,5.57-14.9,16.71v42h76.1Z"/>
    </g>
    <g>
      <path class="cls-1" d="m646.72,453.85c-4.04,11.58-3.72,10.73-3.79,10.73-23.11,0-45.86-20.23-47.58-42.81l-18.88,6.98c4.17,30.92,39.47,57.75,70.3,57.75s66.01-26.61,70.21-57.75l-18.88-6.98c-1.72,22.6-24.48,42.81-47.58,42.81l-3.8-10.73Z"/>
      <path class="cls-1" d="m635.19,104.89l5.93-104.89-33.56,69.94,26.18,35.09c.38.51,1.45-.15,1.45-.15Z"/>
      <path class="cls-1" d="m656.51,105.03l26.18-35.09L649.13,0l5.93,104.89s1.07.66,1.45.15Z"/>
      <path class="cls-1" d="m531.25,143.69c10.3-53.46,50.54-87.54,50.54-87.54h-28.76c3.37-14.85,22.77-43.14,22.77-43.14-34.65,29.5-55.64,70.29-55.64,70.29l19.01-.99-25.94,40.98,18.02,20.39Z"/>
      <path class="cls-1" d="m759.78,143.69l18.02-20.39-25.94-40.98,19.01.99s-20.99-40.79-55.64-70.29c0,0,19.4,28.29,22.77,43.14h-28.76s40.24,34.08,50.54,87.54Z"/>
      <path class="cls-1" d="m632.27,196.61c10.33-71.98,10.25-67.56,8.75-70.04l-30.73-36.43-51.97,73.8,48.04-38.46,14.82,19.76-8.81,45.72,19.9,5.64Z"/>
      <path class="cls-1" d="m732.75,163.94l-51.97-73.8-30.43,36.43c-1.5,2.48-1.58-1.95,8.75,70.04l19.9-5.64-8.87-46.04,14.58-19.44,48.04,38.46Z"/>
      <path class="cls-1" d="m620.36,257.19c.08-.35,2.36-1.19-18.71,6.08-4.31,1.48-4.75,5.06-4.75,5.06l-12.92,80.53s23.61-9.55,27.52-11.19c3.91-1.63,4.01,2.92,4.01,2.92l-8.66,86.28,30.36-52.6c1.81-3.14,1.2,1.66,2.55-80.25l-28.31,15.25,8.91-52.07Z"/>
      <path class="cls-1" d="m656.4,369.54c.06,3.55-1.18.42,31.67,57.33l-8.66-86.28s.1-4.55,4.01-2.92c3.91,1.63,27.52,11.19,27.52,11.19l-12.92-80.53s-.45-3.58-4.75-5.06c-4.31-1.48-18.78-6.37-18.78-6.37l8.98,52.37-28.31-15.25,1.25,75.52Z"/>
      <path class="cls-1" d="m886.12,122.51s-31.18-51.68-81.08-68.6c0,0,29.7,72.47-34.15,104.84-55.07,27.92-99.98,41.7-111.29,44.96-1.83.53-3.49,1.51-4.83,2.85,34.55,15.09,33.64,15.37,36.37,14.27,4.57-1.83,15.77-6.26,16.52-6.07,12.57,3.17,26.65,7.55,41.4,13.63l79.82-50.93c4.97.3,77.77,40.75,42.1,166.02-6.12,21.5-21.09,63.56-75.44,118.2,0,0,89.76-55.88,115.83-131.86,43.38-126.45-25.24-207.3-25.24-207.3Z"/>
      <path class="cls-1" d="m841.25,279.89c-44.76-17.3-40.16-15.71-39.87-15,1.25,2.37,3.08,6.78,4.08,9.26,20.25,50.02,8.82,89.33-17.79,113.28-.01.01.25.05-9.71-1.88.19-3.19,9.31-12.47,16.44-40.98,3.95-29.3-.4-40.39-5.55-57.02-7.13-11.09-6.18-33.97-83.15-65.74-.01,0,.79-.3-17.51,6.52-36.05-15.79-85.68-29.03-165.64-69.57-63.85-32.37-34.15-104.84-34.15-104.84-49.88,16.93-81.06,68.61-81.06,68.61,0,0-68.62,80.84-25.24,207.3,25.85,75.38,114.44,130.99,115.81,131.85-54.35-54.65-69.32-96.68-75.44-118.19-35.65-125.26,37.12-165.72,42.11-166.02l79.82,50.93c14.75-6.07,28.82-10.47,41.4-13.63.94-.24,18.43,6.85,18.43,6.85,0,0,68.62,23.15,75.84,25.97,23.25,9.47,40.45,20.3,52.92,31.84,4.6,5,8.82,9.38,12.52,13.78,30.76,41.04,14.86,92.34-16.7,132.5-.07.07-.03-.78-.4,16.82,0,0-4.93,12.28-10.01,18.56-11.24,11.81-26.79,26.79-57.55,30.84-4.25,0-10.95-.46-14.67-2.5-3.66,2-10.52,2.5-14.69,2.5-30.77-4.05-46.32-19.04-57.56-30.84-5.08-6.28-10.01-18.56-10.01-18.56-.39-18.38-.2-16.59-.71-17.21-5.05-6.06-59.69-74.34-16.39-132.11,3.7-4.4,7.92-8.78,12.52-13.78,25.49-23.58,59.18-34.22,75.06-39.84l-47.79-17.77c-76.98,31.76-76.03,54.65-83.16,65.74-5.15,16.63-9.5,27.72-5.55,57.02,7.13,28.51,16.25,37.79,16.44,40.98-10.17,1.98-9.7,1.89-9.73,1.87-1.13-.86-47.5-37.05-18.7-110.88,2-5.51,5.24-12.13,5.24-12.15l-40.11,15.5c-2.39,4.62-34.22,69.93,54.72,156.29,21.05,20.44,43.85,66.24,43.85,128.24,9.1-5.76,29.68-32.65,31.87-41.76.95-3.98,3.66-9.52,7.71-9.52,28.45,3.63,26.43,3.35,26.39,3.42,0,0-15.58,4.29-19.29,5.4-3.71,1.11-5.27,4.53-5.27,4.53,0,0-9.24,22.05-10.83,25.91-1.57,3.86,1.29,6.58,1.29,6.58,0,0,4.2,4.94,9.5,8.91,5.11,3.82,1.66,6.85,1.4,7.07-.37.37-2.2,2.44-2.63,2.93-10.93,12.7-33.94,21.53-45.99,31.78l42.38-10.63c4.74-1.19,9.71.71,12.46,4.75,21.55,31.73,41.53,45.68,41.53,45.68-25.05-36.83-29.86-51.69-29.86-51.69,0,0-4.41-9.1-2.11-14.92,2.3-5.84,7.01-7.13,7.01-7.13,9.02-3.95,18.39-7.61,30.95-7.63-2.59-2.59-3.15-2.95-3.55-4.17l-15.93-51.45c-.5-1.59-.07-3.31,1.1-4.5l18.43-18.49,18.41,18.49c1.17,1.19,1.6,2.91,1.1,4.5l-15.93,51.45c-.4,1.22-.94,1.57-3.55,4.17,12.28,0,21.71,3.58,30.95,7.63,0,0,4.71,1.29,7.01,7.13,2.3,5.82-2.11,14.92-2.11,14.92-5.23,16.15-30.13,51.89-29.83,51.67.84-.59,20.43-14.61,41.51-45.66,2.1-3.09,5.51-4.93,9.11-5.09,2.38-.11-.33-.58,45.73,10.97l-3.07-2.61c-30.24-18.48-34.9-20.52-42.04-28.2-1.69-1.86-3.2-3.63-3.5-3.89-.26-.23-3.71-3.25,1.4-7.07,5.3-3.96,9.5-8.91,9.5-8.91,0,0,2.87-2.72,1.29-6.58-1.59-3.86-10.83-25.91-10.83-25.91,0,0-1.56-3.41-5.27-4.53-3.71-1.11-19.29-5.4-19.29-5.4-.05-.07-2.07.21,26.39-3.42,4.04,0,6.76,5.54,7.71,9.52,2.18,9.1,22.76,35.99,31.87,41.76,0-63.45,23.69-108.66,43.85-128.24,88.94-86.36,57.11-151.67,54.72-156.29Z"/>
    </g>
  </g>
</svg>