<?xml version="1.0" encoding="utf-8"?>
<!-- Generator: Adobe Illustrator 27.1.1, SVG Export Plug-In . SVG Version: 6.00 Build 0)  -->
<svg version="1.1" id="Layer_2_00000124142373670965944980000009688147400058344890_"
	 xmlns="http://www.w3.org/2000/svg" xmlns:xlink="http://www.w3.org/1999/xlink" x="0px" y="0px" viewBox="0 0 458.4 141.3"
	 style="enable-background:new 0 0 458.4 141.3;" xml:space="preserve">
<style type="text/css">
	.st0{fill:#FFFFFF;}
</style>
<g id="Layer_1-2">
	<g>
		<path class="st0" d="M120.5,0L96.3,56.9L82.2,32.3L96,0H60.3L0,141.3h35.7l24.9-58.5l14.1,24.5h35.7L156.3,0H120.5z M83.2,75.1
			l-2.6,0.6c-5.7-0.9-6.2,1.9-6.2,1.9l-4.3,0.1c0.2-0.3,1.2-0.9,1.5-1.1c-2.2,1-4.2,3.2-4.4,3.5c0.4-0.7,0.5-2.2,0.5-2.2
			c0.3-2.3,1.2-3.2,1.2-3.2c2.1-2.2,2.4-1.4,8.1-2.1c5.7-0.8,5.1-4.4,5.1-4.4l-15.4,5c0.7-1.6,6.2-7.7,6.2-7.7h0
			c4.5,1.6,19.9-4.6,19.9-4.6l-4,3.9l-0.4,2.6l6-2.9L83.2,75.1z"/>
		<polygon class="st0" points="156.3,141.3 120.5,141.3 180.8,0 216.5,0 		"/>
		<polygon class="st0" points="216.5,141.3 180.8,141.3 241.1,0 276.8,0 		"/>
		<polygon class="st0" points="276.8,141.3 241.1,141.3 301.3,0 337.1,0 		"/>
		<polygon class="st0" points="417.2,96.6 362.4,141.3 422.7,0 458.4,0 		"/>
		<polygon class="st0" points="320.1,99.4 338,141.3 351,110.8 368.9,68.9 383.6,34.3 347.9,34.2 345,41.1 333.1,68.9 		"/>
	</g>
</g>
</svg>
