<?xml version="1.0" encoding="utf-8"?>
<!-- Generator: Adobe Illustrator 27.1.1, SVG Export Plug-In . SVG Version: 6.00 Build 0)  -->
<svg version="1.1" id="Layer_2_00000065767035443587642160000004741772762653631116_"
	 xmlns="http://www.w3.org/2000/svg" xmlns:xlink="http://www.w3.org/1999/xlink" x="0px" y="0px" viewBox="0 0 1301.9 801.4"
	 style="enable-background:new 0 0 1301.9 801.4;" xml:space="preserve">
<style type="text/css">
	.st0{clip-path:url(#SVGID_00000087414375430985839740000009127241591504434866_);}
	.st1{fill:#FFFFFF;}
</style>
<g>
	<defs>
		<rect id="SVGID_1_" width="1301.9" height="801.4"/>
	</defs>
	<clipPath id="SVGID_00000035490044187460166410000007778085832076523175_">
		<use xlink:href="#SVGID_1_"  style="overflow:visible;"/>
	</clipPath>
	<g style="clip-path:url(#SVGID_00000035490044187460166410000007778085832076523175_);">
		<path class="st1" d="M342.3,200l-68.9,161.5l-40-69.7l39.2-91.8H171.2L0,601.4h101.5l70.8-166.1l40,69.7h101.4l130.1-305H342.3z
			 M236.3,413.4l-7.5,1.7c-16.2-2.6-17.5,5.5-17.5,5.5l-12.2,0.3c0.6-0.9,3.9-2.9,4.3-3.1c-6.8,3-12.8,10.2-12.8,10.2
			c1.2-1.9,1.6-6.3,1.6-6.3c1-6.4,3.4-9.2,3.4-9.2c6.1-6.4,6.9-3.9,23-6.1c16.1-2.2,14.5-12.4,14.5-12.4l-43.8,14.3
			c1.9-4.4,17.7-21.9,17.7-21.9c12.7,4.5,55.4-12.6,56.6-13.1l-11.3,11l-1.2,7.3l17-8.2L236.3,413.4z"/>
		<polygon class="st1" points="443.8,601.4 342.3,601.4 513.5,200 615,200 		"/>
		<polygon class="st1" points="615,601.4 513.5,601.4 684.7,200 786.2,200 		"/>
		<polygon class="st1" points="786.2,601.4 684.7,601.4 855.8,200 957.3,200 		"/>
		<polygon class="st1" points="1184.9,474.5 1029.3,601.4 1200.4,200 1301.9,200 		"/>
		<polygon class="st1" points="909.2,482.4 959.9,601.4 996.9,514.8 1047.6,395.8 1089.5,297.4 988.2,297.2 979.8,316.7 
			946.1,395.8 		"/>
	</g>
</g>
</svg>
