<?xml version="1.0" encoding="utf-8"?>
<!-- Generator: Adobe Illustrator 27.1.1, SVG Export Plug-In . SVG Version: 6.00 Build 0)  -->
<svg version="1.1" id="Layer_2_00000099657226763883848380000005070126171124366743_"
	 xmlns="http://www.w3.org/2000/svg" xmlns:xlink="http://www.w3.org/1999/xlink" x="0px" y="0px" viewBox="0 0 763 182"
	 style="enable-background:new 0 0 763 182;" xml:space="preserve">
<style type="text/css">
	.st0{fill:#FFFFFF;}
</style>
<g id="Layer_2-2_00000002385928223156799650000016768130005106259363_">
	<g id="Layer_2-2">
		<g>
			<path class="st0" d="M474.5,182H0V0h763l-99,100.8H555.7L474.5,182L474.5,182L474.5,182z M9.8,172.2h460.7L551.6,91h108.2
				l79.8-81.2H9.8V172.2z"/>
			<polygon class="st0" points="628.1,15.3 704.4,17.5 623.9,18.9 700.8,21.1 620.3,22.6 697.2,24.8 616.6,26.2 693.5,28.4 
				613,29.8 689.9,32 609.4,33.5 686.3,35.7 605.7,37.1 682.6,39.3 602.1,40.7 679,42.9 598.5,44.4 675.4,46.6 594.8,48 671.7,50.2 
				591.2,51.6 668.1,53.8 587.6,55.3 664.5,57.5 583.9,58.9 660.8,61.1 580.3,62.5 657.2,64.7 576.7,66.2 653.6,68.4 573,69.8 
				649.9,72 569.4,73.4 646.3,75.6 565.8,77.1 642.7,79.3 562.1,80.7 639,82.9 561.6,84.3 657,84.3 724.8,15.3 			"/>
			<polygon class="st0" points="569.1,105.6 492.7,182 534.3,182 610.7,105.6 			"/>
		</g>
		<polygon class="st0" points="540.9,91 466.6,165.4 34.8,165.4 		"/>
		<g>
			<path class="st0" d="M70.7,63.9c-1.5,5.4-5,7.6-10.5,7.6H41.7c-5.5,0-7-2.5-5.7-6.9c0.2-0.5,0.6-0.9,1.2-0.9h3.5
				c0.6,0,0.8,0.3,0.7,0.9c-0.1,1.4,0.7,2,2.4,2h17.6c2.1,0,3.4-0.8,4.1-2.9c0.5-1.7,0.3-3.2-2.3-3.3l-17.4-1c-5.7-0.3-7.3-3.2-6-8
				c1.6-5.4,5-7.6,10.5-7.6h17.9c5.5,0,6.9,2.5,5.7,6.9c-0.2,0.5-0.5,0.9-1.2,0.9h-3.5c-0.6,0-0.8-0.3-0.7-0.9c0.1-1.4-0.7-2-2.3-2
				h-17c-2.1,0-3.5,0.8-4.1,2.9c-0.5,1.7-0.3,3.2,2.4,3.4l17.3,0.9C70.4,56.3,72.1,59.1,70.7,63.9z"/>
			<path class="st0" d="M81.9,44h4.3c0.4,0,0.5,0.2,0.4,0.6l-7.5,26.1c-0.1,0.4-0.4,0.6-0.8,0.6H74c-0.4,0-0.5-0.2-0.4-0.6l7.5-26.1
				C81.3,44.2,81.5,44,81.9,44z"/>
			<path class="st0" d="M122.8,51.1l-1.7,5.9c-1,3.5-3,5.9-6.1,6.7l2.6,6.7c0.2,0.5-0.4,1-1,1h-3.9c-0.5,0-0.6-0.2-0.8-0.6l-2.6-6.6
				H91.6l-1.9,6.7c-0.1,0.4-0.4,0.6-0.8,0.6h-4.3c-0.4,0-0.5-0.2-0.4-0.6l7.5-26.1c0.1-0.4,0.4-0.6,0.7-0.6h25.4
				C122.7,44,124.1,46.7,122.8,51.1z M115.2,48.9H96l-3,10.4h19.4c1.8,0,2.8-0.7,3.4-2.7l1.4-5.1C117.8,49.6,117.1,48.9,115.2,48.9z
				"/>
			<path class="st0" d="M130.8,44h4.3c0.4,0,0.5,0.2,0.4,0.6l-7.5,26.1c-0.1,0.4-0.4,0.6-0.8,0.6h-4.3c-0.4,0-0.5-0.2-0.4-0.6
				l7.5-26.1C130.2,44.2,130.4,44,130.8,44z"/>
			<path class="st0" d="M142.4,51.8V45c0-0.7,0.3-1,1-1h2.5c0.4,0,0.5,0.1,0.5,0.5v1.1c0,0.4-0.2,0.5-0.5,0.5h-1.2v5.6
				c0,0.4-0.1,0.5-0.5,0.5h-1.2C142.5,52.3,142.4,52.2,142.4,51.8z"/>
			<path class="st0" d="M182.3,51v6.7c0,4.7-2.3,6.9-7.2,6.9h-22.3v6.2c0,0.4-0.2,0.5-0.5,0.5h-1.5c-0.4,0-0.5-0.2-0.5-0.5V44.6
				c0-0.4,0.2-0.5,0.5-0.5h24.3C180,44,182.3,46.4,182.3,51z M179.7,51.3c0-3.4-1.5-4.9-5-4.9h-22v15.8h22c3.5,0,5-1.4,5-4.9V51.3z"
				/>
			<path class="st0" d="M187,64.6V50.8c0-4.6,2.3-6.9,7.2-6.9h20.6c4.8,0,7.2,2.3,7.2,6.9v13.7c0,4.6-2.4,6.9-7.2,6.9h-20.6
				C189.3,71.5,187,69.2,187,64.6z M214.4,69.1c3.5,0,4.9-1.4,4.9-4.9V51.1c0-3.4-1.4-4.9-4.9-4.9h-19.9c-3.5,0-5,1.4-5,4.9v13.1
				c0,3.5,1.5,4.9,5,4.9H214.4z"/>
			<path class="st0" d="M240.6,70.7l-15.4-26.1c-0.3-0.4,0-0.6,0.4-0.6h1.8c0.4,0,0.5,0.2,0.8,0.6l14.1,23.9h0.4l14.7-23.9
				c0.3-0.4,0.4-0.6,0.8-0.6h2.2c0.4,0,0.5,0.2,0.8,0.6l14.7,23.9h0.4l14.1-23.9c0.3-0.4,0.4-0.6,0.8-0.6h1.8c0.4,0,0.7,0.2,0.4,0.6
				l-15.4,26.1c-0.2,0.4-0.4,0.6-0.7,0.6h-2.2c-0.4,0-0.5-0.2-0.7-0.6l-14.9-24.3l-15,24.3c-0.2,0.4-0.4,0.6-0.7,0.6h-2.2
				C241,71.4,240.8,71.1,240.6,70.7z"/>
			<path class="st0" d="M328.9,69.6v1.2c0,0.4-0.2,0.6-0.6,0.6H298c-0.4,0-0.5-0.2-0.5-0.5V44.6c0-0.4,0.2-0.5,0.5-0.5h30.1
				c0.4,0,0.6,0.2,0.6,0.6v1.2c0,0.4-0.2,0.6-0.6,0.6H300v10.1h27.7c0.4,0,0.6,0.2,0.6,0.6v1.2c0,0.4-0.2,0.6-0.6,0.6H300V69h28.3
				C328.7,69,328.9,69.2,328.9,69.6z"/>
			<path class="st0" d="M365.3,71.4h-1.5c-0.3,0-0.5-0.1-0.7-0.4l-5-7.5h-22v7.4c0,0.4-0.2,0.5-0.5,0.5h-1.5c-0.4,0-0.5-0.2-0.5-0.5
				V44.6c0-0.4,0.2-0.5,0.5-0.5h24.3c4.8,0,7.2,2.3,7.2,6.9v5.5c0,3.8-1.6,6-4.8,6.7l4.9,7.4C366,71.1,365.7,71.4,365.3,71.4z
				 M336.1,61.1h22c3.5,0,4.9-1.4,4.9-4.9v-4.9c0-3.4-1.4-4.9-4.9-4.9h-22V61.1z"/>
			<path class="st0" d="M385,70.7l-15.1-26c-0.3-0.5,0-0.7,0.4-0.7h3.4c0.4,0,0.6,0.2,0.8,0.7l12.9,22.1h0.5l13.7-22.1
				c0.3-0.4,0.4-0.7,0.9-0.7h3.5c0.4,0,0.6,0.2,0.9,0.7l13.7,22.1h0.5l12.9-22.1c0.2-0.4,0.4-0.7,0.8-0.7h3.4c0.4,0,0.6,0.2,0.4,0.7
				l-15.1,26c-0.2,0.4-0.4,0.6-0.8,0.6h-3.4c-0.4,0-0.5-0.2-0.8-0.6L404,48l-14.1,22.7c-0.2,0.4-0.4,0.6-0.8,0.6h-3.4
				C385.4,71.4,385.2,71.1,385,70.7z"/>
			<path class="st0" d="M474,68.3v2.4c0,0.4-0.2,0.6-0.6,0.6h-30.5c-0.4,0-0.6-0.2-0.6-0.6V44.6c0-0.4,0.2-0.6,0.6-0.6h30.3
				c0.4,0,0.6,0.2,0.6,0.6v2.4c0,0.4-0.2,0.6-0.6,0.6h-26.9v8.3h26.5c0.4,0,0.6,0.2,0.6,0.6v2.4c0,0.4-0.2,0.6-0.6,0.6h-26.5v8.3
				h27.1C473.8,67.8,474,68,474,68.3z"/>
			<path class="st0" d="M516.3,71.4h-3.4c-0.4,0-0.5-0.2-0.8-0.7l-2.8-4.3h-24.1l-2.8,4.3c-0.3,0.4-0.4,0.7-0.8,0.7h-3.4
				c-0.4,0-0.7-0.2-0.4-0.7l16.9-26c0.2-0.4,0.4-0.6,0.8-0.6h3.3c0.4,0,0.6,0.2,0.8,0.6l16.9,26C517,71.1,516.7,71.4,516.3,71.4z
				 M507,62.9l-9.5-14.6H497l-9.5,14.6H507z"/>
			<path class="st0" d="M553,71.4h-2.7c-0.4,0-0.6-0.2-0.9-0.5l-4.7-7h-19.9v7c0,0.4-0.2,0.6-0.5,0.6h-2.9c-0.4,0-0.6-0.2-0.6-0.6
				V44.6c0-0.4,0.2-0.6,0.6-0.6h24.9c4.8,0,7.1,2.5,7.1,7v5.7c0,3.6-1.4,5.9-4.4,6.7l4.7,7C553.9,71,553.6,71.4,553,71.4z
				 M524.9,60.2h20.7c2.7,0,3.8-1.1,3.8-3.8v-5c0-2.7-1.2-3.8-3.8-3.8h-20.7V60.2z"/>
			<path class="st0" d="M561,44.6v6.8c0,0.7-0.3,1-1,1h-2.5c-0.4,0-0.5-0.1-0.5-0.5v-1.1c0-0.4,0.1-0.5,0.5-0.5h1.2v-5.6
				c0-0.4,0.1-0.5,0.5-0.5h1.2C560.9,44,561,44.2,561,44.6z"/>
		</g>
	</g>
</g>
</svg>
