<?xml version="1.0" encoding="utf-8"?>
<!-- Generator: Adobe Illustrator 27.1.1, SVG Export Plug-In . SVG Version: 6.00 Build 0)  -->
<svg version="1.1" id="Layer_2_00000099657226763883848380000005070126171124366743_"
	 xmlns="http://www.w3.org/2000/svg" xmlns:xlink="http://www.w3.org/1999/xlink" x="0px" y="0px" viewBox="0 0 763 182"
	 style="enable-background:new 0 0 763 182;" xml:space="preserve">
<style type="text/css">
	.st0{fill:#FFFFFF;}
</style>
<g id="Layer_2-2_00000002385928223156799650000016768130005106259363_">
	<g id="Layer_2-2">
		<g>
			<path class="st0" d="M474.5,182H0V0h763l-99,100.8H555.7L474.5,182L474.5,182L474.5,182z M9.8,172.2h460.7L551.6,91h108.2
				l79.8-81.2H9.8V172.2z"/>
			<polygon class="st0" points="628.1,15.3 704.4,17.5 623.9,18.9 700.8,21.1 620.3,22.6 697.2,24.8 616.6,26.2 693.5,28.4 
				613,29.8 689.9,32 609.4,33.5 686.3,35.7 605.7,37.1 682.6,39.3 602.1,40.7 679,42.9 598.5,44.4 675.4,46.6 594.8,48 671.7,50.2 
				591.2,51.6 668.1,53.8 587.6,55.3 664.5,57.5 583.9,58.9 660.8,61.1 580.3,62.5 657.2,64.7 576.7,66.2 653.6,68.4 573,69.8 
				649.9,72 569.4,73.4 646.3,75.6 565.8,77.1 642.7,79.3 562.1,80.7 639,82.9 561.6,84.3 657,84.3 724.8,15.3 			"/>
			<polygon class="st0" points="569.1,105.6 492.7,182 534.3,182 610.7,105.6 			"/>
		</g>
		<polygon class="st0" points="540.9,91 466.6,165.4 34.8,165.4 		"/>
		<g>
			<path class="st0" d="M73.4,42.2V50c0,5.4-2.7,8-8.3,8H39.4v7.1c0,0.4-0.2,0.6-0.6,0.6h-1.7c-0.5,0-0.6-0.2-0.6-0.6V34.9
				c0-0.5,0.2-0.6,0.6-0.6h28.1C70.8,34.2,73.4,36.9,73.4,42.2z M70.5,42.6c0-4-1.7-5.6-5.7-5.6H39.4v18.3h25.3c4,0,5.7-1.6,5.7-5.6
				V42.6L70.5,42.6z"/>
			<path class="st0" d="M78.8,57.9V42c0-5.3,2.7-8,8.3-8h23.7c5.6,0,8.3,2.7,8.3,8v15.8c0,5.4-2.7,8-8.3,8H87.1
				C81.5,65.9,78.8,63.2,78.8,57.9z M110.5,63.2c4,0,5.7-1.7,5.7-5.7V42.4c0-4-1.7-5.6-5.7-5.6H87.5c-4,0-5.7,1.7-5.7,5.6v15.1
				c0,4,1.7,5.7,5.7,5.7C87.5,63.2,110.5,63.2,110.5,63.2z"/>
			<path class="st0" d="M140.7,65l-17.8-30.1c-0.3-0.5,0-0.7,0.4-0.7h2.1c0.4,0,0.6,0.2,0.9,0.7l16.3,27.5h0.4L160,34.9
				c0.3-0.5,0.4-0.7,0.9-0.7h2.6c0.4,0,0.6,0.2,0.9,0.7l16.9,27.5h0.4L198,34.9c0.3-0.5,0.4-0.7,0.9-0.7h2.1c0.4,0,0.8,0.2,0.4,0.7
				L183.7,65c-0.3,0.4-0.4,0.7-0.9,0.7h-2.5c-0.4,0-0.6-0.3-0.9-0.7l-17.2-28l-17.3,28c-0.3,0.4-0.4,0.7-0.9,0.7h-2.5
				C141.2,65.7,141,65.5,140.7,65L140.7,65z"/>
			<path class="st0" d="M242.6,63.7v1.4c0,0.4-0.2,0.7-0.7,0.7h-35c-0.4,0-0.6-0.2-0.6-0.6V34.9c0-0.5,0.2-0.6,0.6-0.6h34.7
				c0.4,0,0.7,0.2,0.7,0.7v1.4c0,0.5-0.2,0.7-0.7,0.7h-32.4v11.6h31.9c0.4,0,0.7,0.2,0.7,0.7v1.4c0,0.5-0.2,0.7-0.7,0.7h-31.9V63
				h32.6C242.3,63,242.6,63.2,242.6,63.7L242.6,63.7z"/>
			<path class="st0" d="M284.5,65.7h-1.8c-0.4,0-0.6-0.1-0.8-0.5l-5.7-8.6h-25.3v8.5c0,0.4-0.2,0.6-0.6,0.6h-1.7
				c-0.4,0-0.6-0.2-0.6-0.6V34.8c0-0.5,0.2-0.6,0.6-0.6h28.1c5.6,0,8.3,2.7,8.3,8v6.3c0,4.4-1.8,7-5.5,7.7l5.7,8.6
				C285.4,65.4,285.1,65.7,284.5,65.7L284.5,65.7z M250.9,53.8h25.4c4,0,5.7-1.6,5.7-5.6v-5.6c0-4-1.7-5.6-5.7-5.6h-25.4L250.9,53.8
				L250.9,53.8z"/>
			<path class="st0" d="M307.3,65l-17.5-30c-0.3-0.5,0-0.8,0.4-0.8h3.9c0.5,0,0.7,0.3,0.9,0.8L310,60.5h0.5L326.3,35
				c0.3-0.5,0.5-0.8,1-0.8h4c0.5,0,0.7,0.3,1,0.8L348,60.5h0.5L363.4,35c0.3-0.5,0.5-0.8,0.9-0.8h3.9c0.5,0,0.7,0.3,0.4,0.8
				l-17.5,30c-0.3,0.4-0.5,0.7-1,0.7h-3.9c-0.4,0-0.6-0.3-0.9-0.7l-16.2-26.2L313,65c-0.3,0.4-0.5,0.7-0.9,0.7h-3.9
				C307.8,65.7,307.6,65.5,307.3,65L307.3,65z"/>
			<path class="st0" d="M410,62.3V65c0,0.4-0.2,0.7-0.7,0.7h-35.2c-0.5,0-0.7-0.2-0.7-0.7V34.9c0-0.5,0.2-0.7,0.7-0.7h35
				c0.5,0,0.7,0.2,0.7,0.7v2.8c0,0.5-0.2,0.7-0.7,0.7h-31v9.5h30.5c0.5,0,0.7,0.2,0.7,0.7v2.8c0,0.5-0.2,0.7-0.7,0.7h-30.5v9.5h31.2
				C409.8,61.6,410,61.8,410,62.3L410,62.3z"/>
			<path class="st0" d="M458.8,65.7h-4c-0.5,0-0.6-0.3-1-0.8l-3.2-4.9H423l-3.2,4.9c-0.3,0.5-0.5,0.8-1,0.8h-4
				c-0.5,0-0.8-0.3-0.4-0.8l19.5-30c0.3-0.5,0.5-0.7,1-0.7h3.8c0.5,0,0.7,0.3,0.9,0.7l19.5,30C459.6,65.5,459.3,65.7,458.8,65.7
				L458.8,65.7z M448.1,56l-11-16.9h-0.5l-11,16.9H448.1L448.1,56z"/>
			<path class="st0" d="M501.2,65.7h-3.1c-0.5,0-0.7-0.2-1-0.6l-5.4-8.1h-23V65c0,0.4-0.2,0.7-0.6,0.7h-3.3c-0.5,0-0.7-0.2-0.7-0.7
				V34.9c0-0.5,0.2-0.7,0.7-0.7h28.7c5.6,0,8.1,2.8,8.1,8.1v6.6c0,4.2-1.6,6.8-5.1,7.7l5.4,8.1C502.2,65.3,501.9,65.7,501.2,65.7z
				 M468.7,52.8h23.9c3.1,0,4.4-1.2,4.4-4.4v-5.7c0-3.1-1.4-4.4-4.4-4.4h-23.9V52.8z"/>
			<path class="st0" d="M518.6,34.9v1.3c0,0.5-0.2,0.7-0.7,0.7h-4v8.1c0,0.5-0.2,0.7-0.7,0.7H512c-0.5,0-0.7-0.2-0.7-0.7v-8.1h-4
				c-0.5,0-0.7-0.2-0.7-0.7v-1.3c0-0.5,0.2-0.7,0.7-0.7H518C518.4,34.2,518.7,34.5,518.6,34.9L518.6,34.9z M538,34.9v10.2
				c0,0.5-0.2,0.7-0.7,0.7H536c-0.5,0-0.7-0.2-0.7-0.7v-7.5l-4.4,7.5c-0.2,0.4-0.5,0.7-0.8,0.7h-1c-0.4,0-0.6-0.3-0.8-0.7l-4.4-7.5
				v7.5c0,0.5-0.2,0.7-0.7,0.7h-1.3c-0.5,0-0.7-0.2-0.7-0.7V34.9c0-0.5,0.2-0.7,0.7-0.7h2.7c0.5,0,0.7,0.3,0.9,0.7l4.1,7.4l4.2-7.4
				c0.2-0.3,0.5-0.7,0.9-0.7h2.7C537.8,34.2,538,34.5,538,34.9L538,34.9z"/>
			<path class="st0" d="M75.7,100c-1.8,6.4-5.8,8.9-12.4,8.9H42c-6.5,0-8.2-2.9-6.8-8.1c0.2-0.7,0.7-1.1,1.5-1.1h4.6
				c0.8,0,1,0.4,0.9,1.1c0,1.2,1,1.8,2.3,1.8h20.2c2,0,3.3-0.8,3.9-2.9c0.4-1.4,0.6-3.2-2.3-3.4l-19.9-1c-6.8-0.4-8.5-3.9-7-9.4
				c1.8-6.4,5.8-8.9,12.4-8.9h20.5c6.5,0,8.2,2.9,6.7,8.1c-0.2,0.7-0.7,1.1-1.5,1.1h-4.5c-0.8,0-1-0.4-0.9-1.1c0-1.3-1-1.8-2.3-1.8
				H50.4c-2,0-3.3,0.8-3.9,2.9c-0.5,1.4-0.6,3.3,2.3,3.4l19.8,1C75.5,91,77.3,94.5,75.7,100L75.7,100z"/>
			<path class="st0" d="M124.3,77.9l-1.4,4.8c-0.1,0.4-0.4,0.8-0.9,0.8H93.2l-1.8,6.3h28.3c0.4,0,0.6,0.2,0.5,0.7l-1.4,4.8
				c-0.1,0.5-0.4,0.8-0.9,0.8H89.6l-1.8,6.3h29.1c0.4,0,0.6,0.2,0.5,0.7l-1.3,4.8c-0.1,0.4-0.5,0.8-0.9,0.8H79.5
				c-0.4,0-0.6-0.3-0.4-0.7l8.6-30.1c0.1-0.4,0.4-0.7,0.9-0.7h35.3C124.3,77.2,124.5,77.4,124.3,77.9L124.3,77.9z"/>
			<path class="st0" d="M166.1,85.5l-1.9,6.9c-1.2,3.9-3.4,6.7-6.9,7.7l2.9,7.5c0.2,0.6-0.4,1.2-1.3,1.2h-5.2c-0.6,0-0.8-0.3-1-0.8
				l-2.9-7.4h-19.3l-2.1,7.5c-0.1,0.4-0.5,0.7-1,0.7h-5.8c-0.4,0-0.5-0.3-0.4-0.7l8.6-30.1c0.1-0.4,0.4-0.7,0.9-0.7h29.6
				C166,77.2,167.6,80.3,166.1,85.5L166.1,85.5z M156.9,83.5h-21.3l-3.1,10.8h21.7c1.6,0,2.4-0.6,3.1-2.5l1.6-5.8
				C159.3,84.1,158.6,83.5,156.9,83.5L156.9,83.5z"/>
			<path class="st0" d="M175.4,77.2h5.8c0.4,0,0.6,0.3,0.5,0.7l-8.6,30.1c-0.1,0.4-0.5,0.7-1,0.7h-5.8c-0.4,0-0.5-0.3-0.4-0.7
				l8.6-30.1C174.7,77.5,175,77.2,175.4,77.2L175.4,77.2z"/>
			<path class="st0" d="M224.2,77.9l-1.4,4.8c-0.1,0.4-0.4,0.8-0.9,0.8h-28.8l-1.8,6.3h28.4c0.4,0,0.6,0.2,0.5,0.7l-1.4,4.8
				c-0.1,0.5-0.4,0.8-0.9,0.8h-28.4l-1.8,6.3h29.1c0.4,0,0.6,0.2,0.5,0.7l-1.4,4.8c-0.1,0.4-0.5,0.8-0.9,0.8h-35.6
				c-0.4,0-0.6-0.3-0.4-0.7l8.6-30.1c0.1-0.4,0.4-0.7,0.9-0.7h35.3C224.2,77.2,224.4,77.4,224.2,77.9L224.2,77.9z"/>
			<path class="st0" d="M263,100c-1.8,6.4-5.8,8.9-12.4,8.9h-21.2c-6.5,0-8.2-2.9-6.8-8.1c0.2-0.7,0.7-1.1,1.5-1.1h4.6
				c0.8,0,1,0.4,0.9,1.1c0,1.2,1,1.8,2.3,1.8h20.2c2,0,3.3-0.8,3.9-2.9c0.4-1.4,0.6-3.2-2.3-3.4l-19.9-1c-6.8-0.4-8.5-3.9-7-9.4
				c1.8-6.4,5.8-8.9,12.4-8.9h20.5c6.5,0,8.2,2.9,6.7,8.1c-0.2,0.7-0.7,1.1-1.5,1.1h-4.5c-0.8,0-1-0.4-1-1.1c0-1.3-1-1.8-2.3-1.8
				h-19.5c-2,0-3.3,0.8-3.9,2.9c-0.4,1.4-0.6,3.3,2.3,3.4l19.8,1C262.8,91,264.6,94.5,263,100L263,100z"/>
		</g>
	</g>
</g>
</svg>
