<?xml version="1.0" encoding="UTF-8"?>
<svg id="Layer_2" data-name="Layer 2" xmlns="http://www.w3.org/2000/svg" viewBox="0 0 1298.56 883.29">
  <defs>
    <style>
      .cls-1 {
        fill: #fff;
      }
    </style>
  </defs>
  <g id="Layer_1-2" data-name="Layer 1">
    <g>
      <polygon class="cls-1" points="268.06 682.21 0 682.21 0 724.57 95.38 724.57 95.38 878.58 145.88 878.58 145.88 724.57 226.96 724.57 277.15 781.51 189.62 880.49 268.06 880.49 355.58 781.51 268.06 682.21"/>
      <polygon class="cls-1" points="469.67 781.51 382.14 880.49 303.71 880.49 391.23 781.51 303.71 682.21 382.14 682.21 469.67 781.51"/>
      <polygon class="cls-1" points="787.6 880.49 737.1 880.49 737.1 745.83 655.47 880.49 619 880.49 537.36 745.83 537.36 880.49 486.86 880.49 486.86 684.11 555.03 684.11 637.23 822.69 719.43 684.11 787.6 684.11 787.6 880.49"/>
      <path class="cls-1" d="m804.8,782.02c0-65.08,37.03-100.71,123.44-100.71s123.44,35.91,123.44,100.71-37.31,101.27-123.44,101.27-123.44-35.91-123.44-101.27Zm196.38,0c0-39.84-20.2-58.35-72.94-58.35s-72.94,18.24-72.94,58.35,20.48,58.91,72.94,58.91,72.94-18.8,72.94-58.91Z"/>
      <path class="cls-1" d="m1255.7,822.13l36.19,58.35h-59.47l-31.7-52.46h-81.36v52.46h-50.5v-196.38h154.3c90.75,0,97.02,112.65,32.54,138.03Zm-136.34-36.47h89.77c15.15,0,38.71,0,38.71-29.46s-23.57-29.74-38.71-29.74h-89.77v59.19Z"/>
    </g>
    <g>
      <g>
        <path class="cls-1" d="m689.04,41.24c92.74,3.79,185.09,27,274.45,56.03l13.3-90.46C670.28-.42,686.76-1.37,684.05,2.41c-17.76,25-17.05,25.26-20.59,25.26-35.1,0-34.5.76-36.57-2.16C609.13.5,609.83.31,606.3,0l-288.34,6.81,13.21,90.46c89.35-29.03,181.7-52.24,274.44-56.03,1.94-.08,3.8.83,4.93,2.43,17.92,25.22,16.57,23.49,17.47,24.19-1.12,2.34,9.92,111.59-40.52,274.62l59.83,341.63c64.43-367.94,60.01-340.99,59.44-342.88-50.4-163.89-38.95-270.93-40.12-273.37,4.36-3.34,16.07-26.87,22.4-26.62Z"/>
        <path class="cls-1" d="m967.78,123.39c-109.7-44.06-224.17-48.98-250.01-49.53-3.37-.07-6.56,1.47-8.6,4.15-10.06,13.22-14.4,17.02-14.05,25.74,2.81,69.46,13.77,132.81,31.8,197.22l25.33-82.54c-32.8-22.09-20.49-59.31,6.24-59.91l45.56-1.03s71.56,12.1,74.82,120.77l89.25-101.93c16.24-18.55,5.63-37.4-.35-52.95Z"/>
        <path class="cls-1" d="m599.52,103.75c.35-8.7-3.67-12.1-14.05-25.74-2.04-2.68-5.23-4.22-8.6-4.15-25.83.55-140.3,5.47-250.01,49.53-6.28,16.34-16.42,34.59-.35,52.95l89.25,101.93c3.13-105.87,74.82-120.77,74.82-120.77l45.56,1.03c26.39.6,39.43,37.56,6.24,59.91l25.33,82.54c18.38-65.62,29.03-128.85,31.8-197.22Z"/>
      </g>
      <path class="cls-1" d="m689.04,41.24c92.74,3.79,185.09,27,274.45,56.03l13.3-90.46C670.28-.42,686.76-1.37,684.05,2.41c-17.76,25-17.05,25.26-20.59,25.26-35.1,0-34.5.76-36.57-2.16C609.13.5,609.83.31,606.3,0l-288.34,6.81,13.21,90.46c89.35-29.03,181.7-52.24,274.44-56.03,1.94-.08,3.8.83,4.93,2.43,17.92,25.22,16.57,23.49,17.47,24.19-1.12,2.34,9.92,111.59-40.52,274.62l59.83,341.63c64.43-367.94,60.01-340.99,59.44-342.88-50.4-163.89-38.95-270.93-40.12-273.37,4.36-3.34,16.07-26.87,22.4-26.62Z"/>
    </g>
  </g>
</svg>