<?xml version="1.0" encoding="UTF-8"?>
<svg id="Layer_2" data-name="Layer 2" xmlns="http://www.w3.org/2000/svg" viewBox="0 0 1336.59 863.59">
  <defs>
    <style>
      .cls-1 {
        fill: #fff;
      }
    </style>
  </defs>
  <g id="Layer_1-2" data-name="Layer 1">
    <g>
      <path class="cls-1" d="m181.06,578.34c62.83-62.71,125.66-125.42,188.45-188.17,9.52-9.51,18.84-19.21,28.53-29.1,18.52,18.74,36.39,36.84,54.03,54.69,22.22-22.24,43.96-43.98,65.48-65.51-28.24-28.4-56.6-57.04-85.1-85.53-20.11-20.1-48-20.18-67.97-.26-61.58,61.4-123.13,122.83-184.64,184.3-18.01,18-35.84,36.17-54.68,55.21-18.46-18.72-36.4-36.91-53.96-54.73-21.7,21.67-43.25,43.18-65,64.91.35.42.81,1.09,1.37,1.65,28.64,28.61,57.06,57.45,86.03,85.73,18.01,17.58,45.09,17.44,63.65.35,8.2-7.55,15.91-15.64,23.81-23.53Z"/>
      <path class="cls-1" d="m670.91,360.63c18.82,19.04,36.7,37.13,53.87,54.51,22.08-22.01,43.83-43.69,65.29-65.09-27.88-28.07-56.11-56.38-84.21-84.81-20.3-20.54-48.25-20.91-68.72-.62-16.8,16.66-33.52,33.4-50.26,50.12-53.63,53.57-107.28,107.12-160.86,160.74-9.12,9.13-17.96,18.55-27.69,28.64-18.8-19.06-36.64-37.16-54.61-55.38-21.59,21.82-43.03,43.48-64.86,65.54.4.44.92,1.07,1.49,1.64,28.2,28.12,56.31,56.35,84.66,84.31,19.72,19.45,47.66,19.09,67.28-.48,74.32-74.12,148.64-148.24,222.91-222.41,5.27-5.26,10.21-10.85,15.7-16.72Z"/>
      <path class="cls-1" d="m936.59,368.82c2.43-2.43,4.45-5.27,7.22-8.59,19.06,19.2,36.97,37.24,54.64,55.04,21.7-21.76,43.32-43.45,65.05-65.23-.23-.27-.61-.81-1.07-1.27-27.84-27.76-56.18-55.04-83.35-83.44-18.82-19.67-49.58-20.63-70.03-.04-73.03,73.49-146.56,146.49-219.85,219.72-5.96,5.96-11.54,12.3-17.74,18.93-18.94-19.08-36.77-37.05-54.71-55.12-21.57,21.84-43.07,43.63-65.12,65.96,5.53,5.42,11.38,11.11,17.18,16.85,24.03,23.8,47.86,47.81,72.16,71.32,9.55,9.24,21.71,12.47,35,11.24,12.8-1.19,22.63-7.65,31.46-16.59,23.07-23.35,46.4-46.42,69.64-69.6,53.19-53.05,106.38-106.09,159.53-159.18Z"/>
      <path class="cls-1" d="m1216.93,360.36c18.7,19.03,36.51,37.15,54,54.95,21.91-21.95,43.51-43.59,65.2-65.32-.23-.29-.59-.86-1.05-1.32-28.76-28.72-57.31-57.65-86.37-86.06-18.44-18.03-46.8-17.13-65.09,1.18-12.71,12.73-25.4,25.48-38.14,38.18-52.95,52.81-105.94,105.59-158.87,158.44-14.13,14.11-28.07,28.41-42.36,42.89-18.48-18.58-36.41-36.61-54.3-54.58-21.89,22.01-43.46,43.7-64.99,65.35,28.5,28.72,56.85,58.08,86.11,86.5,20.55,19.97,47.77,18.49,67.98-1.86,25.58-25.76,51.35-51.34,77.05-76.98,47.52-47.41,95.07-94.79,142.56-142.22,5.96-5.96,11.65-12.2,18.26-19.14Z"/>
      <path class="cls-1" d="m671.4,99.64c-.08-.08-.15-.16-.23-.23-.37.37-.73.74-1.1,1.12.08.08.15.16.23.23.37-.37.73-.74,1.1-1.12Z"/>
      <path class="cls-1" d="m670.06,100.52c-33.13-33.57-65.85-66.73-98.65-99.96-33.18,33.4-66.01,66.46-98.42,99.08,32.78,33.01,65.62,66.09,99.29,99.99,32.4-32.84,64.84-65.72,97.78-99.11Z"/>
      <path class="cls-1" d="m868.99,99.84c-32.32-32.52-65.24-65.65-99.22-99.84-32.4,32.82-64.87,65.71-98.38,99.64,33.36,33.78,66.02,66.85,98.51,99.74,33.7-33.85,66.66-66.97,99.08-99.54Z"/>
      <path class="cls-1" d="m1323.4,527.33c4.44-4.41,9.23-8.46,13.2-12.07-22.6-22.73-44.16-44.41-66.04-66.41-17.73,17.91-35.63,35.98-54.06,54.59-18.24-18.43-36.15-36.51-53.5-54.03-22.08,21.97-43.75,43.53-65.25,64.94,28.88,29,57.76,58.52,87.25,87.42,18.12,17.76,46.93,16.83,64.8-1.02,24.52-24.48,49.02-48.99,73.6-73.41Z"/>
      <path class="cls-1" d="m126.43,361.18c17.94,18.12,35.81,36.17,53.8,54.35,21.61-21.85,43.14-43.61,64.8-65.49-.45-.48-1.11-1.22-1.8-1.92-28.38-28.37-56.74-56.75-85.15-85.09-17.97-17.94-47.35-17.64-65.54.56-19.79,19.79-39.6,39.55-59.41,59.32-9.06,9.05-18.12,18.09-26.97,26.92,21.99,21.92,43.71,43.57,66.22,66.01,17.55-17.74,35.41-35.81,54.05-54.66Z"/>
      <path class="cls-1" d="m979.95,675.72c-3.4-.17-4.42,1.16-5.2,4.26-9.12,35.88-18.4,71.71-27.66,107.56-2.28,8.81-4.64,17.59-7.3,27.65-4.75-18.15-9.15-34.98-13.55-51.82-7.3-27.95-14.56-55.9-21.97-83.82-.37-1.41-1.88-3.52-2.94-3.57-6.93-.32-13.89-.17-20.87-.17v184.2h21.54v-125.04c.28-.03.57-.06.85-.1.14.57.28,1.13.41,1.7,9.04,37.96,18.06,75.92,27.15,113.87,2.43,10.14,2.52,10.01,13.07,9.99,3.01,0,4.22-.7,4.94-3.92,6.79-30.12,13.83-60.19,20.8-90.27,2.45-10.56,4.89-21.13,7.34-31.69.38.05.75.09,1.13.14v125.34h21.15v-184.23c-6.57,0-12.74.22-18.89-.09Z"/>
      <path class="cls-1" d="m1300,772.78c.9-.43,1.8-.86,2.71-1.26,12.91-5.57,19.89-15.25,19.97-29.42.07-11.82.16-23.67-.45-35.46-1-19.41-13.15-30.67-32.63-30.83-12.33-.09-24.66-.03-36.98,0-1.42,0-2.84.21-4.18.31v183.89h22.96v-82.79c3.02-.23,5.47-.42,8.46-.65.86,2.56,1.62,4.74,2.3,6.94,7.53,24.23,15.02,48.47,22.63,72.68.48,1.52,1.81,3.91,2.82,3.96,7.72.33,15.46.18,23.57.18-10.81-29.52-21.34-58.29-31.8-86.84.41-.46.49-.63.62-.7Zm-14.52-15.79c-4.59.3-9.21.05-14.08.05v-60c5.48,0,10.63-.38,15.69.09,7.74.71,12.14,4.82,12.59,12.9.63,11.09.66,22.27.11,33.37-.42,8.46-5.74,13.03-14.31,13.59Z"/>
      <path class="cls-1" d="m1162.23,675.99h-22.93c0,2,0,3.47,0,4.94,0,47.64.02,95.29-.02,142.93,0,2.81.08,5.74-.65,8.4-2.08,7.61-8.46,10.78-18.39,9.56-7.16-.88-11.54-5.58-12-13.01-.13-2.16-.08-4.33-.08-6.5,0-46.81,0-93.62,0-140.43v-5.89h-22.59c-.14.87-.33,1.5-.33,2.13,0,50.64-.16,101.29.14,151.93.09,16.18,8.36,27.36,22.35,31.22,5.53,1.53,11.49,2.18,17.25,2.11,22.12-.25,33.32-9.35,36.76-29.38.53-3.09.46-6.3.46-9.46.03-47.81.02-95.62.02-143.43,0-1.62,0-3.24,0-5.12Z"/>
      <path class="cls-1" d="m76.62,676.1h-22.5v7.31c0,45.49,0,90.99,0,136.48,0,2.5.11,5.01-.04,7.5-.48,7.94-4.26,13.33-10.84,14.21-10.71,1.43-20.59-.21-20.58-16.37.02-46.83-.05-93.65-.08-140.48,0-2.8,0-5.6,0-8.71H.02v6.65c0,42.33,0,84.65,0,126.98,0,7.5-.14,15.01.2,22.49.67,14.67,8.86,25.36,22.27,29.2,10.48,3,21.12,2.94,31.56.04,11.32-3.15,18.73-10.56,21.18-22.23.98-4.69,1.6-9.55,1.61-14.34.12-48.16.08-96.32.07-144.48,0-1.43-.19-2.87-.29-4.25Z"/>
      <path class="cls-1" d="m398.79,675.93h-22.71c0,2.28,0,4.08,0,5.89,0,46.16,0,92.31,0,138.47,0,2.33.11,4.68-.06,7-.64,8.49-4.3,13.12-11.24,14.43-12.9,2.42-20.3-3.75-20.29-16.89.02-47.16.03-94.31.04-141.47,0-2.42,0-4.84,0-7.35h-22.63c0,2.39,0,4.5,0,6.62,0,26.16-.03,52.32,0,78.48.04,23.66-.08,47.32.33,70.98.27,15.54,9.24,26.68,24.54,29.61,8.01,1.54,16.63,1.78,24.71.66,14.46-2.01,23.61-10.79,26.3-25.47.72-3.91,1.02-7.95,1.02-11.93.04-47.99,0-95.98-.02-143.97,0-1.62,0-3.24,0-5.06Z"/>
      <path class="cls-1" d="m211.73,760.13c-7.07-5.21-14.05-10.74-20.13-17.03-3.51-3.63-6.63-8.84-7.33-13.71-1.15-7.96-.51-16.25.02-24.36.34-5.23,3.65-8.74,8.88-10.21,13.45-3.78,21.92,2.64,21.94,16.66.01,6.93,0,13.85,0,20.74h21.9c0-11.23,1.01-22.14-.25-32.77-1.6-13.5-9.99-22.77-23.54-25.01-9.02-1.48-18.65-1.5-27.67-.09-11.63,1.83-21,9.17-22.59,21.09-1.84,13.69-2.13,27.91-.69,41.64,1.48,14.18,11.78,23.65,22.84,31.97,7.3,5.48,14.38,11.31,21.09,17.49,5.1,4.7,8.58,10.75,8.85,17.92.29,7.65.25,15.33,0,22.99-.25,8.07-4.48,13.13-11.38,14.29-12.84,2.16-19.82-3.59-20.06-16.64-.11-5.83,0-11.66-.04-17.49,0-1.26-.23-2.51-.34-3.66h-22.26c0,6.05-.05,11.84.02,17.62.05,4.5-.17,9.05.44,13.48,1.99,14.45,10.28,23.41,24.39,26.85,9.57,2.33,19.23,2.22,28.67-.25,10.91-2.85,18.92-9.69,21.34-20.9,3.47-16.07,3.47-32.52.52-48.62-2.65-14.49-13.26-23.65-24.62-32.02Z"/>
      <path class="cls-1" d="m613.53,697.09h26.73v163.01h22.96v-163.42h26.62v-20.65h-76.31v21.06Z"/>
      <path class="cls-1" d="m507.3,676.08h-22.17v183.98h68.1v-21.05h-45.93v-162.93Z"/>
      <path class="cls-1" d="m769.91,860.19h22.08v-184.06h-22.08v184.06Z"/>
    </g>
  </g>
</svg>