<?xml version="1.0" encoding="UTF-8"?>
<svg id="Layer_2" data-name="Layer 2" xmlns="http://www.w3.org/2000/svg" viewBox="0 0 600 107.2">
  <g id="layer">
    <path d="m182.3,24l19.7,58.8h-10.9l-4.1-13h-20.3l-4,13h-10.9l19.7-58.8h10.8Zm-12.7,36h14.3l-7.3-22.7-7,22.7Zm40.5,22.7V24.1h24.9c10.1,0,16.2,6.2,16.2,12.9v12.4c0,4.7-3.2,9.2-8.6,11.4l9.9,21.8h-11.4l-9.3-20.5h-10.8v20.5h-10.9v.1Zm11-48.8v18.7h13.1c3.5,0,6.3-2,6.3-5.4v-7.7c0-3.6-3-5.5-6.8-5.5h-12.6v-.1Zm51.7,48.8v-49h-14.5v-9.6h38.7v9.6h-13.4v49h-10.8Zm37.2-16.7v3.8c0,5.2,4.8,9.1,11.1,9.1h6.9c6.5,0,11.4-3.1,11.4-8.5v-4.1c0-9-32.4-10.7-32.4-26.2v-5.3c0-5.9,5.6-11.1,13.1-11.1h7.7c8.4,0,14.6,5.6,14.6,12v5.3h-4.8v-4.4c0-4.8-4.5-8.5-10.1-8.5h-6.7c-5,0-9,3.2-9,7.5v4.3c0,11.5,32.4,13,32.4,25.7v5.6c0,7.4-6.8,12-15.9,12h-7.5c-9.1,0-15.8-5.9-15.8-12.7v-4.5h5Zm58.5,16.7V28.4h-16.4v-4.3h36.9v4.3h-15.7v54.3h-4.8Zm46.6-58.8l20.6,58.9h-4.8l-6.6-18.8h-23.4l-6.5,18.8h-5l20.7-58.9h5Zm-12.7,35.7h20.4l-10.1-29.5-10.3,29.5Zm50.5,23.1V28.4h-16.4v-4.3h36.9v4.3h-15.7v54.3h-4.8Zm31.3,0V24.2h4.8v58.5h-4.8Zm34.9.5c-8.1,0-13.8-5.9-13.8-12.7v-34.1c0-6.8,5.9-12.7,13.8-12.7h11.6c7.9,0,13.7,5.9,13.7,12.7v34.1c0,6.8-5.8,12.7-13.7,12.7h-11.6Zm11.2-4.4c5.2,0,9.3-3.9,9.3-9.1v-32.5c0-5.2-4.1-9.1-9.3-9.1h-10.9c-5.2,0-9.3,3.9-9.3,9.1v32.6c0,5.2,4.1,9.1,9.3,9.1h10.9v-.1Zm30.4,3.9V24.2h5.1l29.4,50V24.1h4.8v58.5h-5.1l-29.4-50v50h-4.8v.1Z"/>
    <path d="m0,82.7l10.3,17.7c2.1,4,6.2,6.8,10.9,6.8h68.3l-14.1-24.5H0Zm121.9.2c0-2.4-.7-4.7-2-6.7L79.8,6.6c-2.1-3.9-6.1-6.6-10.8-6.6h-21.2l61.9,107.1,9.8-16.9c1.8-3.2,2.4-4.6,2.4-7.3Zm-56.6-17.7l-27.6-47.8-27.6,47.8h55.2Z"/>
  </g>
</svg>