<?xml version="1.0" encoding="UTF-8"?>
<svg id="Layer_2" data-name="Layer 2" xmlns="http://www.w3.org/2000/svg" viewBox="0 0 763 181.96">
  <defs>
    <style>
      .cls-1 {
        fill: #fff;
      }
    </style>
  </defs>
  <g id="Layer_2-2" data-name="Layer 2">
    <g>
      <path class="cls-1" d="m474.55,181.96H0V0h763l-99.03,100.81h-108.27l-81.15,81.15ZM9.78,172.18h460.71l81.15-81.15h108.22l79.81-81.25H9.78v162.4Z"/>
      <g>
        <path class="cls-1" d="m86.36,54.2v-.81c0-5.44-2.38-7.82-8.01-7.82h-31.79c-5.57,0-7.95,2.32-7.95,7.82v20.96c0,5.57,2.38,7.89,7.95,7.89h31.79c5.69,0,8.01-2.25,8.01-6.82v-.38c0-.5.25-.75.75-.75h2.75c.5,0,.69.25.69.75v.88c0,6.57-3.69,10.14-11.45,10.14h-33.11c-7.76,0-11.51-3.69-11.51-11.14v-22.03c0-7.45,3.75-11.14,11.51-11.14h33.11c7.76,0,11.45,3.69,11.45,11.14v1.31c0,.5-.19.75-.69.75h-2.69c-.56,0-.81-.25-.81-.75Z"/>
        <path class="cls-1" d="m98.06,74.66v-31.79c0-.63.25-.88.88-.88h2.38c.63,0,.88.25.88.88v31.23c0,5.57,2.32,7.89,7.95,7.89h31.92c5.63,0,7.89-2.32,7.89-7.89v-31.23c0-.63.25-.88.88-.88h2.38c.63,0,.94.25.94.88v31.79c0,7.45-3.75,11.14-11.51,11.14h-33.04c-7.76,0-11.51-3.69-11.51-11.14Z"/>
        <path class="cls-1" d="m215.9,74.6c0,7.82-4.19,11.45-12.02,11.45h-30.6c-7.95,0-11.33-3.69-11.33-9.95,0-.63.31-.94.94-.94h2.25c.63,0,.88.25.94.94.44,4.13,2.32,6.13,8.01,6.13h29.23c5.69,0,8.45-2.19,8.45-7.64s-3.38-7.57-8.51-7.95l-29.1-1.88c-7.45-.5-12.2-3.69-12.2-11.58s4.19-11.45,12.02-11.45h29.79c7.95,0,11.33,3.69,11.33,9.95,0,.63-.31.94-.94.94h-2.25c-.63,0-.88-.25-.94-.94-.44-4.07-2.32-6.13-8.01-6.13h-28.41c-5.69,0-8.45,2.19-8.45,7.64s3.38,7.57,8.51,7.95l29.1,1.88c7.45.5,12.2,3.69,12.2,11.58Z"/>
        <path class="cls-1" d="m276.98,42.87v2.07c0,.63-.25.88-.88.88h-24.28v39.11c0,.63-.31.88-.94.88h-2.32c-.63,0-.88-.25-.88-.88v-39.11h-24.34c-.63,0-.88-.25-.88-.88v-2.07c0-.63.25-.88.88-.88h52.76c.63,0,.88.25.88.88Z"/>
        <path class="cls-1" d="m281.98,74.91v-22.03c0-7.45,3.75-11.14,11.51-11.14h32.98c7.76,0,11.58,3.69,11.58,11.14v22.03c0,7.45-3.82,11.14-11.58,11.14h-32.98c-7.76,0-11.51-3.69-11.51-11.14Zm44,7.32c5.57,0,7.89-2.32,7.89-7.89v-20.96c0-5.51-2.32-7.82-7.89-7.82h-31.92c-5.57,0-7.95,2.32-7.95,7.82v20.96c0,5.57,2.38,7.89,7.95,7.89h31.92Z"/>
        <path class="cls-1" d="m345.88,84.92v-42.06c0-.63.25-.88.88-.88h4.69c.63,0,.88.31,1.25.94l23.91,38.49h.56l23.91-38.49c.38-.63.63-.94,1.25-.94h4.63c.63,0,.94.25.94.88v42.06c0,.63-.31.88-.94.88h-2.38c-.63,0-.88-.25-.88-.88v-38.17h-.5l-23.72,38.17c-.38.63-.63.88-1.19.88h-2.82c-.56,0-.88-.25-1.25-.88l-23.72-38.17h-.5v38.17c0,.63-.25.88-.88.88h-2.38c-.63,0-.88-.25-.88-.88Z"/>
        <path class="cls-1" d="m88.8,97.1v5.82c0,.63-.31,1-.94,1h-22.34v35.11c0,.63-.38.94-1,.94h-6.7c-.63,0-.94-.31-.94-.94v-35.11h-22.4c-.63,0-.94-.38-.94-1v-5.82c0-.63.31-.94.94-.94h53.38c.63,0,.94.31.94.94Z"/>
        <path class="cls-1" d="m148.31,139.97h-8.07c-.69,0-1-.38-1.44-1.06l-4.01-6.2h-35.86l-4.01,6.2c-.44.69-.69,1.06-1.44,1.06h-8.01c-.63,0-1.06-.5-.56-1.25l26.91-41.55c.38-.63.69-1,1.38-1h7.38c.63,0,.94.38,1.31,1l26.91,41.55c.56.75.12,1.25-.5,1.25Zm-18.4-14.83l-12.64-19.65h-.81l-12.64,19.65h26.1Z"/>
        <path class="cls-1" d="m156.51,96.17h6.88c.63,0,1,.31,1,.94v41.93c0,.63-.38.94-1,.94h-6.88c-.63,0-.94-.31-.94-.94v-41.93c0-.63.31-.94.94-.94Z"/>
        <path class="cls-1" d="m223.91,133.21v5.82c0,.63-.31.94-.94.94h-49.5c-.63,0-.94-.31-.94-.94v-41.93c0-.63.31-.94.94-.94h6.88c.63,0,1,.31,1,.94v35.11h41.62c.63,0,.94.38.94,1Z"/>
        <path class="cls-1" d="m230.79,128.83v-21.53c0-7.2,3.82-11.39,11.58-11.39h33.23c7.76,0,11.64,4.19,11.64,11.39v21.53c0,7.2-3.88,11.39-11.64,11.39h-33.23c-7.76,0-11.58-4.19-11.58-11.39Zm42.87,3.63c2.94,0,4.76-1.13,4.76-4.32v-20.15c0-3.19-1.82-4.32-4.76-4.32h-29.29c-2.94,0-4.76,1.13-4.76,4.32v20.15c0,3.19,1.81,4.32,4.76,4.32h29.29Z"/>
        <path class="cls-1" d="m347.44,139.97h-6.26c-.75,0-1.19-.38-1.63-1l-7.2-10.64h-28.47v10.7c0,.63-.38.94-1,.94h-6.88c-.63,0-.94-.31-.94-.94v-41.93c0-.63.31-.94.94-.94h40.8c7.76,0,11.2,4.19,11.2,11.39v9.39c0,5.57-2.07,9.32-6.57,10.76l7.13,10.7c.56.88-.12,1.56-1.13,1.56Zm-43.56-19.34h30.98c2.94,0,4.32-1.19,4.32-4.32v-8.14c0-3.13-1.38-4.26-4.32-4.26h-30.98v16.71Z"/>
        <path class="cls-1" d="m407.77,133.15v5.88c0,.63-.31.94-.94.94h-49.31c-.63,0-.94-.31-.94-.94v-41.93c0-.63.31-.94.94-.94h49c.63,0,.94.31.94.94v5.88c0,.63-.31.94-.94.94h-41.12v10.26h40.49c.63,0,.94.31.94.94v5.88c0,.63-.31.94-.94.94h-40.49v10.26h41.43c.63,0,.94.31.94.94Z"/>
        <path class="cls-1" d="m473.04,107.56v21.03c0,7.2-3.44,11.39-11.2,11.39h-45.62c-.63,0-.94-.31-.94-.94v-41.93c0-.63.31-.94.94-.94h45.62c7.76,0,11.2,4.19,11.2,11.39Zm-8.76.63c0-3.13-1.38-4.26-4.38-4.26h-35.8v28.29h35.8c3,0,4.38-1.13,4.38-4.32v-19.71Z"/>
      </g>
      <polygon class="cls-1" points="628.13 15.33 704.44 17.49 623.9 18.94 700.81 21.12 620.27 22.58 697.17 24.76 616.64 26.21 693.54 28.39 613 29.84 689.91 32.02 609.37 33.48 686.27 35.66 605.74 37.11 682.64 39.29 602.1 40.74 679.01 42.92 598.47 44.38 675.37 46.56 594.84 48.01 671.74 50.19 591.21 51.64 668.11 53.82 587.57 55.28 664.48 57.46 583.94 58.91 660.84 61.09 580.31 62.54 657.21 64.72 576.67 66.18 653.58 68.36 573.04 69.81 649.94 71.99 569.41 73.44 646.31 75.62 565.77 77.08 642.68 79.26 562.14 80.71 639.04 82.89 561.62 84.29 656.98 84.29 724.79 15.33 628.13 15.33"/>
      <polygon class="cls-1" points="569.06 105.6 492.69 181.96 534.34 181.96 610.71 105.6 569.06 105.6"/>
    </g>
  </g>
</svg>