<?xml version="1.0" encoding="UTF-8"?>
<svg id="Layer_2" data-name="Layer 2" xmlns="http://www.w3.org/2000/svg" viewBox="0 0 458.41 141.34">
  <defs>
    <style>
      .cls-1 {
        fill: #fff;
      }
    </style>
  </defs>
  <g id="Layer_1-2" data-name="Layer 1">
    <g>
      <polygon points="156.27 0 110.47 107.4 74.75 107.4 60.68 82.87 35.74 141.34 0 141.34 60.27 0 96.01 0 82.22 32.34 96.29 56.87 120.54 0 156.27 0"/>
      <polygon points="156.27 141.34 120.54 141.34 180.81 0 216.54 0 156.27 141.34"/>
      <polygon points="216.54 141.34 180.81 141.34 241.07 0 276.81 0 216.54 141.34"/>
      <polygon points="276.81 141.34 241.07 141.34 301.34 0 337.08 0 276.81 141.34"/>
      <polygon points="417.2 96.63 362.41 141.34 422.68 0 458.41 0 417.2 96.63"/>
      <polygon points="320.12 99.45 337.99 141.34 350.99 110.84 368.86 68.94 383.63 34.28 347.94 34.21 345 41.1 333.13 68.94 320.12 99.45"/>
      <path class="cls-1" d="m72.92,65.67s-5.57,6.15-6.23,7.71l15.43-5.05s.58,3.59-5.09,4.37c-5.67.78-5.97-.1-8.11,2.14,0,0-.86.96-1.2,3.23,0,0-.12,1.52-.56,2.2,0,0,2.1-2.54,4.51-3.59,0,0-1.32.76-1.54,1.1l4.3-.12s.47-2.85,6.16-1.94l2.62-.58,11.2-10.5-5.97,2.89.44-2.58,3.99-3.89s-15.41,6.23-19.94,4.61h0Z"/>
    </g>
  </g>
</svg>