<?xml version="1.0" encoding="UTF-8"?>
<svg id="Layer_1" data-name="Layer 1" xmlns="http://www.w3.org/2000/svg" viewBox="0 0 742.87 234">
  <defs>
    <style>
      .cls-1, .cls-2 {
        fill: #fff;
      }

      .cls-3 {
        font-family: MyriadPro-Bold, 'Myriad Pro';
        font-weight: 700;
      }

      .cls-2 {
        font-size: 90px;
      }

      .cls-4 {
        font-family: MyriadPro-Regular, 'Myriad Pro';
      }
    </style>
  </defs>
  <text class="cls-2" transform="translate(301.87 103.92)"><tspan class="cls-4"><tspan x="0" y="0">Adobe</tspan></tspan><tspan class="cls-3"><tspan x="0" y="79">Photoshop</tspan></tspan></text>
  <path class="cls-1" d="m270.93,234c-1.35,0-2.45-1.1-2.45-2.45V2.45c0-1.35,1.1-2.45,2.45-2.45s2.45,1.1,2.45,2.45v229.1c0,1.35-1.1,2.45-2.45,2.45Z"/>
  <g id="Layer_2" data-name="Layer 2">
    <g id="Surfaces">
      <g id="Photo_Surface" data-name="Photo Surface">
        <g id="Outline_no_shadow" data-name="Outline no shadow">
          <path class="cls-1" d="m105.5,86.9c1.6,2.7,2.4,5.8,2.3,8.9,0,4.4-1,7.8-3.1,10.3-2.2,2.5-5,4.4-8.2,5.3-3.7,1.2-7.6,1.8-11.5,1.8h-5.3c-1.2,0-2.5-.1-3.9-.2v-33.6c.7-.1,2.1-.2,4.1-.1,1.9-.1,4.2-.1,6.8-.1,4.1-.1,8.1.5,11.8,2,2.9,1.1,5.3,3.1,7,5.7Z"/>
          <path class="cls-1" d="m197.5,0H42.5C19,0,0,19,0,42.5v149c0,23.5,19,42.5,42.5,42.5h155c23.5,0,42.5-19,42.5-42.5V42.5c0-23.5-19-42.5-42.5-42.5Zm-73.9,116.5c-4,5.6-9.6,9.8-16.1,12.2-6.8,2.5-14.3,3.4-22.5,3.4-2.4,0-4,0-5-.1-1-.1-2.4-.1-4.3-.1v32.1c.1.7-.4,1.3-1.1,1.4h-19.4c-.8,0-1.2-.4-1.2-1.3V61.2c0-.7.3-1.1,1-1.1,1.7,0,3.3,0,5.6-.1,2.4-.1,4.9-.1,7.6-.2s5.6-.1,8.7-.2c3.1-.1,6.1-.1,9.1-.1,8.2,0,15,1,20.6,3.1,5,1.7,9.6,4.5,13.4,8.2,3.2,3.2,5.7,7.1,7.3,11.4,1.5,4.2,2.3,8.5,2.3,13,0,8.6-2,15.7-6,21.3Zm70.9,38.9c-2.8,4-6.7,7.1-11.2,8.9-4.9,2.1-10.9,3.2-18.1,3.2-4.6,0-9.1-.4-13.6-1.3-3.5-.6-7-1.7-10.2-3.2-.7-.4-1.2-1.1-1.1-1.9v-17.4c0-.3.1-.7.4-.9s.6-.1.9.1c3.9,2.3,8,3.9,12.4,4.9,3.8,1,7.8,1.5,11.8,1.5s6.5-.5,8.3-1.4c1.6-.7,2.7-2.4,2.7-4.2,0-1.4-.8-2.7-2.4-4-1.6-1.3-4.9-2.8-9.8-4.7-5.1-1.8-9.8-4.2-14.2-7.2-3.1-2.2-5.7-5.1-7.6-8.5-1.6-3.2-2.4-6.7-2.3-10.2,0-4.3,1.2-8.4,3.4-12.1,2.5-4,6.2-7.2,10.5-9.2,4.7-2.4,10.6-3.5,17.7-3.5,4.1,0,8.3.3,12.4.9,3,.4,5.9,1.2,8.6,2.3.4.1.8.5,1,.9.1.4.2.8.2,1.2v16.3c0,.4-.2.8-.5,1-.9.2-1.4.2-1.8,0-3-1.6-6.2-2.7-9.6-3.4-3.7-.8-7.4-1.3-11.2-1.3-2-.1-4.1.2-6,.7-1.3.3-2.4,1-3.1,2-.5.8-.8,1.8-.8,2.7s.4,1.8,1,2.6c.9,1.1,2.1,2,3.4,2.7,2.3,1.2,4.7,2.3,7.1,3.3,5.4,1.8,10.6,4.3,15.4,7.3,3.3,2.1,6,4.9,7.9,8.3,1.6,3.2,2.4,6.7,2.3,10.3.1,4.7-1.3,9.4-3.9,13.3Z"/>
        </g>
      </g>
    </g>
  </g>
</svg>