<?xml version="1.0" encoding="utf-8"?>
<!-- Generator: Adobe Illustrator 27.1.1, SVG Export Plug-In . SVG Version: 6.00 Build 0) - Revenant Formal Build  -->
<svg version="1.1" id="Layer_2_00000133488123520965800090000005949721041019863177_"
	 xmlns="http://www.w3.org/2000/svg" xmlns:xlink="http://www.w3.org/1999/xlink" x="0px" y="0px" viewBox="0 0 1061.9 736.3"
	 style="enable-background:new 0 0 1061.9 736.3;" xml:space="preserve">
<style type="text/css">
    @media (prefers-color-scheme: dark) {
		.st0{fill:#FFFFFF;}
    }
</style>
<g id="Layer_1-2">
	<path class="st0" d="M238.8,176.6c0,0-213.4,235.7-238.8,295.6l591.2-193.5c0,0,22.3,137.4-195,167.4s-228.8-3.8-311,82.2
		c0,0-33,36.9-46.1,123.6c0,0-4.6,58.3-21.5,84.5c0,0,80.6-97.5,172.8-137.4c0,0-50.7,29.2-59.1,42.2l164.6-4.6
		c0,0,18.1-109,236.2-74.5l100.6-22.3l429.2-402.3L833.1,248L850,149L1002.8,0C1002.8,0,412.3,238.8,238.8,176.6z"/>
</g>
</svg>
