<?xml version="1.0" standalone="no"?>
<!DOCTYPE svg PUBLIC "-//W3C//DTD SVG 20010904//EN"
 "http://www.w3.org/TR/2001/REC-SVG-20010904/DTD/svg10.dtd">
<svg version="1.0" xmlns="http://www.w3.org/2000/svg"
 width="2048.000000pt" height="2048.000000pt" viewBox="0 0 2048.000000 2048.000000"
 preserveAspectRatio="xMidYMid meet">
<metadata>
Created by potrace 1.14, written by Peter Selinger 2001-2017
</metadata>
<g transform="translate(0.000000,2048.000000) scale(0.100000,-0.100000)"
fill="#000000" stroke="none">
<path d="M1839 20476 c-2 -2 -33 -7 -69 -10 -146 -15 -354 -68 -505 -128 -684
-271 -1170 -905 -1253 -1638 -9 -85 -9 -16846 0 -16926 17 -140 65 -337 115
-474 25 -70 139 -298 182 -366 324 -515 886 -863 1486 -922 96 -10 16822 -9
16910 1 370 39 764 209 1057 455 159 133 292 286 417 477 78 119 206 416 236
547 24 106 46 225 52 288 10 97 10 16833 0 16922 -40 355 -179 700 -398 990
-67 88 -254 281 -328 339 -24 19 -48 39 -55 45 -38 36 -221 145 -331 199 -186
90 -394 156 -570 181 -27 3 -59 9 -70 12 -20 6 -16870 14 -16876 8z m15165
-5147 c-58 -57 -152 -149 -208 -204 -258 -252 -770 -751 -851 -830 -149 -144
-667 -650 -867 -846 l-187 -184 -36 -210 c-19 -115 -37 -219 -39 -230 -2 -11
-9 -56 -16 -100 -6 -44 -18 -109 -25 -145 -7 -36 -16 -85 -20 -110 -3 -25 -14
-94 -25 -155 -10 -60 -21 -123 -24 -140 -3 -16 -17 -99 -31 -183 -15 -85 -25
-156 -22 -158 2 -2 46 17 98 42 105 52 337 165 534 259 72 34 186 90 255 123
69 33 220 106 335 162 116 56 255 124 310 150 55 26 177 85 270 130 94 45 233
113 310 150 203 98 404 195 620 300 105 51 222 107 260 125 39 18 126 60 194
94 68 34 125 60 127 58 2 -2 -40 -43 -93 -93 -53 -49 -112 -105 -133 -124 -20
-19 -70 -66 -111 -104 -76 -71 -161 -151 -310 -291 -46 -44 -147 -138 -224
-210 -163 -153 -270 -253 -380 -357 -44 -42 -90 -85 -101 -95 -19 -17 -229
-213 -314 -293 -88 -84 -305 -287 -324 -303 -11 -10 -52 -48 -91 -85 -39 -37
-140 -132 -225 -212 -85 -80 -188 -176 -229 -215 -41 -38 -86 -81 -101 -95
-324 -303 -435 -406 -481 -450 -25 -25 -75 -71 -110 -104 -35 -32 -125 -117
-200 -188 -75 -71 -146 -137 -158 -147 -19 -17 -239 -223 -321 -301 -52 -49
-289 -271 -325 -304 -16 -15 -84 -79 -150 -141 -66 -62 -136 -127 -155 -145
-19 -18 -96 -89 -170 -160 -74 -70 -148 -139 -165 -155 -16 -15 -83 -77 -149
-138 -65 -62 -135 -127 -155 -146 -20 -18 -70 -65 -111 -104 -41 -39 -111
-104 -155 -145 -142 -134 -228 -214 -385 -362 -85 -80 -181 -170 -214 -200
-33 -30 -71 -66 -86 -80 -123 -118 -97 -105 -300 -150 -102 -23 -196 -43 -210
-46 -14 -3 -33 -7 -42 -10 -9 -3 -27 -7 -40 -9 -12 -3 -146 -32 -298 -66 -151
-33 -283 -62 -293 -64 -10 -2 -26 -6 -35 -9 -9 -3 -28 -7 -42 -10 -14 -2 -45
-9 -70 -15 -25 -5 -61 -13 -80 -16 -19 -3 -56 -12 -83 -20 -45 -13 -193 -15
-213 -2 -5 3 -34 8 -64 11 -30 3 -64 8 -75 10 -12 2 -51 7 -87 10 -37 4 -75 8
-85 10 -10 2 -58 7 -108 11 -49 4 -103 9 -120 11 -169 21 -800 21 -935 0 -14
-3 -52 -7 -85 -11 -61 -6 -230 -31 -275 -40 -485 -97 -857 -269 -1115 -513
-172 -164 -285 -333 -348 -520 -14 -40 -27 -75 -29 -78 -3 -2 -77 -7 -164 -9
-88 -2 -256 -7 -374 -10 -323 -9 -796 -22 -1060 -30 -74 -2 -243 -7 -375 -10
-132 -4 -279 -8 -327 -10 -49 -1 -88 1 -88 6 0 16 105 113 201 185 125 94 211
152 414 278 94 58 177 110 185 116 52 34 -203 -92 -350 -174 -249 -138 -494
-304 -780 -525 -108 -84 -295 -236 -320 -261 -3 -3 -41 -36 -85 -75 -74 -64
-105 -92 -219 -199 -206 -191 -578 -578 -676 -701 -16 -21 -30 -33 -30 -27 0
6 4 13 8 16 22 13 126 257 138 321 1 6 11 42 22 80 20 65 46 173 56 226 2 13
11 62 20 109 20 109 25 138 31 185 2 20 7 54 9 74 12 87 16 119 21 171 5 55
20 152 30 200 3 14 8 41 11 60 3 19 7 43 10 52 3 9 7 27 9 40 47 245 142 567
240 813 47 117 181 395 215 445 9 14 44 66 76 115 93 143 414 457 637 624 158
118 340 221 492 279 40 15 232 71 265 77 24 5 50 10 100 20 23 4 42 7 120 20
61 10 152 21 250 30 198 20 317 29 490 40 30 2 96 6 145 9 50 4 110 8 135 11
25 2 90 7 145 11 55 3 116 7 135 9 19 2 73 6 120 10 47 3 105 7 130 10 25 2
74 7 110 10 36 3 88 8 115 11 28 2 73 7 100 9 28 3 73 8 100 10 28 3 70 8 95
10 37 4 176 19 280 30 14 1 53 6 87 9 34 4 70 8 80 10 10 2 43 7 73 10 30 4
71 9 90 11 19 2 57 7 84 11 27 3 57 7 67 9 10 2 45 6 78 10 33 3 68 8 79 10
11 2 42 6 69 10 86 12 106 15 223 36 198 35 396 80 570 130 109 31 330 103
365 119 11 5 56 23 100 41 84 33 324 148 411 197 57 31 304 194 326 214 7 7
40 35 73 62 87 72 217 201 277 276 29 36 55 67 59 70 3 3 31 41 61 85 169 242
286 548 324 840 8 67 12 304 5 336 l-6 25 -235 -77 c-129 -42 -431 -141 -670
-219 -239 -78 -473 -154 -520 -170 -173 -57 -1430 -469 -1885 -617 -126 -41
-282 -92 -345 -113 -63 -21 -290 -95 -505 -165 -214 -70 -469 -154 -565 -185
-96 -32 -364 -119 -595 -195 -231 -75 -472 -154 -535 -175 -63 -21 -277 -91
-475 -155 -198 -65 -425 -139 -505 -165 -80 -27 -269 -89 -420 -138 -151 -50
-471 -154 -710 -232 -239 -78 -482 -158 -539 -177 -57 -19 -105 -32 -108 -30
-4 5 57 126 100 197 119 199 395 587 634 890 24 30 47 60 51 65 17 23 78 101
93 120 9 11 47 58 85 105 155 193 411 508 468 573 10 12 35 42 55 67 20 25 38
47 41 50 3 3 28 32 55 65 28 33 52 62 55 65 3 3 41 48 85 100 44 52 82 97 85
100 3 3 16 18 28 34 12 16 46 56 76 90 30 33 96 111 147 171 51 61 98 115 104
121 14 15 44 50 150 174 50 58 99 114 110 126 11 11 36 40 55 64 19 23 44 52
55 64 11 13 36 40 55 62 19 22 64 73 100 114 36 41 67 77 70 80 3 3 55 61 115
130 60 69 112 127 115 130 3 3 77 86 165 185 302 342 331 371 347 358 7 -6 24
-13 38 -17 14 -4 50 -14 80 -22 118 -33 297 -66 426 -79 32 -4 75 -8 94 -10
179 -22 738 -22 930 0 19 2 80 7 135 10 55 4 106 8 115 10 8 1 47 6 85 9 39 4
81 9 95 11 23 3 49 6 175 21 28 3 61 7 75 9 14 2 49 7 79 10 30 4 63 9 75 11
12 2 41 7 66 10 25 3 52 7 60 9 8 2 35 7 60 10 25 3 81 12 125 20 44 8 94 17
110 19 27 5 152 27 230 41 17 3 53 10 80 15 28 6 61 12 75 15 14 3 60 12 103
21 42 8 90 17 105 20 15 3 34 7 42 9 8 2 29 7 45 10 17 2 170 36 340 75 171
39 321 73 335 76 14 3 52 12 85 21 33 8 67 16 75 18 71 14 836 214 1015 265
583 166 654 187 1045 305 802 243 1889 605 2810 937 207 74 921 337 1005 370
28 11 61 23 75 28 45 15 516 197 730 283 47 18 86 33 88 32 2 -2 -45 -49 -104
-106z"/>
</g>
</svg>
