<?xml version="1.0" encoding="UTF-8"?>
<svg xmlns="http://www.w3.org/2000/svg" viewBox="0 0 2991.74 1397.42">
  <defs>
    <style>
      .cls-1 {
        fill: #fff;
      }

      .cls-2, .cls-3 {
        stroke: #fff;
      }

      .cls-2, .cls-3, .cls-4 {
        fill: none;
      }

      .cls-2, .cls-4 {
        stroke-miterlimit: 10;
      }

      .cls-5 {
        isolation: isolate;
      }

      .cls-4 {
        stroke: #b5b5b5;
      }

      .cls-6 {
        mix-blend-mode: color-dodge;
      }

      .cls-7 {
        opacity: .25;
      }
    </style>
  </defs>
  <g class="cls-5">
    <g id="Layer_2" data-name="Layer 2">
      <g id="Layer_1-2" data-name="Layer 1">
        <g>
          <g class="cls-7">
            <path class="cls-3" d="m753.3,647.64l23.69-23.69c.77-.77,2.02-.77,2.79,0l53.3,53.3c.83.93,1.32,2.12,1.39,3.37l.19,55.29c0,1.1.64,2.6,1.41,3.37l95.57,95.52c.77.77.77,2.02,0,2.78l-49.34,49.34"/>
            <path class="cls-3" d="m673.97,1337.78l-.83-198.6c-.01-1.07-.65-2.59-1.41-3.35l-31.85-31.71c-.83-.93-1.32-2.12-1.39-3.37l-.41-116.73s0-.03,0-.04c.01-1.07.89-1.93,1.96-1.92l61.13.22c1.09,0,2.6-.62,3.36-1.38l7.38-7.3c.83-.92,1.32-2.11,1.39-3.35l-.21-64.19"/>
            <path class="cls-3" d="m694.35,635.16l6.57,6.57c.84.93,1.33,2.13,1.4,3.38v2.18c.01,1.1.64,2.6,1.41,3.37l60.71,60.65c.76.76.76,2.02,0,2.78l-49.62,49.62c-.76.76-1.64,1.13-1.94.83s-1.45-.56-2.53-.57l-75.72-.4c-1.08,0-2.6.62-4.19,2.21-.83.93-1.31,2.11-1.37,3.35l.35,67.39c0,1.08-.62,2.6-1.38,3.36l-104.3,104.3c-.76.76-2.02.76-2.78,0l-38.89-38.89c-1.56-1.56-4.09-1.56-5.65,0l-187.72,187.72"/>
            <path class="cls-3" d="m454.52,409.31l-91.84-90.31c-1.58-1.55-4.12-1.54-5.69.03L80.47,595.55"/>
            <path class="cls-3" d="m989.73,1188.4l-38.3-.13c-1.1,0-2.61-.63-3.38-1.4l-65.34-65.34c-.83-.93-1.32-2.12-1.39-3.37l-.25-70.17"/>
            <path class="cls-3" d="m989.73,1188.4l-38.3-.13c-1.1,0-2.61-.63-3.38-1.4l-65.34-65.34c-.83-.93-1.32-2.12-1.39-3.37l-.25-70.17"/>
            <path class="cls-3" d="m653.06,1325.04l19.68-19.68c.93-.83,2.11-1.32,3.36-1.38l101.41-.59-54.5-54.5c-.83-.93-1.33-2.12-1.4-3.37l-.45-129.1c0-1.09-.63-2.61-1.39-3.37l-50.11-50.05"/>
            <path class="cls-3" d="m551.47,657.99l22.95,22.95c.83.93,1.32,2.12,1.39,3.37l-.56,61.36-26.01,26.01c-.76.76-2.02.76-2.79-.01l-237.49-237.31c-.76-.76-2.03-.77-2.79-.01l-19.08,18.99c-.76.76-2.02.76-2.79-.01l-35.64-35.64c-.76-.76-2.02-.77-2.78,0l-71.18,71.18c-.83.93-1.32,2.11-1.38,3.36l.42,120.35,1.14,165.23-23.34,23.34c-.76.76-2.27,1.38-3.36,1.38l-15.73-.06"/>
            <path class="cls-3" d="m861.24,286.55c0,1.09-.62,1.35-1.39.58l-79.03-79.03c-.76-.76-2.28-1.39-3.37-1.4l-14.55-.05c-1.08,0-2.6.62-3.36,1.38l-36.11,36.11c-.76.76-2.02.76-2.78,0l-21.14-21.14c-.76-.76-2.02-.77-2.77-.01l-32.39,32.39c-.76.76-.76,2.02,0,2.78l59.07,59.07c.76.76.77,2.03.01,2.79l-16.53,16.53c-.76.76-.76,2.01,0,2.78l77.15,77.15c.84.93,1.33,2.12,1.41,3.37l.9,255.24c0,1.07-.62,2.6-1.38,3.36l-12.56,12.56m121.95-28.47l-104.71-104.71"/>
            <path class="cls-3" d="m0,511.78l93.68.42c1.08,0,2.6-.62,3.36-1.38l25.26-23.68,40.64,40.64c.93.83,2.12,1.33,3.37,1.4l66.66.23c1.09,0,2.61.63,3.37,1.39l187.08,187.11-.69,4.48c0,1.1.64,2.6,1.41,3.37l44.1,44.1c.83.93,1.33,2.12,1.4,3.37l.16,44.68"/>
            <path class="cls-3" d="m459.27,249.36l131.73,131.73c.83.93,1.32,2.11,1.38,3.36l-.23,206.74c0,1.07.62,2.59,1.39,3.36l56.19,56.17,11.58,11.58c.84.93,1.33,2.12,1.41,3.37l.23,67.8c0,1.1.64,2.6,1.41,3.37l18.89,18.8c.83.93,1.33,2.12,1.4,3.37l.04,12.43c0,1.08-.62,2.6-1.38,3.36l-18.79,19.03c-.75.79-.74,2.03.03,2.8l32.65,32.65c.93.84,2.12,1.33,3.37,1.41l17.2.06c1.09,0,2.61.63,3.37,1.39l95.69,95.69c.77.77.78,2.02.01,2.79l-78.27,78.48-7.62,7.62c-.76.76-1.73,1.07-2.13.67-.42-.39-1.36-.09-2.13.67l-9.86,9.86c-.76.76-2.27,1.39-3.36,1.38l-64.63-.14c-1.09,0-2.6-.62-3.37-1.39l-5.54-5.54"/>
            <path class="cls-3" d="m768.85,303.33l-125.87,125.65c-.83.93-1.32,2.11-1.38,3.36l.55,184.2v3.93s-.21,29.44-.21,29.44l14.58,14.58c.83.93,1.32,2.12,1.39,3.37l.04,10.71c0,1.08-.62,2.6-1.38,3.36l-136.3,136.3c-.76.76-2.27,1.38-3.36,1.38l-45-.16c-1.1,0-2.6-.64-3.37-1.41l-103.77-103.77c-.76-.76-2.28-1.39-3.37-1.4l-203.83-.06"/>
            <path class="cls-3" d="m527.9,824.59l29.23,29.23c.93.83,2.12,1.32,3.37,1.39l58.9.21c1.1,0,2.6.64,3.37,1.41l12.3,12.3c.93.83,2.12,1.33,3.37,1.4l17.41.06c1.08,0,2.6-.62,3.35-1.37l12.23-12.23c.93-.83,2.11-1.32,3.36-1.38l20.55.07c1.08,0,2.6-.62,3.36-1.38l40.31-40.31c.77-.76,2.01-.76,2.78,0l28.46,28.46,4.72,4.75c.76.76,2.02.77,2.79,0l10.39-10.39c.76-.76.76-2.02,0-2.79l-73.09-73.09c-.76-.76-2.27-1.38-3.36-1.38l-82.8-.03c-1.07,0-2.59-.62-3.35-1.39l-51.61-51.61c-.76-.76-2.28-1.39-3.37-1.4l-21.1-.07c-1.09-.01-2.6-.64-3.37-1.41l-67.09-67.09"/>
            <path class="cls-3" d="m1090.42,1095.93l-148.12-.66-71.75,71.75c-.76.76-2.28,1.39-3.36,1.38l-71.81-.25c-1.07,0-2.6.62-3.36,1.38l-20.32,20.32c-.76.76-2.01.76-2.78,0l-42.31-42.31"/>
            <path class="cls-3" d="m1072.39,1327.97l-50.56,50.56c-.76.76-2.02.76-2.78,0l-300.22-298.52-113.29-113.57c-.83-.93-1.33-2.12-1.4-3.37l-.09-26.11c0-1.07.89-1.97,1.95-1.95l44.18.16c1.08,0,1.97-.88,1.95-1.95l-.07-17.66"/>
            <path class="cls-3" d="m418.62,464.54l-16.9,16.9c-.83.93-1.32,2.11-1.38,3.36l-10.32,90.93,25.89,25.84,66.24.23c1.08,0,2.6.64,3.36,1.41l27.27,27.27c.93.83,2.12,1.32,3.37,1.39l105.61.37c1.09,0,2.61.63,3.37,1.39l13.11,13.11"/>
            <path class="cls-3" d="m202.27,285.78l.06,17.53,62.54,62.83,313.07,313.07c.84.93,1.33,2.13,1.4,3.38l.17,39.22c0,1.1.65,2.63,1.44,3.42l111.17,110.82c.94.85,2.14,1.35,3.41,1.43l20.44.14c.83.93,1.33,2.12,1.4,3.37l.15,41.67c0,1.09.63,2.61,1.39,3.37l24.68,24.73c.93.83,2.12,1.32,3.37,1.39l43.08.19c1.1,0,2.61.63,3.38,1.4l66.92,66.92c.84.93,1.33,2.12,1.41,3.37l.23,66.13"/>
            <path class="cls-3" d="m333.91,733.91l127.48,127.77c.93.84,2.13,1.33,3.38,1.4l155.66.55c1.07,0,2.6-.62,3.36-1.38l36.43-36.43c.93-.83,2.11-1.32,3.36-1.38l54.45.19c1.09,0,2.6-.62,3.36-1.38l79.37-79.37c.76-.76.76-2.02,0-2.78l-108.65-108.67-23.71-23.71c-.84-.93-1.33-2.13-1.4-3.38l-.23-65.58c0-1.08-.64-2.6-1.4-3.37l-16.92-16.92c-.83-.93-1.33-2.12-1.4-3.37l-.31-83.92"/>
            <path class="cls-3" d="m775.76,551.54l-44.13-44.13c-.76-.76-2.28-1.39-3.37-1.4l-39.51-.22c-1.08,0-1.96.87-1.95,1.95l.34,97.27c0,1.09.63,2.61,1.39,3.37l26.23,26.23"/>
            <path class="cls-3" d="m145.46,913.53l16.36.04c1.1,0,2.6-.62,3.36-1.38l29.33-28.48,264.08.93c1.09,0,2.6-.62,3.36-1.38l67.46-67.46c.83-.93,1.32-2.11,1.38-3.36l-.11-29.44c0-1.08.62-2.6,1.39-3.37l134.63-134.63c.93-.83,2.11-1.32,3.36-1.38l60.98.34c1.09,0,2.6.63,3.37,1.4l9.34,9.34c.77.77,2.02.78,2.79.01l3.35-3.35"/>
            <path class="cls-3" d="m207.02,895.9l251.83.89c1.07,0,2.6-.62,3.35-1.37l13.58-13.58c.77-.76,2.01-.76,2.78,0l62.67,62.67c.76.76,2.02.76,2.78,0l31.45-31.45c.77-.76,2.01-.75,2.77.01l12.69,12.69c.93.84,2.13,1.33,3.38,1.4l72.93.38c1.09,0,2.6-.62,3.36-1.38l142.81-142.81c.83-.92,1.33-2.1,1.39-3.34v-72.78c0-1.07-.64-2.58-1.4-3.34l-33.06-33.06c-.84-.93-1.33-2.13-1.4-3.38l-1.12-245.42c0-1.1-.63-2.61-1.4-3.38l-70.2-70.2"/>
            <path class="cls-3" d="m674.86,927.41l-11.09,11.09c-.76.76-2.28,1.39-3.36,1.38l-29.92-.08c-1.08,0-1.96.87-1.95,1.95l.5,72.9c.02,1.07.64,2.58,1.41,3.35l93.3,93.19c.83.93,1.33,2.12,1.4,3.37l.58,129.92c0,1.09.64,2.6,1.4,3.37l53.85,53.85"/>
            <path class="cls-3" d="m1094.06,1075.58l-142.06-.5c-1.09,0-2.61-.63-3.37-1.39l-29.85-29.85c-.83-.93-1.32-2.12-1.39-3.37l-.42-117.42c0-1.09-.64-2.6-1.4-3.37l-31.93-31.93c-.76-.76-2.28-1.4-3.36-1.41l-69.11-.24c-1.09,0-2.61-.63-3.37-1.39l-38.36-38.36"/>
            <path class="cls-3" d="m351.99,434.09l-130.89,130.89c-.83.93-1.32,2.11-1.38,3.36l.18,51.73c0,1.09.64,2.6,1.4,3.37l91.64,91.64c.84.93,1.33,2.12,1.41,3.37l.92,223.9c0,1.09.63,2.61,1.39,3.37l258.43,258.43c.93.83,2.12,1.33,3.37,1.4l140.77.37c1.08,0,2.6-.62,3.36-1.38l189.7-189.56c.83-.93,1.32-2.11,1.38-3.36l-.28-87.51c0-1.09-.64-2.6-1.4-3.37l-29.6-29.66c-.76-.76-2.28-1.4-3.36-1.41l-69.25-.24c-1.09,0-2.61-.63-3.37-1.39l-39.34-39.34"/>
            <path class="cls-3" d="m925.32,624.13l-86.9-87.33-.13-36.66c0-1.09-.62-2.6-1.39-3.37l-29.71-29.71c-.76-.76-2.28-1.39-3.37-1.4l-24.71-.08"/>
            <path class="cls-3" d="m1069.02,1105.44l-132.56-.33c-1.08,0-2.6-.64-3.36-1.41l-52.37-52.37c-.76-.76-2.28-1.39-3.37-1.39l-87.95-.31c-1.09,0-2.61-.63-3.37-1.39l-9.62-9.62c-.83-.93-1.33-2.12-1.4-3.37l-.25-74.87c-.01-1.09-.64-2.6-1.41-3.37l-4.32-4.32c-.83-.93-1.32-2.12-1.39-3.37l-.22-61.04c0-1.09-.63-2.61-1.39-3.37l-20.51-20.51c-.76-.76-.78-2.02-.01-2.79l75.14-75.14c.83-.93,1.32-2.11,1.38-3.36l-.27-78.36c-.01-1.09-.64-2.6-1.41-3.37l-62.49-62.77c-.83-.93-1.32-2.12-1.39-3.37l-.26-75.58c-.01-1.09-.64-2.6-1.41-3.37l-97.25-97.25c-.76-.76-.49-1.4.59-1.39l113.8.52c1.08,0,1.96-.87,1.95-1.95l-.12-33.47c0-1.1-.63-2.61-1.4-3.38l-186.94-186.94c-.76-.76-.78-2.02-.01-2.79l113.24-113.24c.77-.76,2.02-.75,2.78.02l140.35,140.35c.77.77,1.39.5,1.39-.59"/>
            <path class="cls-3" d="m190.82,296.41l9.33,9.33c.83.93,1.32,2.12,1.39,3.37l.07,18.6c0,1.08.64,2.59,1.41,3.37l40.31,40.31c.83.93,1.32,2.12,1.39,3.37l.2,53.4c0,1.09.63,2.61,1.39,3.37l302.39,302.39c.77.77,2.02.77,2.78,0l50.56-50.56h0c.77-.77,2.02-.76,2.79.01l37.11,37.11c.83.93,1.33,2.12,1.4,3.37l.37,104.78c0,1.09.63,2.61,1.39,3.37l26.07,26.07c.93.83,2.12,1.32,3.37,1.39l44.31.16c1.08,0,2.6-.62,3.36-1.38l23.77-23.77"/>
            <path class="cls-3" d="m1099.91,1250.09l-8.87-.04c-1.08,0-1.96-.88-1.97-1.97l-10.41-136.78c0-1.08-.5-2.46-1.09-3.05l-6.96-6.15-132.65-.46c-1.1,0-2.61-.63-3.38-1.4l-52.23-52.23c-.76-.76-2.28-1.39-3.37-1.39l-88.28-.32c-1.09,0-2.61-.63-3.37-1.39l-7.5-7.5c-.83-.93-1.33-2.12-1.4-3.37l-.21-61.42c0-1.08-.64-2.59-1.41-3.36l-136-136c-.83-.93-1.32-2.12-1.39-3.37l-.25-104.9c0-1.09-.63-2.61-1.39-3.37l-32.78-32.78c-.76-.76-2.02-.77-2.78,0l-50.7,50.7c-.76.76-2.02.76-2.78,0l-54.21-54.03-102.17-102.17"/>
            <path class="cls-3" d="m807.58,705.54l-69.18-69.18c-1.12-1.01-2.54-1.6-4.04-1.68l-67.55-.23c-1.3-.01-3.11.74-4.02,1.65l-139.35,139.35c-1,1.11-1.58,2.54-1.65,4.03l.23,67.55c.09,1.5.68,2.92,1.69,4.04l69.18,69.18c1.11,1,2.53,1.6,4.03,1.68l67.56.24c1.3,0,3.1-.74,4.02-1.66l139.35-139.35c1-1.11,1.58-2.53,1.65-4.02l-.24-67.56c-.08-1.5-.67-2.92-1.68-4.04h0Z"/>
            <path class="cls-3" d="m891.54,665.35l-50.08-50.08c-.76-.76-1.39-.5-1.39.58l.43,123.13c0,1.09-.62,2.6-1.38,3.36l-23.55,23.55"/>
            <path class="cls-3" d="m333.5,719.58l117.2,117.2c.93.83,2.12,1.32,3.37,1.39l43.54.16c1.08,0,2.6-.62,3.36-1.38l13.34-13.34"/>
            <path class="cls-3" d="m196.71,907.11l.18,53.12c0,1.1.63,2.61,1.4,3.38l284.58,284.58c.93.83,2.12,1.33,3.37,1.4l232.02.81c1.07,0,2.6-.62,3.35-1.37l179.26-179.26"/>
            <path class="cls-3" d="m500.27.35l158.77,158.77c.76.76.78,2.02.01,2.79l-65.93,65.93c-.76.76-.76,2.01,0,2.78l187.19,187.19c.84.93,1.33,2.12,1.41,3.37l.86,245.16c0,1.08.64,2.6,1.4,3.37l32.92,32.92c.83.93,1.33,2.12,1.4,3.37l.25,75.59c0,1.06-.63,2.58-1.39,3.34l-59.73,59.63-98.03,98.03c-.76.76-2.27,1.38-3.36,1.38l-65.05-.23c-1.09,0-2.61-.63-3.37-1.39l-16.48-16.48c-.77-.77-2.02-.77-2.78,0l-24.52,24.52c-.76.76-2.02.76-2.79-.01l-62.13-62.13c-.76-.76-2.02-.77-2.78,0l-13.02,13.02c-.76.76-2.28,1.39-3.36,1.38l-266.87-.93c-1.24.06-2.42.56-3.33,1.41l-14.91,15.42c-.82.94-1.3,2.13-1.36,3.37l.08,17.71"/>
            <path class="cls-3" d="m723.69,1085.07l-.25-49.74c0-1.08.62-2.6,1.38-3.36l20.72-20.72c1.56-1.56,1.56-4.09,0-5.66l-26.8-26.8c-.76-.76-.78-2.02-.01-2.79l53.74-53.74c.83-.93,1.32-2.11,1.38-3.36l-.14-41.68c0-1.07.62-2.6,1.38-3.36l36.85-36.85c.76-.76.76-2-.01-2.77l-37.21-37.21c-.76-.76-.76-2.02,0-2.78l26.86-26.86c.83-.92,1.31-2.11,1.36-3.34l-.28-39.64c0-1.09-.65-2.59-1.41-3.35l-88.15-88.15c-.83-.93-1.32-2.12-1.39-3.37l-.31-89.21"/>
            <path class="cls-3" d="m493.49,685.96l.08,24.15c0,1.09.63,2.61,1.39,3.37l103.08,103.08c.93.83,2.12,1.33,3.37,1.4l115.07.4c1.09,0,2.6.63,3.37,1.4l159.43,159.43c.84.93,1.33,2.11,1.41,3.36l.21,64.28"/>
            <path class="cls-3" d="m563.62,310.88l63.16,63.16c.76.76.77,2.02.01,2.77l-18.84,18.84c-.76.76-.75,2.01.02,2.78l33.16,33.16"/>
            <path class="cls-3" d="m881.78,886.35l-15.34-15.34c-.76-.76-2.3-1.39-3.38-1.4l-52.51-.18c-1.09,0-2.6-.64-3.37-1.4l-97.78-97.78c-.76-.76-2.29-1.4-3.38-1.4l-69.93-.24s0,0-.01,0c-1.08,0-1.96.88-1.95,1.97l.11,52.5c0,1.08-.86,1.95-1.94,1.94l-162.6-1.38c-1.07-.03-2.59-.65-3.36-1.42l-103.63-103.92c-.76-.76-2.28-1.39-3.37-1.4l-13.6-.04"/>
            <path class="cls-3" d="m748.74,646.92l4.68-4.68c.76-.76.93-1.85.39-2.38-.65-.85-1-1.89-1-2.96l-.16-75.79c0-1.1-.64-2.6-1.41-3.37l-98.46-98.43c-.77-.77-.76-2.02,0-2.78l1.11-1.11c.93-.83,2.11-1.32,3.36-1.38l110.95.35c1.07.02,1.96-.87,1.95-1.95l-.1-28.44c0-1.09-.64-2.6-1.4-3.37l-188.26-188.26c-.76-.76-.78-2.02-.01-2.79l70.59-70.59c.76-.76.76-2.01,0-2.78L497.69,2.94"/>
            <path class="cls-3" d="m562.08,698.23l10.48.04c1.1,0,2.61.63,4.02,2.04.76.76,2.02.77,2.78,0l23-23c.77-.76,2.01-.75,2.77.01l62.41,62.41c.77.77,2.02.76,2.78,0l51.67-51.67h0c.77-.77,2.02-.76,2.79.01l145.76,145.76c.84.93,1.33,2.12,1.41,3.37l.06,16.09c0,1.09-.62,2.6-1.38,3.36l-126.33,126.33c-.76.76-2.02.76-2.78,0l-114.24-114.24c-.84-.93-1.33-2.13-1.4-3.38l-.31-88.93c0-1.09-.64-2.6-1.4-3.37l-60.68-60.68c-.83-.93-1.33-2.12-1.4-3.37l-.03-8.87c0-1.1-.63-2.61-1.4-3.38l-6.97-6.97c-.77-.77-2.28-1.39-3.37-1.39l-16.94-.06c-1.08,0-2.6.62-3.36,1.38l-32,32c-.76.76-2.27,1.38-3.36,1.38l-103.1-.36"/>
            <path class="cls-3" d="m642.03,606.63l44.98,44.98c.84.93,1.33,2.12,1.41,3.37l.09,27.6c0,1.1.63,2.61,1.4,3.38l65.56,65.56c.76.76.77,2.02,0,2.78l-25.46,25.46c-.76.76-.75,2.01.01,2.77l81.37,81.37c.83.93,1.32,2.12,1.39,3.37l.02,6.92c0,1.08-.62,2.6-1.38,3.36l-21.44,21.47c-.92.83-2.1,1.33-3.34,1.39l-65.84.04c-1.07.01-2.59.64-3.34,1.39l-82.7,82.7c-.83.93-1.32,2.11-1.38,3.36l.09,25.82c0,1.09.42,2.4.95,2.93l1.86,1.66-25.31,25.31c-.76.76-2.28,1.39-3.37,1.39l-65.85-.23c-1.08,0-2.6.62-3.36,1.38l-149.45,149.45"/>
            <path class="cls-3" d="m660.49,160.51l76.06,76.06c.77.77.77,2.02,0,2.78l-7.33,7.33c-.76.76-.76,2.02.01,2.79l40.64,40.64c.76.76.77,2.02,0,2.78l-59.63,59.63"/>
            <path class="cls-3" d="m923.43,626.21l-94.99-94.99c-.76-.76-2.28-1.39-3.37-1.39l-23.04-.09c-1.09,0-2.6-.62-3.37-1.39l-20.88-20.88-44.39-44.34c-.76-.76-2.28-1.39-3.37-1.4l-289.55-1c-1.08,0-2.6-.64-3.36-1.41l-25.54-25.54c-.76-.76-2.28-1.39-3.38-1.4l-159.82-.55"/>
            <path class="cls-3" d="m777.97,622.95l-38.44-38.44c-.76-.76-2.29-1.4-3.38-1.4l-48.37-.17c-1.09,0-2.61-.63-3.37-1.39l-85.93-85.93c-.83-.93-1.32-2.12-1.39-3.37l-.12-34.44"/>
            <path class="cls-3" d="m360.66,1167.63l235.29-235.29c.93-.83,2.11-1.32,3.36-1.38l30.11.1"/>
            <path class="cls-3" d="m474.26,25.39l.24,68.05c0,1.09.63,2.61,1.39,3.37l21.75,21.75c.76.76.77,2.02,0,2.78l-69.31,69.31c-.83.93-1.32,2.11-1.38,3.36l.3,86.88c.01,1.09.64,2.6,1.41,3.37l24.32,24.32c.83.93,1.32,2.12,1.39,3.37l.35,96.13c0,1.09.62,2.6,1.39,3.37l49.39,49.39c.84.92,1.34,2.11,1.41,3.35l.57,87.26c.02,1.07.65,2.59,1.41,3.35l73.36,73.36c.84.93,1.33,2.11,1.41,3.36l.69,21.62,29.88.1c1.09,0,2.6.64,3.37,1.4l130.63,130.63c.76.76.77,2.02,0,2.78l-85.88,85.88c-.76.76-2.28,1.39-3.36,1.38l-14.98-.05c-1.08,0-2.6.62-3.36,1.38l-39.89,39.89c-.83.93-1.32,2.11-1.38,3.36l.25,70.86c0,1.09.63,2.61,1.39,3.37l66.81,66.81c.76.76.78,2.02.01,2.79l-14.22,14.22"/>
            <path class="cls-3" d="m325.36,290.41l111.65,111.65c.83.93,1.32,2.12,1.39,3.37l.42,79.45c0,1.09-.62,2.6-1.38,3.36l-24.11,24.11"/>
            <path class="cls-3" d="m880.49,1046.4h3.5c1.09,0,2.6-.61,3.36-1.37l24.7-24.7c.76-.76,1.39-.49,1.39.59l.07,20.44c0,1.09.63,2.61,1.39,3.37l32.56,32.56c.93.84,2.13,1.33,3.38,1.4l21.21.07"/>
            <path class="cls-3" d="m1049.14,1308.66l-34.01,34.01c-.76.76-2.01.76-2.78,0l-27.59-27.59c-.76-.76-.77-2.02,0-2.78l67.32-67.37c.76-.76.76-2.02,0-2.78l-75.22-75.22c-.83-.93-1.33-2.11-1.39-3.36l.14-32.1c0-1.08-.62-2.6-1.39-3.37l-69.73-69.73c-.76-.76-2.28-1.39-3.37-1.39l-121.74-.42c-1.08,0-2.6.62-3.36,1.38l-38.49,38.49"/>
            <path class="cls-3" d="m105.73,401.87l10.74,10.74c.93.84,2.13,1.33,3.38,1.4l78.42.27c1.09.01,2.6.64,3.37,1.41l11.95,11.95c.93.83,2.12,1.32,3.37,1.39l24.96.1c1.09,0,2.6.62,3.38,1.4l3.54,3.54"/>
            <path class="cls-3" d="m1053.23,1312.16l-38.64,38.64c-.76.76-2.02.76-2.78,0l-25.75-25.75c-1.17-1.17-3.07-1.17-4.24,0l-71.3,71.3c-.76.76-2.01.76-2.78,0l-125.45-125.45c-.76-.76-2.28-1.39-3.36-1.39l-27.05-.1"/>
            <path class="cls-3" d="m592.97,383.35l14.76,14.76c.77.77,2.02.76,2.78,0l18.92-18.92h0c.77-.77,2.02-.76,2.79.01l21.3,21.3c.76.76,2.02.77,2.78,0l87.6-87.6c.76-.76.76-2.02,0-2.78l-171.2-171.2"/>
            <path class="cls-3" d="m716.69,976.05l-54.72-54.72c-.77-.77-.77-2.02,0-2.78l52.11-52.11c.77-.76,2.01-.76,2.78,0l8.24,8.24c.93.83,2.12,1.33,3.37,1.4h1.65s3.93.04,3.93.04l28.56.22c1.07.02,2.58-.6,3.34-1.36l38.51-38.51c.76-.76.76-2.01,0-2.78l-78.53-78.53c-.76-.76-2.28-1.39-3.37-1.4l-32.78-.11c-1.08,0-2.6-.64-3.37-1.4l-17.15-17.15c-.84-.93-1.33-2.12-1.41-3.37l-.28-67.92c0-1.09-.62-2.6-1.39-3.37l-6.75-6.75"/>
            <path class="cls-3" d="m746.14,389.51l-42.72,42.72c-.76.76-2.01.75-2.77-.01l-120.63-120.63c-.76-.76-2.28-1.39-3.38-1.4l-159.25-.55c-1.09,0-2.6-.64-3.37-1.4l-15.41-15.41c-.77-.77-2.29-1.4-3.37-1.39l-69.13-.25c-1.09,0-2.6.62-3.36,1.38l-78.62,78.62"/>
          </g>
          <g class="cls-7">
            <path class="cls-3" d="m2109.43,886.92l-49.34-49.34c-.76-.76-.76-2.01,0-2.78l95.57-95.52c.77-.77,1.4-2.28,1.41-3.37l.19-55.29c.07-1.25.56-2.44,1.39-3.37l53.3-53.3c.77-.77,2.02-.77,2.79,0l23.69,23.69"/>
            <path class="cls-3" d="m2278.67,906.06l-.21,64.19c.06,1.24.55,2.43,1.39,3.35l7.38,7.3c.76.76,2.27,1.38,3.36,1.38l61.13-.22c1.07-.01,1.95.85,1.96,1.92,0,.01,0,.03,0,.04l-.41,116.73c-.07,1.25-.56,2.44-1.39,3.37l-31.85,31.71c-.76.76-1.4,2.28-1.41,3.35l-.83,198.6"/>
            <path class="cls-3" d="m2703.03,1093l-187.72-187.72c-1.56-1.56-4.09-1.55-5.65,0l-38.89,38.89c-.76.76-2.02.77-2.78,0l-104.3-104.3c-.76-.76-1.39-2.28-1.38-3.36l.35-67.39c-.06-1.24-.55-2.42-1.37-3.35-1.59-1.59-3.11-2.21-4.19-2.21l-75.72.4c-1.08,0-2.23.26-2.53.57s-1.18-.06-1.94-.83l-49.62-49.62c-.76-.76-.76-2.02,0-2.78l60.71-60.65c.77-.77,1.4-2.28,1.41-3.37v-2.18c.08-1.25.57-2.45,1.41-3.38l6.57-6.57"/>
            <path class="cls-3" d="m2911.27,595.55l-276.52-276.52c-1.57-1.57-4.1-1.58-5.69-.03l-91.84,90.31"/>
            <path class="cls-3" d="m2110.69,1047.97l-.25,70.17c-.07,1.25-.56,2.44-1.39,3.37l-65.34,65.34c-.77.77-2.28,1.39-3.38,1.4l-38.3.13"/>
            <path class="cls-3" d="m2110.69,1047.97l-.25,70.17c-.07,1.25-.56,2.44-1.39,3.37l-65.34,65.34c-.77.77-2.28,1.39-3.38,1.4l-38.3.13"/>
            <path class="cls-3" d="m2322.08,1063l-50.11,50.05c-.76.76-1.39,2.28-1.39,3.37l-.45,129.1c-.07,1.25-.57,2.43-1.4,3.37l-54.5,54.5,101.41.59c1.24.06,2.43.55,3.36,1.38l19.68,19.68"/>
            <path class="cls-3" d="m2859.28,902.46l-15.73.06c-1.09,0-2.6-.62-3.36-1.38l-23.34-23.34,1.14-165.23.42-120.35c-.06-1.24-.55-2.43-1.38-3.36l-71.18-71.18c-.76-.76-2.02-.76-2.78,0l-35.64,35.64c-.77.77-2.02.78-2.79.01l-19.08-18.99c-.76-.76-2.02-.75-2.79.01l-237.49,237.31c-.77.77-2.02.78-2.79.01l-26.01-26.01-.56-61.36c.07-1.25.56-2.44,1.39-3.37l22.95-22.95"/>
            <path class="cls-3" d="m2219.28,690.99l-12.56-12.56c-.76-.76-1.38-2.28-1.38-3.36l.9-255.24c.07-1.25.57-2.44,1.41-3.37l77.15-77.15c.77-.77.77-2.02,0-2.78l-16.53-16.53c-.76-.76-.75-2.02.01-2.79l59.07-59.07c.76-.76.77-2.02,0-2.78l-32.39-32.39c-.76-.76-2.01-.75-2.77.01l-21.14,21.14c-.76.76-2.02.77-2.78,0l-36.11-36.11c-.76-.76-2.28-1.39-3.36-1.38l-14.55.05c-1.08,0-2.6.64-3.37,1.4l-79.03,79.03c-.77.77-1.39.51-1.39-.58m71.55,271.26l-104.71,104.71"/>
            <path class="cls-3" d="m2521.95,817.92l.16-44.68c.07-1.25.57-2.43,1.4-3.37l44.1-44.1c.77-.77,1.4-2.28,1.41-3.37l-.69-4.48,187.08-187.11c.76-.76,2.28-1.39,3.37-1.39l66.66-.23c1.25-.07,2.43-.57,3.37-1.4l40.64-40.64,25.26,23.68c.76.76,2.28,1.39,3.36,1.38l93.68-.42"/>
            <path class="cls-3" d="m2351.79,1022.21l-5.54,5.54c-.77.77-2.28,1.39-3.37,1.39l-64.63.14c-1.09.01-2.6-.62-3.36-1.38l-9.86-9.86c-.76-.76-1.71-1.06-2.13-.67-.4.4-1.36.09-2.13-.67l-7.62-7.62-78.27-78.48c-.76-.76-.76-2.02.01-2.79l95.69-95.69c.76-.76,2.28-1.39,3.37-1.39l17.2-.06c1.25-.07,2.44-.57,3.37-1.41l32.65-32.65c.77-.77.78-2.01.03-2.8l-18.79-19.03c-.76-.76-1.39-2.28-1.38-3.36l.04-12.43c.07-1.25.57-2.43,1.4-3.37l18.89-18.8c.77-.77,1.4-2.28,1.41-3.37l.23-67.8c.07-1.25.57-2.44,1.41-3.37l11.58-11.58,56.19-56.17c.77-.77,1.39-2.28,1.39-3.36l-.23-206.74c.06-1.24.55-2.43,1.38-3.36l131.73-131.73"/>
            <path class="cls-3" d="m2834.18,712.81l-203.83.06c-1.08,0-2.6.64-3.37,1.4l-103.77,103.77c-.77.77-2.28,1.4-3.37,1.41l-45,.16c-1.09,0-2.6-.62-3.36-1.38l-136.3-136.3c-.76-.76-1.39-2.28-1.38-3.36l.04-10.71c.07-1.25.56-2.43,1.39-3.37l14.58-14.58-.21-29.44v-3.93s.55-184.2.55-184.2c-.06-1.24-.55-2.43-1.38-3.36l-125.87-125.65"/>
            <path class="cls-3" d="m2512.73,636.57l-67.09,67.09c-.77.77-2.28,1.39-3.37,1.41l-21.1.07c-1.08,0-2.6.64-3.37,1.4l-51.61,51.61c-.76.76-2.28,1.39-3.35,1.39l-82.8.03c-1.09,0-2.6.62-3.36,1.38l-73.09,73.09c-.76.76-.76,2.02,0,2.79l10.39,10.39c.77.77,2.02.76,2.79,0l4.72-4.75,28.46-28.46c.77-.77,2.01-.77,2.78,0l40.31,40.31c.76.76,2.28,1.39,3.36,1.38l20.55-.07c1.24.06,2.43.55,3.36,1.38l12.23,12.23c.76.76,2.27,1.38,3.35,1.37l17.41-.06c1.25-.07,2.43-.57,3.37-1.4l12.3-12.3c.77-.77,2.28-1.4,3.37-1.41l58.9-.21c1.25-.07,2.44-.56,3.37-1.39l29.23-29.23"/>
            <path class="cls-3" d="m2265.13,1147.53l-42.31,42.31c-.77.77-2.02.76-2.78,0l-20.32-20.32c-.76-.76-2.28-1.38-3.36-1.38l-71.81.25c-1.08,0-2.6-.62-3.36-1.38l-71.75-71.75-148.12.66"/>
            <path class="cls-3" d="m2339.67,915.55l-.07,17.66c-.02,1.07.87,1.96,1.95,1.95l44.18-.16c1.06-.01,1.95.88,1.95,1.95l-.09,26.11c-.07,1.25-.57,2.43-1.4,3.37l-113.29,113.57-300.22,298.52c-.76.76-2.02.76-2.78,0l-50.56-50.56"/>
            <path class="cls-3" d="m2353.49,646.74l13.11-13.11c.76-.76,2.28-1.39,3.37-1.39l105.61-.37c1.25-.07,2.44-.56,3.37-1.39l27.27-27.27c.76-.76,2.28-1.4,3.36-1.41l66.24-.23,25.89-25.84-10.32-90.93c-.06-1.24-.55-2.43-1.38-3.36l-16.9-16.9"/>
            <path class="cls-3" d="m2129.77,1050.15l.23-66.13c.07-1.25.57-2.44,1.41-3.37l66.92-66.92c.77-.77,2.28-1.39,3.38-1.4l43.08-.19c1.25-.07,2.43-.56,3.37-1.39l24.68-24.73c.76-.76,1.39-2.28,1.39-3.37l.15-41.67c.07-1.25.57-2.43,1.4-3.37l20.44-.14c1.26-.08,2.47-.58,3.41-1.43l111.17-110.82c.78-.78,1.43-2.32,1.44-3.42l.17-39.22c.07-1.25.56-2.45,1.4-3.38l313.07-313.07,62.54-62.83.06-17.53"/>
            <path class="cls-3" d="m2345.01,432.19l-.31,83.92c-.07,1.25-.57,2.43-1.4,3.37l-16.92,16.92c-.76.76-1.39,2.28-1.4,3.37l-.23,65.58c-.07,1.25-.56,2.45-1.4,3.38l-23.71,23.71-108.65,108.67c-.76.76-.77,2.02,0,2.78l79.37,79.37c.76.76,2.27,1.38,3.36,1.38l54.45-.19c1.24.06,2.43.55,3.36,1.38l36.43,36.43c.76.76,2.28,1.38,3.36,1.38l155.66-.55c1.25-.07,2.45-.56,3.38-1.4l127.48-127.77"/>
            <path class="cls-3" d="m2276.98,634.61l26.23-26.23c.76-.76,1.39-2.28,1.39-3.37l.34-97.27c0-1.08-.87-1.96-1.95-1.95l-39.51.22c-1.08,0-2.6.64-3.37,1.4l-44.13,44.13"/>
            <path class="cls-3" d="m2241.85,651.37l3.35,3.35c.76.76,2.02.76,2.79-.01l9.34-9.34c.77-.77,2.28-1.4,3.37-1.4l60.98-.34c1.24.06,2.43.55,3.36,1.38l134.63,134.63c.76.76,1.39,2.28,1.39,3.37l-.11,29.44c.06,1.24.55,2.43,1.38,3.36l67.46,67.46c.76.76,2.27,1.38,3.36,1.38l264.08-.93,29.33,28.48c.76.76,2.26,1.39,3.36,1.38l16.36-.04"/>
            <path class="cls-3" d="m2285.52,348.47l-70.2,70.2c-.77.77-1.39,2.28-1.4,3.38l-1.12,245.42c-.07,1.25-.56,2.45-1.4,3.38l-33.06,33.06c-.76.76-1.4,2.28-1.39,3.34v72.78c.06,1.24.55,2.42,1.39,3.34l142.81,142.81c.76.76,2.27,1.38,3.36,1.38l72.93-.38c1.25-.07,2.45-.56,3.38-1.4l12.69-12.69c.76-.76,2-.77,2.77-.01l31.45,31.45c.76.76,2.02.76,2.78,0l62.67-62.67c.77-.77,2.01-.77,2.78,0l13.58,13.58c.76.76,2.28,1.37,3.35,1.37l251.83-.89"/>
            <path class="cls-3" d="m2210.77,1301.69l53.85-53.85c.76-.76,1.4-2.28,1.4-3.37l.58-129.92c.07-1.25.57-2.43,1.4-3.37l93.3-93.19c.77-.77,1.39-2.28,1.41-3.35l.5-72.9c0-1.08-.87-1.96-1.95-1.95l-29.92.08c-1.08,0-2.6-.62-3.36-1.38l-11.09-11.09"/>
            <path class="cls-3" d="m2222.32,846.35l-38.36,38.36c-.76.76-2.28,1.39-3.37,1.39l-69.11.24c-1.08,0-2.6.64-3.36,1.41l-31.93,31.93c-.76.76-1.4,2.28-1.4,3.37l-.42,117.42c-.07,1.25-.56,2.44-1.39,3.37l-29.85,29.85c-.76.76-2.28,1.39-3.37,1.39l-142.06.5"/>
            <path class="cls-3" d="m2224.67,848.7l-39.34,39.34c-.76.76-2.28,1.39-3.37,1.39l-69.25.24c-1.08,0-2.6.64-3.36,1.41l-29.6,29.66c-.76.76-1.4,2.28-1.4,3.37l-.28,87.51c.06,1.24.55,2.43,1.38,3.36l189.7,189.56c.76.76,2.28,1.39,3.36,1.38l140.77-.37c1.25-.07,2.43-.57,3.37-1.4l258.43-258.43c.76-.76,1.39-2.28,1.39-3.37l.92-223.9c.07-1.25.57-2.44,1.41-3.37l91.64-91.64c.76-.76,1.4-2.28,1.4-3.37l.18-51.73c-.06-1.24-.55-2.43-1.38-3.36l-130.89-130.89"/>
            <path class="cls-3" d="m2212.64,465.57l-24.71.08c-1.08,0-2.6.64-3.37,1.4l-29.71,29.71c-.77.77-1.39,2.28-1.39,3.37l-.13,36.66-86.9,87.33"/>
            <path class="cls-3" d="m2148.59,256.19c0,1.09.62,1.36,1.39.59l140.35-140.35c.76-.77,2-.78,2.78-.02l113.24,113.24c.76.76.75,2.02-.01,2.79l-186.94,186.94c-.77.77-1.39,2.28-1.4,3.38l-.12,33.47c0,1.08.87,1.96,1.95,1.95l113.8-.52c1.08,0,1.35.63.59,1.39l-97.25,97.25c-.77.77-1.4,2.28-1.41,3.37l-.26,75.58c-.07,1.25-.56,2.44-1.39,3.37l-62.49,62.77c-.77.77-1.4,2.28-1.41,3.37l-.27,78.36c.06,1.24.55,2.43,1.38,3.36l75.14,75.14c.76.76.75,2.02-.01,2.79l-20.51,20.51c-.76.76-1.39,2.28-1.39,3.37l-.22,61.04c-.07,1.25-.56,2.44-1.39,3.37l-4.32,4.32c-.77.77-1.4,2.28-1.41,3.37l-.25,74.87c-.07,1.25-.57,2.43-1.4,3.37l-9.62,9.62c-.76.76-2.28,1.39-3.37,1.39l-87.95.31c-1.09,0-2.61.63-3.37,1.39l-52.37,52.37c-.76.76-2.28,1.4-3.36,1.41l-132.56.33"/>
            <path class="cls-3" d="m2245.74,834.49l23.77,23.77c.76.76,2.28,1.39,3.36,1.38l44.31-.16c1.25-.07,2.44-.56,3.37-1.39l26.07-26.07c.76-.76,1.39-2.28,1.39-3.37l.37-104.78c.07-1.25.57-2.43,1.4-3.37l37.11-37.11c.77-.77,2.01-.78,2.79-.01h0s50.56,50.56,50.56,50.56c.76.76,2.01.76,2.78,0l302.39-302.39c.76-.76,1.39-2.28,1.39-3.37l.2-53.4c.07-1.25.56-2.44,1.39-3.37l40.31-40.31c.78-.78,1.41-2.28,1.41-3.37l.07-18.6c.07-1.25.56-2.44,1.39-3.37l9.33-9.33"/>
            <path class="cls-3" d="m2599.38,583.33l-102.17,102.17-54.21,54.03c-.76.76-2.02.77-2.78,0l-50.7-50.7c-.76-.76-2.02-.76-2.78,0l-32.78,32.78c-.76.76-1.39,2.28-1.39,3.37l-.25,104.9c-.07,1.25-.56,2.44-1.39,3.37l-136,136c-.77.77-1.4,2.28-1.41,3.36l-.21,61.42c-.07,1.25-.57,2.43-1.4,3.37l-7.5,7.5c-.76.76-2.28,1.39-3.37,1.39l-88.28.32c-1.09,0-2.61.63-3.37,1.39l-52.23,52.23c-.77.77-2.28,1.39-3.38,1.4l-132.65.46-6.96,6.15c-.59.59-1.1,1.97-1.09,3.05l-10.41,136.78c0,1.08-.88,1.96-1.97,1.97l-8.87.04"/>
            <path class="cls-3" d="m2184.16,705.54c-1,1.12-1.59,2.54-1.68,4.04l-.24,67.56c.07,1.49.66,2.91,1.65,4.02l139.35,139.35c.92.92,2.72,1.66,4.02,1.66l67.56-.24c1.5-.09,2.92-.68,4.03-1.68l69.18-69.18c1.01-1.11,1.6-2.54,1.69-4.04l.23-67.55c-.07-1.49-.66-2.92-1.65-4.03l-139.35-139.35c-.91-.91-2.72-1.66-4.02-1.65l-67.55.23c-1.5.08-2.93.68-4.04,1.68l-69.18,69.18h0Z"/>
            <path class="cls-3" d="m2176.16,765.89l-23.55-23.55c-.76-.76-1.38-2.27-1.38-3.36l.43-123.13c0-1.08-.62-1.34-1.39-.58l-50.08,50.08"/>
            <path class="cls-3" d="m2477.43,823.62l13.34,13.34c.76.76,2.28,1.39,3.36,1.38l43.54-.16c1.25-.07,2.44-.56,3.37-1.39l117.2-117.2"/>
            <path class="cls-3" d="m2090.88,1069.77l179.26,179.26c.76.76,2.28,1.37,3.35,1.37l232.02-.81c1.25-.07,2.43-.57,3.37-1.4l284.58-284.58c.77-.77,1.39-2.28,1.4-3.38l.18-53.12"/>
            <path class="cls-3" d="m2818.35,939.62l.08-17.71c-.07-1.25-.55-2.43-1.36-3.37l-14.91-15.42c-.91-.84-2.09-1.34-3.33-1.41l-266.87.93c-1.08,0-2.6-.62-3.36-1.38l-13.02-13.02c-.76-.76-2.02-.76-2.78,0l-62.13,62.13c-.77.77-2.02.78-2.79.01l-24.52-24.52c-.76-.76-2.01-.76-2.78,0l-16.48,16.48c-.76.76-2.28,1.39-3.37,1.39l-65.05.23c-1.09,0-2.6-.62-3.36-1.38l-98.03-98.03-59.73-59.63c-.76-.76-1.39-2.28-1.39-3.34l.25-75.59c.07-1.25.57-2.43,1.4-3.37l32.92-32.92c.76-.76,1.39-2.28,1.4-3.37l.86-245.16c.07-1.25.57-2.44,1.41-3.37l187.19-187.19c.77-.77.77-2.02,0-2.78l-65.93-65.93c-.76-.76-.75-2.02.01-2.79L2491.47.35"/>
            <path class="cls-3" d="m2280.38,540.34l-.31,89.21c-.07,1.25-.56,2.44-1.39,3.37l-88.15,88.15c-.76.76-1.41,2.26-1.41,3.35l-.28,39.64c.05,1.24.54,2.42,1.36,3.34l26.86,26.86c.76.76.76,2.02,0,2.78l-37.21,37.21c-.77.77-.77,2.02-.01,2.77l36.85,36.85c.76.76,1.38,2.28,1.38,3.36l-.14,41.68c.06,1.24.55,2.43,1.38,3.36l53.74,53.74c.76.76.75,2.02-.01,2.79l-26.8,26.8c-1.56,1.56-1.56,4.09,0,5.66l20.72,20.72c.76.76,1.39,2.28,1.38,3.36l-.25,49.74"/>
            <path class="cls-3" d="m2110.84,1046.84l.21-64.28c.08-1.25.57-2.43,1.41-3.36l159.43-159.43c.77-.77,2.28-1.4,3.37-1.4l115.07-.4c1.25-.07,2.43-.57,3.37-1.4l103.08-103.08c.76-.76,1.39-2.28,1.39-3.37l.08-24.15"/>
            <path class="cls-3" d="m2350.61,431.6l33.16-33.16c.77-.77.78-2.02.02-2.78l-18.84-18.84c-.76-.76-.75-2.01.01-2.77l63.16-63.16"/>
            <path class="cls-3" d="m2646.02,716.86l-13.6.04c-1.08,0-2.6.64-3.37,1.4l-103.63,103.92c-.77.77-2.28,1.39-3.36,1.42l-162.6,1.38c-1.08,0-1.95-.86-1.94-1.94l.11-52.5c0-1.08-.87-1.96-1.95-1.97,0,0,0,0-.01,0l-69.93.24c-1.09,0-2.62.64-3.38,1.4l-97.78,97.78c-.76.76-2.28,1.4-3.37,1.4l-52.51.18c-1.08,0-2.62.64-3.38,1.4l-15.34,15.34"/>
            <path class="cls-3" d="m2494.06,2.94l-153.28,153.28c-.77.77-.76,2.02,0,2.78l70.59,70.59c.76.76.75,2.02-.01,2.79l-188.26,188.26c-.76.76-1.4,2.28-1.4,3.37l-.1,28.44c0,1.08.88,1.97,1.95,1.95l110.95-.35c1.24.06,2.43.55,3.36,1.38l1.11,1.11c.76.76.76,2.01,0,2.78l-98.46,98.43c-.77.77-1.4,2.28-1.41,3.37l-.16,75.79c0,1.07-.35,2.11-1,2.96-.54.54-.37,1.62.39,2.38l4.68,4.68"/>
            <path class="cls-3" d="m2600.2,722.77l-103.1.36c-1.09,0-2.6-.62-3.36-1.38l-32-32c-.76-.76-2.28-1.39-3.36-1.38l-16.94.06c-1.09,0-2.6.62-3.37,1.39l-6.97,6.97c-.77.77-1.39,2.28-1.4,3.38l-.03,8.87c-.07,1.25-.57,2.43-1.4,3.37l-60.68,60.68c-.76.76-1.4,2.28-1.4,3.37l-.31,88.93c-.07,1.25-.56,2.45-1.4,3.38l-114.24,114.24c-.76.76-2.02.76-2.78,0l-126.33-126.33c-.76-.76-1.38-2.27-1.38-3.36l.06-16.09c.07-1.25.57-2.44,1.41-3.37l145.76-145.76c.77-.77,2.01-.78,2.79-.01h0s51.67,51.67,51.67,51.67c.76.76,2.01.76,2.78,0l62.41-62.41c.76-.76,2-.77,2.77-.01l23,23c.76.76,2.02.76,2.78,0,1.41-1.41,2.92-2.03,4.02-2.04l10.48-.04"/>
            <path class="cls-3" d="m2602.8,1195.59l-149.45-149.45c-.76-.76-2.28-1.39-3.36-1.38l-65.85.23c-1.09,0-2.6-.62-3.37-1.39l-25.31-25.31,1.86-1.66c.53-.53.95-1.84.95-2.93l.09-25.82c-.06-1.24-.55-2.43-1.38-3.36l-82.7-82.7c-.76-.76-2.27-1.38-3.34-1.39l-65.84-.04c-1.24-.07-2.42-.56-3.34-1.39l-21.44-21.47c-.76-.76-1.39-2.28-1.38-3.36l.02-6.92c.07-1.25.56-2.44,1.39-3.37l81.37-81.37c.76-.76.78-2.01.01-2.77l-25.46-25.46c-.76-.76-.76-2.02,0-2.78l65.56-65.56c.77-.77,1.39-2.28,1.4-3.38l.09-27.6c.07-1.25.57-2.44,1.41-3.37l44.98-44.98"/>
            <path class="cls-3" d="m2281.48,352.51l-59.63-59.63c-.76-.76-.76-2.02,0-2.78l40.64-40.64c.77-.77.78-2.02.01-2.79l-7.33-7.33c-.76-.76-.76-2.01,0-2.78l76.06-76.06"/>
            <path class="cls-3" d="m2743.37,431.82l-159.82.55c-1.1,0-2.62.64-3.38,1.4l-25.54,25.54c-.76.76-2.28,1.4-3.36,1.41l-289.55,1c-1.08,0-2.6.64-3.37,1.4l-44.39,44.34-20.88,20.88c-.77.77-2.28,1.39-3.37,1.39l-23.04.09c-1.09,0-2.61.63-3.37,1.39l-94.99,94.99"/>
            <path class="cls-3" d="m2394.77,457.8l-.12,34.44c-.07,1.25-.56,2.44-1.39,3.37l-85.93,85.93c-.76.76-2.28,1.39-3.37,1.39l-48.37.17c-1.09,0-2.62.64-3.38,1.4l-38.44,38.44"/>
            <path class="cls-3" d="m2362.32,931.06l30.11-.1c1.24.06,2.43.55,3.36,1.38l235.29,235.29"/>
            <path class="cls-3" d="m2338.09,1077.93l-14.22-14.22c-.76-.76-.75-2.02.01-2.79l66.81-66.81c.76-.76,1.39-2.28,1.39-3.37l.25-70.86c-.06-1.24-.55-2.43-1.38-3.36l-39.89-39.89c-.76-.76-2.28-1.39-3.36-1.38l-14.98.05c-1.08,0-2.6-.62-3.36-1.38l-85.88-85.88c-.76-.76-.76-2.02,0-2.78l130.63-130.63c.76-.76,2.28-1.4,3.37-1.4l29.88-.1.69-21.62c.08-1.25.57-2.43,1.41-3.36l73.36-73.36c.76-.76,1.39-2.28,1.41-3.35l.57-87.26c.08-1.25.58-2.43,1.41-3.35l49.39-49.39c.77-.77,1.39-2.28,1.39-3.37l.35-96.13c.07-1.25.56-2.44,1.39-3.37l24.32-24.32c.77-.77,1.4-2.28,1.41-3.37l.3-86.88c-.06-1.24-.55-2.43-1.38-3.36l-69.31-69.31c-.76-.76-.76-2.02,0-2.78l21.75-21.75c.76-.76,1.39-2.28,1.39-3.37l.24-68.05"/>
            <path class="cls-3" d="m2578.39,512.35l-24.11-24.11c-.76-.76-1.38-2.27-1.38-3.36l.42-79.45c.07-1.25.56-2.44,1.39-3.37l111.65-111.65"/>
            <path class="cls-3" d="m2019.69,1078.75l21.21-.07c1.25-.07,2.45-.56,3.38-1.4l32.56-32.56c.76-.76,1.39-2.28,1.39-3.37l.07-20.44c0-1.08.64-1.34,1.39-.59l24.7,24.7c.76.76,2.27,1.38,3.36,1.38h3.5"/>
            <path class="cls-3" d="m2254.23,1096.42l-38.49-38.49c-.76-.76-2.28-1.39-3.36-1.38l-121.74.42c-1.09,0-2.61.63-3.37,1.39l-69.73,69.73c-.77.77-1.39,2.28-1.39,3.37l.14,32.1c-.07,1.25-.56,2.43-1.39,3.36l-75.22,75.22c-.76.76-.77,2.02,0,2.78l67.32,67.37c.76.76.76,2.02,0,2.78l-27.59,27.59c-.77.77-2.02.77-2.78,0l-34.01-34.01"/>
            <path class="cls-3" d="m2742.91,434.07l3.54-3.54c.78-.78,2.29-1.4,3.38-1.4l24.96-.1c1.25-.07,2.44-.56,3.37-1.39l11.95-11.95c.77-.77,2.28-1.4,3.37-1.41l78.42-.27c1.25-.07,2.45-.56,3.38-1.4l10.74-10.74"/>
            <path class="cls-3" d="m2239.88,1269.4l-27.05.1c-1.07,0-2.6.63-3.36,1.39l-125.45,125.45c-.77.77-2.02.77-2.78,0l-71.3-71.3c-1.17-1.17-3.07-1.17-4.24,0l-25.75,25.75c-.76.76-2.02.77-2.78,0l-38.64-38.64"/>
            <path class="cls-3" d="m2419.05,138.93l-171.2,171.2c-.76.76-.77,2.02,0,2.78l87.6,87.6c.76.76,2.02.76,2.78,0l21.3-21.3c.77-.77,2.01-.78,2.79-.01h0s18.92,18.92,18.92,18.92c.76.76,2.01.76,2.78,0l14.76-14.76"/>
            <path class="cls-3" d="m2332.32,653.67l-6.75,6.75c-.77.77-1.39,2.28-1.39,3.37l-.28,67.92c-.07,1.25-.57,2.44-1.41,3.37l-17.15,17.15c-.76.76-2.28,1.39-3.37,1.4l-32.78.11c-1.08,0-2.6.64-3.37,1.4l-78.53,78.53c-.77.77-.77,2.02,0,2.78l38.51,38.51c.76.76,2.28,1.39,3.34,1.36l28.56-.22,3.93-.03h1.65c1.25-.08,2.43-.57,3.37-1.41l8.24-8.24c.77-.77,2.01-.77,2.78,0l52.11,52.11c.76.76.76,2.01,0,2.78l-54.72,54.72"/>
            <path class="cls-3" d="m2747.63,371.17l-78.62-78.62c-.76-.76-2.27-1.38-3.36-1.38l-69.13.25c-1.08,0-2.6.62-3.37,1.39l-15.41,15.41c-.76.76-2.28,1.4-3.37,1.4l-159.25.55c-1.1,0-2.62.64-3.38,1.4l-120.63,120.63c-.76.76-2.01.78-2.77.01l-42.72-42.72"/>
          </g>
          <g>
            <g>
              <path class="cls-4" d="m965.49,448.22l-17.21-17.37,17.21-17.36h17.99l-17.21,17.36,17.21,17.37h-17.99Zm-278.3,25.05h392.27l-16.74,17.06h54.53l137.01-138.25h112.86l-34.57-35.28h-99.61l-148.67,151.56h-395.05l-60.19-60.74H247.16l4.8,4.9h375.04l60.19,60.74Zm59.05,229.62h157.23l37.84-38.57h362.2l4.81-4.9h-362.19l131.24-133.8h147.97l40.51-40.88h149.37l-19.47-19.64-23.64-23.85h82.4l-4.8-4.9h-219.22l77.85-79.36h-52.05l-137,138.25h-61.36l-145.45,148.28h-158.7l13.33,13.62h132.02l-10.3,10.49h-127.9l-132.41-134.99h-79.21l-21.35-21.83-28.13-28.75h-179.7l84.15,85.86h209.58l132.42,134.99Zm521.63-213.25l-35.66,35.98h527.32l-35.66-35.98h-456.01Zm-211.82-41.42h17.98l-17.2-17.37,17.2-17.36h-17.98l-17.21,17.36,17.21,17.37Zm-6.83,0l-17.21-17.37,17.21-17.36h-17.99l-17.21,17.36,17.21,17.37h17.99Zm233.58,230.49h-11.42v8.86h11.42v-8.86Zm-21.82,0h-15.63v8.86h15.63v-8.86Zm-29.77,0h-26.68v8.86h26.68v-8.86Zm-172.63,0h-105.73v8.86h105.73v-8.86Zm81.65,0h-67.5v8.86h67.5v-8.86Zm50.15,0h-36.01v8.86h36.01v-8.86Zm529.98,0h-11.42v8.86h11.42v-8.86Zm642.36-271.09l-60.19,60.74h-395.05l-148.67-151.56h-99.62l-34.57,35.28h112.86l137.01,138.25h54.53l-16.74-17.06h392.27l60.19-60.74h375.04l4.8-4.9h-381.86Zm-323.84,271.09h-105.73v8.86h105.73v-8.86Zm-12.64-230.49l17.21-17.37-17.21-17.36h-17.99l17.21,17.36-17.21,17.37h17.99Zm465.69,33.82l-28.13,28.75-21.35,21.83h-79.21l-132.42,134.99h-127.9l-10.3-10.49h132.02l13.33-13.62h-158.7l-145.45-148.28h-61.36l-137-138.25h-52.05l77.85,79.36h-219.23l-4.8,4.9h82.4l-23.64,23.85-19.47,19.64h149.37l40.51,40.88h147.97l131.24,133.8h-362.19l4.81,4.9h362.2l37.83,38.57h157.23l132.42-134.99h209.58l84.15-85.86h-179.7Zm-556.25-33.82l17.21-17.37-17.21-17.36h-17.98l17.2,17.36-17.2,17.37h17.98Zm-16.68,230.49h-67.5v8.86h67.5v-8.86Zm-81.65,0h-36.01v8.86h36.01v-8.86Zm-90.98,0h-15.63v8.86h15.63v-8.86Zm196.14-230.49h17.99l17.21-17.37-17.21-17.36h-17.99l17.21,17.36-17.21,17.37Zm-155.31,230.49h-26.68v8.86h26.68v-8.86Zm-714.49,196.37h67.5v-8.86h-67.5v8.86Zm131.8,0h26.68v-8.86h-26.68v8.86Zm-50.15,0h36.01v-8.86h-36.01v8.86Zm90.98,0h15.63v-8.86h-15.63v8.86Zm150.39,213.62l19.47-19.64h-149.37l-40.51-40.88h-147.97l-131.24-133.8h362.19l-4.81-4.9h-362.2l-37.84-38.57h-157.23l-132.42,134.99h-86.18l34.57,35.27h66.28l132.41-134.99h127.9l10.3,10.49h-132.02l-13.33,13.62h158.7l145.45,148.28h61.36l137,138.25h52.05l-77.85-79.36h219.22l4.8-4.9h-82.4l23.64-23.86Zm-442.89-213.62h105.73v-8.86h-105.73v8.86Zm318.52,0h11.42v-8.86h-11.42v8.86Zm-17.12,326.63l-137.01-138.25h-54.53l16.74,17.06h-392.27l-33.58,33.89,3.42,3.49,32.18-32.48h395.05l148.67,151.56h99.61l34.57-35.28h-112.86Zm-198.21-96.14l-17.21,17.37,17.21,17.36h17.98l-17.2-17.36,17.2-17.37h-17.98Zm-90.55,0l-17.21,17.37,17.21,17.36h17.99l-17.21-17.36,17.21-17.37h-17.99Zm83.73,0h-17.99l-17.21,17.37,17.21,17.36h17.99l-17.21-17.36,17.21-17.37Zm883.95-230.5h105.73v-8.86h-105.73v8.86Zm-224.22,0h11.42v-8.86h-11.42v8.86Zm21.81,0h15.63v-8.86h-15.63v8.86Zm29.77,0h26.68v-8.86h-26.68v8.86Zm90.98,0h67.5v-8.86h-67.5v8.86Zm-127.64,189.08l35.66-35.98h-527.32l35.66,35.98h456.01Zm77.48-189.08h36.01v-8.86h-36.01v8.86Zm141.16,230.5l17.21,17.37-17.21,17.36h17.99l17.21-17.36-17.21-17.37h-17.99Zm-6.83,0h-17.98l17.2,17.37-17.2,17.36h17.98l17.21-17.36-17.21-17.37Zm-23.41-25.05l16.74-17.06h-54.53l-137.01,138.25h-112.86l34.57,35.28h99.62l148.67-151.56h395.05l32.18,32.48,3.42-3.49-33.58-33.89h-392.27Zm95.97,25.05l17.21,17.37-17.21,17.36h17.99l17.21-17.36-17.21-17.37h-17.99Zm237.25-254.67h-157.23l-37.83,38.57h-362.2l-4.81,4.9h362.19l-131.24,133.8h-147.97l-40.51,40.88h-149.37l19.47,19.64,23.64,23.86h-82.4l4.8,4.9h219.23l-77.85,79.36h52.05l137-138.25h61.36l145.45-148.28h158.7l-13.33-13.62h-132.02l10.3-10.49h127.9l132.42,134.99h66.28l34.57-35.27h-86.18l-132.42-134.99Z"/>
              <g class="cls-6">
                <rect class="cls-4" x="2384.48" y="914.45" width="14.59" height="14.59"/>
                <polygon class="cls-4" points="1528.68 863.92 1517.96 874.75 1528.68 885.57 1539.9 885.57 1529.17 874.75 1539.9 863.92 1528.68 863.92"/>
                <rect class="cls-4" x="2434.98" y="914.45" width="14.59" height="14.59"/>
                <polygon class="cls-4" points="1802.68 891.38 1872.25 821.18 2284.14 821.18 2250.17 786.9 2105.15 786.9 1736.71 786.9 1627.48 897.13 1364.26 897.13 1255.03 786.9 886.59 786.9 741.58 786.9 707.61 821.18 1119.49 821.18 1189.06 891.38 525.94 891.38 490.98 926.66 494.24 929.98 527.86 896.05 1193.69 896.05 1228.74 931.41 1258.72 931.41 1733.02 931.41 1763.01 931.41 1798.05 896.05 2463.88 896.05 2497.5 929.98 2500.76 926.66 2465.8 891.38 1802.68 891.38"/>
                <polygon class="cls-4" points="2675.86 734.77 2673.7 734.77 2574.5 734.77 2522.17 787.58 2344.92 787.58 2294.44 736.12 2174.45 736.12 2155.48 736.12 1995.21 736.12 1852.97 592.59 1566.79 592.59 1424.95 592.59 1138.78 592.59 996.53 736.12 836.26 736.12 817.29 736.12 697.3 736.12 646.82 787.58 469.57 787.58 417.24 734.77 318.04 734.77 315.88 734.77 302.91 734.77 387.61 821.18 401.52 821.18 502.88 821.18 613.86 821.18 695.28 821.18 701.05 821.18 739.65 782.24 881.96 782.24 863.41 763.52 840.89 740.79 998.46 740.79 1140.71 597.25 1166.61 597.25 1174.28 605.09 1183.86 614.89 1321.56 614.89 1328.26 614.89 1337.84 605.09 1345.52 597.25 1420.38 597.25 1571.37 597.25 1646.22 597.25 1653.9 605.09 1663.48 614.89 1670.18 614.89 1807.88 614.89 1817.46 605.09 1825.14 597.25 1851.03 597.25 1993.28 740.79 2150.86 740.79 2128.33 763.52 2109.78 782.24 2252.09 782.24 2290.69 821.18 2296.46 821.18 2377.88 821.18 2488.86 821.18 2590.22 821.18 2604.13 821.18 2688.83 734.77 2675.86 734.77"/>
                <polygon class="cls-4" points="1579.81 863.92 1569.08 874.75 1579.81 885.57 1591.01 885.57 1580.29 874.75 1591.01 863.92 1579.81 863.92"/>
                <polygon class="cls-4" points="1605.37 863.92 1594.64 874.75 1605.37 885.57 1616.57 885.57 1605.85 874.75 1616.57 863.92 1605.37 863.92"/>
                <rect class="cls-4" x="2409.73" y="914.45" width="14.59" height="14.59"/>
                <polygon class="cls-4" points="1554.25 863.92 1543.52 874.75 1554.25 885.57 1565.45 885.57 1554.73 874.75 1565.45 863.92 1554.25 863.92"/>
                <rect class="cls-4" x="542.17" y="914.45" width="14.59" height="14.59"/>
                <rect class="cls-4" x="592.67" y="914.45" width="14.59" height="14.59"/>
                <rect class="cls-4" x="567.42" y="914.45" width="14.59" height="14.59"/>
                <polygon class="cls-4" points="1463.06 885.57 1473.78 874.75 1463.06 863.92 1451.85 863.92 1462.58 874.75 1451.85 885.57 1463.06 885.57"/>
                <polygon class="cls-4" points="1437.5 885.57 1448.22 874.75 1437.5 863.92 1426.29 863.92 1437.01 874.75 1426.29 885.57 1437.5 885.57"/>
                <polygon class="cls-4" points="1386.37 885.57 1397.1 874.75 1386.37 863.92 1375.17 863.92 1385.89 874.75 1375.17 885.57 1386.37 885.57"/>
                <polygon class="cls-4" points="1411.93 885.57 1422.66 874.75 1411.93 863.92 1400.73 863.92 1411.45 874.75 1400.73 885.57 1411.93 885.57"/>
              </g>
            </g>
            <path class="cls-1" d="m1427.3,682.01s-50.1,55.33-56.05,69.38l138.76-45.41s5.23,32.26-45.77,39.29c-51,7.03-53.7-.9-72.99,19.28,0,0-7.75,8.65-10.81,29.01,0,0-1.08,13.7-5.05,19.82,0,0,18.92-22.89,40.55-32.26,0,0-11.89,6.85-13.88,9.91l38.64-1.08s4.25-25.59,55.43-17.48l23.61-5.23,100.74-94.43-53.7,25.95,3.96-23.25,35.86-34.96s-138.58,56.05-179.31,41.45Z"/>
            <path class="cls-2" d="m1372.88,811.76c2.91-4.49,4.29-14.83,4.57-18.43v-.1s.02-.1.02-.1c3.16-21.01,11.2-30.19,11.55-30.57,14.35-15.02,20.89-15.47,40.32-16.82,8.12-.56,19.24-1.33,34.49-3.43,18.25-2.52,31.01-8.53,37.92-17.88,4.05-5.48,5.14-10.9,5.37-14.33l-141.2,46.21,2.57-6.07c6.08-14.36,54.53-67.95,56.59-70.23l1.35-1.49,1.89.68c4.17,1.49,9.75,2.25,16.6,2.25,52.02,0,159.49-43.22,160.57-43.66l14.14-5.72-46.09,44.93-2.82,16.55,66.16-31.97-115.68,108.44-24.97,5.53-.56-.09c-6.49-1.03-12.55-1.55-18.01-1.55-30.54,0-33.87,15.91-34,16.59l-.45,2.38-2.42.1-40.63,1.14c-12.9,9.74-22.32,21.04-22.45,21.2l-4.83-3.54Z"/>
          </g>
        </g>
      </g>
    </g>
  </g>
</svg>