<?xml version="1.0" encoding="utf-8"?>
<!-- Generator: Adobe Illustrator 27.1.1, SVG Export Plug-In . SVG Version: 6.00 Build 0)  -->
<svg version="1.1" id="Layer_2_00000003070597391821060220000012080706376585493162_"
	 xmlns="http://www.w3.org/2000/svg" xmlns:xlink="http://www.w3.org/1999/xlink" x="0px" y="0px" viewBox="0 0 763 182"
	 style="enable-background:new 0 0 763 182;" xml:space="preserve">
<style type="text/css">
	.st0{fill:#FFFFFF;}
</style>
<g id="Layer_2-2_00000045602001959147820750000006105133057739023790_">
	<g id="Layer_2-2">
		<g>
			<path class="st0" d="M474.5,182H0V0h763l-99,100.8H555.7L474.5,182L474.5,182L474.5,182z M9.8,172.2h460.7L551.6,91h108.2
				l79.8-81.2H9.8V172.2z"/>
			<polygon class="st0" points="628.1,15.3 704.4,17.5 623.9,18.9 700.8,21.1 620.3,22.6 697.2,24.8 616.6,26.2 693.5,28.4 
				613,29.8 689.9,32 609.4,33.5 686.3,35.7 605.7,37.1 682.6,39.3 602.1,40.7 679,42.9 598.5,44.4 675.4,46.6 594.8,48 671.7,50.2 
				591.2,51.6 668.1,53.8 587.6,55.3 664.5,57.5 583.9,58.9 660.8,61.1 580.3,62.5 657.2,64.7 576.7,66.2 653.6,68.4 573,69.8 
				649.9,72 569.4,73.4 646.3,75.6 565.8,77.1 642.7,79.3 562.1,80.7 639,82.9 561.6,84.3 657,84.3 724.8,15.3 			"/>
			<polygon class="st0" points="569.1,105.6 492.7,182 534.3,182 610.7,105.6 			"/>
		</g>
		<polygon class="st0" points="540.9,91 466.6,165.4 34.8,165.4 		"/>
		<g>
			<path class="st0" d="M69.7,64c-1.5,5.4-5,7.6-10.5,7.6H40.6c-5.5,0-7-2.5-5.7-6.9c0.2-0.5,0.6-0.9,1.2-0.9h3.5
				c0.6,0,0.8,0.3,0.7,0.9c-0.1,1.4,0.7,2,2.4,2h17.6c2.1,0,3.4-0.8,4.1-2.9c0.5-1.7,0.3-3.2-2.3-3.3l-17.4-1c-5.7-0.3-7.3-3.2-6-8
				c1.6-5.4,5-7.6,10.5-7.6h17.9c5.5,0,6.9,2.5,5.7,6.9c-0.2,0.5-0.5,0.9-1.2,0.9h-3.5c-0.6,0-0.8-0.3-0.7-0.9c0.1-1.4-0.7-2-2.3-2
				h-17c-2.1,0-3.5,0.8-4.1,2.9c-0.5,1.7-0.3,3.2,2.4,3.4L63.7,56C69.4,56.3,71.1,59.2,69.7,64z"/>
			<path class="st0" d="M80.9,44.1h4.3c0.4,0,0.5,0.2,0.4,0.6l-7.5,26.1c-0.1,0.4-0.4,0.6-0.8,0.6H73c-0.4,0-0.5-0.2-0.4-0.6
				l7.5-26.1C80.2,44.3,80.5,44.1,80.9,44.1z"/>
			<path class="st0" d="M121.8,51.2l-1.7,5.9c-1,3.5-3,5.9-6.1,6.7l2.6,6.7c0.2,0.5-0.4,1-1,1h-3.9c-0.5,0-0.6-0.2-0.8-0.6l-2.6-6.6
				H90.6L88.7,71c-0.1,0.4-0.4,0.6-0.8,0.6h-4.3c-0.4,0-0.5-0.2-0.4-0.6l7.5-26.1c0.1-0.4,0.4-0.6,0.7-0.6h25.4
				C121.6,44.1,123.1,46.7,121.8,51.2z M114.2,48.9H95l-3,10.4h19.4c1.8,0,2.8-0.7,3.4-2.7l1.4-5.1
				C116.7,49.6,116.1,48.9,114.2,48.9z"/>
			<path class="st0" d="M129.8,44.1h4.3c0.4,0,0.5,0.2,0.4,0.6L127,70.8c-0.1,0.4-0.4,0.6-0.8,0.6h-4.3c-0.4,0-0.5-0.2-0.4-0.6
				l7.5-26.1C129.1,44.3,129.4,44.1,129.8,44.1z"/>
			<path class="st0" d="M141.3,51.9v-6.8c0-0.7,0.3-1,1-1h2.5c0.4,0,0.5,0.1,0.5,0.5v1.1c0,0.4-0.2,0.5-0.5,0.5h-1.2v5.6
				c0,0.4-0.1,0.5-0.5,0.5h-1.2C141.5,52.4,141.3,52.2,141.3,51.9z"/>
			<path class="st0" d="M149,64.6V50.9c0-4.6,2.3-6.9,7.2-6.9h20.6c4.8,0,7.1,2.3,7.1,6.9v0.8c0,0.3-0.1,0.5-0.4,0.5h-1.7
				c-0.4,0-0.5-0.2-0.5-0.5v-0.5c0-3.4-1.5-4.9-5-4.9h-19.7c-3.5,0-5,1.4-5,4.9v13.1c0,3.5,1.5,4.9,5,4.9h19.9
				c3.5,0,4.9-1.4,4.9-4.9v-3.7H169c-0.4,0-0.6-0.2-0.6-0.6v-1.2c0-0.4,0.2-0.5,0.6-0.5h14.3c0.4,0,0.6,0.3,0.6,0.6v5.9
				c0,4.6-2.3,6.9-7.2,6.9h-20.6C151.4,71.6,149,69.3,149,64.6z"/>
			<path class="st0" d="M224,71.4h-1.8c-0.4,0-0.5-0.2-0.8-0.6l-3.1-4.7h-25.7l-3.1,4.7c-0.3,0.4-0.4,0.6-0.8,0.6H187
				c-0.4,0-0.7-0.2-0.4-0.6l17.1-26.1c0.2-0.4,0.4-0.6,0.8-0.6h2.1c0.4,0,0.5,0.2,0.7,0.6l17.1,26.1C224.7,71.2,224.4,71.4,224,71.4
				z M216.8,63.8l-11.2-17h-0.4l-11.2,17H216.8z"/>
			<path class="st0" d="M228.6,70.9V44.6c0-0.4,0.2-0.5,0.5-0.5h2.9c0.4,0,0.5,0.2,0.8,0.6l14.9,24h0.4l14.9-24
				c0.2-0.4,0.4-0.6,0.8-0.6h2.9c0.4,0,0.6,0.2,0.6,0.5v26.2c0,0.4-0.2,0.5-0.6,0.5h-1.5c-0.4,0-0.5-0.2-0.5-0.5V47.1h-0.3
				l-14.8,23.8c-0.2,0.4-0.4,0.5-0.7,0.5H247c-0.4,0-0.5-0.2-0.8-0.5l-14.8-23.8h-0.3v23.8c0,0.4-0.2,0.5-0.5,0.5h-1.5
				C228.7,71.4,228.6,71.2,228.6,70.9z"/>
			<path class="st0" d="M303.7,69.6v1.2c0,0.4-0.2,0.6-0.6,0.6h-30.3c-0.4,0-0.5-0.2-0.5-0.5V44.6c0-0.4,0.2-0.5,0.5-0.5H303
				c0.4,0,0.6,0.2,0.6,0.6v1.2c0,0.4-0.2,0.6-0.6,0.6h-28.1v10.1h27.7c0.4,0,0.6,0.2,0.6,0.6v1.2c0,0.4-0.2,0.6-0.6,0.6h-27.7v10
				h28.3C303.5,69,303.7,69.2,303.7,69.6z"/>
			<path class="st0" d="M307.8,64.6V50.9c0-4.6,2.3-6.9,7.2-6.9h20.6c4.8,0,7.2,2.3,7.2,6.9v13.7c0,4.6-2.4,6.9-7.2,6.9H315
				C310.2,71.6,307.8,69.3,307.8,64.6z M335.2,69.2c3.5,0,4.9-1.4,4.9-4.9V51.2c0-3.4-1.4-4.9-4.9-4.9h-19.9c-3.5,0-5,1.4-5,4.9
				v13.1c0,3.5,1.5,4.9,5,4.9C315.3,69.2,335.2,69.2,335.2,69.2z"/>
			<path class="st0" d="M347.7,70.9V44.6c0-0.4,0.2-0.5,0.5-0.5h2.6c0.3,0,0.5,0.2,0.7,0.4l26.2,24.2h0.3v-24c0-0.4,0.2-0.5,0.5-0.5
				h1.5c0.4,0,0.5,0.2,0.5,0.5v26.2c0,0.4-0.2,0.5-0.5,0.5h-2.6c-0.3,0-0.5-0.2-0.7-0.4l-26.2-24.2h-0.3v24c0,0.4-0.2,0.5-0.5,0.5
				h-1.5C347.8,71.4,347.7,71.2,347.7,70.9z"/>
			<path class="st0" d="M388,44.6v6.8c0,0.7-0.3,1-1,1h-2.5c-0.4,0-0.5-0.1-0.5-0.5v-1.1c0-0.4,0.1-0.5,0.5-0.5h1.2v-5.6
				c0-0.4,0.1-0.5,0.5-0.5h1.2C387.9,44.1,388,44.2,388,44.6z"/>
		</g>
	</g>
</g>
</svg>
