<?xml version="1.0" encoding="utf-8"?>
<!-- Generator: Adobe Illustrator 27.1.1, SVG Export Plug-In . SVG Version: 6.00 Build 0)  -->
<svg version="1.1" id="Layer_2_00000173874554010463915710000014580810118947893948_"
	 xmlns="http://www.w3.org/2000/svg" xmlns:xlink="http://www.w3.org/1999/xlink" x="0px" y="0px" viewBox="0 0 763 182"
	 style="enable-background:new 0 0 763 182;" xml:space="preserve">
<style type="text/css">
	.st0{fill:#FFFFFF;}
</style>
<g id="Layer_2-2_00000045602001959147820750000006105133057739023790_">
	<g id="Layer_2-2">
		<g>
			<path class="st0" d="M474.5,182H0V0h763l-99,100.8H555.7L474.5,182L474.5,182L474.5,182z M9.8,172.2h460.7L551.6,91h108.2
				l79.8-81.2H9.8V172.2z"/>
			<polygon class="st0" points="628.1,15.3 704.4,17.5 623.9,18.9 700.8,21.1 620.3,22.6 697.2,24.8 616.6,26.2 693.5,28.4 
				613,29.8 689.9,32 609.4,33.5 686.3,35.7 605.7,37.1 682.6,39.3 602.1,40.7 679,42.9 598.5,44.4 675.4,46.6 594.8,48 671.7,50.2 
				591.2,51.6 668.1,53.8 587.6,55.3 664.5,57.5 583.9,58.9 660.8,61.1 580.3,62.5 657.2,64.7 576.7,66.2 653.6,68.4 573,69.8 
				649.9,72 569.4,73.4 646.3,75.6 565.8,77.1 642.7,79.3 562.1,80.7 639,82.9 561.6,84.3 657,84.3 724.8,15.3 			"/>
			<polygon class="st0" points="569.1,105.6 492.7,182 534.3,182 610.7,105.6 			"/>
		</g>
		<polygon class="st0" points="540.9,91 466.6,165.4 34.8,165.4 		"/>
		<g>
			<path class="st0" d="M69.6,63.8c-1.5,5.4-5,7.6-10.5,7.6H40.5c-5.5,0-7-2.5-5.7-6.9c0.2-0.5,0.6-0.9,1.2-0.9h3.5
				c0.6,0,0.8,0.3,0.7,0.9c-0.1,1.4,0.7,2,2.4,2h17.6c2.1,0,3.4-0.8,4.1-2.9c0.5-1.7,0.3-3.2-2.3-3.3l-17.4-1c-5.7-0.3-7.3-3.2-6-8
				c1.6-5.4,5-7.6,10.5-7.6h18c5.5,0,7,2.5,5.7,6.9c-0.2,0.5-0.5,0.9-1.2,0.9h-3.5c-0.6,0-0.8-0.3-0.7-0.9c0.1-1.4-0.7-2-2.3-2H48
				c-2.1,0-3.5,0.8-4.1,2.9c-0.5,1.7-0.3,3.2,2.4,3.4l17.3,0.9C69.3,56.1,71,59,69.6,63.8z"/>
			<path class="st0" d="M80.8,43.9h4.3c0.4,0,0.5,0.2,0.4,0.6l-7.5,26.2c-0.1,0.4-0.4,0.6-0.8,0.6H73c-0.4,0-0.5-0.2-0.4-0.6
				l7.5-26.2C80.2,44.1,80.5,43.9,80.8,43.9z"/>
			<path class="st0" d="M121.8,51l-1.7,5.9c-1,3.5-3,5.9-6.1,6.7l2.6,6.7c0.2,0.5-0.4,1-1,1h-3.9c-0.5,0-0.6-0.2-0.8-0.6l-2.6-6.6
				H90.6l-1.9,6.7c-0.1,0.4-0.4,0.6-0.8,0.6h-4.3c-0.4,0-0.5-0.2-0.4-0.6l7.5-26.2c0.1-0.4,0.4-0.6,0.7-0.6h25.5
				C121.7,43.9,123.1,46.5,121.8,51z M114.2,48.8H94.9l-3,10.4h19.4c1.8,0,2.8-0.7,3.4-2.7l1.4-5.1
				C116.7,49.5,116.1,48.8,114.2,48.8z"/>
			<path class="st0" d="M129.8,43.9h4.3c0.4,0,0.5,0.2,0.4,0.6L127,70.7c-0.1,0.4-0.4,0.6-0.8,0.6h-4.3c-0.4,0-0.5-0.2-0.4-0.6
				l7.5-26.2C129.2,44.1,129.4,43.9,129.8,43.9z"/>
			<path class="st0" d="M141.4,51.7v-6.8c0-0.7,0.3-1,1-1h2.5c0.4,0,0.5,0.1,0.5,0.5v1.1c0,0.4-0.2,0.5-0.5,0.5h-1.2v5.6
				c0,0.4-0.1,0.5-0.5,0.5h-1.2C141.5,52.2,141.4,52.1,141.4,51.7z"/>
			<path class="st0" d="M149.3,64.3V44.5c0-0.4,0.2-0.5,0.5-0.5h1.5c0.4,0,0.5,0.2,0.5,0.5v19.5c0,3.5,1.4,4.9,5,4.9h19.9
				c3.5,0,4.9-1.4,4.9-4.9V44.5c0-0.4,0.2-0.5,0.5-0.5h1.5c0.4,0,0.6,0.2,0.6,0.5v19.8c0,4.6-2.3,7-7.2,7h-20.6
				C151.6,71.2,149.3,68.9,149.3,64.3z"/>
			<path class="st0" d="M221.1,71.2h-1.5c-0.3,0-0.5-0.1-0.7-0.4l-5-7.5h-22v7.4c0,0.4-0.2,0.5-0.5,0.5h-1.5c-0.4,0-0.5-0.2-0.5-0.5
				V44.5c0-0.4,0.2-0.5,0.5-0.5h24.4c4.8,0,7.2,2.3,7.2,7v5.5c0,3.8-1.6,6.1-4.8,6.7l4.9,7.4C221.8,71,221.5,71.2,221.1,71.2z
				 M191.9,60.9h22c3.5,0,4.9-1.4,4.9-4.9v-4.9c0-3.4-1.4-4.9-4.9-4.9h-22V60.9z"/>
			<path class="st0" d="M259.3,63.1v1.1c0,5.2-2.8,7.1-7.8,7.1h-24.3c-0.4,0-0.6-0.2-0.6-0.6V44.5c0-0.4,0.2-0.6,0.6-0.6h24.4
				c4.6,0,6.7,2.1,6.7,6.8v0.8c0,2.5-0.7,4.2-2.5,5.2v0.4C258.1,58,259.3,59.8,259.3,63.1z M251.3,46.3h-22.2v9.8h22.2
				c3,0,4.3-1.2,4.3-4.5v-0.8C255.7,47.3,254.3,46.3,251.3,46.3z M256.7,63.2c0-4-1.8-4.9-5.3-4.9h-22.3v10.6h22.3
				c3.5,0,5.3-0.9,5.3-4.7V63.2z"/>
			<path class="st0" d="M299.8,71.2H298c-0.4,0-0.5-0.2-0.8-0.6l-3.1-4.7h-25.7l-3.1,4.7c-0.3,0.4-0.4,0.6-0.8,0.6h-1.8
				c-0.4,0-0.7-0.2-0.4-0.6l17.1-26.1c0.2-0.4,0.4-0.6,0.8-0.6h2.1c0.4,0,0.5,0.2,0.7,0.6l17.1,26.1C300.4,71,300.2,71.2,299.8,71.2
				z M292.6,63.6l-11.2-17H281l-11.2,17H292.6z"/>
			<path class="st0" d="M304.3,70.7V44.5c0-0.4,0.2-0.5,0.5-0.5h2.6c0.3,0,0.5,0.2,0.7,0.4l26.2,24.2h0.3V44.5
				c0-0.4,0.2-0.5,0.5-0.5h1.5c0.4,0,0.5,0.2,0.5,0.5v26.2c0,0.4-0.2,0.5-0.5,0.5h-2.6c-0.3,0-0.5-0.2-0.7-0.4l-26.2-24.2h-0.3v24.1
				c0,0.4-0.2,0.5-0.5,0.5h-1.5C304.5,71.2,304.3,71.1,304.3,70.7z"/>
			<path class="st0" d="M356.6,70.6l-15.2-26c-0.3-0.5,0-0.7,0.4-0.7h3.4c0.4,0,0.6,0.2,0.8,0.7l12.9,22.1h0.5l13.7-22.1
				c0.3-0.4,0.4-0.7,0.9-0.7h3.5c0.4,0,0.6,0.2,0.9,0.7l13.7,22.1h0.5l12.9-22.1c0.2-0.4,0.4-0.7,0.8-0.7h3.4c0.4,0,0.6,0.2,0.4,0.7
				l-15.1,26c-0.2,0.4-0.4,0.6-0.8,0.6h-3.4c-0.4,0-0.5-0.2-0.8-0.6l-14.1-22.8l-14.1,22.8c-0.2,0.4-0.4,0.6-0.8,0.6h-3.4
				C357.1,71.2,356.9,71,356.6,70.6z"/>
			<path class="st0" d="M445.8,68.2v2.4c0,0.4-0.2,0.6-0.6,0.6h-30.5c-0.4,0-0.6-0.2-0.6-0.6V44.5c0-0.4,0.2-0.6,0.6-0.6H445
				c0.4,0,0.6,0.2,0.6,0.6v2.4c0,0.4-0.2,0.6-0.6,0.6h-26.9v8.3h26.5c0.4,0,0.6,0.2,0.6,0.6v2.4c0,0.4-0.2,0.6-0.6,0.6h-26.5v8.3
				h27.1C445.6,67.7,445.8,67.8,445.8,68.2z"/>
			<path class="st0" d="M488.1,71.2h-3.4c-0.4,0-0.5-0.2-0.8-0.7l-2.8-4.3H457l-2.8,4.3c-0.3,0.4-0.4,0.7-0.8,0.7H450
				c-0.4,0-0.7-0.2-0.4-0.7l16.9-26c0.2-0.4,0.4-0.6,0.8-0.6h3.3c0.4,0,0.6,0.2,0.8,0.6l16.9,26C488.8,71,488.5,71.2,488.1,71.2z
				 M478.8,62.8l-9.5-14.6h-0.4l-9.5,14.6H478.8z"/>
			<path class="st0" d="M524.9,71.2h-2.7c-0.4,0-0.6-0.2-0.9-0.5l-4.7-7h-19.9v7c0,0.4-0.2,0.6-0.5,0.6h-2.9c-0.4,0-0.6-0.2-0.6-0.6
				V44.5c0-0.4,0.2-0.6,0.6-0.6h24.9c4.8,0,7.1,2.5,7.1,7v5.7c0,3.6-1.4,5.9-4.5,6.7l4.7,7C525.8,70.9,525.5,71.2,524.9,71.2z
				 M496.7,60h20.7c2.7,0,3.8-1.1,3.8-3.8v-5c0-2.7-1.2-3.8-3.8-3.8h-20.7V60z"/>
			<path class="st0" d="M532.9,44.4v6.8c0,0.7-0.3,1-1,1h-2.5c-0.4,0-0.5-0.1-0.5-0.5v-1.1c0-0.4,0.1-0.5,0.5-0.5h1.2v-5.6
				c0-0.4,0.1-0.5,0.5-0.5h1.2C532.8,43.9,532.9,44,532.9,44.4z"/>
		</g>
	</g>
</g>
</svg>
